<svg xmlns="http://www.w3.org/2000/svg" width="110.00" height="70.00" viewBox="120.00 50.00 110.00 70.00"><g id="paper"><path d="M120 50h110v70h-110z" fill="#F4EFE3"/></g><g id="jade"></g><g id="red"></g><g id="gold"><path d="M130 0l6.28 -3.09 .22 .45 .22 .45 .23 .45 .22 .45 .25 .52 .22 .47 .22 .46 .21 .45 .22 .45 .25 .54 .21 .45 .21 .46 .2 .46 .22 .48 .23 .51 .21 .46 .2 .45 .2 .46 .23 .51 .21 .49 .2 .46 .19 .46 .2 .46 .22 .52 .2 .47 .19 .46 .2 .47 .2 .48 .2 .51 .19 .46 .19 .47 .19 .46 .2 .51 .2 .48 .18 .47 .18 .47 .19 .47 .2 .52 .18 .46 .18 .47 .18 .47 .19 .5 .19 .49 .17 .47 .18 .46 .18 .48 .19 .51 .17 .47 .17 .47 .18 .47 .18 .49 .17 .49 .18 .47 .17 .47 .17 .48 .18 .5 .17 .47 .16 .48 .17 .47 .18 .49 .17 .48 .16 .47 .17 .48 .17 .47 .17 .49 .16 .48 .17 .47 .16 .48 .17 .48 .16 .48 .17 .47 .16 .48 .17 .47 .16 .49 .16 .47 .17 .47 .16 .48 .16 .48 .17 .47 .16 .48 .16 .47 .16 .47 .16 .48 .17 .47 .16 .48 .32 .94 .17 .47 .16 .47 .16 .48 .16 .46 .16 .47 .17 .47 .16 .48 .16 .47 .16 .45 .17 .48 .17 .47 .16 .47 .16 .45 .17 .47 .16 .47 .17 .48 .16 .45 .17 .46 .17 .47 .17 .47 .16 .46 .17 .45 .17 .46 .17 .48 .17 .47 .16 .42 .18 .47 .17 .47 .18 .47 .16 .44 .18 .44 .17 .47 .18 .47 .18 .45 .17 .43 .18 .46 .18 .47 .19 .47 .16 .4 .19 .46 .18 .47 .19 .46 .17 .42 .19 .44 .19 .46 .19 .46 .19 .44 .17 .41 .2 .46 .2 .46 .2 .46 .17 .38 .2 .46 .21 .45 .2 .46 .18 .4 .2 .43 .21 .45 .21 .46 .2 .42 .18 .39 .22 .45 .22 .45 .21 .45 .18 .36 .23 .45 .22 .45 .22 .44 .19 .38 .22 .41 .23 .45 .23 .44 .22 .41 .2 .37 .24 .44 .24 .44 .23 .43 .19 .35 .25 .43 .24 .44 .25 .43 .21 .36 .23 .4 .25 .43 .26 .43 .23 .4 .22 .34 .26 .43 .26 .43 .26 .41 .21 .34 .26 .4 .54 .84 .24 .37 .24 .35 .28 .41 .28 .42 .27 .4 .22 .32 .28 .39 .29 .41 .29 .41 .24 .34 .26 .35 .29 .4 .3 .41 .29 .38 .23 .31 .3 .38 .3 .4 .31 .4 .26 .33 .27 .33 .31 .39 .32 .39 .31 .38 .24 .29 .31 .36 .32 .38 .33 .38 .29 .35 .26 .29 .33 .37 .33 .38 .34 .37 .27 .31 .29 .31 .34 .37 .35 .36 .34 .37 .25 .27 .33 .33 .35 .36 .35 .36 .34 .35 .26 .26 .35 .33 .36 .35 .36 .35 .34 .34 .27 .25 .36 .34 .36 .34 .37 .34 .35 .32 .27 .25 .37 .33 .03 .02 2.7 11.25 -.4 -.3 -.39 -.31 -.4 -.3 -.39 -.31 -.4 -.3 -.39 -.31 -.39 -.31 -.39 -.32 -.39 -.31 -.39 -.31 -.76 -.64 -.39 -.33 -.38 -.32 -.38 -.32 -.38 -.33 -.37 -.33 -.38 -.33 -.37 -.33 -.37 -.33 -.37 -.33 -.37 -.34 -.37 -.34 -.36 -.34 -.37 -.34 -.36 -.35 -.36 -.34 -.36 -.35 -.35 -.35 -.36 -.35 -.36 -.35 -.35 -.36 -.35 -.35 -.34 -.36 -.35 -.36 -.35 -.36 -.34 -.36 -.34 -.37 -.34 -.36 -.34 -.37 -.34 -.37 -.33 -.37 -.33 -.38 -.66 -.74 -.33 -.38 -.32 -.38 -.33 -.38 -.32 -.38 -.32 -.39 -.31 -.39 -.32 -.38 -.31 -.39 -.32 -.39 -.31 -.39 -.3 -.4 -.31 -.39 -.3 -.4 -.31 -.39 -.29 -.4 -.3 -.41 -.3 -.4 -.29 -.4 -.3 -.4 -.28 -.41 -.29 -.41 -.29 -.41 -.29 -.41 -.28 -.41 -.28 -.41 -.28 -.42 -.27 -.41 -.28 -.42 -.27 -.42 -.27 -.42 -.54 -.84 -.26 -.42 -.26 -.43 -.27 -.42 -.26 -.43 -.25 -.43 -.26 -.43 -.25 -.43 -.26 -.43 -.25 -.43 -.24 -.43 -.25 -.44 -.25 -.43 -.24 -.44 -.24 -.44 -.24 -.44 -.24 -.43 -.23 -.44 -.24 -.44 -.23 -.45 -.23 -.44 -.23 -.44 -.23 -.45 -.22 -.44 -.22 -.45 -.23 -.45 -.22 -.44 -.22 -.45 -.21 -.45 -.44 -.9 -.21 -.46 -.21 -.45 -.21 -.45 -.21 -.45 -.21 -.46 -.2 -.45 -.21 -.46 -.2 -.46 -.2 -.45 -.4 -.92 -.2 -.46 -.2 -.46 -.19 -.46 -.19 -.46 -.2 -.46 -.19 -.46 -.19 -.46 -.38 -.92 -.18 -.47 -.19 -.46 -.18 -.46 -.19 -.47 -.18 -.46 -.18 -.47 -.18 -.46 -.18 -.47 -.18 -.47 -.18 -.46 -.18 -.47 -.18 -.47 -.17 -.46 -.18 -.47 -.34 -.94 -.18 -.47 -.17 -.47 -.17 -.46 -.34 -.94 -.17 -.47 -.17 -.47 -.17 -.47 -.16 -.47 -.17 -.47 -.17 -.47 -.16 -.48 -.17 -.47 -.16 -.47 -.17 -.47 -.16 -.47 -.17 -.47 -.16 -.47 -.17 -.48 -.16 -.47 -.16 -.47 -.17 -.47 -.16 -.47 -.16 -.48 -.16 -.47 -.16 -.47 -.17 -.47 -.16 -.48 -.16 -.47 -.16 -.47 -.16 -.47 -.17 -.48 -.32 -.94 -.16 -.47 -.16 -.48 -.17 -.47 -.16 -.47 -.16 -.47 -.16 -.47 -.17 -.48 -.16 -.47 -.16 -.47 -.17 -.47 -.16 -.47 -.16 -.48 -.17 -.47 -.16 -.47 -.17 -.47 -.16 -.47 -.17 -.47 -.16 -.47 -.17 -.47 -.34 -.94 -.16 -.47 -.34 -.94 -.17 -.47 -.34 -.94 -.18 -.47 -.34 -.94 -.17 -.47 -.18 -.47 -.17 -.46 -.18 -.47 -.18 -.47 -.17 -.46 -.18 -.47 -.18 -.47 -.18 -.46 -.18 -.47 -.18 -.46 -.18 -.47 -.19 -.46 -.18 -.47 -.18 -.46 -.19 -.47 -.38 -.92 -.18 -.46 -.19 -.47 -.19 -.46 -.2 -.46 -.38 -.92 -.2 -.46 -.19 -.46 -.4 -.92 -.2 -.45 -.2 -.46 -.2 -.46 -.2 -.45 -.21 -.46 -.2 -.46 -.21 -.45 -.21 -.45 -.2 -.46 -.21 -.45 -.21 -.45 -.22 -.45 -.21 -.46 -.22 -.45 -.21 -.45 -.22 -.45 -.22 -.45 -.22 -.44z" fill="#B08D57"/>
<path d="M142.57 -6.17l6.28 -3.09 .22 .45 .22 .45 .44 .9 .31 .64 .25 .52 .22 .46 .21 .45 .22 .46 .32 .69 .21 .46 .21 .45 .21 .46 .24 .53 .28 .62 .2 .46 .21 .45 .2 .46 .26 .6 .24 .54 .2 .47 .19 .46 .21 .47 .27 .64 .2 .48 .19 .46 .2 .46 .22 .54 .24 .59 .19 .46 .19 .47 .19 .47 .23 .59 .21 .51 .18 .47 .19 .47 .19 .49 .24 .61 .18 .46 .18 .47 .18 .47 .21 .56 .2 .53 .18 .47 .17 .46 .19 .49 .21 .58 .18 .48 .34 .94 .2 .54 .19 .52 .34 .94 .18 .49 .19 .55 .18 .48 .16 .47 .17 .47 .19 .53 .17 .5 .17 .47 .34 .96 .18 .53 .17 .47 .16 .48 .17 .47 .17 .51 .17 .49 .16 .47 .17 .47 .16 .49 .17 .49 .17 .48 .16 .47 .16 .48 .17 .48 .16 .48 .16 .47 .17 .48 .32 .94 .16 .47 .16 .48 .16 .47 .16 .45 .16 .47 .17 .48 .16 .47 .15 .45 .16 .46 .17 .47 .16 .47 .16 .46 .15 .43 .16 .47 .17 .47 .16 .47 .15 .41 .16 .46 .17 .47 .17 .48 .14 .41 .16 .43 .17 .47 .17 .47 .16 .44 .14 .39 .17 .47 .17 .47 .18 .47 .12 .35 .17 .45 .36 .94 .14 .38 .15 .4 .18 .47 .18 .47 .17 .42 .13 .34 .18 .47 .19 .46 .18 .47 .11 .28 .38 .92 .18 .46 .14 .34 .16 .38 .19 .46 .2 .47 .16 .39 .13 .3 .2 .46 .2 .46 .2 .45 .1 .24 .4 .9 .21 .46 .13 .29 .17 .36 .21 .46 .21 .45 .16 .36 .14 .27 .21 .46 .22 .45 .21 .43 .09 .19 .22 .44 .23 .45 .22 .44 .12 .24 .19 .35 .23 .45 .23 .44 .17 .33 .13 .24 .24 .44 .24 .44 .22 .41 .09 .17 .24 .41 .24 .44 .25 .43 .12 .21 .19 .32 .25 .43 .26 .43 .19 .33 .12 .18 .26 .43 .26 .43 .25 .4 .1 .16 .23 .35 .27 .43 .28 .42 .16 .25 .15 .22 .28 .42 .28 .41 .25 .37 .09 .13 .13 .19 1.19 12.73 -.28 -.32 -.34 -.37 -.32 -.37 -.18 -.21 -.27 -.31 -.33 -.38 -.32 -.39 -.29 -.34 -.16 -.19 -.31 -.38 -.31 -.39 -.32 -.38 -.21 -.26 -.22 -.28 -.3 -.4 -.31 -.4 -.29 -.36 -.16 -.22 -.27 -.37 -.6 -.8 -.21 -.29 -.2 -.28 -.29 -.41 -.28 -.41 -.27 -.38 -.16 -.23 -.26 -.38 -.28 -.41 -.28 -.42 -.2 -.29 -.2 -.31 -.27 -.42 -.27 -.42 -.24 -.38 -.16 -.24 -.25 -.41 -.27 -.43 -.26 -.43 -.16 -.26 -.22 -.36 -.25 -.43 -.26 -.44 -.21 -.35 -.16 -.29 -.25 -.43 -.24 -.44 -.24 -.42 -.15 -.26 -.22 -.42 -.24 -.44 -.24 -.44 -.17 -.31 -.19 -.36 -.23 -.45 -.23 -.44 -.2 -.38 -.16 -.32 -.22 -.44 -.23 -.45 -.22 -.44 -.13 -.28 -.21 -.43 -.22 -.46 -.22 -.45 -.16 -.33 -.18 -.39 -.21 -.46 -.21 -.45 -.19 -.4 -.15 -.34 -.2 -.46 -.21 -.45 -.2 -.45 -.14 -.31 -.19 -.46 -.4 -.92 -.15 -.35 -.18 -.42 -.19 -.46 -.2 -.47 -.17 -.4 -.15 -.38 -.19 -.47 -.19 -.46 -.18 -.46 -.14 -.34 -.19 -.47 -.18 -.47 -.18 -.46 -.15 -.38 -.17 -.44 -.18 -.47 -.18 -.47 -.16 -.42 -.16 -.41 -.17 -.47 -.18 -.47 -.17 -.46 -.15 -.39 -.17 -.47 -.17 -.47 -.17 -.47 -.16 -.41 -.16 -.45 -.17 -.47 -.17 -.48 -.16 -.44 -.15 -.43 -.17 -.48 -.17 -.47 -.16 -.47 -.15 -.42 -.17 -.47 -.16 -.48 -.17 -.47 -.15 -.44 -.16 -.46 -.17 -.48 -.16 -.47 -.16 -.47 -.16 -.45 -.16 -.47 -.17 -.48 -.16 -.47 -.16 -.46 -.16 -.47 -.16 -.48 -.16 -.47 -.17 -.47 -.16 -.48 -.16 -.47 -.16 -.48 -.17 -.47 -.16 -.48 -.16 -.48 -.17 -.47 -.16 -.48 -.17 -.48 -.16 -.48 -.16 -.48 -.17 -.47 -.16 -.48 -.18 -.5 -.16 -.47 -.17 -.48 -.16 -.47 -.18 -.51 -.17 -.48 -.16 -.48 -.17 -.47 -.17 -.49 -.18 -.51 -.17 -.47 -.17 -.47 -.17 -.48 -.19 -.52 -.17 -.49 -.17 -.47 -.17 -.47 -.18 -.5 -.19 -.52 -.18 -.47 -.17 -.47 -.18 -.48 -.2 -.54 -.18 -.48 -.18 -.47 -.17 -.47 -.19 -.5 -.21 -.54 -.18 -.46 -.18 -.47 -.18 -.47 -.21 -.56 -.2 -.48 -.18 -.47 -.18 -.47 -.2 -.49 -.22 -.55 -.38 -.94 -.19 -.46 -.22 -.55 -.21 -.51 -.2 -.46 -.19 -.46 -.2 -.48 -.24 -.58 -.21 -.47 -.19 -.46 -.2 -.46 -.22 -.52 -.25 -.55 -.2 -.46 -.2 -.45 -.21 -.46 -.25 -.57 -.23 -.5 -.21 -.46 -.21 -.45 -.21 -.46 -.29 -.61 -.21 -.46 -.22 -.45 -.21 -.46 -.24 -.5 -.28 -.57 -.22 -.45 -.44 -.9z" fill="#B08D57"/>
<path d="M200 0l18.85 -9.26 .22 .45 .22 .45 .44 .9 .31 .64 .25 .52 .22 .46 .21 .45 .22 .46 .32 .69 .21 .46 .21 .45 .21 .46 .24 .53 .28 .62 .2 .46 .21 .45 .2 .46 .26 .6 .24 .54 .2 .47 .19 .46 .21 .47 .27 .64 .2 .48 .19 .46 .2 .46 .22 .54 .24 .59 .19 .46 .19 .47 .19 .47 .23 .59 .21 .51 .18 .47 .19 .47 .19 .49 .24 .61 .18 .46 .18 .47 .18 .47 .21 .56 .2 .53 .18 .47 .17 .46 .19 .49 .21 .58 .18 .48 .34 .94 .2 .54 .19 .52 .34 .94 .18 .49 .19 .55 .18 .48 .16 .47 .17 .47 .19 .53 .17 .5 .17 .47 .34 .96 .18 .53 .17 .47 .16 .48 .17 .47 .17 .51 .17 .49 .16 .47 .17 .47 .16 .49 .17 .49 .17 .48 .16 .47 .16 .48 .17 .48 .16 .48 .16 .47 .17 .48 .32 .94 .16 .47 .16 .48 .16 .47 .16 .45 .16 .47 .17 .48 .16 .47 .15 .45 .16 .46 .17 .47 .16 .47 .16 .46 .15 .43 .16 .47 .17 .47 .16 .47 .15 .41 .16 .46 .17 .47 .17 .48 .14 .41 .16 .43 .17 .47 .17 .47 .16 .44 .14 .39 .17 .47 .17 .47 .18 .47 .12 .35 .17 .45 .36 .94 .14 .38 .15 .4 .18 .47 .18 .47 .17 .42 .13 .34 .18 .47 .19 .46 .18 .47 .11 .28 .38 .92 .18 .46 .14 .34 .16 .38 .19 .46 .2 .47 .16 .39 .13 .3 .2 .46 .2 .46 .2 .45 .1 .24 .4 .9 .21 .46 .13 .29 .17 .36 .21 .46 .21 .45 .16 .36 .14 .27 .21 .46 .22 .45 .21 .43 .09 .19 .22 .44 .23 .45 .22 .44 .12 .24 .19 .35 .23 .45 .23 .44 .17 .33 .13 .24 .24 .44 .24 .44 .22 .41 .09 .17 .24 .41 .24 .44 .25 .43 .12 .21 .19 .32 .25 .43 .26 .43 .19 .33 .12 .18 .26 .43 .26 .43 .25 .4 .1 .16 .23 .35 .27 .43 .28 .42 .16 .25 .15 .22 .28 .42 .28 .41 .25 .37 .09 .13 .13 .19 5.98 35.9 -.4 -.3 -.39 -.31 -.4 -.3 -.39 -.31 -.4 -.3 -.39 -.31 -.39 -.31 -.39 -.32 -.39 -.31 -.39 -.31 -.76 -.64 -.39 -.33 -.38 -.32 -.38 -.32 -.38 -.33 -.37 -.33 -.38 -.33 -.37 -.33 -.37 -.33 -.37 -.33 -.37 -.34 -.37 -.34 -.36 -.34 -.37 -.34 -.36 -.35 -.36 -.34 -.36 -.35 -.35 -.35 -.36 -.35 -.36 -.35 -.35 -.36 -.35 -.35 -.34 -.36 -.35 -.36 -.35 -.36 -.34 -.36 -.34 -.37 -.34 -.36 -.34 -.37 -.34 -.37 -.33 -.37 -.33 -.38 -.66 -.74 -.33 -.38 -.32 -.38 -.33 -.38 -.32 -.38 -.32 -.39 -.31 -.39 -.32 -.38 -.31 -.39 -.32 -.39 -.31 -.39 -.3 -.4 -.31 -.39 -.3 -.4 -.31 -.39 -.29 -.4 -.3 -.41 -.3 -.4 -.29 -.4 -.3 -.4 -.28 -.41 -.29 -.41 -.29 -.41 -.29 -.41 -.28 -.41 -.28 -.41 -.28 -.42 -.27 -.41 -.28 -.42 -.27 -.42 -.27 -.42 -.54 -.84 -.26 -.42 -.26 -.43 -.27 -.42 -.26 -.43 -.25 -.43 -.26 -.43 -.25 -.43 -.26 -.43 -.25 -.43 -.24 -.43 -.25 -.44 -.25 -.43 -.24 -.44 -.24 -.44 -.24 -.44 -.24 -.43 -.23 -.44 -.24 -.44 -.23 -.45 -.23 -.44 -.23 -.44 -.23 -.45 -.22 -.44 -.22 -.45 -.23 -.45 -.22 -.44 -.22 -.45 -.21 -.45 -.44 -.9 -.21 -.46 -.21 -.45 -.21 -.45 -.21 -.45 -.21 -.46 -.2 -.45 -.21 -.46 -.2 -.46 -.2 -.45 -.4 -.92 -.2 -.46 -.2 -.46 -.19 -.46 -.19 -.46 -.2 -.46 -.19 -.46 -.19 -.46 -.38 -.92 -.18 -.47 -.19 -.46 -.18 -.46 -.19 -.47 -.18 -.46 -.18 -.47 -.18 -.46 -.18 -.47 -.18 -.47 -.18 -.46 -.18 -.47 -.18 -.47 -.17 -.46 -.18 -.47 -.34 -.94 -.18 -.47 -.17 -.47 -.17 -.46 -.34 -.94 -.17 -.47 -.17 -.47 -.17 -.47 -.16 -.47 -.17 -.47 -.17 -.47 -.16 -.48 -.17 -.47 -.16 -.47 -.17 -.47 -.16 -.47 -.17 -.47 -.16 -.47 -.17 -.48 -.16 -.47 -.16 -.47 -.17 -.47 -.16 -.47 -.16 -.48 -.16 -.47 -.16 -.47 -.17 -.47 -.16 -.48 -.16 -.47 -.16 -.47 -.16 -.47 -.17 -.48 -.32 -.94 -.16 -.47 -.16 -.48 -.17 -.47 -.16 -.47 -.16 -.47 -.16 -.47 -.17 -.48 -.16 -.47 -.16 -.47 -.17 -.47 -.16 -.47 -.16 -.48 -.17 -.47 -.16 -.47 -.17 -.47 -.16 -.47 -.17 -.47 -.16 -.47 -.17 -.47 -.34 -.94 -.16 -.47 -.34 -.94 -.17 -.47 -.34 -.94 -.18 -.47 -.34 -.94 -.17 -.47 -.18 -.47 -.17 -.46 -.18 -.47 -.18 -.47 -.17 -.46 -.18 -.47 -.18 -.47 -.18 -.46 -.18 -.47 -.18 -.46 -.18 -.47 -.19 -.46 -.18 -.47 -.18 -.46 -.19 -.47 -.38 -.92 -.18 -.46 -.19 -.47 -.19 -.46 -.2 -.46 -.38 -.92 -.2 -.46 -.19 -.46 -.4 -.92 -.2 -.45 -.2 -.46 -.2 -.46 -.2 -.45 -.21 -.46 -.2 -.46 -.21 -.45 -.21 -.45 -.2 -.46 -.21 -.45 -.21 -.45 -.22 -.45 -.21 -.46 -.22 -.45 -.21 -.45 -.22 -.45 -.22 -.45 -.22 -.44z" fill="#B08D57"/></g><g id="ink"><path d="M0 0L0.22 0.448L0.44 0.896L0.661 1.345L0.881 1.793L1.1 2.242L1.314 2.693L1.528 3.144L1.742 3.595L1.956 4.046L2.167 4.499L2.375 4.953L2.583 5.407L2.792 5.861L3 6.315L3.204 6.77L3.406 7.227L3.609 7.683L3.811 8.14L4.014 8.596L4.211 9.055L4.408 9.514L4.606 9.972L4.803 10.431L4.998 10.891L5.19 11.352L5.383 11.813L5.575 12.273L5.767 12.734L5.956 13.197L6.144 13.659L6.332 14.122L6.519 14.585L6.706 15.048L6.89 15.512L7.073 15.977L7.256 16.441L7.44 16.906L7.621 17.371L7.8 17.837L7.98 18.303L8.159 18.769L8.339 19.235L8.515 19.703L8.691 20.17L8.866 20.637L9.042 21.105L9.217 21.573L9.389 22.041L9.562 22.51L9.735 22.978L9.907 23.447L10.078 23.916L10.247 24.386L10.417 24.856L10.587 25.325L10.756 25.795L10.924 26.266L11.091 26.736L11.259 27.206L11.426 27.677L11.592 28.148L11.757 28.619L11.923 29.09L12.088 29.561L12.253 30.033L12.417 30.504L12.581 30.976L12.745 31.448L12.909 31.92L13.072 32.392L13.234 32.864L13.397 33.336L13.56 33.808L13.722 34.28L13.884 34.753L14.047 35.225L14.209 35.697L14.371 36.17L14.532 36.642L14.694 37.114L14.856 37.587L15.018 38.059L15.18 38.532L15.341 39.004L15.503 39.477L15.665 39.949L15.827 40.421L15.99 40.894L16.152 41.366L16.315 41.838L16.477 42.31L16.641 42.782L16.804 43.254L16.968 43.726L17.131 44.198L17.295 44.669L17.46 45.14L17.625 45.612L17.79 46.083L17.956 46.554L18.122 47.025L18.289 47.496L18.456 47.966L18.623 48.437L18.792 48.907L18.961 49.377L19.13 49.847L19.3 50.316L19.47 50.786L19.642 51.255L19.814 51.723L19.986 52.192L20.159 52.661L20.334 53.129L20.509 53.596L20.685 54.064L20.86 54.531L21.038 54.998L21.217 55.464L21.396 55.93L21.575 56.396L21.755 56.862L21.939 57.327L22.122 57.791L22.305 58.256L22.488 58.72L22.676 59.183L22.864 59.646L23.051 60.108L23.239 60.571L23.43 61.033L23.623 61.493L23.816 61.954L24.008 62.415L24.203 62.875L24.401 63.333L24.599 63.791L24.797 64.25L24.996 64.708L25.199 65.164L25.403 65.62L25.607 66.076L25.811 66.531L26.019 66.985L26.229 67.438L26.439 67.891L26.65 68.344L26.862 68.797L27.078 69.246L27.295 69.696L27.512 70.146L27.729 70.596L27.952 71.043L28.175 71.489L28.399 71.936L28.623 72.382L28.851 72.827L29.081 73.269L29.312 73.712L29.543 74.155L29.776 74.597L30.014 75.036L30.253 75.475L30.491 75.913L30.729 76.352L30.975 76.787L31.221 77.222L31.467 77.656L31.713 78.091L31.963 78.523L32.218 78.953L32.472 79.382L32.726 79.812L32.981 80.241L33.244 80.666L33.506 81.091L33.768 81.516L34.031 81.941L34.299 82.362L34.57 82.781L34.841 83.201L35.112 83.62L35.385 84.038L35.665 84.452L35.944 84.866L36.224 85.28L36.503 85.694L36.79 86.103L37.078 86.511L37.366 86.918L37.654 87.326L37.945 87.732L38.242 88.133L38.539 88.535L38.836 88.936L39.133 89.338L39.437 89.734L39.743 90.129L40.049 90.524L40.355 90.918L40.662 91.312L40.977 91.699L41.292 92.087L41.607 92.475L41.921 92.863L42.241 93.246L42.565 93.626L42.888 94.007L43.212 94.387L43.535 94.768L43.867 95.141L44.199 95.514L44.531 95.887L44.864 96.259L45.198 96.631L45.538 96.996L45.879 97.361L46.22 97.725L46.561 98.09L46.906 98.452L47.255 98.809L47.605 99.165L47.954 99.522L48.303 99.879L48.658 100.231L49.015 100.579L49.373 100.927L49.731 101.276L50.089 101.624L50.452 101.967L50.818 102.307L51.184 102.646L51.55 102.986L51.916 103.326L52.287 103.66L52.661 103.991L53.035 104.322L53.409 104.653L53.783 104.984L54.162 105.309L54.543 105.632L54.925 105.954L55.306 106.276L55.688 106.598L56.073 106.916L56.462 107.229L56.851 107.542L57.24 107.855L57.629 108.169L58.02 108.479L58.416 108.783L58.812 109.087L59.208 109.392L59.604 109.696L60 110" stroke="#15242B" stroke-width="2.1" fill="none" stroke-linecap="round" stroke-linejoin="round"/>
<path d="M56.85 110a3.15 3.15 0 1 1 6.3 0a3.15 3.15 0 1 1 -6.3 0z" fill="#15242B"/>
<path d="M6.283 -3.086L6.504 -2.636L6.725 -2.186L6.946 -1.736L7.167 -1.286L7.417 -0.773L7.643 -0.297L7.858 0.156L8.073 0.609L8.289 1.065L8.537 1.596L8.747 2.054L8.956 2.51L9.165 2.966L9.385 3.446L9.614 3.958L9.817 4.416L10.021 4.874L10.224 5.333L10.447 5.837L10.657 6.326L10.855 6.786L11.053 7.247L11.253 7.712L11.474 8.233L11.669 8.701L11.863 9.164L12.056 9.627L12.258 10.113L12.465 10.619L12.653 11.083L12.841 11.548L13.031 12.015L13.235 12.522L13.425 13.004L13.609 13.47L13.793 13.937L13.982 14.414L14.18 14.926L14.36 15.393L14.541 15.861L14.721 16.329L14.913 16.83L15.096 17.317L15.273 17.786L15.449 18.255L15.628 18.731L15.816 19.237L15.99 19.709L16.164 20.18L16.337 20.65L16.518 21.144L16.695 21.631L16.865 22.103L17.036 22.574L17.209 23.051L17.387 23.549L17.556 24.023L17.724 24.496L17.892 24.968L18.066 25.458L18.236 25.941L18.402 26.414L18.568 26.887L18.736 27.365L18.907 27.855L19.072 28.329L19.236 28.803L19.401 29.276L19.569 29.761L19.734 30.24L19.898 30.714L20.061 31.188L20.225 31.665L20.391 32.146L20.554 32.621L20.716 33.095L20.879 33.569L21.043 34.046L21.205 34.522L21.368 34.996L21.53 35.47L21.692 35.944L21.854 36.417L22.017 36.891L22.179 37.365L22.342 37.838L22.502 38.306L22.665 38.779L22.828 39.253L22.991 39.727L23.151 40.192L23.314 40.661L23.478 41.134L23.642 41.608L23.804 42.075L23.965 42.535L24.13 43.007L24.296 43.481L24.461 43.953L24.619 44.402L24.786 44.872L24.954 45.345L25.121 45.817L25.282 46.27L25.447 46.728L25.617 47.199L25.787 47.671L25.953 48.132L26.115 48.575L26.288 49.045L26.46 49.515L26.633 49.986L26.792 50.415L26.966 50.88L27.143 51.349L27.319 51.818L27.484 52.258L27.655 52.704L27.835 53.172L28.015 53.64L28.189 54.093L28.355 54.517L28.539 54.983L28.723 55.449L28.907 55.916L29.069 56.322L29.256 56.782L29.444 57.246L29.633 57.711L29.804 58.132L29.987 58.568L30.18 59.03L30.374 59.492L30.558 59.932L30.733 60.34L30.932 60.8L31.131 61.26L31.329 61.717L31.498 62.102L31.701 62.556L31.906 63.013L32.11 63.47L32.29 63.87L32.488 64.296L32.699 64.751L32.91 65.206L33.106 65.627L33.294 66.021L33.512 66.472L33.73 66.924L33.943 67.368L34.123 67.733L34.345 68.177L34.57 68.625L34.793 69.071L34.985 69.451L35.201 69.865L35.432 70.309L35.664 70.754L35.875 71.158L36.078 71.534L36.317 71.974L36.557 72.415L36.789 72.843L36.984 73.193L37.226 73.621L37.473 74.057L37.72 74.493L37.925 74.852L38.159 75.247L38.414 75.679L38.669 76.11L38.904 76.507L39.116 76.853L39.38 77.28L39.643 77.706L39.901 78.124L40.112 78.46L40.371 78.86L40.643 79.281L40.915 79.702L41.15 80.065L41.387 80.418L41.668 80.834L41.948 81.249L42.218 81.648L42.439 81.968L42.719 82.364L43.009 82.773L43.298 83.183L43.541 83.524L43.797 83.872L44.095 84.275L44.393 84.678L44.679 85.063L44.911 85.37L45.208 85.753L45.515 86.149L45.822 86.545L46.084 86.882L46.346 87.207L46.662 87.596L46.978 87.985L47.29 88.369L47.528 88.658L47.836 89.019L48.16 89.401L48.485 89.783L48.782 90.132L49.038 90.423L49.368 90.793L49.702 91.167L50.035 91.542L50.311 91.849L50.601 92.161L50.943 92.527L51.286 92.893L51.628 93.26L51.883 93.53L52.209 93.863L52.56 94.221L52.911 94.579L53.254 94.929L53.511 95.186L53.858 95.524L54.218 95.874L54.577 96.224L54.918 96.556L55.187 96.811L55.547 97.146L55.915 97.487L56.282 97.828L56.627 98.149L56.905 98.399L57.275 98.726L57.301 98.75" stroke="#15242B" stroke-width="2.1" fill="none" stroke-linecap="round" stroke-linejoin="round"/>
<path d="M54.15 98.75a3.15 3.15 0 1 1 6.3 0a3.15 3.15 0 1 1 -6.3 0z" fill="#15242B"/>
<path d="M12.566 -6.173L12.787 -5.723L13.008 -5.273L13.229 -4.823L13.45 -4.372L13.73 -3.797L13.967 -3.297L14.182 -2.844L14.397 -2.391L14.615 -1.933L14.899 -1.324L15.11 -0.864L15.319 -0.408L15.528 0.048L15.759 0.552L16.012 1.118L16.215 1.576L16.419 2.034L16.623 2.494L16.866 3.044L17.088 3.56L17.286 4.021L17.484 4.481L17.686 4.952L17.932 5.531L18.13 6.005L18.323 6.468L18.516 6.931L18.729 7.442L18.951 7.988L19.14 8.453L19.328 8.917L19.518 9.386L19.739 9.936L19.936 10.434L20.12 10.9L20.304 11.366L20.497 11.854L20.713 12.41L20.893 12.878L21.073 13.346L21.253 13.814L21.458 14.347L21.648 14.851L21.824 15.321L22.001 15.79L22.182 16.273L22.384 16.814L22.558 17.289L22.732 17.759L22.905 18.23L23.095 18.747L23.277 19.25L23.448 19.721L23.619 20.193L23.793 20.675L23.981 21.199L24.15 21.676L24.319 22.148L24.487 22.62L24.667 23.127L24.84 23.622L25.007 24.095L25.173 24.568L25.342 25.049L25.519 25.556L25.684 26.032L25.849 26.505L26.013 26.979L26.185 27.475L26.352 27.959L26.515 28.432L26.679 28.906L26.844 29.386L27.012 29.875L27.175 30.349L27.337 30.823L27.5 31.298L27.665 31.778L27.828 32.254L27.99 32.728L28.153 33.203L28.314 33.675L28.476 34.147L28.639 34.621L28.801 35.096L28.963 35.567L29.121 36.029L29.284 36.501L29.447 36.975L29.61 37.45L29.767 37.904L29.928 38.368L30.092 38.842L30.256 39.316L30.416 39.776L30.572 40.222L30.737 40.694L30.903 41.167L31.068 41.639L31.218 42.065L31.383 42.532L31.551 43.004L31.719 43.477L31.873 43.911L32.032 44.354L32.202 44.826L32.372 45.298L32.535 45.748L32.687 46.163L32.859 46.632L33.031 47.102L33.204 47.573L33.348 47.961L33.52 48.421L33.697 48.89L33.873 49.36L34.027 49.77L34.189 50.193L34.369 50.661L34.549 51.129L34.717 51.567L34.867 51.949L35.051 52.414L35.235 52.88L35.418 53.347L35.557 53.693L35.742 54.149L35.93 54.613L36.119 55.078L36.273 55.456L36.444 55.865L36.637 56.327L36.831 56.79L37.005 57.206L37.158 57.562L37.357 58.022L37.556 58.482L37.752 58.936L37.889 59.246L38.09 59.696L38.295 60.154L38.499 60.609L38.653 60.953L38.838 61.35L39.049 61.805L39.26 62.259L39.44 62.647L39.601 62.983L39.818 63.435L40.036 63.886L40.246 64.321L40.384 64.602L40.604 65.043L40.829 65.491L41.051 65.934L41.208 66.246L41.408 66.629L41.64 67.073L41.871 67.518L42.061 67.881L42.229 68.193L42.469 68.633L42.708 69.074L42.934 69.489L43.079 69.751L43.316 70.17L43.564 70.606L43.81 71.042L43.972 71.326L44.184 71.684L44.439 72.115L44.694 72.547L44.909 72.91L45.071 73.174L45.335 73.601L45.598 74.027L45.85 74.435L46.006 74.684L46.251 75.062L46.523 75.483L46.795 75.904L46.993 76.211L47.188 76.5L47.468 76.915L47.749 77.331L48.007 77.713L48.165 77.941L48.435 78.324L48.725 78.733L49.014 79.142L49.209 79.417L49.424 79.708L49.722 80.111L50.02 80.514L50.293 80.882L50.455 81.096L50.741 81.465L51.048 81.861L51.355 82.257L51.571 82.535L51.781 82.795L52.097 83.184L52.413 83.574L52.72 83.952L52.877 84.143L53.168 84.484L53.493 84.866L53.817 85.248L54.086 85.565L54.267 85.769L54.594 86.135L54.927 86.51L55.211 86.828" stroke="#15242B" stroke-width="2.1" fill="none" stroke-linecap="round" stroke-linejoin="round"/>
<path d="M52.06 86.83a3.15 3.15 0 1 1 6.3 0a3.15 3.15 0 1 1 -6.3 0z" fill="#15242B"/>
<path d="M60 0L60.22 0.448L60.44 0.896L60.661 1.345L60.881 1.793L61.1 2.242L61.314 2.693L61.528 3.144L61.742 3.595L61.956 4.046L62.167 4.499L62.375 4.953L62.583 5.407L62.792 5.861L63 6.315L63.204 6.77L63.406 7.227L63.609 7.683L63.811 8.14L64.014 8.596L64.211 9.055L64.408 9.514L64.606 9.972L64.803 10.431L64.998 10.891L65.19 11.352L65.383 11.813L65.575 12.273L65.767 12.734L65.956 13.197L66.144 13.659L66.332 14.122L66.519 14.585L66.706 15.048L66.89 15.512L67.073 15.977L67.256 16.441L67.44 16.906L67.621 17.371L67.8 17.837L67.98 18.303L68.159 18.769L68.339 19.235L68.515 19.703L68.691 20.17L68.866 20.637L69.042 21.105L69.217 21.573L69.389 22.041L69.562 22.51L69.735 22.978L69.907 23.447L70.078 23.916L70.247 24.386L70.417 24.856L70.587 25.325L70.756 25.795L70.924 26.266L71.091 26.736L71.259 27.206L71.426 27.677L71.592 28.148L71.757 28.619L71.923 29.09L72.088 29.561L72.253 30.033L72.417 30.504L72.581 30.976L72.745 31.448L72.909 31.92L73.072 32.392L73.234 32.864L73.397 33.336L73.56 33.808L73.722 34.28L73.884 34.753L74.047 35.225L74.209 35.697L74.371 36.17L74.532 36.642L74.694 37.114L74.856 37.587L75.018 38.059L75.18 38.532L75.341 39.004L75.503 39.477L75.665 39.949L75.827 40.421L75.99 40.894L76.152 41.366L76.315 41.838L76.477 42.31L76.641 42.782L76.804 43.254L76.968 43.726L77.131 44.198L77.295 44.669L77.46 45.14L77.625 45.612L77.79 46.083L77.956 46.554L78.122 47.025L78.289 47.496L78.456 47.966L78.623 48.437L78.792 48.907L78.961 49.377L79.13 49.847L79.3 50.316L79.47 50.786L79.642 51.255L79.814 51.723L79.986 52.192L80.159 52.661L80.334 53.129L80.509 53.596L80.685 54.064L80.86 54.531L81.038 54.998L81.217 55.464L81.396 55.93L81.575 56.396L81.755 56.862L81.939 57.327L82.122 57.791L82.305 58.256L82.488 58.72L82.676 59.183L82.864 59.646L83.051 60.108L83.239 60.571L83.43 61.033L83.623 61.493L83.816 61.954L84.008 62.415L84.203 62.875L84.401 63.333L84.599 63.791L84.797 64.25L84.996 64.708L85.199 65.164L85.403 65.62L85.607 66.076L85.811 66.531L86.019 66.985L86.229 67.438L86.439 67.891L86.65 68.344L86.862 68.797L87.078 69.246L87.295 69.696L87.512 70.146L87.729 70.596L87.952 71.043L88.175 71.489L88.399 71.936L88.623 72.382L88.851 72.827L89.081 73.269L89.312 73.712L89.543 74.155L89.776 74.597L90.014 75.036L90.253 75.475L90.491 75.913L90.729 76.352L90.975 76.787L91.221 77.222L91.467 77.656L91.713 78.091L91.963 78.523L92.218 78.953L92.472 79.382L92.726 79.812L92.981 80.241L93.244 80.666L93.506 81.091L93.768 81.516L94.031 81.941L94.299 82.362L94.57 82.781L94.841 83.201L95.112 83.62L95.385 84.038L95.665 84.452L95.944 84.866L96.224 85.28L96.503 85.694L96.79 86.103L97.078 86.511L97.366 86.918L97.654 87.326L97.945 87.732L98.242 88.133L98.539 88.535L98.836 88.936L99.133 89.338L99.437 89.734L99.743 90.129L100.049 90.524L100.355 90.918L100.662 91.312L100.977 91.699L101.292 92.087L101.607 92.475L101.921 92.863L102.241 93.246L102.565 93.626L102.888 94.007L103.212 94.387L103.535 94.768L103.867 95.141L104.199 95.514L104.531 95.887L104.864 96.259L105.198 96.631L105.538 96.996L105.879 97.361L106.22 97.725L106.561 98.09L106.906 98.452L107.255 98.809L107.605 99.165L107.954 99.522L108.303 99.879L108.658 100.231L109.015 100.579L109.373 100.927L109.731 101.276L110.089 101.624L110.452 101.967L110.818 102.307L111.184 102.646L111.55 102.986L111.916 103.326L112.287 103.66L112.661 103.991L113.035 104.322L113.409 104.653L113.783 104.984L114.162 105.309L114.543 105.632L114.925 105.954L115.306 106.276L115.688 106.598L116.073 106.916L116.462 107.229L116.851 107.542L117.24 107.855L117.629 108.169L118.02 108.479L118.416 108.783L118.812 109.087L119.208 109.392L119.604 109.696L120 110" stroke="#15242B" stroke-width="2.1" fill="none" stroke-linecap="round" stroke-linejoin="round"/>
<path d="M116.85 110a3.15 3.15 0 1 1 6.3 0a3.15 3.15 0 1 1 -6.3 0z" fill="#15242B"/>
<path d="M66.283 -3.086L66.504 -2.636L66.725 -2.186L66.946 -1.736L67.167 -1.286L67.417 -0.773L67.643 -0.297L67.858 0.156L68.073 0.609L68.289 1.065L68.537 1.596L68.747 2.054L68.956 2.51L69.165 2.966L69.385 3.446L69.614 3.958L69.817 4.416L70.021 4.874L70.224 5.333L70.447 5.837L70.657 6.326L70.855 6.786L71.053 7.247L71.253 7.712L71.474 8.233L71.669 8.701L71.863 9.164L72.056 9.627L72.258 10.113L72.465 10.619L72.653 11.083L72.841 11.548L73.031 12.015L73.235 12.522L73.425 13.004L73.609 13.47L73.793 13.937L73.982 14.414L74.18 14.926L74.36 15.393L74.541 15.861L74.721 16.329L74.913 16.83L75.096 17.317L75.273 17.786L75.449 18.255L75.628 18.731L75.816 19.237L75.99 19.709L76.164 20.18L76.337 20.65L76.518 21.144L76.695 21.631L76.865 22.103L77.036 22.574L77.209 23.051L77.387 23.549L77.556 24.023L77.724 24.496L77.892 24.968L78.066 25.458L78.236 25.941L78.402 26.414L78.568 26.887L78.736 27.365L78.907 27.855L79.072 28.329L79.236 28.803L79.401 29.276L79.569 29.761L79.734 30.24L79.898 30.714L80.061 31.188L80.225 31.665L80.391 32.146L80.554 32.621L80.716 33.095L80.879 33.569L81.043 34.046L81.205 34.522L81.368 34.996L81.53 35.47L81.692 35.944L81.854 36.417L82.017 36.891L82.179 37.365L82.342 37.838L82.502 38.306L82.665 38.779L82.828 39.253L82.991 39.727L83.151 40.192L83.314 40.661L83.478 41.134L83.642 41.608L83.804 42.075L83.965 42.535L84.13 43.007L84.296 43.481L84.461 43.953L84.619 44.402L84.786 44.872L84.954 45.345L85.121 45.817L85.282 46.27L85.447 46.728L85.617 47.199L85.787 47.671L85.953 48.132L86.115 48.575L86.288 49.045L86.46 49.515L86.633 49.986L86.792 50.415L86.966 50.88L87.143 51.349L87.319 51.818L87.484 52.258L87.655 52.704L87.835 53.172L88.015 53.64L88.189 54.093L88.355 54.517L88.539 54.983L88.723 55.449L88.907 55.916L89.069 56.322L89.256 56.782L89.444 57.246L89.633 57.711L89.804 58.132L89.987 58.568L90.18 59.03L90.374 59.492L90.558 59.932L90.733 60.34L90.932 60.8L91.131 61.26L91.329 61.717L91.498 62.102L91.701 62.556L91.906 63.013L92.11 63.47L92.29 63.87L92.488 64.296L92.699 64.751L92.91 65.206L93.106 65.627L93.294 66.021L93.512 66.472L93.73 66.924L93.943 67.368L94.123 67.733L94.345 68.177L94.57 68.625L94.793 69.071L94.985 69.451L95.201 69.865L95.432 70.309L95.664 70.754L95.875 71.158L96.078 71.534L96.317 71.974L96.557 72.415L96.789 72.843L96.984 73.193L97.226 73.621L97.473 74.057L97.72 74.493L97.925 74.852L98.159 75.247L98.414 75.679L98.669 76.11L98.904 76.507L99.116 76.853L99.38 77.28L99.643 77.706L99.901 78.124L100.112 78.46L100.371 78.86L100.643 79.281L100.915 79.702L101.15 80.065L101.387 80.418L101.668 80.834L101.948 81.249L102.218 81.648L102.439 81.968L102.719 82.364L103.009 82.773L103.298 83.183L103.541 83.524L103.797 83.872L104.095 84.275L104.393 84.678L104.679 85.063L104.911 85.37L105.208 85.753L105.515 86.149L105.822 86.545L106.084 86.882L106.346 87.207L106.662 87.596L106.978 87.985L107.29 88.369L107.528 88.658L107.836 89.019L108.16 89.401L108.485 89.783L108.782 90.132L109.038 90.423L109.368 90.793L109.702 91.167L110.035 91.542L110.311 91.849L110.601 92.161L110.943 92.527L111.286 92.893L111.628 93.26L111.883 93.53L112.209 93.863L112.56 94.221L112.911 94.579L113.254 94.929L113.511 95.186L113.858 95.524L114.218 95.874L114.577 96.224L114.918 96.556L115.187 96.811L115.547 97.146L115.915 97.487L116.282 97.828L116.627 98.149L116.905 98.399L117.275 98.726L117.301 98.75" stroke="#15242B" stroke-width="2.1" fill="none" stroke-linecap="round" stroke-linejoin="round"/>
<path d="M114.15 98.75a3.15 3.15 0 1 1 6.3 0a3.15 3.15 0 1 1 -6.3 0z" fill="#15242B"/>
<path d="M72.566 -6.173L72.787 -5.723L73.008 -5.273L73.229 -4.823L73.45 -4.372L73.73 -3.797L73.967 -3.297L74.182 -2.844L74.397 -2.391L74.615 -1.933L74.899 -1.324L75.11 -0.864L75.319 -0.408L75.528 0.048L75.759 0.552L76.012 1.118L76.215 1.576L76.419 2.034L76.623 2.494L76.866 3.044L77.088 3.56L77.286 4.021L77.484 4.481L77.686 4.952L77.932 5.531L78.13 6.005L78.323 6.468L78.516 6.931L78.729 7.442L78.951 7.988L79.14 8.453L79.328 8.917L79.518 9.386L79.739 9.936L79.936 10.434L80.12 10.9L80.304 11.366L80.497 11.854L80.713 12.41L80.893 12.878L81.073 13.346L81.253 13.814L81.458 14.347L81.648 14.851L81.824 15.321L82.001 15.79L82.182 16.273L82.384 16.814L82.558 17.289L82.732 17.759L82.905 18.23L83.095 18.747L83.277 19.25L83.448 19.721L83.619 20.193L83.793 20.675L83.981 21.199L84.15 21.676L84.319 22.148L84.487 22.62L84.667 23.127L84.84 23.622L85.007 24.095L85.173 24.568L85.342 25.049L85.519 25.556L85.684 26.032L85.849 26.505L86.013 26.979L86.185 27.475L86.352 27.959L86.515 28.432L86.679 28.906L86.844 29.386L87.012 29.875L87.175 30.349L87.337 30.823L87.5 31.298L87.665 31.778L87.828 32.254L87.99 32.728L88.153 33.203L88.314 33.675L88.476 34.147L88.639 34.621L88.801 35.096L88.963 35.567L89.121 36.029L89.284 36.501L89.447 36.975L89.61 37.45L89.767 37.904L89.928 38.368L90.092 38.842L90.256 39.316L90.416 39.776L90.572 40.222L90.737 40.694L90.903 41.167L91.068 41.639L91.218 42.065L91.383 42.532L91.551 43.004L91.719 43.477L91.873 43.911L92.032 44.354L92.202 44.826L92.372 45.298L92.535 45.748L92.687 46.163L92.859 46.632L93.031 47.102L93.204 47.573L93.348 47.961L93.52 48.421L93.697 48.89L93.873 49.36L94.027 49.77L94.189 50.193L94.369 50.661L94.549 51.129L94.717 51.567L94.867 51.949L95.051 52.414L95.235 52.88L95.418 53.347L95.557 53.693L95.742 54.149L95.93 54.613L96.119 55.078L96.273 55.456L96.444 55.865L96.637 56.327L96.831 56.79L97.005 57.206L97.158 57.562L97.357 58.022L97.556 58.482L97.752 58.936L97.889 59.246L98.09 59.696L98.295 60.154L98.499 60.609L98.653 60.953L98.838 61.35L99.049 61.805L99.26 62.259L99.44 62.647L99.601 62.983L99.818 63.435L100.036 63.886L100.246 64.321L100.384 64.602L100.604 65.043L100.829 65.491L101.051 65.934L101.208 66.246L101.408 66.629L101.64 67.073L101.871 67.518L102.061 67.881L102.229 68.193L102.469 68.633L102.708 69.074L102.934 69.489L103.079 69.751L103.316 70.17L103.564 70.606L103.81 71.042L103.972 71.326L104.184 71.684L104.439 72.115L104.694 72.547L104.909 72.91L105.071 73.174L105.335 73.601L105.598 74.027L105.85 74.435L106.006 74.684L106.251 75.062L106.523 75.483L106.795 75.904L106.993 76.211L107.188 76.5L107.468 76.915L107.749 77.331L108.007 77.713L108.165 77.941L108.435 78.324L108.725 78.733L109.014 79.142L109.209 79.417L109.424 79.708L109.722 80.111L110.02 80.514L110.293 80.882L110.455 81.096L110.741 81.465L111.048 81.861L111.355 82.257L111.571 82.535L111.781 82.795L112.097 83.184L112.413 83.574L112.72 83.952L112.877 84.143L113.168 84.484L113.493 84.866L113.817 85.248L114.086 85.565L114.267 85.769L114.594 86.135L114.927 86.51L115.211 86.828" stroke="#15242B" stroke-width="2.1" fill="none" stroke-linecap="round" stroke-linejoin="round"/>
<path d="M112.06 86.83a3.15 3.15 0 1 1 6.3 0a3.15 3.15 0 1 1 -6.3 0z" fill="#15242B"/>
<path d="M78.849 -9.259L79.07 -8.809L79.291 -8.359L79.512 -7.909L79.734 -7.457L80.044 -6.82L80.292 -6.298L80.507 -5.845L80.722 -5.392L80.94 -4.93L81.26 -4.244L81.473 -3.782L81.682 -3.326L81.891 -2.87L82.132 -2.342L82.41 -1.722L82.613 -1.264L82.817 -0.805L83.021 -0.345L83.284 0.251L83.518 0.794L83.716 1.255L83.914 1.716L84.119 2.191L84.389 2.83L84.59 3.31L84.783 3.772L84.976 4.235L85.199 4.77L85.438 5.357L85.627 5.822L85.815 6.286L86.006 6.758L86.244 7.349L86.447 7.863L86.631 8.329L86.815 8.796L87.012 9.295L87.245 9.895L87.425 10.363L87.606 10.831L87.786 11.299L88.002 11.864L88.199 12.386L88.376 12.855L88.552 13.325L88.737 13.815L88.951 14.392L89.127 14.868L89.3 15.339L89.473 15.809L89.672 16.35L89.86 16.869L90.03 17.34L90.201 17.812L90.378 18.3L90.574 18.849L90.745 19.328L90.913 19.8L91.081 20.273L91.267 20.797L91.445 21.302L91.611 21.775L91.777 22.248L91.948 22.734L92.13 23.257L92.296 23.734L92.461 24.207L92.625 24.681L92.801 25.189L92.97 25.677L93.133 26.151L93.297 26.625L93.463 27.107L93.633 27.603L93.796 28.077L93.959 28.552L94.121 29.026L94.287 29.51L94.45 29.987L94.613 30.461L94.775 30.935L94.937 31.407L95.098 31.877L95.261 32.352L95.423 32.826L95.584 33.297L95.741 33.752L95.903 34.224L96.066 34.698L96.229 35.172L96.383 35.617L96.542 36.076L96.706 36.549L96.87 37.023L97.028 37.477L97.178 37.909L97.344 38.381L97.509 38.854L97.674 39.325L97.816 39.727L97.981 40.192L98.148 40.664L98.316 41.137L98.463 41.551L98.618 41.981L98.788 42.452L98.958 42.924L99.117 43.365L99.258 43.751L99.43 44.219L99.602 44.689L99.775 45.16L99.903 45.506L100.074 45.962L100.251 46.431L100.427 46.901L100.569 47.281L100.724 47.682L100.903 48.15L101.083 48.618L101.246 49.041L101.379 49.381L101.562 49.845L101.746 50.312L101.93 50.778L102.045 51.065L102.228 51.516L102.416 51.981L102.605 52.445L102.741 52.781L102.901 53.162L103.095 53.625L103.288 54.087L103.453 54.481L103.583 54.783L103.782 55.243L103.981 55.704L104.176 56.154L104.28 56.391L104.48 56.837L104.684 57.294L104.888 57.748L105.017 58.036L105.188 58.404L105.399 58.859L105.61 59.313L105.774 59.667L105.907 59.945L106.125 60.397L106.342 60.848L106.548 61.275L106.645 61.472L106.863 61.908L107.088 62.356L107.309 62.798L107.431 63.041L107.615 63.393L107.847 63.838L108.079 64.282L108.247 64.605L108.38 64.851L108.62 65.292L108.859 65.733L109.078 66.136L109.174 66.309L109.407 66.719L109.654 67.156L109.901 67.591L110.019 67.8L110.209 68.12L110.464 68.552L110.719 68.983L110.914 69.312L111.026 69.495L111.29 69.921L111.553 70.348L111.8 70.747L111.9 70.908L112.131 71.264L112.403 71.686L112.675 72.107L112.836 72.356L112.988 72.582L113.269 72.997L113.55 73.413L113.797 73.779L113.891 73.914L114.023 74.101" stroke="#15242B" stroke-width="2.1" fill="none" stroke-linecap="round" stroke-linejoin="round"/>
<path d="M110.87 74.1a3.15 3.15 0 1 1 6.3 0a3.15 3.15 0 1 1 -6.3 0z" fill="#15242B"/>
<path d="M130 0L130.22 0.448L130.44 0.896L130.661 1.345L130.881 1.793L131.1 2.242L131.314 2.693L131.528 3.144L131.742 3.595L131.956 4.046L132.167 4.499L132.375 4.953L132.583 5.407L132.792 5.861L133 6.315L133.204 6.77L133.406 7.227L133.609 7.683L133.811 8.14L134.014 8.596L134.211 9.055L134.408 9.514L134.606 9.972L134.803 10.431L134.998 10.891L135.19 11.352L135.383 11.813L135.575 12.273L135.767 12.734L135.956 13.197L136.144 13.659L136.332 14.122L136.519 14.585L136.706 15.048L136.89 15.512L137.073 15.977L137.256 16.441L137.44 16.906L137.621 17.371L137.8 17.837L137.98 18.303L138.159 18.769L138.339 19.235L138.515 19.703L138.691 20.17L138.866 20.637L139.042 21.105L139.217 21.573L139.389 22.041L139.562 22.51L139.735 22.978L139.907 23.447L140.078 23.916L140.247 24.386L140.417 24.856L140.587 25.325L140.756 25.795L140.924 26.266L141.091 26.736L141.259 27.206L141.426 27.677L141.592 28.148L141.757 28.619L141.923 29.09L142.088 29.561L142.253 30.033L142.417 30.504L142.581 30.976L142.745 31.448L142.909 31.92L143.072 32.392L143.234 32.864L143.397 33.336L143.56 33.808L143.722 34.28L143.884 34.753L144.047 35.225L144.209 35.697L144.371 36.17L144.532 36.642L144.694 37.114L144.856 37.587L145.018 38.059L145.18 38.532L145.341 39.004L145.503 39.477L145.665 39.949L145.827 40.421L145.99 40.894L146.152 41.366L146.315 41.838L146.477 42.31L146.641 42.782L146.804 43.254L146.968 43.726L147.131 44.198L147.295 44.669L147.46 45.14L147.625 45.612L147.79 46.083L147.956 46.554L148.122 47.025L148.289 47.496L148.456 47.966L148.623 48.437L148.792 48.907L148.961 49.377L149.13 49.847L149.3 50.316L149.47 50.786L149.642 51.255L149.814 51.723L149.986 52.192L150.159 52.661L150.334 53.129L150.509 53.596L150.685 54.064L150.86 54.531L151.038 54.998L151.217 55.464L151.396 55.93L151.575 56.396L151.755 56.862L151.939 57.327L152.122 57.791L152.305 58.256L152.488 58.72L152.676 59.183L152.864 59.646L153.051 60.108L153.239 60.571L153.43 61.033L153.623 61.493L153.816 61.954L154.008 62.415L154.203 62.875L154.401 63.333L154.599 63.791L154.797 64.25L154.996 64.708L155.199 65.164L155.403 65.62L155.607 66.076L155.811 66.531L156.019 66.985L156.229 67.438L156.439 67.891L156.65 68.344L156.862 68.797L157.078 69.246L157.295 69.696L157.512 70.146L157.729 70.596L157.952 71.043L158.175 71.489L158.399 71.936L158.623 72.382L158.851 72.827L159.081 73.269L159.312 73.712L159.543 74.155L159.776 74.597L160.014 75.036L160.253 75.475L160.491 75.913L160.729 76.352L160.975 76.787L161.221 77.222L161.467 77.656L161.713 78.091L161.963 78.523L162.218 78.953L162.472 79.382L162.726 79.812L162.981 80.241L163.244 80.666L163.506 81.091L163.768 81.516L164.031 81.941L164.299 82.362L164.57 82.781L164.841 83.201L165.112 83.62L165.385 84.038L165.665 84.452L165.944 84.866L166.224 85.28L166.503 85.694L166.79 86.103L167.078 86.511L167.366 86.918L167.654 87.326L167.945 87.732L168.242 88.133L168.539 88.535L168.836 88.936L169.133 89.338L169.437 89.734L169.743 90.129L170.049 90.524L170.355 90.918L170.662 91.312L170.977 91.699L171.292 92.087L171.607 92.475L171.921 92.863L172.241 93.246L172.565 93.626L172.888 94.007L173.212 94.387L173.535 94.768L173.867 95.141L174.199 95.514L174.531 95.887L174.864 96.259L175.198 96.631L175.538 96.996L175.879 97.361L176.22 97.725L176.561 98.09L176.906 98.452L177.255 98.809L177.605 99.165L177.954 99.522L178.303 99.879L178.658 100.231L179.015 100.579L179.373 100.927L179.731 101.276L180.089 101.624L180.452 101.967L180.818 102.307L181.184 102.646L181.55 102.986L181.916 103.326L182.287 103.66L182.661 103.991L183.035 104.322L183.409 104.653L183.783 104.984L184.162 105.309L184.543 105.632L184.925 105.954L185.306 106.276L185.688 106.598L186.073 106.916L186.462 107.229L186.851 107.542L187.24 107.855L187.629 108.169L188.02 108.479L188.416 108.783L188.812 109.087L189.208 109.392L189.604 109.696L190 110" stroke="#15242B" stroke-width="2.1" fill="none" stroke-linecap="round" stroke-linejoin="round"/>
<path d="M186.85 110a3.15 3.15 0 1 1 6.3 0a3.15 3.15 0 1 1 -6.3 0z" fill="#15242B"/>
<path d="M136.283 -3.086L136.504 -2.636L136.725 -2.186L136.946 -1.736L137.167 -1.286L137.417 -0.773L137.643 -0.297L137.858 0.156L138.073 0.609L138.289 1.065L138.537 1.596L138.747 2.054L138.956 2.51L139.165 2.966L139.385 3.446L139.614 3.958L139.817 4.416L140.021 4.874L140.224 5.333L140.447 5.837L140.657 6.326L140.855 6.786L141.053 7.247L141.253 7.712L141.474 8.233L141.669 8.701L141.863 9.164L142.056 9.627L142.258 10.113L142.465 10.619L142.653 11.083L142.841 11.548L143.031 12.015L143.235 12.522L143.425 13.004L143.609 13.47L143.793 13.937L143.982 14.414L144.18 14.926L144.36 15.393L144.541 15.861L144.721 16.329L144.913 16.83L145.096 17.317L145.273 17.786L145.449 18.255L145.628 18.731L145.816 19.237L145.99 19.709L146.164 20.18L146.337 20.65L146.518 21.144L146.695 21.631L146.865 22.103L147.036 22.574L147.209 23.051L147.387 23.549L147.556 24.023L147.724 24.496L147.892 24.968L148.066 25.458L148.236 25.941L148.402 26.414L148.568 26.887L148.736 27.365L148.907 27.855L149.072 28.329L149.236 28.803L149.401 29.276L149.569 29.761L149.734 30.24L149.898 30.714L150.061 31.188L150.225 31.665L150.391 32.146L150.554 32.621L150.716 33.095L150.879 33.569L151.043 34.046L151.205 34.522L151.368 34.996L151.53 35.47L151.692 35.944L151.854 36.417L152.017 36.891L152.179 37.365L152.342 37.838L152.502 38.306L152.665 38.779L152.828 39.253L152.991 39.727L153.151 40.192L153.314 40.661L153.478 41.134L153.642 41.608L153.804 42.075L153.965 42.535L154.13 43.007L154.296 43.481L154.461 43.953L154.619 44.402L154.786 44.872L154.954 45.345L155.121 45.817L155.282 46.27L155.447 46.728L155.617 47.199L155.787 47.671L155.953 48.132L156.115 48.575L156.288 49.045L156.46 49.515L156.633 49.986L156.792 50.415L156.966 50.88L157.143 51.349L157.319 51.818L157.484 52.258L157.655 52.704L157.835 53.172L158.015 53.64L158.189 54.093L158.355 54.517L158.539 54.983L158.723 55.449L158.907 55.916L159.069 56.322L159.256 56.782L159.444 57.246L159.633 57.711L159.804 58.132L159.987 58.568L160.18 59.03L160.374 59.492L160.558 59.932L160.733 60.34L160.932 60.8L161.131 61.26L161.329 61.717L161.498 62.102L161.701 62.556L161.906 63.013L162.11 63.47L162.29 63.87L162.488 64.296L162.699 64.751L162.91 65.206L163.106 65.627L163.294 66.021L163.512 66.472L163.73 66.924L163.943 67.368L164.123 67.733L164.345 68.177L164.57 68.625L164.793 69.071L164.985 69.451L165.201 69.865L165.432 70.309L165.664 70.754L165.875 71.158L166.078 71.534L166.317 71.974L166.557 72.415L166.789 72.843L166.984 73.193L167.226 73.621L167.473 74.057L167.72 74.493L167.925 74.852L168.159 75.247L168.414 75.679L168.669 76.11L168.904 76.507L169.116 76.853L169.38 77.28L169.643 77.706L169.901 78.124L170.112 78.46L170.371 78.86L170.643 79.281L170.915 79.702L171.15 80.065L171.387 80.418L171.668 80.834L171.948 81.249L172.218 81.648L172.439 81.968L172.719 82.364L173.009 82.773L173.298 83.183L173.541 83.524L173.797 83.872L174.095 84.275L174.393 84.678L174.679 85.063L174.911 85.37L175.208 85.753L175.515 86.149L175.822 86.545L176.084 86.882L176.346 87.207L176.662 87.596L176.978 87.985L177.29 88.369L177.528 88.658L177.836 89.019L178.16 89.401L178.485 89.783L178.782 90.132L179.038 90.423L179.368 90.793L179.702 91.167L180.035 91.542L180.311 91.849L180.601 92.161L180.943 92.527L181.286 92.893L181.628 93.26L181.883 93.53L182.209 93.863L182.56 94.221L182.911 94.579L183.254 94.929L183.511 95.186L183.858 95.524L184.218 95.874L184.577 96.224L184.918 96.556L185.187 96.811L185.547 97.146L185.915 97.487L186.282 97.828L186.627 98.149L186.905 98.399L187.275 98.726L187.301 98.75" stroke="#15242B" stroke-width="2.1" fill="none" stroke-linecap="round" stroke-linejoin="round"/>
<path d="M184.15 98.75a3.15 3.15 0 1 1 6.3 0a3.15 3.15 0 1 1 -6.3 0z" fill="#15242B"/>
<path d="M142.566 -6.173L142.787 -5.723L143.008 -5.273L143.229 -4.823L143.45 -4.372L143.73 -3.797L143.967 -3.297L144.182 -2.844L144.397 -2.391L144.615 -1.933L144.899 -1.324L145.11 -0.864L145.319 -0.408L145.528 0.048L145.759 0.552L146.012 1.118L146.215 1.576L146.419 2.034L146.623 2.494L146.866 3.044L147.088 3.56L147.286 4.021L147.484 4.481L147.686 4.952L147.932 5.531L148.13 6.005L148.323 6.468L148.516 6.931L148.729 7.442L148.951 7.988L149.14 8.453L149.328 8.917L149.518 9.386L149.739 9.936L149.936 10.434L150.12 10.9L150.304 11.366L150.497 11.854L150.713 12.41L150.893 12.878L151.073 13.346L151.253 13.814L151.458 14.347L151.648 14.851L151.824 15.321L152.001 15.79L152.182 16.273L152.384 16.814L152.558 17.289L152.732 17.759L152.905 18.23L153.095 18.747L153.277 19.25L153.448 19.721L153.619 20.193L153.793 20.675L153.981 21.199L154.15 21.676L154.319 22.148L154.487 22.62L154.667 23.127L154.84 23.622L155.007 24.095L155.173 24.568L155.342 25.049L155.519 25.556L155.684 26.032L155.849 26.505L156.013 26.979L156.185 27.475L156.352 27.959L156.515 28.432L156.679 28.906L156.844 29.386L157.012 29.875L157.175 30.349L157.337 30.823L157.5 31.298L157.665 31.778L157.828 32.254L157.99 32.728L158.153 33.203L158.314 33.675L158.476 34.147L158.639 34.621L158.801 35.096L158.963 35.567L159.121 36.029L159.284 36.501L159.447 36.975L159.61 37.45L159.767 37.904L159.928 38.368L160.092 38.842L160.256 39.316L160.416 39.776L160.572 40.222L160.737 40.694L160.903 41.167L161.068 41.639L161.218 42.065L161.383 42.532L161.551 43.004L161.719 43.477L161.873 43.911L162.032 44.354L162.202 44.826L162.372 45.298L162.535 45.748L162.687 46.163L162.859 46.632L163.031 47.102L163.204 47.573L163.348 47.961L163.52 48.421L163.697 48.89L163.873 49.36L164.027 49.77L164.189 50.193L164.369 50.661L164.549 51.129L164.717 51.567L164.867 51.949L165.051 52.414L165.235 52.88L165.418 53.347L165.557 53.693L165.742 54.149L165.93 54.613L166.119 55.078L166.273 55.456L166.444 55.865L166.637 56.327L166.831 56.79L167.005 57.206L167.158 57.562L167.357 58.022L167.556 58.482L167.752 58.936L167.889 59.246L168.09 59.696L168.295 60.154L168.499 60.609L168.653 60.953L168.838 61.35L169.049 61.805L169.26 62.259L169.44 62.647L169.601 62.983L169.818 63.435L170.036 63.886L170.246 64.321L170.384 64.602L170.604 65.043L170.829 65.491L171.051 65.934L171.208 66.246L171.408 66.629L171.64 67.073L171.871 67.518L172.061 67.881L172.229 68.193L172.469 68.633L172.708 69.074L172.934 69.489L173.079 69.751L173.316 70.17L173.564 70.606L173.81 71.042L173.972 71.326L174.184 71.684L174.439 72.115L174.694 72.547L174.909 72.91L175.071 73.174L175.335 73.601L175.598 74.027L175.85 74.435L176.006 74.684L176.251 75.062L176.523 75.483L176.795 75.904L176.993 76.211L177.188 76.5L177.468 76.915L177.749 77.331L178.007 77.713L178.165 77.941L178.435 78.324L178.725 78.733L179.014 79.142L179.209 79.417L179.424 79.708L179.722 80.111L180.02 80.514L180.293 80.882L180.455 81.096L180.741 81.465L181.048 81.861L181.355 82.257L181.571 82.535L181.781 82.795L182.097 83.184L182.413 83.574L182.72 83.952L182.877 84.143L183.168 84.484L183.493 84.866L183.817 85.248L184.086 85.565L184.267 85.769L184.594 86.135L184.927 86.51L185.211 86.828" stroke="#15242B" stroke-width="2.1" fill="none" stroke-linecap="round" stroke-linejoin="round"/>
<path d="M182.06 86.83a3.15 3.15 0 1 1 6.3 0a3.15 3.15 0 1 1 -6.3 0z" fill="#15242B"/>
<path d="M148.849 -9.259L149.07 -8.809L149.291 -8.359L149.512 -7.909L149.734 -7.457L150.044 -6.82L150.292 -6.298L150.507 -5.845L150.722 -5.392L150.94 -4.93L151.26 -4.244L151.473 -3.782L151.682 -3.326L151.891 -2.87L152.132 -2.342L152.41 -1.722L152.613 -1.264L152.817 -0.805L153.021 -0.345L153.284 0.251L153.518 0.794L153.716 1.255L153.914 1.716L154.119 2.191L154.389 2.83L154.59 3.31L154.783 3.772L154.976 4.235L155.199 4.77L155.438 5.357L155.627 5.822L155.815 6.286L156.006 6.758L156.244 7.349L156.447 7.863L156.631 8.329L156.815 8.796L157.012 9.295L157.245 9.895L157.425 10.363L157.606 10.831L157.786 11.299L158.002 11.864L158.199 12.386L158.376 12.855L158.552 13.325L158.737 13.815L158.951 14.392L159.127 14.868L159.3 15.339L159.473 15.809L159.672 16.35L159.86 16.869L160.03 17.34L160.201 17.812L160.378 18.3L160.574 18.849L160.745 19.328L160.913 19.8L161.081 20.273L161.267 20.797L161.445 21.302L161.611 21.775L161.777 22.248L161.948 22.734L162.13 23.257L162.296 23.734L162.461 24.207L162.625 24.681L162.801 25.189L162.97 25.677L163.133 26.151L163.297 26.625L163.463 27.107L163.633 27.603L163.796 28.077L163.959 28.552L164.121 29.026L164.287 29.51L164.45 29.987L164.613 30.461L164.775 30.935L164.937 31.407L165.098 31.877L165.261 32.352L165.423 32.826L165.584 33.297L165.741 33.752L165.903 34.224L166.066 34.698L166.229 35.172L166.383 35.617L166.542 36.076L166.706 36.549L166.87 37.023L167.028 37.477L167.178 37.909L167.344 38.381L167.509 38.854L167.674 39.325L167.816 39.727L167.981 40.192L168.148 40.664L168.316 41.137L168.463 41.551L168.618 41.981L168.788 42.452L168.958 42.924L169.117 43.365L169.258 43.751L169.43 44.219L169.602 44.689L169.775 45.16L169.903 45.506L170.074 45.962L170.251 46.431L170.427 46.901L170.569 47.281L170.724 47.682L170.903 48.15L171.083 48.618L171.246 49.041L171.379 49.381L171.562 49.845L171.746 50.312L171.93 50.778L172.045 51.065L172.228 51.516L172.416 51.981L172.605 52.445L172.741 52.781L172.901 53.162L173.095 53.625L173.288 54.087L173.453 54.481L173.583 54.783L173.782 55.243L173.981 55.704L174.176 56.154L174.28 56.391L174.48 56.837L174.684 57.294L174.888 57.748L175.017 58.036L175.188 58.404L175.399 58.859L175.61 59.313L175.774 59.667L175.907 59.945L176.125 60.397L176.342 60.848L176.548 61.275L176.645 61.472L176.863 61.908L177.088 62.356L177.309 62.798L177.431 63.041L177.615 63.393L177.847 63.838L178.079 64.282L178.247 64.605L178.38 64.851L178.62 65.292L178.859 65.733L179.078 66.136L179.174 66.309L179.407 66.719L179.654 67.156L179.901 67.591L180.019 67.8L180.209 68.12L180.464 68.552L180.719 68.983L180.914 69.312L181.026 69.495L181.29 69.921L181.553 70.348L181.8 70.747L181.9 70.908L182.131 71.264L182.403 71.686L182.675 72.107L182.836 72.356L182.988 72.582L183.269 72.997L183.55 73.413L183.797 73.779L183.891 73.914L184.023 74.101" stroke="#15242B" stroke-width="2.1" fill="none" stroke-linecap="round" stroke-linejoin="round"/>
<path d="M180.87 74.1a3.15 3.15 0 1 1 6.3 0a3.15 3.15 0 1 1 -6.3 0z" fill="#15242B"/>
<path d="M155.131 -12.346L155.352 -11.896L155.573 -11.446L155.795 -10.996L156.017 -10.543L156.357 -9.844L156.616 -9.298L156.831 -8.845L157.046 -8.392L157.266 -7.928L157.622 -7.165L157.835 -6.7L158.044 -6.244L158.253 -5.788L158.506 -5.237L158.808 -4.562L159.012 -4.103L159.215 -3.645L159.419 -3.184L159.703 -2.542L159.949 -1.971L160.147 -1.511L160.345 -1.05L160.552 -0.569L160.847 0.128L161.05 0.614L161.243 1.076L161.436 1.539L161.669 2.098L161.925 2.727L162.113 3.191L162.302 3.656L162.494 4.129L162.749 4.763L162.958 5.293L163.142 5.759L163.326 6.225L163.528 6.735L163.778 7.38L163.958 7.848L164.138 8.316L164.318 8.784L164.547 9.381L164.751 9.921L164.927 10.39L165.104 10.859L165.291 11.356L165.519 11.969L165.695 12.448L165.868 12.918L166.042 13.389L166.249 13.953L166.442 14.487L166.613 14.959L166.784 15.43L166.962 15.924L167.168 16.499L167.34 16.98L167.508 17.453L167.676 17.925L167.868 18.466L168.049 18.982L168.215 19.455L168.382 19.928L168.554 20.419L168.742 20.958L168.908 21.436L169.073 21.91L169.237 22.383L169.417 22.902L169.587 23.395L169.751 23.869L169.914 24.343L170.082 24.828L170.254 25.331L170.417 25.806L170.58 26.28L170.743 26.755L170.91 27.242L171.073 27.719L171.235 28.193L171.398 28.668L171.559 29.138L171.72 29.608L171.882 30.082L172.045 30.556L172.206 31.026L172.36 31.475L172.522 31.946L172.685 32.42L172.848 32.894L172.998 33.329L173.156 33.783L173.32 34.257L173.484 34.731L173.639 35.179L173.785 35.596L173.95 36.068L174.116 36.541L174.281 37.011L174.414 37.39L174.578 37.852L174.745 38.324L174.913 38.796L175.053 39.192L175.203 39.607L175.373 40.079L175.543 40.551L175.698 40.981L175.829 41.339L176 41.806L176.173 42.276L176.346 42.747L176.459 43.052L176.628 43.503L176.804 43.973L176.981 44.442L177.112 44.793L177.258 45.172L177.438 45.64L177.618 46.108L177.774 46.516L177.891 46.812L178.074 47.277L178.258 47.743L178.442 48.209L178.532 48.436L178.714 48.883L178.902 49.348L179.091 49.812L179.168 50.003" stroke="#15242B" stroke-width="2.1" fill="none" stroke-linecap="round" stroke-linejoin="round"/>
<path d="M176.02 50a3.15 3.15 0 1 1 6.3 0a3.15 3.15 0 1 1 -6.3 0z" fill="#15242B"/>
<path d="M200 0L200.22 0.448L200.44 0.896L200.661 1.345L200.881 1.793L201.1 2.242L201.314 2.693L201.528 3.144L201.742 3.595L201.956 4.046L202.167 4.499L202.375 4.953L202.583 5.407L202.792 5.861L203 6.315L203.204 6.77L203.406 7.227L203.609 7.683L203.811 8.14L204.014 8.596L204.211 9.055L204.408 9.514L204.606 9.972L204.803 10.431L204.998 10.891L205.19 11.352L205.383 11.813L205.575 12.273L205.767 12.734L205.956 13.197L206.144 13.659L206.332 14.122L206.519 14.585L206.706 15.048L206.89 15.512L207.073 15.977L207.256 16.441L207.44 16.906L207.621 17.371L207.8 17.837L207.98 18.303L208.159 18.769L208.339 19.235L208.515 19.703L208.691 20.17L208.866 20.637L209.042 21.105L209.217 21.573L209.389 22.041L209.562 22.51L209.735 22.978L209.907 23.447L210.078 23.916L210.247 24.386L210.417 24.856L210.587 25.325L210.756 25.795L210.924 26.266L211.091 26.736L211.259 27.206L211.426 27.677L211.592 28.148L211.757 28.619L211.923 29.09L212.088 29.561L212.253 30.033L212.417 30.504L212.581 30.976L212.745 31.448L212.909 31.92L213.072 32.392L213.234 32.864L213.397 33.336L213.56 33.808L213.722 34.28L213.884 34.753L214.047 35.225L214.209 35.697L214.371 36.17L214.532 36.642L214.694 37.114L214.856 37.587L215.018 38.059L215.18 38.532L215.341 39.004L215.503 39.477L215.665 39.949L215.827 40.421L215.99 40.894L216.152 41.366L216.315 41.838L216.477 42.31L216.641 42.782L216.804 43.254L216.968 43.726L217.131 44.198L217.295 44.669L217.46 45.14L217.625 45.612L217.79 46.083L217.956 46.554L218.122 47.025L218.289 47.496L218.456 47.966L218.623 48.437L218.792 48.907L218.961 49.377L219.13 49.847L219.3 50.316L219.47 50.786L219.642 51.255L219.814 51.723L219.986 52.192L220.159 52.661L220.334 53.129L220.509 53.596L220.685 54.064L220.86 54.531L221.038 54.998L221.217 55.464L221.396 55.93L221.575 56.396L221.755 56.862L221.939 57.327L222.122 57.791L222.305 58.256L222.488 58.72L222.676 59.183L222.864 59.646L223.051 60.108L223.239 60.571L223.43 61.033L223.623 61.493L223.816 61.954L224.008 62.415L224.203 62.875L224.401 63.333L224.599 63.791L224.797 64.25L224.996 64.708L225.199 65.164L225.403 65.62L225.607 66.076L225.811 66.531L226.019 66.985L226.229 67.438L226.439 67.891L226.65 68.344L226.862 68.797L227.078 69.246L227.295 69.696L227.512 70.146L227.729 70.596L227.952 71.043L228.175 71.489L228.399 71.936L228.623 72.382L228.851 72.827L229.081 73.269L229.312 73.712L229.543 74.155L229.776 74.597L230.014 75.036L230.253 75.475L230.491 75.913L230.729 76.352L230.975 76.787L231.221 77.222L231.467 77.656L231.713 78.091L231.963 78.523L232.218 78.953L232.472 79.382L232.726 79.812L232.981 80.241L233.244 80.666L233.506 81.091L233.768 81.516L234.031 81.941L234.299 82.362L234.57 82.781L234.841 83.201L235.112 83.62L235.385 84.038L235.665 84.452L235.944 84.866L236.224 85.28L236.503 85.694L236.79 86.103L237.078 86.511L237.366 86.918L237.654 87.326L237.945 87.732L238.242 88.133L238.539 88.535L238.836 88.936L239.133 89.338L239.437 89.734L239.743 90.129L240.049 90.524L240.355 90.918L240.662 91.312L240.977 91.699L241.292 92.087L241.607 92.475L241.921 92.863L242.241 93.246L242.565 93.626L242.888 94.007L243.212 94.387L243.535 94.768L243.867 95.141L244.199 95.514L244.531 95.887L244.864 96.259L245.198 96.631L245.538 96.996L245.879 97.361L246.22 97.725L246.561 98.09L246.906 98.452L247.255 98.809L247.605 99.165L247.954 99.522L248.303 99.879L248.658 100.231L249.015 100.579L249.373 100.927L249.731 101.276L250.089 101.624L250.452 101.967L250.818 102.307L251.184 102.646L251.55 102.986L251.916 103.326L252.287 103.66L252.661 103.991L253.035 104.322L253.409 104.653L253.783 104.984L254.162 105.309L254.543 105.632L254.925 105.954L255.306 106.276L255.688 106.598L256.073 106.916L256.462 107.229L256.851 107.542L257.24 107.855L257.629 108.169L258.02 108.479L258.416 108.783L258.812 109.087L259.208 109.392L259.604 109.696L260 110" stroke="#15242B" stroke-width="2.1" fill="none" stroke-linecap="round" stroke-linejoin="round"/>
<path d="M256.85 110a3.15 3.15 0 1 1 6.3 0a3.15 3.15 0 1 1 -6.3 0z" fill="#15242B"/>
<path d="M206.283 -3.086L206.504 -2.636L206.725 -2.186L206.946 -1.736L207.167 -1.286L207.417 -0.773L207.643 -0.297L207.858 0.156L208.073 0.609L208.289 1.065L208.537 1.596L208.747 2.054L208.956 2.51L209.165 2.966L209.385 3.446L209.614 3.958L209.817 4.416L210.021 4.874L210.224 5.333L210.447 5.837L210.657 6.326L210.855 6.786L211.053 7.247L211.253 7.712L211.474 8.233L211.669 8.701L211.863 9.164L212.056 9.627L212.258 10.113L212.465 10.619L212.653 11.083L212.841 11.548L213.031 12.015L213.235 12.522L213.425 13.004L213.609 13.47L213.793 13.937L213.982 14.414L214.18 14.926L214.36 15.393L214.541 15.861L214.721 16.329L214.913 16.83L215.096 17.317L215.273 17.786L215.449 18.255L215.628 18.731L215.816 19.237L215.99 19.709L216.164 20.18L216.337 20.65L216.518 21.144L216.695 21.631L216.865 22.103L217.036 22.574L217.209 23.051L217.387 23.549L217.556 24.023L217.724 24.496L217.892 24.968L218.066 25.458L218.236 25.941L218.402 26.414L218.568 26.887L218.736 27.365L218.907 27.855L219.072 28.329L219.236 28.803L219.401 29.276L219.569 29.761L219.734 30.24L219.898 30.714L220.061 31.188L220.225 31.665L220.391 32.146L220.554 32.621L220.716 33.095L220.879 33.569L221.043 34.046L221.205 34.522L221.368 34.996L221.53 35.47L221.692 35.944L221.854 36.417L222.017 36.891L222.179 37.365L222.342 37.838L222.502 38.306L222.665 38.779L222.828 39.253L222.991 39.727L223.151 40.192L223.314 40.661L223.478 41.134L223.642 41.608L223.804 42.075L223.965 42.535L224.13 43.007L224.296 43.481L224.461 43.953L224.619 44.402L224.786 44.872L224.954 45.345L225.121 45.817L225.282 46.27L225.447 46.728L225.617 47.199L225.787 47.671L225.953 48.132L226.115 48.575L226.288 49.045L226.46 49.515L226.633 49.986L226.792 50.415L226.966 50.88L227.143 51.349L227.319 51.818L227.484 52.258L227.655 52.704L227.835 53.172L228.015 53.64L228.189 54.093L228.355 54.517L228.539 54.983L228.723 55.449L228.907 55.916L229.069 56.322L229.256 56.782L229.444 57.246L229.633 57.711L229.804 58.132L229.987 58.568L230.18 59.03L230.374 59.492L230.558 59.932L230.733 60.34L230.932 60.8L231.131 61.26L231.329 61.717L231.498 62.102L231.701 62.556L231.906 63.013L232.11 63.47L232.29 63.87L232.488 64.296L232.699 64.751L232.91 65.206L233.106 65.627L233.294 66.021L233.512 66.472L233.73 66.924L233.943 67.368L234.123 67.733L234.345 68.177L234.57 68.625L234.793 69.071L234.985 69.451L235.201 69.865L235.432 70.309L235.664 70.754L235.875 71.158L236.078 71.534L236.317 71.974L236.557 72.415L236.789 72.843L236.984 73.193L237.226 73.621L237.473 74.057L237.72 74.493L237.925 74.852L238.159 75.247L238.414 75.679L238.669 76.11L238.904 76.507L239.116 76.853L239.38 77.28L239.643 77.706L239.901 78.124L240.112 78.46L240.371 78.86L240.643 79.281L240.915 79.702L241.15 80.065L241.387 80.418L241.668 80.834L241.948 81.249L242.218 81.648L242.439 81.968L242.719 82.364L243.009 82.773L243.298 83.183L243.541 83.524L243.797 83.872L244.095 84.275L244.393 84.678L244.679 85.063L244.911 85.37L245.208 85.753L245.515 86.149L245.822 86.545L246.084 86.882L246.346 87.207L246.662 87.596L246.978 87.985L247.29 88.369L247.528 88.658L247.836 89.019L248.16 89.401L248.485 89.783L248.782 90.132L249.038 90.423L249.368 90.793L249.702 91.167L250.035 91.542L250.311 91.849L250.601 92.161L250.943 92.527L251.286 92.893L251.628 93.26L251.883 93.53L252.209 93.863L252.56 94.221L252.911 94.579L253.254 94.929L253.511 95.186L253.858 95.524L254.218 95.874L254.577 96.224L254.918 96.556L255.187 96.811L255.547 97.146L255.915 97.487L256.282 97.828L256.627 98.149L256.905 98.399L257.275 98.726L257.301 98.75" stroke="#15242B" stroke-width="2.1" fill="none" stroke-linecap="round" stroke-linejoin="round"/>
<path d="M254.15 98.75a3.15 3.15 0 1 1 6.3 0a3.15 3.15 0 1 1 -6.3 0z" fill="#15242B"/>
<path d="M212.566 -6.173L212.787 -5.723L213.008 -5.273L213.229 -4.823L213.45 -4.372L213.73 -3.797L213.967 -3.297L214.182 -2.844L214.397 -2.391L214.615 -1.933L214.899 -1.324L215.11 -0.864L215.319 -0.408L215.528 0.048L215.759 0.552L216.012 1.118L216.215 1.576L216.419 2.034L216.623 2.494L216.866 3.044L217.088 3.56L217.286 4.021L217.484 4.481L217.686 4.952L217.932 5.531L218.13 6.005L218.323 6.468L218.516 6.931L218.729 7.442L218.951 7.988L219.14 8.453L219.328 8.917L219.518 9.386L219.739 9.936L219.936 10.434L220.12 10.9L220.304 11.366L220.497 11.854L220.713 12.41L220.893 12.878L221.073 13.346L221.253 13.814L221.458 14.347L221.648 14.851L221.824 15.321L222.001 15.79L222.182 16.273L222.384 16.814L222.558 17.289L222.732 17.759L222.905 18.23L223.095 18.747L223.277 19.25L223.448 19.721L223.619 20.193L223.793 20.675L223.981 21.199L224.15 21.676L224.319 22.148L224.487 22.62L224.667 23.127L224.84 23.622L225.007 24.095L225.173 24.568L225.342 25.049L225.519 25.556L225.684 26.032L225.849 26.505L226.013 26.979L226.185 27.475L226.352 27.959L226.515 28.432L226.679 28.906L226.844 29.386L227.012 29.875L227.175 30.349L227.337 30.823L227.5 31.298L227.665 31.778L227.828 32.254L227.99 32.728L228.153 33.203L228.314 33.675L228.476 34.147L228.639 34.621L228.801 35.096L228.963 35.567L229.121 36.029L229.284 36.501L229.447 36.975L229.61 37.45L229.767 37.904L229.928 38.368L230.092 38.842L230.256 39.316L230.416 39.776L230.572 40.222L230.737 40.694L230.903 41.167L231.068 41.639L231.218 42.065L231.383 42.532L231.551 43.004L231.719 43.477L231.873 43.911L232.032 44.354L232.202 44.826L232.372 45.298L232.535 45.748L232.687 46.163L232.859 46.632L233.031 47.102L233.204 47.573L233.348 47.961L233.52 48.421L233.697 48.89L233.873 49.36L234.027 49.77L234.189 50.193L234.369 50.661L234.549 51.129L234.717 51.567L234.867 51.949L235.051 52.414L235.235 52.88L235.418 53.347L235.557 53.693L235.742 54.149L235.93 54.613L236.119 55.078L236.273 55.456L236.444 55.865L236.637 56.327L236.831 56.79L237.005 57.206L237.158 57.562L237.357 58.022L237.556 58.482L237.752 58.936L237.889 59.246L238.09 59.696L238.295 60.154L238.499 60.609L238.653 60.953L238.838 61.35L239.049 61.805L239.26 62.259L239.44 62.647L239.601 62.983L239.818 63.435L240.036 63.886L240.246 64.321L240.384 64.602L240.604 65.043L240.829 65.491L241.051 65.934L241.208 66.246L241.408 66.629L241.64 67.073L241.871 67.518L242.061 67.881L242.229 68.193L242.469 68.633L242.708 69.074L242.934 69.489L243.079 69.751L243.316 70.17L243.564 70.606L243.81 71.042L243.972 71.326L244.184 71.684L244.439 72.115L244.694 72.547L244.909 72.91L245.071 73.174L245.335 73.601L245.598 74.027L245.85 74.435L246.006 74.684L246.251 75.062L246.523 75.483L246.795 75.904L246.993 76.211L247.188 76.5L247.468 76.915L247.749 77.331L248.007 77.713L248.165 77.941L248.435 78.324L248.725 78.733L249.014 79.142L249.209 79.417L249.424 79.708L249.722 80.111L250.02 80.514L250.293 80.882L250.455 81.096L250.741 81.465L251.048 81.861L251.355 82.257L251.571 82.535L251.781 82.795L252.097 83.184L252.413 83.574L252.72 83.952L252.877 84.143L253.168 84.484L253.493 84.866L253.817 85.248L254.086 85.565L254.267 85.769L254.594 86.135L254.927 86.51L255.211 86.828" stroke="#15242B" stroke-width="2.1" fill="none" stroke-linecap="round" stroke-linejoin="round"/>
<path d="M252.06 86.83a3.15 3.15 0 1 1 6.3 0a3.15 3.15 0 1 1 -6.3 0z" fill="#15242B"/>
<path d="M218.849 -9.259L219.07 -8.809L219.291 -8.359L219.512 -7.909L219.734 -7.457L220.044 -6.82L220.292 -6.298L220.507 -5.845L220.722 -5.392L220.94 -4.93L221.26 -4.244L221.473 -3.782L221.682 -3.326L221.891 -2.87L222.132 -2.342L222.41 -1.722L222.613 -1.264L222.817 -0.805L223.021 -0.345L223.284 0.251L223.518 0.794L223.716 1.255L223.914 1.716L224.119 2.191L224.389 2.83L224.59 3.31L224.783 3.772L224.976 4.235L225.199 4.77L225.438 5.357L225.627 5.822L225.815 6.286L226.006 6.758L226.244 7.349L226.447 7.863L226.631 8.329L226.815 8.796L227.012 9.295L227.245 9.895L227.425 10.363L227.606 10.831L227.786 11.299L228.002 11.864L228.199 12.386L228.376 12.855L228.552 13.325L228.737 13.815L228.951 14.392L229.127 14.868L229.3 15.339L229.473 15.809L229.672 16.35L229.86 16.869L230.03 17.34L230.201 17.812L230.378 18.3L230.574 18.849L230.745 19.328L230.913 19.8L231.081 20.273L231.267 20.797L231.445 21.302L231.611 21.775L231.777 22.248L231.948 22.734L232.13 23.257L232.296 23.734L232.461 24.207L232.625 24.681L232.801 25.189L232.97 25.677L233.133 26.151L233.297 26.625L233.463 27.107L233.633 27.603L233.796 28.077L233.959 28.552L234.121 29.026L234.287 29.51L234.45 29.987L234.613 30.461L234.775 30.935L234.937 31.407L235.098 31.877L235.261 32.352L235.423 32.826L235.584 33.297L235.741 33.752L235.903 34.224L236.066 34.698L236.229 35.172L236.383 35.617L236.542 36.076L236.706 36.549L236.87 37.023L237.028 37.477L237.178 37.909L237.344 38.381L237.509 38.854L237.674 39.325L237.816 39.727L237.981 40.192L238.148 40.664L238.316 41.137L238.463 41.551L238.618 41.981L238.788 42.452L238.958 42.924L239.117 43.365L239.258 43.751L239.43 44.219L239.602 44.689L239.775 45.16L239.903 45.506L240.074 45.962L240.251 46.431L240.427 46.901L240.569 47.281L240.724 47.682L240.903 48.15L241.083 48.618L241.246 49.041L241.379 49.381L241.562 49.845L241.746 50.312L241.93 50.778L242.045 51.065L242.228 51.516L242.416 51.981L242.605 52.445L242.741 52.781L242.901 53.162L243.095 53.625L243.288 54.087L243.453 54.481L243.583 54.783L243.782 55.243L243.981 55.704L244.176 56.154L244.28 56.391L244.48 56.837L244.684 57.294L244.888 57.748L245.017 58.036L245.188 58.404L245.399 58.859L245.61 59.313L245.774 59.667L245.907 59.945L246.125 60.397L246.342 60.848L246.548 61.275L246.645 61.472L246.863 61.908L247.088 62.356L247.309 62.798L247.431 63.041L247.615 63.393L247.847 63.838L248.079 64.282L248.247 64.605L248.38 64.851L248.62 65.292L248.859 65.733L249.078 66.136L249.174 66.309L249.407 66.719L249.654 67.156L249.901 67.591L250.019 67.8L250.209 68.12L250.464 68.552L250.719 68.983L250.914 69.312L251.026 69.495L251.29 69.921L251.553 70.348L251.8 70.747L251.9 70.908L252.131 71.264L252.403 71.686L252.675 72.107L252.836 72.356L252.988 72.582L253.269 72.997L253.55 73.413L253.797 73.779L253.891 73.914L254.023 74.101" stroke="#15242B" stroke-width="2.1" fill="none" stroke-linecap="round" stroke-linejoin="round"/>
<path d="M250.87 74.1a3.15 3.15 0 1 1 6.3 0a3.15 3.15 0 1 1 -6.3 0z" fill="#15242B"/></g></svg>