<svg xmlns="http://www.w3.org/2000/svg" width="340.00" height="450.00" viewBox="-170.00 -225.00 340.00 450.00"><g id="paper"><path d="M-170 -225h340v450h-340z" fill="#0F2B29"/></g><g id="jade"></g><g id="red"></g><g id="gold"><path d="M-38.08 -188l.13 -.33 .17 -.37 .2 -.4 .18 -.38 .16 -.35 .17 -.35 .17 -.35 .18 -.35 .17 -.35 .17 -.34 .21 -.36 .25 -.38 .2 -.34 .19 -.33 .19 -.33 .2 -.32 .2 -.32 .19 -.32 .21 -.32 .24 -.35 .29 -.36 .22 -.31 .21 -.3 .22 -.3 .22 -.3 .22 -.3 .22 -.29 .22 -.29 .3 -.34 .3 -.33 .24 -.28 .23 -.28 .24 -.28 .24 -.27 .24 -.27 .24 -.27 .25 -.27 .34 -.33 .32 -.29 .25 -.26 .25 -.25 .26 -.25 .26 -.24 .25 -.25 .26 -.24 .29 -.26 .38 -.31 .31 -.26 .27 -.22 .27 -.23 .28 -.23 .27 -.22 .27 -.22 .28 -.22 .33 -.24 .4 -.28 .31 -.22 .29 -.21 .29 -.2 .28 -.2 .29 -.19 .29 -.2 .3 -.19 .36 -.23 .42 -.25 .31 -.19 .1 -.06M-26.06 -184.31l-.21 .05 -.29 .04 -.32 .07 -.36 .09 -.36 .1 -.37 .09 -.36 .09 -.37 .09 -.37 .08 -.36 .07 -.31 .04 -.35 .07 -.38 .08 -.38 .08 -.38 .08 -.38 .07 -.38 .08 -.39 .07 -.17 .02M-7.55 -212.12l.32 -.05 .42 -.09 .47 -.09 .37 -.05 .35 -.04 .36 -.04 .36 -.04 .36 -.03 .37 -.04 .36 -.03 .45 -.05 .45 -.05 .37 -.02 .36 -.01 .37 -.01 .37 0 .37 -.01 .37 0 .38 0 .46 -.02 .43 -.01 .37 .02 .38 .02 .37 .03 .38 .03 .38 .03 .38 .03 .39 .03 .46 .02 .41 .04 .38 .05 .38 .06 .39 .06 .38 .06 .39 .07 .38 .07 .41 .06 .44 .07 .4 .08 .39 .09 .39 .1 .39 .1 .04 .01M13.89 -209.87l-.16 .2 -.28 .33 -.28 .32 -.28 .32 -.28 .31 -.28 .31 -.28 .31 -.28 .3 -.25 .3 -.22 .25" stroke="#B08D57" stroke-width="2.1" fill="none" stroke-linecap="round" stroke-linejoin="miter" stroke-miterlimit="10"/>
<path d="M-35.15 -186.02l.15 -.12 .2 -.15 .19 -.15 .2 -.16 .2 -.15 .2 -.15 .19 -.15 .2 -.16 .2 -.15 .2 -.15 .2 -.15 .19 -.16 .2 -.14 .21 -.15 .2 -.15 .2 -.15 .2 -.14 .2 -.15 .2 -.15 .2 -.15 .2 -.15 .2 -.14 .21 -.15 .2 -.15 .2 -.14 .21 -.15 .2 -.14 .2 -.14 .21 -.14 .2 -.15 .21 -.14 .2 -.14 .21 -.15 .2 -.14 .21 -.14 .2 -.14 .21 -.15 .21 -.13 .2 -.14 .21 -.14 .21 -.14 .21 -.14 .21 -.13 .2 -.14 .21 -.14 .21 -.14 .21 -.14 .21 -.13 .2 -.14 .22 -.13 .21 -.14 .21 -.13 .21 -.13 .21 -.14 .21 -.13 .21 -.13 .22 -.13 .21 -.14 .21 -.13 .21 -.13 .21 -.14 .21 -.13 .22 -.12 .21 -.13 .22 -.13 .21 -.13 .22 -.12 .21 -.13 .22 -.13 .21 -.13 .21 -.13 .22 -.12 .21 -.13 .22 -.13 .22 -.12 .21 -.12 .22 -.13 .22 -.12 .22 -.12 .21 -.12 .22 -.13 .22 -.12 .21 -.12 .22 -.12 .22 -.13 .22 -.12 .22 -.12 .22 -.11 .22 -.12 .22 -.12 .22 -.12 .22 -.12 .22 -.11 .22 -.12 .22 -.12 .22 -.11 .22 -.12 .22 -.12 .22 -.11 .23 -.11 .22 -.12 .22 -.11 .23 -.11 .22 -.11 .22 -.12 .22 -.11 .23 -.11 .22 -.11 .22 -.12 .23 -.11 .22 -.11 .23 -.1 .22 -.11 .23 -.11 .22 -.1 .23 -.11 .22 -.11 .23 -.1 .22 -.11 .23 -.11 .23 -.1 .22 -.11 .23 -.11 .23 -.1 .22 -.1 .23 -.1 .23 -.1 .23 -.1 .23 -.1 .22 -.11 .23 -.1 .23 -.1 .23 -.1 .23 -.1 .22 -.1 .24 -.1 .23 -.09 .23 -.1 .23 -.1 .23 -.09 .23 -.1 .23 -.09 .23 -.1 .23 -.1 .23 -.09 .23 -.1 .23 -.09 .23 -.1 .24 -.09 .23 -.09 .23 -.09 .23 -.09 .24 -.09 .23 -.09 .23 -.09 .23 -.09 .24 -.09 .23 -.09 .23 -.09 .24 -.09 .23 -.08 .24 -.09 .23 -.08 .23 -.09 .24 -.08 .23 -.09 .24 -.08 .23 -.09 .24 -.08 .23 -.09 .24 -.08 .23 -.09 .24 -.08 .24 -.08 .23 -.08 .24 -.07 .24 -.08 .23 -.08 .24 -.08 .24 -.08 .23 -.08 .24 -.08 .24 -.08 .23 -.08 .24 -.07 .24 -.08 .13 -.04" stroke="#B08D57" stroke-width="2.1" fill="none" stroke-linecap="round" stroke-linejoin="round"/>
<path d="M-32.25 -188.24l2.22 -11.9M-24.09 -193.84l2.42 -12.93M-16.1 -198.48l2.13 -11.36M-8.25 -202.34l1.87 -10M-.54 -205.52l1.36 -7.26" stroke="#B08D57" stroke-width="2.1" fill="none" stroke-linecap="butt" stroke-linejoin="miter" stroke-miterlimit="4"/>
<path d="M35.85 -122.35l.22 .11 .32 .16 .31 .16 .32 .16 .31 .16 .32 .16 .31 .16 .32 .17 .39 .19 .34 .18 .31 .17 .32 .17 .31 .17 .31 .17 .31 .18 .31 .17 .3 .18 .31 .17 .32 .18 .35 .19 .36 .2 .3 .19 .31 .18 .3 .18 .31 .19 .3 .19 .3 .18 .31 .19 .3 .19 .3 .19 .33 .19 .35 .22 .31 .2 .3 .2 .3 .19 .3 .2 .3 .2 .29 .2 .3 .2 .3 .2 .29 .2 .31 .21 .34 .22 .31 .22 .29 .2 .29 .22 .3 .21 .29 .21 .29 .21 .29 .21 .29 .22 .29 .21 .29 .21 .32 .23 .31 .23 .29 .23 .28 .22 .29 .22 .28 .23 .28 .22 .29 .23 .28 .23 .28 .22 .29 .23 .29 .23 .3 .25 .29 .23 .27 .24 .28 .23 .28 .24 .28 .24 .27 .24 .28 .24 .27 .23 .28 .25 .28 .24 .28 .25 .28 .25 .27 .25 .27 .24 .26 .25 .27 .25 .27 .25 .27 .26 .27 .25 .27 .25 .26 .25 .27 .26 -.37 -.04 -.36 -.05 -.37 -.05 -.36 -.04 -.37 -.05 -.36 -.05 -.37 -.05 -.36 -.05 -.36 -.05 -.36 -.05 -.36 -.05 -.35 -.04 -.36 -.05 -.37 -.04 -.36 -.05 -.36 -.05 -.36 -.05 -.36 -.05 -.36 -.05 -.36 -.05 -.36 -.06 -.36 -.05 -.34 -.04 -.35 -.05 -.36 -.04 -.36 -.06 -.35 -.05 -.36 -.05 -.36 -.05 -.36 -.05 -.36 -.06 -.36 -.05 -.35 -.05 -.33 -.05 -.33 -.04 -.36 -.05 -.36 -.05 -.35 -.05 -.36 -.06 -.36 -.05 -.35 -.06 -.36 -.05 -.35 -.06 -.36 -.06 -.33 -.04 -.32 -.04 -.34 -.05 -.36 -.06 -.35 -.05 -.36 -.06 -.35 -.05 -.35 -.06 -.36 -.05 -.35 -.06 -.35 -.06 -.34 -.06 -.3 -.03 -.34 -.05 -.35 -.06 -.35 -.05 -.36 -.06 -.35 -.05 -.35 -.06 -.35 -.06 -.35 -.06 -.35 -.06 -.35 -.06 -.3 -.04 -.31 -.04 -.35 -.06 -.35 -.06 -.35 -.06 -.35 -.06 -.35 -.06 -.35 -.06 -.35 -.06 -.35 -.06 -.35 -.06 -.31 -.05 -.28 -.03 -.35 -.06 -.35 -.06 -.35 -.06 -.34 -.06 -.35 -.06 -.35 -.07 -.35 -.06 -.35 -.06 -.34 -.07 -.34 -.06 -.27 -.03 -.32 -.05 -.35 -.06 -.34 -.07 -.35 -.06 -.35 -.06 -.34 -.07 -.35 -.06 -.35 -.06 -.34 -.07 -.34 -.06 -.28 -.05 -.29 -.04 -.35 -.07 -.35 -.06 -.34 -.06 -.35 -.07 -.34 -.06 -.35 -.07 -.35 -.07 -.34 -.06 -.35 -.07 -.29 -.05 -.27 -.05 -.34 -.06 -.34 -.06 -.35 -.07 -.34 -.06 -.35 -.07 -.34 -.07 -.35 -.06 -.34 -.07 -.34 -.07 -.32 -.07 -.26 -.04 -.31 -.06 -.35 -.07 -.34 -.06 -.35 -.07 -.34 -.07 -.34 -.07 -.35 -.07 -.34 -.07 -.34 -.07 -.34 -.07 -.26 -.05 -.29 -.05 -.34 -.07 -.35 -.07 -.34 -.07 -.34 -.07 -.34 -.07 -.35 -.07 -.34 -.07 -.34 -.07 -.35 -.08 -.28 -.06 -.26 -.05 -.33 -.06 -.35 -.08 -.34 -.07 -.34 -.07 -.35 -.07 -.34 -.07 -.34 -.08 -.34 -.07 -.34 -.07 -.32 -.08 -.24 -.05 -.32 -.06 -.34 -.07 -.35 -.08 -.34 -.07 -.34 -.07 -.34 -.08 -.34 -.07 -.35 -.08 -.34 -.08 -.33 -.07 -.26 -.06 -.28 -.06 -.34 -.08 -.35 -.07 -.34 -.08 -.34 -.07 -.34 -.08 -.34 -.08 -.35 -.07 -.34 -.08 -.34 -.08 -.28 -.07 -.26 -.06 -.34 -.07 -.34 -.08 -.34 -.08 -.34 -.07 -.34 -.08 -.34 -.08 -.35 -.08 -.34 -.08 -.34 -.08 -.31 -.08 -.26 -.06 -.31 -.07 -.34 -.08 -.34 -.08 -.35 -.08 -.34 -.08 -.34 -.08 -.34 -.08 -.34 -.08 -.34 -.09 -.33 -.08 -.27 -.07 -.29 -.07 -.34 -.08 -.34 -.08 -.35 -.08 -.34 -.08 -.34 -.08 -.34 -.09 -.34 -.08 -.35 -.09 -.34 -.08 -.28 -.08 -.28 -.07 -.33 -.08 -.34 -.09 -.35 -.08 -.34 -.08 -.34 -.09 -.34 -.08 -.02 -.01" stroke="#B08D57" stroke-width="2.1" fill="none" stroke-linecap="round" stroke-linejoin="miter" stroke-miterlimit="10"/>
<path d="M-12.42 -125.58l.14 .01 .25 .03 .25 .03 .24 .03 .25 .03 .25 .03 .25 .03 .25 .03 .24 .03 .25 .03 .25 .03 .25 .03 .25 .03 .24 .04 .25 .03 .25 .03 .25 .04 .24 .03 .25 .03 .25 .04 .25 .03 .24 .04 .25 .03 .25 .03 .25 .04 .25 .03 .24 .03 .25 .04 .25 .04 .24 .04 .25 .04 .25 .03 .24 .04 .25 .04 .25 .03 .24 .04 .25 .04 .25 .04 .25 .04 .24 .03 .25 .04 .25 .04 .24 .04 .25 .04 .25 .04 .24 .05 .25 .04 .24 .04 .25 .04 .25 .04 .24 .04 .25 .05 .25 .04 .24 .04 .25 .04 .25 .04 .24 .05 .25 .04 .25 .04 .24 .05 .25 .05 .24 .04 .25 .05 .24 .04 .25 .05 .24 .04 .25 .05 .24 .05 .25 .04 .25 .05 .24 .05 .25 .04 .24 .05 .25 .04 .24 .05 .25 .05 .24 .05 .25 .06 .24 .04 .25 .06 .24 .04 .25 .06 .24 .05 .25 .05 .24 .05 .25 .05 .24 .05 .24 .05 .25 .05 .24 .05 .25 .05 .24 .06 .25 .05 .24 .06 .24 .05 .25 .05 .24 .06 .25 .05 .24 .06 .24 .05 .25 .06 .24 .05 .24 .06 .25 .05 .24 .06 .25 .05 .24 .06 .24 .06 .24 .05 .25 .06 .24 .06 .24 .06 .25 .06 .24 .06 .24 .06 .25 .06 .24 .05 .24 .06 .24 .06 .25 .06 .24 .06 .24 .06 .24 .06 .25 .06 .24 .07 .24 .06 .24 .06 .24 .06 .25 .07 .24 .06 .24 .06 .24 .07 .24 .06 .24 .06 .25 .06 .24 .07 .24 .06 .24 .06 .24 .07 .24 .07 .25 .06 .24 .07 .24 .07 .24 .07 .24 .06 .24 .07 .24 .07 .24 .06 .24 .07 .24 .07 .24 .06 .24 .07 .24 .07 .24 .07 .24 .07 .24 .07 .24 .07 .24 .07 .24 .07 .24 .07 .24 .07 .24 .07 .24 .07 .24 .08 .24 .07 .24 .07 .24 .07 .24 .07 .24 .07 .24 .07 .24 .08 .23 .07 .24 .08 .24 .07 .24 .08 .24 .07 .23 .08 .24 .07 .24 .08 .24 .07 .24 .08 .24 .07 .24 .08 .23 .07 .24 .08 .24 .08 .24 .08 .23 .08 .24 .07 .24 .08 .23 .08 .24 .08 .24 .08 .23 .08 .24 .08 .24 .08 .24 .08 .23 .08 .24 .08 .24 .08 .23 .07 .24 .09 .24 .08 .23 .08 .24 .09 .23 .08 .24 .08 .23 .09 .24 .08 .23 .08 .24 .08 .24 .09 .23 .08 .24 .09 .23 .08 .24 .08 .24 .08 .23 .09 .23 .09 .24 .09 .23 .08 .23 .09 .24 .09 .23 .08 .24 .09 .23 .09 .24 .09 .23 .08 .23 .09 .24 .09 .23 .08 .24 .09 .23 .09 .23 .09 .24 .09 .23 .09 .23 .09 .23 .1 .24 .09 .23 .09 .23 .09 .24 .09 .23 .09 .23 .09 .23 .09 .24 .09 .23 .1 .23 .09 .23 .09 .2 .08" stroke="#B08D57" stroke-width="2.1" fill="none" stroke-linecap="round" stroke-linejoin="round"/>
<path d="M14.63 -120.83l3.25 -2.71M22.98 -118.68l4.92 -4.12M31.03 -116.3l6.33 -5.29M38.82 -113.68l5.09 -4.26M46.35 -110.85l3.69 -3.09" stroke="#B08D57" stroke-width="2.1" fill="none" stroke-linecap="butt" stroke-linejoin="miter" stroke-miterlimit="4"/>
<path d="M44.2 -143.66l.05 .02 .33 .12 .33 .13 .34 .13 .4 .14 .37 .15 .33 .13 .33 .14 .33 .13 .33 .14 .32 .14 .33 .14 .33 .14 .32 .14 .33 .14 .34 .14 .4 .16 .35 .16 .32 .15 .33 .15 .32 .15 .32 .15 .33 .15 .32 .15 .32 .16 .32 .15 .33 .16 .33 .16 .38 .17 .35 .17 .31 .16 .32 .17 .32 .16 .32 .17 .32 .16 .32 .17 .31 .17 .32 .17 .32 .17 .33 .17 .37 .19 .33 .18 .31 .18 .31 .17 .32 .18 .31 .18 .31 .18 .32 .18 .31 .19 .31 .18 .31 .18 .33 .19 .35 .2 .31 .19 .31 .2 .31 .19 .31 .19 .3 .2 .31 .19 .31 .2 .3 .19 .31 .2 .31 .2 .32 .2 .33 .21 .3 .21 .3 .21 .3 .2 .31 .21 .3 .21 .3 .21 .3 .21 .3 .21 .3 .21 .3 .21 .31 .22 .3 .22 .3 .22 .3 .22 .29 .22 .3 .22 .29 .23 .29 .22 .3 .23 .29 .22 .29 .23 .3 .22 .29 .23 -.37 .01 -.37 0 -.37 .01 -.37 0 -.37 0 -.37 .01 -.37 0 -.37 0 -.37 0 -.36 0 -.37 0 -.36 0 -.36 .01 -.36 0 -.37 0 -.37 0 -.36 0 -.37 0 -.36 0 -.37 0 -.37 0 -.36 0 -.36 -.01 -.34 .01 -.35 0 -.37 0 -.36 0 -.37 0 -.36 0 -.36 -.01 -.37 0 -.36 -.01 -.36 0 -.36 -.01 -.36 -.01 -.32 .01 -.35 0 -.36 0 -.36 0 -.36 -.01 -.36 0 -.36 -.01 -.36 -.01 -.37 0 -.36 -.01 -.36 -.01 -.34 -.01 -.31 .01 -.34 0 -.36 -.01 -.36 -.01 -.36 0 -.36 -.01 -.36 -.01 -.36 -.01 -.36 -.01 -.36 -.01 -.35 -.01 -.34 -.01 -.29 .01 -.35 -.01 -.36 -.01 -.35 -.01 -.36 -.01 -.36 -.01 -.35 -.01 -.36 -.01 -.36 -.02 -.35 -.01 -.36 -.01 -.33 -.01 -.28 0 -.34 0 -.36 -.02 -.35 -.01 -.36 -.01 -.36 -.01 -.35 -.02 -.36 -.01 -.35 -.02 -.36 -.01 -.35 -.02 -.31 -.01 -.29 0 -.34 -.01 -.35 -.01 -.35 -.02 -.36 -.01 -.35 -.02 -.35 -.02 -.36 -.01 -.35 -.02 -.35 -.02 -.36 -.02 -.29 -.01 -.28 0 -.35 -.01 -.35 -.02 -.35 -.02 -.36 -.02 -.35 -.01 -.35 -.02 -.35 -.02 -.35 -.02 -.35 -.03 -.35 -.02 -.29 -.01 -.27 0 -.35 -.02 -.36 -.02 -.35 -.02 -.35 -.02 -.35 -.02 -.35 -.02 -.35 -.02 -.35 -.03 -.35 -.02 -.35 -.02 -.27 -.01 -.28 -.01 -.35 -.02 -.35 -.02 -.35 -.03 -.35 -.02 -.35 -.02 -.35 -.03 -.35 -.02 -.35 -.03 -.35 -.02 -.35 -.03 -.25 -.01 -.29 -.02 -.35 -.02 -.34 -.02 -.35 -.03 -.35 -.02 -.35 -.03 -.35 -.02 -.35 -.03 -.35 -.03 -.35 -.03 -.33 -.02 -.25 -.02 -.3 -.02 -.35 -.02 -.35 -.03 -.35 -.03 -.34 -.03 -.35 -.02 -.35 -.03 -.35 -.03 -.35 -.03 -.35 -.03 -.32 -.03 -.24 -.02 -.31 -.02 -.35 -.03 -.35 -.03 -.35 -.03 -.35 -.03 -.35 -.03 -.34 -.03 -.35 -.03 -.35 -.04 -.35 -.03 -.32 -.03 -.23 -.02 -.32 -.03 -.35 -.03 -.35 -.03 -.35 -.03 -.35 -.03 -.34 -.04 -.35 -.03 -.35 -.04 -.35 -.03 -.34 -.04 -.32 -.03 -.24 -.03 -.32 -.03 -.35 -.03 -.35 -.03 -.34 -.04 -.35 -.03 -.35 -.04 -.35 -.03 -.35 -.04 -.34 -.04 -.35 -.04 -.3 -.03 -.25 -.03 -.33 -.03 -.35 -.04 -.35 -.04 -.34 -.03 -.35 -.04 -.35 -.04 -.35 -.04 -.35 -.04 -.35 -.04 -.34 -.04 -.29 -.04 -.25 -.03 -.34 -.04 -.35 -.03 -.35 -.04 -.35 -.04 -.35 -.04 -.35 -.04 -.35 -.04 -.34 -.05 -.35 -.04 -.35 -.04 -.28 -.04 -.27 -.04 -.34 -.04 -.35 -.04 -.35 -.04 -.35 -.04 -.35 -.05 -.35 -.04 -.34 -.04 -.35 -.05 -.35 -.04 -.35 -.05 -.27 -.04 -.29 -.05 -.34 -.04 -.35 -.04 -.35 -.04 -.35 -.05 -.35 -.04 -.35 -.05 -.35 -.04 -.35 -.05 -.35 -.05 -.34 -.05 -.27 -.05 -.12 -.02" stroke="#B08D57" stroke-width="2.1" fill="none" stroke-linecap="round" stroke-linejoin="miter" stroke-miterlimit="10"/>
<path d="M.06 -141.04l.2 0 .25 .01 .25 .01 .24 .01 .25 0 .25 .01 .25 .01 .25 .01 .25 0 .25 .01 .25 .01 .25 .01 .25 .01 .25 .02 .25 .01 .25 .01 .25 .01 .25 .02 .25 .01 .25 .01 .25 .01 .25 .01 .25 .02 .25 .01 .25 .01 .25 .01 .24 .02 .25 .01 .25 .01 .25 .02 .25 .02 .25 .01 .25 .02 .25 .02 .25 .01 .25 .02 .25 .02 .25 .01 .25 .02 .25 .01 .25 .02 .24 .02 .25 .01 .25 .02 .25 .02 .25 .02 .25 .02 .25 .02 .25 .02 .25 .02 .25 .02 .25 .02 .24 .02 .25 .03 .25 .02 .25 .02 .25 .02 .25 .02 .25 .02 .25 .02 .25 .02 .24 .02 .25 .03 .25 .02 .25 .03 .25 .02 .25 .03 .24 .02 .25 .03 .25 .02 .25 .03 .25 .02 .25 .03 .25 .02 .25 .03 .24 .02 .25 .03 .25 .02 .25 .03 .25 .03 .24 .03 .25 .03 .25 .03 .25 .03 .25 .03 .25 .03 .24 .02 .25 .03 .25 .03 .25 .03 .25 .03 .24 .03 .25 .03 .25 .03 .25 .03 .25 .04 .24 .03 .25 .03 .25 .04 .25 .03 .24 .03 .25 .03 .25 .04 .25 .03 .24 .04 .25 .03 .25 .03 .25 .04 .24 .03 .25 .03 .25 .04 .25 .03 .24 .04 .25 .04 .25 .03 .24 .04 .25 .04 .25 .04 .25 .04 .24 .03 .25 .04 .25 .04 .24 .04 .25 .03 .25 .04 .24 .04 .25 .04 .25 .04 .24 .04 .25 .04 .25 .04 .24 .04 .25 .04 .25 .05 .24 .04 .25 .04 .24 .04 .25 .04 .25 .05 .24 .04 .25 .04 .25 .04 .24 .04 .25 .04 .24 .05 .25 .05 .24 .04 .25 .05 .25 .04 .24 .05 .25 .04 .24 .05 .25 .05 .24 .04 .25 .05 .24 .04 .25 .05 .25 .05 .24 .04 .25 .05 .24 .04 .25 .06 .24 .04 .25 .06 .24 .04 .25 .06 .24 .05 .25 .05 .24 .05 .25 .05 .24 .05 .24 .05 .25 .05 .24 .05 .25 .05 .24 .05 .25 .05 .24 .05 .25 .05 .24 .06 .24 .05 .25 .06 .24 .05 .25 .05 .24 .06 .24 .05 .25 .06 .24 .05 .25 .06 .24 .05 .24 .05 .25 .06 .24 .05 .24 .06 .25 .06 .24 .05 .24 .06 .24 .06 .25 .06 .24 .06 .24 .06 .25 .06 .24 .05 .24 .06 .25 .06 .24 .06 .24 .06 .24 .06 .25 .05 .24 .06 .24 .06 .24 .06 .25 .07 .24 .06 .24 .06 .24 .07 .24 .06 .25 .06 .24 .06 .24 .07 .24 .06 .24 .06 .24 .06 .25 .07 .24 .06 .24 .06 .24 .06 .24 .07 .19 .05" stroke="#B08D57" stroke-width="2.1" fill="none" stroke-linecap="round" stroke-linejoin="round"/>
<path d="M24.85 -139.06l2.8 -2.98M33.27 -137.8l4.86 -5.17M41.45 -136.28l5.81 -6.18M49.41 -134.53l4.59 -4.88M57.16 -132.55l3.2 -3.41" stroke="#B08D57" stroke-width="2.1" fill="none" stroke-linecap="butt" stroke-linejoin="miter" stroke-miterlimit="4"/>
<path d="M42.92 -165.78l.3 .08 .42 .1 .39 .1 .34 .09 .35 .1 .34 .1 .34 .1 .34 .1 .34 .1 .35 .1 .34 .1 .34 .11 .41 .11 .39 .12 .34 .11 .34 .11 .34 .11 .34 .12 .34 .12 .34 .11 .34 .12 .34 .12 .34 .12 .38 .12 .4 .14 .34 .12 .33 .13 .34 .13 .34 .13 .33 .13 .34 .14 .33 .13 .34 .13 .33 .14 .37 .14 .38 .15 .35 .14 .33 .14 .33 .15 .33 .15 .34 .14 .33 .15 .33 .15 .33 .15 .33 .15 .35 .16 .38 .16 .34 .16 .32 .16 .33 .16 .33 .16 .33 .16 .33 .17 .33 .16 .32 .17 .33 .17 .33 .17 .36 .17 .34 .18 .32 .17 .33 .18 .32 .18 .32 .18 .33 .18 .32 .18 .32 .18 .33 .18 .32 .19 .34 .19 .33 .19 .32 .19 .32 .2 .31 .19 .32 .2 .32 .19 .32 .2 .32 .2 .31 .2 .32 .2 .32 .2 -.37 .07 -.37 .07 -.37 .07 -.36 .07 -.37 .07 -.37 .06 -.37 .07 -.37 .06 -.37 .07 -.36 .06 -.36 .06 -.35 .07 -.37 .06 -.36 .07 -.37 .06 -.36 .07 -.37 .06 -.36 .06 -.37 .06 -.36 .06 -.37 .06 -.35 .06 -.33 .06 -.36 .06 -.36 .06 -.36 .06 -.37 .06 -.36 .06 -.36 .05 -.36 .06 -.37 .05 -.36 .06 -.35 .05 -.31 .06 -.35 .06 -.36 .06 -.36 .05 -.36 .06 -.36 .05 -.36 .05 -.36 .05 -.36 .05 -.36 .05 -.35 .06 -.31 .05 -.33 .06 -.36 .05 -.36 .05 -.35 .05 -.36 .05 -.36 .05 -.36 .05 -.35 .04 -.36 .05 -.36 .04 -.29 .05 -.32 .06 -.35 .05 -.36 .04 -.35 .05 -.36 .05 -.35 .04 -.36 .04 -.36 .05 -.35 .04 -.35 .04 -.31 .05 -.29 .05 -.35 .04 -.35 .04 -.36 .05 -.35 .04 -.36 .04 -.35 .04 -.36 .04 -.35 .04 -.35 .04 -.31 .04 -.28 .04 -.34 .04 -.35 .04 -.35 .04 -.36 .04 -.35 .04 -.35 .04 -.35 .03 -.36 .04 -.35 .03 -.32 .04 -.25 .04 -.34 .04 -.35 .03 -.35 .04 -.35 .03 -.35 .04 -.36 .03 -.35 .03 -.35 .03 -.35 .03 -.34 .03 -.25 .04 -.31 .04 -.35 .03 -.35 .03 -.35 .03 -.35 .03 -.35 .03 -.35 .03 -.35 .03 -.35 .03 -.34 .02 -.26 .04 -.29 .03 -.35 .03 -.35 .03 -.35 .02 -.35 .03 -.35 .03 -.35 .02 -.35 .03 -.35 .02 -.35 .03 -.26 .02 -.27 .03 -.34 .02 -.35 .03 -.35 .03 -.35 .02 -.35 .02 -.35 .02 -.35 .03 -.35 .02 -.35 .02 -.28 .02 -.25 .02 -.34 .02 -.35 .02 -.35 .03 -.35 .02 -.35 .02 -.35 .02 -.34 .02 -.36 .01 -.34 .02 -.3 .02 -.25 .01 -.32 .02 -.35 .02 -.35 .02 -.35 .02 -.35 .01 -.35 .02 -.35 .01 -.35 .02 -.34 .01 -.33 .02 -.22 .01 -.32 .01 -.35 .02 -.35 .01 -.35 .02 -.35 .01 -.35 .02 -.35 .01 -.35 .01 -.35 .01 -.32 .01 -.25 0 -.3 .01 -.34 .02 -.36 .01 -.34 .01 -.35 .01 -.35 .01 -.35 .01 -.35 .01 -.35 .01 -.35 0 -.25 0 -.28 .01 -.35 .01 -.35 .01 -.35 0 -.35 .01 -.35 .01 -.35 0 -.35 .01 -.35 0 -.34 .01 -.28 -.01 -.26 0 -.35 .01 -.35 0 -.35 .01 -.35 0 -.35 .01 -.35 0 -.35 0 -.35 0 -.35 0 -.3 0 -.26 -.01 -.34 0 -.35 .01 -.35 0 -.35 0 -.07 0" stroke="#B08D57" stroke-width="2.1" fill="none" stroke-linecap="round" stroke-linejoin="miter" stroke-miterlimit="10"/>
<path d="M17.91 -158.24l.19 -.01 .25 -.01 .25 0 .25 -.01 .25 -.01 .25 -.01 .25 -.01 .25 0 .25 -.01 .25 0 .25 -.01 .25 0 .25 0 .25 -.01 .25 0 .25 -.01 .25 0 .25 0 .25 -.01 .25 0 .25 -.01 .25 0 .25 0 .25 0 .25 0 .24 0 .26 0 .24 0 .25 0 .25 0 .25 0 .25 0 .25 0 .25 0 .25 0 .25 0 .25 -.01 .25 .01 .25 0 .25 0 .25 .01 .25 0 .25 .01 .25 0 .25 0 .25 .01 .25 0 .25 .01 .25 0 .25 0 .25 .01 .25 0 .25 .01 .25 0 .24 .01 .25 .01 .25 .01 .25 .01 .25 0 .25 .01 .25 .01 .25 .01 .25 .01 .25 .01 .25 .01 .25 0 .25 .01 .25 .01 .25 .01 .25 .01 .25 .01 .25 .02 .25 .01 .25 .01 .24 .01 .25 .02 .25 .01 .25 .01 .25 .02 .25 .01 .25 .01 .25 .01 .25 .02 .25 .01 .25 .01 .25 .02 .25 .02 .25 .01 .24 .02 .25 .02 .25 .01 .25 .02 .25 .02 .25 .01 .25 .02 .25 .02 .25 .02 .25 .01 .25 .02 .24 .02 .25 .01 .25 .03 .25 .02 .25 .02 .25 .02 .25 .02 .25 .02 .25 .02 .24 .02 .25 .03 .25 .02 .25 .02 .25 .02 .25 .02 .25 .02 .24 .02 .25 .03 .25 .02 .25 .03 .25 .02 .25 .03 .25 .02 .24 .03 .25 .02 .25 .03 .25 .03 .25 .02 .25 .03 .24 .02 .25 .03 .25 .02 .25 .03 .25 .03 .25 .03 .24 .03 .25 .03 .25 .03 .25 .03 .24 .03 .25 .03 .25 .03 .25 .02 .25 .03 .24 .03 .25 .03 .25 .03 .25 .03 .24 .03 .17 .03" stroke="#B08D57" stroke-width="2.1" fill="none" stroke-linecap="round" stroke-linejoin="round"/>
<path d="M29.25 -158.33l2.63 -3.69M37.64 -158.04l5.49 -7.68M45.83 -157.46l4.38 -6.14M53.82 -156.6l3.13 -4.39" stroke="#B08D57" stroke-width="2.1" fill="none" stroke-linecap="butt" stroke-linejoin="miter" stroke-miterlimit="4"/>
<path d="M28.99 -185.6l.36 .03 .35 .03 .36 .03 .35 .04 .36 .03 .35 .04 .36 .04 .35 .04 .36 .04 .43 .04 .43 .04 .36 .05 .35 .06 .36 .05 .35 .06 .36 .05 .35 .06 .36 .06 .35 .06 .37 .06 .43 .06 .41 .07 .35 .08 .35 .07 .36 .08 .35 .07 .36 .08 .35 .08 .36 .08 .35 .09 .37 .08 .43 .08 .38 .09 .35 .1 .36 .1 .35 .09 .35 .1 .36 .1 .35 .11 .35 .1 .36 .1 .37 .11 .41 .11 .37 .11 .35 .12 .35 .12 .35 .12 .36 .12 .35 .12 .35 .13 .35 .12 .35 .13 .37 .13 .39 .13 .36 .14 .35 .14 .35 .15 .35 .14 .35 .14 .34 .15 .35 .15 .35 .14 .35 .16 .36 .15 .37 .16 .35 .16 .34 .16 .35 .17 .35 .17 .34 .16 .35 .17 .34 .18 .35 .17 .34 .17 .35 .18 -.35 .16 -.35 .16 -.36 .16 -.35 .16 -.35 .16 -.35 .16 -.35 .15 -.36 .15 -.35 .15 -.35 .15 -.33 .15 -.33 .15 -.35 .15 -.35 .15 -.35 .15 -.35 .15 -.35 .14 -.35 .15 -.35 .14 -.35 .14 -.34 .14 -.3 .14 -.33 .14 -.35 .15 -.34 .14 -.35 .14 -.35 .13 -.34 .14 -.35 .13 -.34 .14 -.35 .13 -.33 .13 -.28 .13 -.33 .13 -.34 .14 -.35 .13 -.34 .13 -.35 .13 -.34 .13 -.34 .12 -.35 .13 -.34 .12 -.31 .12 -.28 .12 -.32 .13 -.34 .12 -.35 .13 -.34 .12 -.34 .12 -.34 .12 -.35 .12 -.34 .11 -.34 .12 -.29 .11 -.26 .11 -.33 .12 -.34 .12 -.35 .12 -.34 .11 -.34 .11 -.34 .12 -.34 .11 -.34 .11 -.33 .1 -.27 .11 -.27 .1 -.33 .11 -.34 .11 -.34 .11 -.34 .11 -.34 .11 -.34 .1 -.34 .1 -.34 .11 -.34 .1 -.24 .09 -.27 .1 -.34 .1 -.34 .1 -.34 .1 -.34 .11 -.34 .09 -.34 .1 -.34 .1 -.34 .1 -.33 .09 -.21 .08 -.29 .09 -.34 .1 -.33 .1 -.34 .09 -.34 .1 -.34 .09 -.34 .09 -.34 .09 -.34 .09 -.3 .08 -.22 .07 -.3 .09 -.34 .09 -.34 .09 -.34 .09 -.34 .09 -.34 .09 -.34 .08 -.34 .09 -.34 .08 -.28 .07 -.22 .07 -.32 .08 -.34 .09 -.34 .08 -.34 .08 -.34 .08 -.34 .08 -.34 .08 -.34 .08 -.34 .08 -.26 .06 -.23 .06 -.32 .08 -.34 .08 -.34 .07 -.34 .08 -.34 .08 -.35 .07 -.34 .07 -.34 .08 -.33 .07 -.25 .05 -.24 .05 -.34 .07 -.34 .08 -.34 .07 -.34 .07 -.34 .07 -.35 .07 -.34 .07 -.34 .06 -.33 .06 -.23 .04 -.27 .06 -.34 .06 -.34 .07 -.35 .07 -.34 .06 -.34 .07 -.35 .06 -.34 .06 -.34 .06 -.33 .06 -.23 .03 -.28 .05 -.35 .06 -.34 .06 -.35 .06 -.34 .06 -.35 .06 -.34 .06 -.35 .05 -.34 .06 -.32 .04 -.22 .02 -.32 .05 -.34 .06 -.35 .05 -.35 .06 -.34 .05 -.35 .05 -.35 .06 -.35 .04 -.35 .05 -.3 .04 -.22 .01 -.35 .05 -.35 .05 -.34 .05 -.36 .05 -.35 .05 -.35 .05 -.35 .04 -.35 .04 -.35 .05 -.29 .02 -.26 .01 -.34 .05 -.36 .04 -.35 .05 -.35 .04 -.36 .04 -.35 .04 -.35 .04 -.36 .04 -.35 .04 -.28 .01 -.29 .02 -.35 .03 -.2 .02" stroke="#B08D57" stroke-width="2.1" fill="none" stroke-linecap="round" stroke-linejoin="miter" stroke-miterlimit="10"/>
<path d="M15.84 -174.87l.12 -.03 .24 -.04 .25 -.04 .25 -.05 .24 -.04 .25 -.05 .24 -.04 .25 -.05 .24 -.04 .25 -.05 .25 -.04 .24 -.04 .25 -.04 .25 -.04 .24 -.04 .25 -.04 .25 -.04 .24 -.04 .25 -.04 .25 -.04 .24 -.04 .25 -.04 .25 -.04 .24 -.04 .25 -.04 .25 -.04 .24 -.04 .25 -.03 .25 -.03 .25 -.04 .25 -.04 .24 -.03 .25 -.03 .25 -.04 .24 -.04 .25 -.03 .25 -.03 .25 -.04 .25 -.04 .24 -.03 .25 -.03 .25 -.04 .25 -.02 .24 -.04 .25 -.02 .25 -.04 .25 -.02 .25 -.04 .24 -.02 .25 -.04 .25 -.02 .25 -.04 .25 -.02 .25 -.04 .24 -.02 .25 -.04 .25 -.02 .25 -.03 .25 -.02 .25 -.03 .24 -.02 .25 -.03 .25 -.02 .25 -.03 .25 -.02 .25 -.03 .25 -.02 .24 -.03 .25 -.02 .25 -.03 .25 -.02 .25 -.02 .25 -.02 .25 -.02 .25 -.03 .25 -.02 .25 -.02 .24 -.02 .25 -.02 .25 -.02 .25 -.02 .25 -.02 .25 -.02 .25 -.02 .25 -.02 .25 -.02 .25 -.01 .25 -.02 .25 -.01 .25 -.02 .24 -.01 .25 -.02 .25 -.01 .25 -.02 .25 -.02 .25 -.01 .25 -.01 .25 -.02 .25 -.02 .25 -.01 .25 -.02 .25 -.01 .25 -.01 .25 -.01 .25 -.01 .25 -.01 .25 -.01 .25 -.01 .25 -.01 .25 -.01 .25 -.01 .04 0" stroke="#B08D57" stroke-width="2.1" fill="none" stroke-linecap="round" stroke-linejoin="round"/>
<path d="M23.5 -176.14l3.85 -7.91M31.77 -177.14l3.74 -7.67M39.86 -177.77l2.69 -5.51" stroke="#B08D57" stroke-width="2.1" fill="none" stroke-linecap="butt" stroke-linejoin="miter" stroke-miterlimit="4"/>
<path d="M-22.08 -174l.13 -.33 .17 -.37 .2 -.4 .18 -.38 .16 -.35 .17 -.35 .17 -.35 .18 -.35 .17 -.35 .17 -.34 .21 -.36 .25 -.38 .2 -.34 .19 -.33 .19 -.33 .2 -.32 .2 -.32 .2 -.32 .2 -.32 .24 -.35 .29 -.36 .22 -.31 .21 -.3 .22 -.3 .22 -.3 .22 -.3 .22 -.29 .22 -.29 .3 -.34 .3 -.33 .24 -.28 .23 -.28 .24 -.28 .24 -.27 .24 -.27 .24 -.27 .25 -.27 .34 -.33 .32 -.29 .25 -.26 .25 -.25 .26 -.25 .26 -.24 .25 -.25 .26 -.24 .29 -.26 .38 -.31 .31 -.26 .27 -.22 .27 -.23 .28 -.23 .27 -.22 .27 -.22 .28 -.22 .33 -.24 .4 -.28 .31 -.22 .29 -.21 .29 -.2 .28 -.2 .29 -.19 .29 -.2 .3 -.19 .36 -.23 .42 -.25 .31 -.19 .3 -.18 .31 -.18 .3 -.17 .3 -.17 .31 -.17 .3 -.17 .42 -.22 .42 -.21 .31 -.15 .31 -.15 .32 -.15 .32 -.15 .31 -.15 .32 -.14 .33 -.15 .45 -.19 .4 -.17 .33 -.13 .32 -.12 .33 -.13 .33 -.12 .33 -.12 .33 -.11 .36 -.13 .46 -.17 .39 -.12 .34 -.1 .34 -.1 .34 -.1 .34 -.09 .34 -.09 .34 -.09 .39 -.11 .48 -.13 .37 -.09 .35 -.07 .34 -.07 .35 -.06 .35 -.07 .36 -.06 .35 -.06 .42 -.09 .47 -.09 .37 -.05 .35 -.04 .36 -.04 .36 -.04 .36 -.03 .37 -.04 .36 -.03 .45 -.05 .44 -.05 .38 -.02 .36 -.01 .37 -.01 .37 0 .37 -.01 .37 0 .38 0 .46 -.02 .43 -.01 .37 .02 .38 .02 .37 .03 .38 .03 .38 .03 .38 .03 .39 .03 .46 .02 .41 .04 .38 .05 .38 .06 .39 .06 .38 .06 .39 .07 .38 .07 .41 .06 .44 .07 .4 .08 .39 .09 .39 .1 .39 .1 .39 .1 .4 .1 .39 .11 .41 .11 .42 .12 .4 .12 .39 .14 .4 .14 .39 .14 .4 .14 .4 .15 .4 .15 .4 .16 -.28 .33 -.27 .33 -.28 .32 -.28 .32 -.28 .31 -.28 .31 -.28 .31 -.28 .3 -.25 .3 -.26 .29 -.28 .3 -.28 .3 -.28 .29 -.28 .29 -.28 .28 -.29 .28 -.27 .28 -.23 .26 -.25 .27 -.28 .27 -.29 .28 -.28 .26 -.28 .27 -.29 .26 -.28 .26 -.26 .25 -.2 .23 -.27 .25 -.28 .26 -.29 .25 -.28 .25 -.29 .24 -.28 .25 -.29 .24 -.23 .22 -.2 .21 -.28 .23 -.28 .24 -.29 .23 -.29 .23 -.29 .23 -.29 .23 -.28 .22 -.21 .19 -.21 .2 -.28 .22 -.29 .22 -.29 .22 -.29 .21 -.29 .21 -.29 .22 -.28 .2 -.19 .16 -.22 .18 -.29 .21 -.29 .21 -.3 .2 -.29 .2 -.3 .2 -.29 .2 -.27 .18 -.17 .14 -.25 .18 -.29 .2 -.3 .19 -.3 .19 -.29 .19 -.3 .18 -.3 .19 -.25 .15 -.18 .13 -.26 .17 -.3 .18 -.3 .18 -.31 .18 -.3 .18 -.3 .17 -.31 .17 -.23 .13 -.18 .12 -.29 .16 -.3 .17 -.31 .17 -.3 .17 -.31 .16 -.31 .16 -.31 .16 -.21 .11 -.2 .1 -.31 .17 -.31 .16 -.31 .15 -.31 .16 -.32 .15 -.31 .15 -.31 .14 -.19 .09 -.24 .11 -.32 .15 -.31 .15 -.32 .14 -.32 .14 -.32 .15 -.32 .14 -.3 .12 -.2 .07 -.27 .11 -.33 .14 -.32 .14 -.33 .13 -.32 .14 -.33 .13 -.33 .13 -.29 .1 -.21 .05 -.31 .12 -.33 .13 -.33 .12 -.33 .13 -.34 .12 -.33 .12 -.34 .12 -.28 .07 -.24 .06 -.33 .11 -.34 .12 -.34 .11 -.35 .12 -.34 .11 -.35 .11 -.34 .1 -.28 .06 -.27 .06 -.35 .1 -.35 .11 -.36 .11 -.35 .1 -.36 .1 -.35 .09 -.35 .09 -.29 .04 -.32 .07 -.36 .09 -.36 .1 -.37 .09 -.36 .09 -.37 .09 -.37 .08 -.36 .07 -.31 .04 -.35 .07 -.38 .08 -.38 .08 -.38 .08 -.38 .07 -.38 .08 -.39 .07 -.17 .02" stroke="#B08D57" stroke-width="2.1" fill="none" stroke-linecap="round" stroke-linejoin="miter" stroke-miterlimit="10"/>
<path d="M-19.15 -172.02l.15 -.12 .2 -.15 .2 -.15 .19 -.16 .2 -.15 .2 -.15 .19 -.15 .2 -.16 .2 -.15 .2 -.15 .2 -.15 .19 -.16 .2 -.14 .21 -.15 .2 -.15 .2 -.15 .2 -.14 .2 -.15 .2 -.15 .2 -.15 .2 -.15 .2 -.14 .21 -.15 .2 -.15 .2 -.14 .21 -.15 .2 -.14 .2 -.14 .21 -.14 .2 -.15 .21 -.14 .2 -.14 .21 -.15 .2 -.14 .21 -.14 .2 -.14 .21 -.15 .21 -.13 .2 -.14 .21 -.14 .21 -.14 .21 -.14 .21 -.13 .2 -.14 .21 -.14 .21 -.14 .21 -.14 .21 -.13 .2 -.14 .22 -.13 .21 -.14 .21 -.13 .21 -.13 .21 -.14 .21 -.13 .21 -.13 .22 -.13 .21 -.14 .21 -.13 .21 -.13 .21 -.14 .21 -.13 .22 -.12 .21 -.13 .22 -.13 .21 -.13 .22 -.12 .21 -.13 .22 -.13 .21 -.13 .21 -.13 .22 -.12 .21 -.13 .22 -.13 .22 -.12 .21 -.12 .22 -.13 .22 -.12 .22 -.12 .21 -.12 .22 -.13 .22 -.12 .21 -.12 .22 -.12 .22 -.13 .22 -.12 .22 -.12 .22 -.11 .22 -.12 .22 -.12 .22 -.12 .22 -.12 .22 -.11 .22 -.12 .22 -.12 .22 -.11 .22 -.12 .22 -.12 .22 -.11 .23 -.11 .22 -.12 .22 -.11 .23 -.11 .22 -.11 .22 -.12 .22 -.11 .23 -.11 .22 -.11 .22 -.12 .23 -.11 .22 -.11 .23 -.1 .22 -.11 .23 -.11 .22 -.1 .23 -.11 .22 -.11 .23 -.1 .22 -.11 .23 -.11 .23 -.1 .22 -.11 .23 -.11 .23 -.1 .22 -.1 .23 -.1 .23 -.1 .23 -.1 .23 -.1 .22 -.11 .23 -.1 .23 -.1 .23 -.1 .23 -.1 .22 -.1 .24 -.1 .23 -.09 .23 -.1 .23 -.1 .23 -.09 .23 -.1 .23 -.09 .23 -.1 .23 -.1 .23 -.09 .23 -.1 .23 -.09 .23 -.1 .24 -.09 .23 -.09 .23 -.09 .23 -.09 .24 -.09 .23 -.09 .23 -.09 .23 -.09 .24 -.09 .23 -.09 .23 -.09 .24 -.09 .23 -.08 .23 -.09 .24 -.08 .24 -.09 .23 -.08 .23 -.09 .24 -.08 .23 -.09 .24 -.08 .23 -.09 .24 -.08 .23 -.09 .24 -.08 .24 -.08 .23 -.08 .24 -.07 .24 -.08 .23 -.08 .24 -.08 .24 -.08 .23 -.08 .24 -.08 .24 -.08 .23 -.08 .24 -.07 .24 -.08 .13 -.04" stroke="#B08D57" stroke-width="2.1" fill="none" stroke-linecap="round" stroke-linejoin="round"/>
<path d="M-16.26 -174.24l2.23 -11.9M-8.09 -179.84l2.42 -12.93M-.1 -184.48l2.24 -11.97M7.75 -188.34l1.87 -10M15.46 -191.52l1.36 -7.26" stroke="#B08D57" stroke-width="2.1" fill="none" stroke-linecap="butt" stroke-linejoin="miter" stroke-miterlimit="4"/>
<path d="M-34.81 -88.56l.13 -.69 .1 -.93 .03 -.93 -.04 -.94 -.13 -.94 -.19 -.93 -.28 -.92 -.34 -.89 -.41 -.84 -.47 -.81 -.53 -.76 -.58 -.72 -.64 -.66 -.69 -.62 -.73 -.56 -.78 -.5 -.82 -.44 -.85 -.38 -.89 -.32 -.91 -.24 -.94 -.17 .85 -.43 .81 -.49 .77 -.55 .71 -.61 .65 -.66 .6 -.7 .55 -.75 .48 -.79 .42 -.82 .36 -.85 .29 -.89 .22 -.91 .15 -.93 .07 -.94 0 -.96 -.08 -.96 -.16 -.93 -.22 -.92 -.3 -.88 -.37 -.86 -.42 -.82 -.49 -.78 -.55 -.75 -.61 -.69 -.66 -.66 -.71 -.59 -.76 -.55 -.81 -.48 -.85 -.42 -.89 -.36 .92 -.18 .9 -.26 .86 -.31 .83 -.38 .8 -.45 .76 -.49 .72 -.56 .67 -.6 .63 -.66 .58 -.7 .52 -.74 .47 -.79 .41 -.83 .34 -.86 .29 -.89 .21 -.92 .14 -.92 .06 -.92 0 -.91 -.08 -.91 -.14 -.9 -.2 -.88 -.28 -.86 -.34 -.84 -.4 -.82 -.46 -.78 -.53 -.75 -.58 -.72 -.64 -.67 -.7 -.62 .93 .12 .93 .05 .93 -.02 .92 -.1 .9 -.16 .88 -.23 .86 -.3 .84 -.36 .8 -.42 .78 -.49 .73 -.54 .7 -.6 .65 -.66 .6 -.71 .55 -.77 .5 -.81 .42 -.83 .35 -.86 .28 -.87 .21 -.89 .15 -.9 .07 -.91 .01 -.91 -.06 -.91 -.14 -.9 -.2 -.9 -.27 -.88 -.34 -.86 -.41 -.84 -.48 -.81M-28.86 -62.55l.12 -.15 .53 -.79 .45 -.82 .39 -.84 .32 -.88 .25 -.89 .18 -.9 .1 -.92 .04 -.92 -.04 -.92 -.11 -.92 -.18 -.92 -.25 -.9 -.33 -.89 -.4 -.87 -.48 -.83 -.53 -.78 -.58 -.74 -.64 -.68 -.69 -.62 -.57 -.45M-27.76 -75.01l.71 -.54 .66 -.59 .59 -.63 .54 -.68 .48 -.71 .41 -.75 .35 -.77 .29 -.8 .22 -.83 .16 -.83 .08 -.86 .01 -.85 -.05 -.87 -.13 -.86 -.21 -.85 -.28 -.85 -.35 -.82 -.41 -.78 -.47 -.73 -.53 -.68 -.58 -.64 -.63 -.58 -.66 -.53 -.71 -.46 -.75 -.42 -.78 -.35 -.8 -.28 -.83 -.22 -.85 -.15 -.87 -.08 -.88 -.01 -.89 .07 .82 -.37 .78 -.43 .72 -.49 .68 -.55 .63 -.6 .57 -.64 .52 -.69 .46 -.72 .4 -.76 .33 -.79 .27 -.82 .2 -.84 .13 -.86 .06 -.88 -.01 -.89 -.09 -.89 -.17 -.89 -.24 -.85 -.31 -.82 -.37 -.79 -.43 -.75 -.49 -.71 -.55 -.66 -.59 -.62 -.65 -.57 -.69 -.51 -.73 -.45 -.77 -.39 -.81 -.33 -.84 -.27 -.86 -.19 -.89 -.12 .84 -.16 .82 -.22 .79 -.29 .75 -.36 .72 -.41 .67 -.46 .64 -.52 .59 -.57 .54 -.62 .49 -.65 .44 -.7 .37 -.74 .32 -.77 .25 -.8 .19 -.82 .12 -.85 .04 -.86 -.03 -.85 -.09 -.83 -.17 -.82 -.24 -.79 -.29 -.77 -.36 -.74 -.42 -.7 -.47 -.67 -.53 -.63 -.58 -.59 -.62 -.53 -.68 -.49 -.72 -.43 -.76 -.38 -.8 -.31 .85 .14 .85 .07 .85 0 .83 -.08 .82 -.15 .79 -.21 .78 -.27 .75 -.34 .72 -.4 .68 -.46 .65 -.52 .6 -.57 .56 -.62 .51 -.67 .45 -.73 .39 -.76 .33 -.8 .25 -.82 .18 -.82 .11 -.83 .04 -.83 -.03 -.82 -.1 -.82 -.17 -.81 -.23 -.79 -.29 -.77 -.37 -.74 -.42 -.71 -.48 -.68 -.55 -.65 -.6 -.6 -.67 -.55M-27.03 -122.74l.06 0 .76 -.05 .75 -.12 .73 -.18 .71 -.25 .67 -.32 .65 -.37 .62 -.43 .57 -.48 .53 -.54 .48 -.58 .43 -.63 .37 -.68 .32 -.72 .24 -.76 .18 -.78 .1 -.77 .02 -.78 -.05 -.76 -.11 -.75 -.19 -.73 -.24 -.71 -.31 -.68 -.37 -.65 -.43 -.61 -.48 -.58 -.53 -.53 -.58 -.49 -.63 -.43 -.68 -.38 -.71 -.31 -.76 -.25M-15.68 -71.22l.7 -.45 .64 -.51 .58 -.56 .53 -.61 .47 -.64 .41 -.68 .34 -.7 .29 -.74 .21 -.75 .15 -.77 .09 -.79 .01 -.79 -.05 -.79 -.12 -.79 -.2 -.79 -.27 -.77 -.35 -.76 -.42 -.73 -.47 -.67 -.52 -.62 -.57 -.56 -.61 -.51 -.66 -.44 -.68 -.39 -.72 -.33 -.74 -.26 -.76 -.2 -.77 -.13 -.79 -.06 -.8 .01 -.8 .07 -.79 .15 -.79 .23 -.78 .3 .78 -.31 .74 -.38 .7 -.43 .64 -.49 .6 -.53 .54 -.59 .49 -.62 .44 -.67 .37 -.69 .32 -.73 .25 -.76 .19 -.77 .12 -.8 .05 -.8 -.02 -.82 -.09 -.82 -.17 -.83 -.24 -.8 -.31 -.77 -.37 -.73 -.43 -.68 -.48 -.64 -.54 -.6 -.58 -.54 -.62 -.49 -.67 -.43 -.7 -.38 -.73 -.32 -.75 -.25 -.78 -.19 -.8 -.12 -.82 -.05 -.83 .02 -.83 .1 .78 -.11 .76 -.17 .73 -.23 .7 -.29 .67 -.35 .64 -.4 .59 -.45 .56 -.5 .51 -.54 .46 -.58 .42 -.62 .36 -.65 .31 -.68 .25 -.71 .19 -.74 .13 -.75 .07 -.78 0 -.79 -.08 -.79 -.14 -.76 -.2 -.74 -.26 -.72 -.32 -.68 -.37 -.65 -.42 -.61 -.47 -.58 -.52 -.53 -.56 -.49 -.6 -.44 -.64 -.39 -.66 -.34 -.7 -.28 -.73 -.23 -.04 -.01M-27.03 -122.74l-.71 -.15 -.77 -.1 -.79 -.03 .78 .17 .78 .09 .71 .02M-42.41 -90.93l-.51 -1.99 -.57 -2.53 -.51 -2.55 -.49 -2.86 -.43 -2.86 -.35 -2.88 -.29 -2.88 -.21 -2.89 -.14 -2.89 -.07 -2.9 0 -2.02 .08 -2.01 .13 -2.01 .21 -2 .26 -2 .33 -1.99 .4 -1.97 .46 -1.96 .52 -1.95 .59 -1.93 .72 -2.13 .79 -2.1 .85 -2.07 .92 -2.05 .98 -2.01 1.05 -1.98 1.11 -1.95 1.17 -1.92 1.23 -1.88 1.29 -1.83 1.35 -1.8 1.4 -1.75 1.45 -1.7 1.51 -1.66 1.57 -1.61 1.61 -1.56M-30.12 -63.16l-.76 -1.17 -1.34 -2.21 -1.29 -2.26 -1.23 -2.28 -1.17 -2.32 -.67 -1.45M88 -55l2.1 -1.49 2.08 -1.53 2.05 -1.57 2.01 -1.61 1.99 -1.65 1.95 -1.68 1.93 -1.72 1.89 -1.75 4.38 -4.19 4.34 -4.25 1.2 -1.24 1.14 -1.28 1.1 -1.33 1.04 -1.37 .99 -1.41 .93 -1.45 .88 -1.48 1.13 -2.07 1.07 -2.1 1.02 -2.12 .96 -2.16 .91 -2.17 .5 -1.37 .43 -1.39 .36 -1.41 .28 -1.42 .2 -1.43 .12 -1.45 .05 -1.45 -.03 -1.46 -.11 -1.73 -.17 -1.73 -.22 -1.71 -.28 -1.71 -.34 -1.7 -.26 -1.03 -.32 -1.01 -.4 -.98 -.46 -.96 -.52 -.91 -.58 -.89 -.64 -.84 -.7 -.8 -.81 -.81 -.85 -.76 -.89 -.71 -.57 -.4M112.96 -129.53l-.43 .49 -.4 .28 -.39 .23 -.4 .21 -.42 .17 -.4 .15 -.39 .15 -.38 .13 -.42 .12 -.45 .1 -.38 .1 -.38 .1 -.4 .09 -.46 .06 -.42 .06 -.38 .07 -.38 .06 -.44 .04 -.46 .02 -.4 .04 -.38 .04 -.39 .03 -.49 -.01 -.44 0 -.37 .02 -.38 .01 -.45 -.01 -.49 -.05 -.39 -.01 -.38 0 -.4 -.02 -.49 -.07 -.46 -.06 -.37 -.02 -.37 -.03 -.44 -.06 -.53 -.12 -.38 -.04 -.28 -.23 -.27 -.26 -.39 -.32 -.34 -.32 -.26 -.27 -.25 -.26 -.29 -.29 -.38 -.35 -.28 -.29 -.24 -.28 -.24 -.27 -.34 -.34 -.32 -.34 -.23 -.28 -.23 -.29 -.27 -.3 -.32 -.36 -.26 -.31 -.22 -.3 -.22 -.29 -.29 -.34 -.29 -.36 -.21 -.3 -.2 -.3 -.24 -.31 -.28 -.37 -.23 -.33 -.19 -.3 -.2 -.31 -.24 -.35 -.25 -.36 -.2 -.32 -.18 -.31 -.19 -.32 -.25 -.38 -.2 -.34 -.18 -.32 -.17 -.32 -.2 -.35 -.21 -.36 -.17 -.34 -.17 -.32 -.17 -.33 -.2 -.37 -.17 -.35 -.15 -.33 -.15 -.33 -.17 -.35 -.17 -.37 -.15 -.34 -.14 -.33 -.14 -.34 -.16 -.36 -.14 -.36 -.13 -.33 -.13 -.34 -.14 -.35 -.13 -.36 -.13 -.35 -.11 -.34 -.12 -.34 -.13 -.35 -.11 -.35 -.11 -.35 -.11 -.34 -.11 -.34 -.11 -.36 -.1 -.34 -.1 -.34 -.11 -.35 -.11 -.33 .22 .27 .24 .27 .24 .27 .24 .26 .24 .25 .25 .26 .26 .25 .25 .25 .25 .24 .26 .23 .27 .24 .27 .24 .26 .24 .26 .21 .28 .22 .28 .23 .28 .23 .26 .2 .27 .2 .29 .21 .29 .21 .29 .22 .26 .17 .29 .18 .3 .2 .3 .21 .28 .17 .27 .15 .31 .19 .31 .19 .3 .18 .27 .14 .29 .15 .32 .17 .31 .18 .3 .15 .25 .1 .32 .16 .33 .17 .32 .15 .27 .11 .28 .11 .34 .15 .33 .14 .3 .13 .26 .07 .31 .12 .34 .14 .34 .13 .26 .07 .28 .08 .34 .11 .35 .12 .31 .1 .24 .04 .32 .09 .35 .1 .34 .1 .27 .06 .25 .02 .35 .1 .36 .09 .32 .07 .22 .01 .31 .05 .36 .08 .35 .07 .27 .03 .23 0 .35 .05 .35 .1 .24 .27 .09 .19 .2 .23 .26 .27 .26 .27 .18 .23 .15 .21 .24 .25 .27 .26 .25 .26 .16 .21 .21 .24 .28 .25 .27 .26 .22 .24 .17 .22 .27 .25 .29 .25 .27 .26 .2 .23 .23 .23 .29 .26 .29 .25 .26 .26 .21 .23 .28 .25 .3 .26 .29 .27 .24 .26 .27 .26 .29 .27 .3 .28 .29 .3 .26 .29 .29 .31 .3 .35 .29 .39 .26 .59M112.65 -127.55l-.53 .38 -.46 .19 -.43 .14 -.41 .12 -.38 .13 -.4 .1 -.4 .09 -.39 .08 -.35 .1 -.35 .09 -.39 .08 -.39 .07 -.36 .08 -.3 .1 -.37 .08 -.38 .07 -.38 .07 -.28 .09 -.31 .1 -.38 .07 -.37 .08 -.32 .08 -.26 .1 -.35 .09 -.37 .08 -.35 .08 -.25 .11 -.29 .1 -.37 .08 -.36 .09 -.28 .1 -.22 .11 -.35 .1 -.36 .1 -.35 .09 -.18 .12 -.28 .11 -.35 -.02 -.34 -.14 -.23 -.13 -.21 -.11 -.33 -.13 -.34 -.12 -.3 -.12 -.2 -.11 -.3 -.11 -.35 -.1 -.34 -.11 -.25 -.11 -.23 -.09 -.36 -.1 -.35 -.09 -.32 -.09 -.21 -.1 -.33 -.08 -.35 -.08 -.36 -.07 -.26 -.09 -.27 -.07 -.36 -.06 -.36 -.07 -.32 -.06 -.26 -.07 -.33 -.05 -.36 -.05 -.35 -.05 -.28 -.06 -.31 -.04 -.36 -.03 -.36 -.03 -.33 -.04 -.27 -.04 -.36 -.02 -.36 -.02 -.36 -.02 -.29 -.02 -.33 -.02 -.36 0 -.37 0 -.33 -.01 -.31 0 -.35 .01 -.36 .01 -.36 .02 -.31 0 -.34 .02 -.36 .03 -.36 .04 -.34 .02 -.32 .03 -.36 .05 -.36 .04 -.35 .05 -.33 .05 -.35 .05 -.35 .07 -.36 .06 -.34 .06 -.34 .08 -.35 .08 -.35 .08 -.34 .08 -.34 .09 -.34 .1 -.34 .1 -.34 .11 -.34 .12 .27 -.23 .27 -.24 .26 -.24 .26 -.25 .28 -.24 .27 -.24 .27 -.24 .27 -.24 .28 -.24 .29 -.24 .27 -.23 .28 -.23 .29 -.24 .3 -.23 .29 -.23 .29 -.22 .28 -.23 .32 -.23 .31 -.23 .29 -.21 .3 -.21 .31 -.23 .34 -.22 .31 -.21 .3 -.2 .3 -.21 .36 -.22 .33 -.2 .31 -.2 .31 -.19 .34 -.21 .38 -.2 .32 -.18 .31 -.19 .32 -.18 .4 -.2 .36 -.18 .32 -.17 .32 -.18 .38 -.18 .4 -.18 .34 -.16 .32 -.16 .36 -.17 .43 -.17 .37 -.15 .33 -.15 .34 -.15 .41 -.16 .44 -.14 .34 -.14 .34 -.14 .36 -.14 .49 -.14 .37 -.12 .34 -.13 .35 -.12 .46 -.13 .44 -.11 .36 -.11 .35 -.12 .4 -.11 .5 -.1 .39 -.1 .35 -.1 .37 -.09 .49 -.09 .46 -.08 .36 -.09 .35 .03 .41 .16 .51 .18 .34 .17 .33 .18 .35 .17 .47 .2 .41 .2 .32 .19 .33 .19 .39 .21 .43 .22 .34 .22 .32 .21 .33 .22 .42 .24 .36 .24 .31 .23 .3 .24 .36 .25 .39 .27 .3 .25 .29 .26 .3 .27 .37 .29 .31 .29 .27 .28 .28 .29 .31 .31 .31 .32 .26 .32 .25 .33 .26 .34 .27 .36 .24 .39 .21 .4 .19 .45 .12 .65M111.42 -138.93l.04 .25 .02 .28 .06 .35 .08 .38 .07 .37 .03 .32 .05 .33 .09 .38 .08 .39 .06 .36 .04 .34 .08 .39 .08 .4 .07 .4 .03 .38 .06 .41 .04 .45 .02 .48 -.13 .61 -.62 .12 -.47 -.02 -.45 -.06 -.43 -.08 -.44 -.14 -.4 -.11 -.39 -.12 -.39 -.14 -.41 -.18 -.39 -.18 -.36 -.16 -.36 -.16 -.39 -.21 -.39 -.23 -.35 -.19 -.34 -.19 -.35 -.21 -.39 -.29 -.34 -.23 -.32 -.2 -.33 -.22 -.37 -.3 -.35 -.3 -.31 -.22 -.3 -.23 -.34 -.29 -.36 -.36 -.29 -.25 -.29 -.25 -.29 -.25 -.36 -.4 -.31 -.32 -.27 -.26 -.26 -.26 -.34 -.38 -.31 -.4 -.2 -.3 -.05 -.36 -.07 -.43 -.11 -.54 -.03 -.38 -.03 -.36 -.03 -.39 -.08 -.51 -.04 -.44 -.02 -.37 -.01 -.36 -.04 -.46 -.04 -.49 0 -.38 0 -.36 0 -.41 -.03 -.49 .01 -.41 .02 -.36 .02 -.38 0 -.47 .01 -.44 .04 -.36 .03 -.36 .03 -.42 .03 -.47 .04 -.38 .05 -.36 .05 -.37 .04 -.46 .07 -.4 .06 -.36 .07 -.36 .06 -.43 .01 -.09M111.5 -126.72l-.22 .56 -.26 .39 -.27 .34 -.26 .31 -.23 .3 -.28 .3 -.27 .3 -.26 .27 -.22 .27 -.25 .28 -.27 .27 -.27 .27 -.19 .25 -.23 .27 -.26 .27 -.26 .27 -.18 .24 -.2 .25 -.26 .28 -.25 .27 -.18 .24 -.17 .24 -.24 .28 -.25 .28 -.19 .25 -.13 .22 -.22 .28 -.24 .28 -.19 .26 -.11 .22 -.19 .27 -.23 .29 -.2 .27 -.09 .21 -.16 .26 -.3 .18 -.34 .12 -.22 .03 -.26 .07 -.33 .14 -.34 .13 -.25 .07 -.24 .07 -.32 .15 -.33 .15 -.28 .1 -.21 .07 -.32 .16 -.32 .17 -.3 .14 -.22 .08 -.29 .16 -.32 .18 -.31 .18 -.22 .1 -.27 .15 -.31 .2 -.3 .19 -.24 .13 -.25 .16 -.3 .21 -.29 .2 -.26 .17 -.23 .16 -.28 .22 -.29 .22 -.26 .2 -.23 .17 -.27 .22 -.27 .24 -.26 .22 -.23 .19 -.25 .23 -.26 .25 -.25 .24 -.23 .21 -.23 .24 -.25 .26 -.25 .26 -.22 .23 -.22 .25 -.24 .27 -.23 .27 -.22 .26 -.21 .25 -.22 .29 -.22 .28 -.21 .28 -.2 .26 -.2 .3 -.2 .29 -.21 .3 -.18 .28 -.19 .3 -.18 .31 -.19 .31 -.17 .3 -.17 .31 -.16 .32 -.16 .32 -.16 .32 .04 -.36 .03 -.35 .02 -.36 .03 -.36 .03 -.36 .04 -.36 .03 -.36 .04 -.36 .04 -.37 .05 -.37 .05 -.35 .04 -.36 .07 -.38 .06 -.37 .06 -.36 .06 -.36 .08 -.38 .08 -.38 .08 -.35 .07 -.35 .09 -.39 .11 -.38 .09 -.36 .09 -.35 .1 -.37 .12 -.4 .11 -.35 .11 -.35 .11 -.37 .15 -.4 .13 -.36 .12 -.34 .12 -.36 .17 -.4 .15 -.37 .13 -.34 .14 -.34 .18 -.4 .19 -.38 .15 -.33 .14 -.33 .2 -.39 .21 -.39 .17 -.33 .16 -.33 .2 -.37 .25 -.41 .18 -.32 .17 -.32 .2 -.34 .28 -.41 .22 -.33 .18 -.32 .2 -.31 .3 -.41 .25 -.35 .2 -.3 .21 -.31 .3 -.38 .3 -.36 .22 -.29 .22 -.3 .29 -.35 .35 -.38 .23 -.28 .27 -.22 .42 -.15 .48 -.18 .39 -.11 .37 -.08 .39 -.11 .49 -.15 .41 -.09 .37 -.06 .39 -.08 .47 -.11 .44 -.08 .37 -.04 .37 -.05 .47 -.07 .45 -.06 .38 -.02 .38 -.02 .43 -.04 .46 -.03 .4 0 .38 .01 .42 .01 .46 0 .4 .03 .38 .05 .41 .04 .45 .04 .41 .07 .39 .09 .39 .1 .44 .1 .42 .13 .4 .17 .42 .22 .46 .39" stroke="#B08D57" stroke-width="2.1" fill="none" stroke-linecap="round" stroke-linejoin="round"/>
<path d="M106.89 -129.52l-.04 -.48 .04 -.48 .1 -.46 .17 -.43 .24 -.41 .29 -.36 .34 -.32 .4 -.27 .43 -.21 .45 -.13 .46 -.07 .46 0 .46 .07 .45 .13 .43 .21 .4 .27 .34 .32 .29 .36 .24 .41 .17 .43 .1 .46 .04 .48 -.04 .48 -.1 .46 -.17 .43 -.24 .41 -.29 .36 -.34 .32 -.4 .27 -.43 .21 -.45 .13 -.46 .07 -.46 0 -.46 -.07 -.45 -.13 -.43 -.21 -.4 -.27 -.34 -.32 -.29 -.36 -.24 -.41 -.17 -.43z" fill="#B08D57"/>
<path d="M-40 34l.7 2.75 .64 2.76 .57 2.78 .51 2.79 .43 2.8 .37 2.81 .3 2.82 .23 2.83 .16 2.83 .09 2.83 .02 3.02 -.05 3.01 -.14 3.01 -.21 3.01 -.29 3 -.36 3 -.45 2.98 -.52 2.97M-22 30l.96 3.7 .91 3.72 .84 3.74 .78 3.74 .72 3.76 .66 3.77 .59 3.78 .54 3.79 .41 3.24 .36 3.24 .32 3.24 .27 3.25 .23 3.25 .18 3.26 .14 3.26 .09 3.26M34 18l-.7 2.06 -.63 2.09 -.57 2.1 -.51 2.11 -.45 2.13 -.38 2.15 -.32 2.15 -.26 2.17 -.19 2.16 -.13 2.18 -.06 2.17 0 2.18 .07 2.17 .13 2.18 .15 1.55 .22 1.54 .28 1.53 .35 1.51 .41 1.5 .48 1.47 .54 1.46 .6 1.44 .61 1.43 .53 1.46 .48 1.48 .4 1.5 .34 1.51 .27 1.53 .2 1.54 .14 1.55 .1 2.03 .04 2.04 -.02 2.03 -.07 2.03 -.14 2.03 -.2 2.03 -.26 2.02 -.32 2.01 -.37 2 -.44 1.98 -.49 1.98 -.55 1.96 -.29 .91M54 18l-.04 2.61 .02 2.61 .07 2.62 .12 2.6 .17 2.61 .23 2.6 .28 2.6 .33 2.59 .38 2.58 .44 2.58 .33 1.64 .41 1.61 .47 1.6 .55 1.57 .62 1.54 .68 1.52 .76 1.49 .51 1.03 .45 1.05 .38 1.07 .32 1.09 .26 1.11 .18 1.12 .12 1.13 .06 1.14 -.02 1.15 -.08 1.14 -.15 1.09 -.21 1.08 -.28 1.06 -.34 1.05 -.4 1.01 -.47 .99 -.53 .97 -.59 .93 -.65 .89 -.74 1.01 -.68 1.05 -.64 1.08 -.58 1.11 -.52 1.13 -.46 1.16 -.41 1.19 -.35 1.2 -.48 1.96 -.42 1.98 -.34 1.99 -.29 2 -.22 2.01 -.15 2.02 -.04 1.09M-57.84 98.87l.34 .33 .38 .29 .41 .25 .43 .21 .45 .15 .47 .11 .48 .06 .48 .01 .47 -.04 .47 -.1 .46 -.14 43 0 .58 -.55 .51 -.61 .46 -.65 .39 -.7 .32 -.73 .24 -.76 .1 -.52 .04 -.53 -.04 -.52 -.1 -.52 -.17 -.5 -.24 -.47 -.3 -.45 -.35 -.39 -.39 -.35 -.44 -.29 -.47 -.23 -.51 -.17 -.55 -.18 -.52 -.24 -.48 -.29 -.44 -.35 -.39 -.38 -.35 -.43 -.29 -.47 -.25 -.5 -.18 -.52 -.12 -.55 -.07 -.57 .01 -.58M-38 86l1 1.5 .07 .52 0 .52 -.07 .5 -.13 .49 -.2 .47 -.25 .43 -.3 .4 -.36 .36 -.4 .31 -.44 .26 -.49 .21 -.51 .13 -.51 .07 -.51 0 -.5 -.07 -.49 -.13 -.46 -.19 -.44 -.25 -.4 -.31 -.36 -.36 -.32 -.4 -.26 -.46 .07 .52 0 .52 -.07 .51 -.13 .48 -.2 .47 -.25 .43 -.3 .4 -.36 .36 -.4 .31 -.45 .27 -.48 .2 -.51 .14 -.51 .06 -.52 0 -.5 -.07 -.48 -.13 -.46 -.19 -.44 -.25 -.4 -.31 -.37 -.35 -.31 -.41 -.27 -.46 .07 .52 0 .52 -.07 .5 -.13 .49 -.19 .47 -.25 .43 -.31 .4 -.35 .36 -.4 .31 -.45 .26 -.49 .21 -.51 .13 -.51 .07 -.51 0 -.5 -.07 -.48 -.13 -.46 -.19M-44.33 90l1.6 6.5M-51.67 92.5l1.6 6.5M-20.86 -55.52l1.07 .34 2.77 .81 2.8 .73 2.82 .67 2.83 .6 2.85 .53 2.85 .45 2.87 .39 2.49 .27 2.5 .19 2.5 .12 2.5 .05 2.5 -.03 2.5 -.1 2.5 -.18 2.49 -.25 6.67 -.74 6.67 -.69 6.68 -.64 3.19 -.33 3.19 -.41 3.17 -.48 3.16 -.56 3.14 -.63 3.13 -.71 2.08 -.47 2.1 -.4 2.1 -.33 2.11 -.28 2.12 -.21 2.12 -.14 2.13 -.08 2.13 -.02 2.13 .05 2.78 .14 2.77 .21 2.76 .27 2.76 .34 2.75 .41 2.74 .48 2.73 .54 2.71 .61M100 -55l1.58 .73 1.54 .8 1.51 .87 1.46 .94 1.43 1 1.37 1.06 1.33 1.13 1.27 1.19 1.21 1.24 1.16 1.3 1.1 1.34 1.04 1.4 .88 1.31 .82 1.35 .76 1.38 .69 1.42 .62 1.45 .56 1.48 .48 1.5 .42 1.53 .47 2.06 .41 2.09 .33 2.09 .26 2.11 .18 2.11 .12 2.12 .03 1.77 -.02 1.77 -.09 1.76 -.15 1.76 -.21 1.76 -.27 1.75 -.33 1.73 -.39 1.73 -.45 1.71 -.51 1.69 -.57 1.68 -.62 1.65 -.68 1.63 -.74 1.61M118 6l-1 1.53 -.95 1.57 -.87 1.61 -.82 1.63 -.75 1.68 -.68 1.69 -.61 1.73 -.55 1.75 -.47 1.77 -.4 1.78 -.34 1.8 -.26 1.81 -.18 1.82 -.12 1.83 -.02 1.25 .05 1.24 .11 1.23 .19 1.22 .25 1.21 .31 1.19 .38 1.18 .44 1.15 .51 1.13 .57 1.1 .63 1.07 .68 1.04 .69 1.03 .62 1.07 .56 1.1 .5 1.13 .43 1.15 .36 1.18 .3 1.19 .22 1.21 .16 1.22 .09 1.23 .02 1.24 -.05 1.24 -.12 1.3 -.2 1.29 -.25 1.27 -.32 1.26 -.38 1.24 -.45 1.22 -.5 1.2 -.57 1.18 -.63 1.14 -.83 1.48 -.77 1.51 -.71 1.53 -.65 1.56 -.6 1.59 -.54 1.6 -.48 1.63 -.86 3.29 -.79 3.31 -.7 3.33 -.63 3.34 -.55 3.36 -.06 .42M83.12 97.05l.09 -.25 .53 -1.63 .47 -1.64 .42 -1.66 .36 -1.67 .31 -1.69 .25 -1.69 .2 -1.7 .14 -1.7 .08 -1.71 .03 -1.71 -.03 -1.71 -.09 -1.7 -.16 -1.7 -.21 -1.69 -.27 -1.69 -.34 -1.67 -.47 -2 -.52 -1.99 -.58 -1.97 -.64 -1.95 -.69 -1.93 -.62 -1.55 -.69 -1.52 -.76 -1.48 -.83 -1.45 -.9 -1.41 -.96 -1.36 -1.03 -1.32 -1.03 -1.32 -.99 -1.35 -.94 -1.39 -.89 -1.41 -.84 -1.45 -.79 -1.48 -.73 -1.51 -1.04 -2.31 -.99 -2.33 -.94 -2.36 -.88 -2.38 -.83 -2.39 -.78 -2.42 -.72 -2.43 -.66 -2.44 -.61 -2.46 -.55 -2.48M62 16l-1.71 -.85 -1.73 -.79 -1.75 -.74 -1.78 -.69 -1.8 -.63 -1.81 -.58 -1.84 -.51 -1.84 -.46 -1.87 -.41 -1.87 -.34 -1.7 -.25 -1.7 -.19 -1.71 -.12 -1.71 -.06 -1.72 0 -1.71 .07 -1.7 .14 -1.71 .19 -1.69 .27 -1.69 .32 -16.96 3.63 -2.72 .62 -2.71 .69 -2.69 .76 -2.67 .83 -2.65 .9 -2.62 .96 -3.15 1.17 -3.17 1.11 -3.18 1.05 -3.21 .99 -3.23 .92 -3.98 1.07 -4 1.03 -4 .97 -6.01 1.45 -6.01 1.48 -4 1 -4 1M-54 32l.47 1.14 .41 1.16 .36 1.17 .29 1.19 .23 1.21 .17 1.22 .11 1.23 .05 1.22 -.01 1.23 -.08 1.23 -.12 .99 -.18 .98 -.24 .96 -.31 .94 -.36 .92 -.42 .9 -.48 .87 -.54 .84 -.59 .8 -.92 1.22 -.87 1.26 -.82 1.28 -.77 1.32 -.71 1.35 -.67 1.37 -1.56 3.47 -1.51 3.5 -2.93 7.03 -2.03 4.99 -1.97 5.01M-104 84l.6 -4.49 .53 -4.49 .47 -4.51 .4 -4.51 .42 -5.49 .36 -5.5 .14 -2.75 .08 -2.75 .03 -2.76 -.03 -2.75 -.11 -3.52 -.19 -3.52 -.16 -2.12M100 -44l-1.87 2.21 -1.81 2.25 -1.75 2.3 -1.7 2.34 -1.63 2.39 -1.58 2.43 -1.51 2.46 -1.45 2.51 -1.38 2.54 -1.32 2.57 -1.15 2.38 -1.09 2.41 -1.04 2.43 -.98 2.46 -.92 2.47 -.87 2.5 -.8 2.52 -.75 2.53 -.69 2.56 -.63 2.56 -.57 2.58 -.51 2.6M-55.66 11.86l-.09 .86 -.25 3.28M-48.09 -23.34l-.41 1.17 -.97 3.02 -.91 3.03 -.84 3.05 -.78 3.07 -.74 3.21 -.68 3.22 -.6 3.23 -.29 1.71M-104 84l1 1.5 .1 .53 .02 .52 -.04 .51 -.1 .5 -.17 .49 -.22 .45 -.29 .43 -.33 .39 -.38 .34 -.43 .3 -.48 .24 -.5 .18 -.52 .11 -.51 .05 -.51 -.03 -.5 -.09 -.49 -.14 -.46 -.21 -.44 -.27 -.4 -.32 -.37 -.38 -.31 -.43 .09 .52 .03 .53 -.04 .51 -.11 .5 -.16 .48 -.23 .46 -.28 .43 -.33 .38 -.38 .35 -.44 .3 -.47 .24 -.51 .18 -.51 .11 -.51 .04 -.52 -.02 -.5 -.09 -.48 -.15 -.47 -.21 -.43 -.26 -.41 -.33 -.36 -.38 -.32 -.43 .1 .53 .03 .52 -.04 .52 -.11 .5 -.17 .48 -.22 .46 -.28 .42 -.34 .39 -.38 .35 -.43 .29 -.48 .25 -.5 .18 -.51 .1 -.52 .05 -.51 -.03 -.5 -.08 -.49 -.15 -.46 -.21 -.44 -.27 -.4 -.32 -.36 -.38 -.32 -.43 -.06 .58 .01 .58 .08 .58 .16 .56 .23 .54 .3 .5 .36 .45 .42 .41 .38 .29 .41 .25 .43 .21 .45 .15 .47 .11 .48 .06 .48 .01 .47 -.04 .47 -.1 .46 -.14 53 0 .55 -.57 .5 -.62 .45 -.65 .4 -.69 .33 -.72 .27 -.75 .14 -.55 .07 -.55 .01 -.55 -.05 -.55 -.11 -.52 -.18 -.52 -.22 -.48 -.28 -.46 -.33 -.43 -.38 -.39 -.43 -.35 -.47 -.3 -.51 -.25 -.59 -.28 -.54 -.34 -.51 -.39 -.45 -.44 -.41 -.48 -.36 -.51 -.3 -.56 -.25 -.58 -.18 -.6 -.12 -.63 -.06 -.64 .01 -.65M-110.33 88.67l1.6 6.5M-117.67 91.83l1.6 6.5M-102.93 -106.15l.23 -.11 .33 -.15 .33 -.15 .38 -.19 .41 -.21 .34 -.14 .33 -.14 .34 -.14 .38 -.18 .41 -.19 .34 -.13 .34 -.13 .34 -.13 .39 -.17 .39 -.16 .34 -.12 .35 -.12 .35 -.12 .39 -.15 .38 -.14 .34 -.11 .35 -.11 .35 -.11 .4 -.14 .37 -.12 .35 -.1 .35 -.1 .35 -.1 .39 -.13 .37 -.1 .35 -.09 .35 -.09 .36 -.09 .38 -.11 .36 -.08 .36 -.08 .35 -.09 .36 -.08 .38 -.09 .36 -.08 .35 -.07 .35 -.07 .36 -.08 .37 -.07 .36 -.07 .35 -.06 .35 -.07 .36 -.07 .36 -.06 .35 -.06 .35 -.06 .35 -.06 .35 -.08 -.29 .2 -.29 .21 -.29 .21 -.28 .22 -.28 .21 -.27 .23 -.28 .23 -.27 .23 -.27 .23 -.26 .23 -.26 .24 -.26 .24 -.18 .16M-92.91 -101.35l.06 -.01 .35 -.1 .39 -.11 .47 -.15 .36 -.09 .36 -.09 .34 -.08 .36 -.08 .38 -.1 .45 -.13 .39 -.09 .35 -.08 .35 -.07 .35 -.07 .37 -.09 .46 -.12 .39 -.08 .35 -.06 .36 -.07 .35 -.06 .37 -.07 .44 -.1 .4 -.08 .36 -.05 .35 -.06 .35 -.05 .36 -.06 .44 -.08 .4 -.07 .36 -.04 .36 -.05 .36 -.05 .36 -.05 .42 -.06 .41 -.06 .35 -.04 .36 -.03 .36 -.04 .36 -.04 .4 -.05 .42 -.05 .36 -.02 .36 -.03 .35 -.03 .36 -.03 .4 -.03 .41 -.04 .36 -.02 .36 -.02 .36 -.02 .36 -.02 .38 -.02 .41 -.03 .37 -.01 .35 -.01 .36 -.01 .36 -.01 .38 -.01 .4 -.02 .37 0 .35 0 .36 0 .36 0 .37 0 .4 -.01 .36 .01 .36 .01 .36 .01 .35 0 .37 .01 .38 .01 .37 .01 .36 .02 .36 .02 .35 .01 .36 .02 .38 .01 .37 .03 .35 .02 .36 .02 .35 .03 .36 .02 .37 .02 .36 .03 .36 .04 .35 .02 .35 .04 .36 .02 .36 .03 .36 .04 .35 .03 .35 .04 .36 .03 .35 .03 .35 .02 -.34 .08 -.35 .09 -.34 .09 -.34 .09 -.34 .09 -.34 .1 -.34 .1 -.33 .1 -.34 .11 -.34 .11 -.34 .11 -.33 .11 -.33 .11 -.33 .12 -.34 .12 -.33 .12 -.34 .13 -.32 .12 -.32 .12 -.32 .13 -.33 .13 -.34 .14 -.33 .13 -.32 .13 -.3 .14 -.32 .14 -.32 .14 -.33 .14 -.33 .15 -.32 .14 -.29 .14 -.31 .15 -.32 .16 -.32 .15 -.32 .16 -.32 .15 -.27 .15 -.3 .16 -.32 .16 -.32 .17 -.31 .16 -.32 .16 -.26 .16 -.29 .16 -.31 .18 -.31 .18 -.31 .17 -.32 .17 -.25 .16 -.27 .18 -.31 .18 -.3 .18 -.31 .19 -.3 .18 -.26 .17 -.25 .18 -.3 .19 -.3 .19 -.3 .2 -.3 .19 -.25 .18 -.24 .18 -.11 .08M-97.7 -83.25l.28 -.19 .38 -.24 .3 -.21 .3 -.21 .29 -.21 .3 -.21 .29 -.2 .3 -.21 .42 -.25 .38 -.23 .3 -.19 .3 -.2 .3 -.2 .3 -.2 .31 -.2 .3 -.19 .45 -.25 .38 -.2 .31 -.19 .3 -.19 .31 -.19 .31 -.18 .31 -.19 .38 -.04 .51 -.08 .41 -.04 .35 -.02 .36 -.03 .35 -.02 .36 -.03 .36 -.02 .4 -.04 .5 -.06 .38 -.02 .36 -.02 .36 -.02 .35 -.01 .36 -.02 .36 -.02 .41 -.03 .5 -.04 .36 -.01 .36 -.01 .35 -.01 .36 -.01 .36 0 .35 -.01 .44 -.03 .47 -.02 .36 0 .35 0 .36 0 .36 0 .35 0 .36 0 .45 -.01 .44 -.01 .36 .01 .36 .01 .35 .01 .36 .01 .36 0 .35 .01 .46 0 .42 .01 .36 .01 .35 .02 .36 .02 .36 .02 .35 .01 .36 .02 .46 .01 .4 .02 .36 .02 .35 .03 .36 .03 .35 .02 .36 .03 .37 .02 .45 .02 .38 .03 .36 .04 .35 .03 .36 .04 .35 .03 .36 .04 .38 .03 .44 .03 .36 .04 .36 .05 .35 .04 .35 .04 .36 .05 .35 .04 .39 .04 .43 .04 .35 .05 .36 .06 .35 .05 .35 .05 .35 .05 .35 .05 .4 .05 .41 .06 .35 .06 .35 .06 .35 .06 .35 .05 .35 .06 .35 .06 .39 .06 .4 .07 .35 .07 .35 .06 .34 .07 .36 .07 .34 .06 .35 .07 .39 .07 .38 .08 .35 .07 .35 .08 .34 .07 .35 .08 .35 .07 .35 .08 .39 .08 .36 .08 .34 .08 .35 .09 .35 .08 .34 .08 .35 .08 .35 .08 .37 .09 .36 .09 .34 .09 .34 .09 .35 .09 .34 .09 .34 .09 .35 .09 .37 .1 .34 .1 .35 .09 .34 .1 .34 .1 .34 .09 .34 .1 .35 .09 .35 .11 .34 .1 .34 .1 .34 .11 .34 .1 .34 .1 .34 .1 .34 .1 .35 .11 .33 .11 .34 .1 .34 .11 .33 .1 .34 .1 .34 .11 .34 .09 -.35 -.02 -.35 0 -.36 -.01 -.35 0 -.35 -.01 -.36 0 -.35 0 -.35 0 -.35 .01 -.35 .01 -.36 .01 -.35 .01 -.35 .01 -.36 .01 -.35 .01 -.34 .02 -.35 .02 -.36 .03 -.35 .02 -.35 .02 -.36 .02 -.35 .03 -.35 .02 -.33 .03 -.35 .03 -.35 .04 -.36 .03 -.35 .03 -.35 .04 -.36 .03 -.34 .04 -.32 .04 -.35 .04 -.35 .05 -.36 .04 -.35 .05 -.35 .04 -.35 .04 -.34 .05 -.31 .05 -.35 .06 -.35 .05 -.35 .06 -.36 .05 -.35 .06 -.35 .05 -.32 .06 -.31 .06 -.35 .07 -.35 .06 -.35 .06 -.35 .07 -.35 .06 -.35 .07 -.31 .06 -.3 .08 -.35 .07 -.35 .07 -.35 .08 -.34 .07 -.35 .08 -.35 .07 -.29 .08 -.31 .08 -.34 .08 -.35 .09 -.34 .08 -.35 .09 -.35 .08 -.34 .08 -.27 .09 -.31 .09 -.34 .09 -.35 .09 -.34 .1 -.35 .09 -.34 .09 -.33 .1 -.26 .09 -.31 .1 -.34 .1 -.35 .11 -.34 .1 -.34 .1 -.34 .1 -.31 .1 -.25 .1 -.32 .11 -.34 .11 -.34 .12 -.34 .11 -.33 .11 -.34 .11 -.3 .11 -.23 .1 -.33 .13 -.34 .12 -.33 .12 -.34 .12 -.33 .12 -.34 .12 -.15 .07M-97.7 -65.64l.27 -.13 .32 -.15 .33 -.15 .33 -.15 .33 -.14 .33 -.15 .36 -.16 .43 -.15 .35 -.15 .33 -.14 .33 -.13 .34 -.14 .33 -.14 .33 -.14 .33 -.13 .39 -.15 .43 -.14 .36 -.13 .33 -.13 .34 -.12 .33 -.13 .34 -.13 .33 -.12 .35 -.13 .42 -.13 .43 -.13 .34 -.11 .34 -.12 .34 -.12 .33 -.11 .34 -.12 .34 -.11 .35 -.12 .47 -.12 .4 -.12 .35 -.1 .34 -.11 .34 -.1 .34 -.11 .34 -.1 .35 -.07 .39 .03 .49 .04 .39 .04 .35 .05 .35 .04 .35 .05 .35 .04 .36 .05 .35 .05 .42 .04 .46 .05 .37 .05 .35 .05 .35 .06 .35 .05 .35 .05 .35 .06 .36 .05 .44 .05 .44 .06 .35 .06 .35 .06 .35 .06 .35 .06 .35 .07 .35 .06 .36 .06 .45 .06 .41 .07 .35 .07 .34 .07 .35 .06 .35 .07 .35 .07 .35 .07 .37 .07 .46 .07 .37 .08 .35 .08 .34 .07 .35 .08 .35 .07 .34 .08 .35 .08 .39 .07 .43 .09 .36 .08 .35 .09 .34 .08 .34 .08 .35 .09 .35 .08 .34 .08 .41 .09 .41 .1 .34 .09 .35 .09 .34 .09 .34 .09 .35 .09 .34 .09 .35 .09 .41 .1 .39 .1 .34 .1 .34 .1 .34 .09 .34 .1 .34 .1 .34 .1 .36 .1 .41 .11 .36 .1 .34 .11 .34 .1 .33 .11 .34 .1 .34 .11 .34 .1 .37 .11 .4 .12 .34 .11 .33 .11 .34 .12 .33 .11 .34 .11 .34 .11 .33 .11 .38 .12 .37 .12 .34 .12 .34 .12 .33 .12 .33 .12 .34 .12 .33 .12 .34 .12 .37 .12 .36 .14 .33 .12 .33 .13 .33 .12 .33 .13 .33 .12 .33 .13 .34 .12 .38 .14 .34 .13 .32 .14 .33 .13 .33 .13 .33 .13 .33 .13 .32 .14 .35 .13 .36 .15 .32 .13 .33 .14 .32 .14 .33 .14 .33 .14 .32 .13 .33 .14 .34 .14 .34 .15 .33 .15 .32 .14 .32 .15 .32 .14 .33 .15 .32 .14 .32 .14 .34 .15 .33 .16 .32 .15 .32 .15 .32 .15 .32 .14 .32 .15 .32 .15 .32 .15 .33 .16 .32 .15 .32 .16 .31 .15 .32 .16 .32 .15 .32 .16 .31 .15 .32 .15 .32 .16 .32 .16 .31 .16 .32 .16 .31 .15 .32 .16 .31 .15 .32 .15 .32 .15 -.34 -.08 -.34 -.07 -.35 -.07 -.34 -.08 -.35 -.06 -.34 -.07 -.35 -.07 -.34 -.07 -.35 -.06 -.34 -.06 -.35 -.06 -.35 -.05 -.34 -.06 -.35 -.06 -.35 -.05 -.35 -.06 -.34 -.05 -.34 -.05 -.35 -.05 -.34 -.04 -.36 -.05 -.34 -.05 -.36 -.04 -.34 -.05 -.36 -.05 -.34 -.04 -.33 -.03 -.35 -.04 -.35 -.04 -.35 -.03 -.35 -.04 -.35 -.04 -.36 -.03 -.34 -.04 -.34 -.03 -.33 -.02 -.35 -.03 -.36 -.03 -.35 -.02 -.35 -.03 -.35 -.03 -.35 -.02 -.36 -.03 -.32 -.02 -.33 -.01 -.35 -.02 -.36 -.02 -.35 -.02 -.35 -.02 -.36 -.01 -.35 -.02 -.34 -.02 -.31 0 -.35 -.01 -.35 -.01 -.36 -.01 -.35 -.01 -.35 -.01 -.36 0 -.35 -.01 -.33 -.01 -.31 .01 -.35 0 -.35 0 -.36 0 -.35 0 -.35 0 -.36 0 -.35 0 -.31 .01 -.31 .01 -.36 .01 -.35 .01 -.35 .01 -.36 0 -.35 .01 -.36 .01 -.35 .01 -.29 .02 -.32 .02 -.35 .02 -.36 .01 -.35 .02 -.35 .02 -.36 .02 -.35 .01 -.33 .02 -.29 .03 -.33 .03 -.36 .03 -.35 .02 -.35 .03 -.36 .03 -.35 .02 -.35 .03 -.32 .03 -.28 .04 -.34 .03 -.35 .03 -.35 .04 -.36 .03 -.35 .04 -.35 .03 -.35 .04 -.29 .04 -.28 .04 -.35 .05 -.36 .04 -.35 .04 -.35 .05 -.35 .04 -.35 .04 -.34 .05 -.27 .05 -.3 .05 -.35 .05 -.35 .05 -.35 .05 -.35 .05 -.35 .05 -.35 .06 -.33 .05 -.11 .03M-86.76 -35.24l-.06 -.02 -.24 -.11 -.33 -.11 -.34 -.12 -.34 -.11 -.33 -.12 -.34 -.11 -.34 -.12 -.31 -.11 -.22 -.11 -.32 -.1 -.34 -.12 -.34 -.11 -.34 -.11 -.35 -.11 -.34 -.11 -.32 -.11 -.25 -.11 -.29 -.1 -.35 -.1 -.34 -.11 -.35 -.11 -.34 -.11 -.34 -.1 -.35 -.11 -.28 -.11 -.27 -.1 -.34 -.1 -.34 -.1 -.35 -.11 -.35 -.1 -.34 -.1 -.35 -.11 -.32 -.1 -.26 -.1 -.33 -.1 -.35 -.1 -.35 -.1 -.35 -.1 -.35 -.11 -.21 -.06M-98.42 -49.85l.09 -.02 .35 -.09 .37 -.1 .43 -.08 .38 -.08 .36 -.08 .35 -.08 .35 -.08 .35 -.08 .36 -.08 .35 -.08 .43 -.07 .42 -.07 .35 -.07 .36 -.07 .35 -.06 .35 -.07 .36 -.07 .35 -.06 .41 -.07 .44 -.05 .38 -.06 .35 -.05 .35 -.06 .36 -.05 .36 -.06 .35 -.05 .38 -.06 .47 -.04 .39 -.04 .36 -.04 .35 -.05 .36 -.04 .36 -.05 .35 -.04 .37 -.05 .45 -.03 .44 -.02 .36 -.04 .35 -.03 .36 -.04 .36 -.03 .35 -.03 .35 .03 .41 .12 .45 .13 .35 .11 .34 .12 .33 .12 .34 .11 .34 .12 .33 .11 .37 .12 .46 .14 .36 .13 .34 .12 .33 .13 .33 .12 .34 .12 .33 .13 .35 .12 .42 .14 .4 .14 .33 .13 .33 .13 .33 .14 .33 .12 .33 .14 .33 .12 .4 .15 .41 .15 .34 .14 .33 .14 .33 .14 .33 .13 .32 .14 .33 .14 .35 .14 .43 .16 .35 .15 .32 .15 .33 .14 .32 .15 .33 .14 .32 .14 .34 .15 .39 .16 .38 .17 .32 .15 .32 .15 .32 .15 .32 .15 .32 .15 .33 .15 .37 .17 .38 .17 .33 .16 .32 .16 .31 .16 .32 .16 .32 .15 .32 .16 .33 .17 .4 .18 .33 .17 .31 .16 .32 .17 .31 .16 .31 .17 .32 .16 .32 .17 .37 .18 .35 .18 .31 .18 .31 .17 .31 .17 .31 .17 .31 .17 .31 .17 .35 .18 .36 .2 .31 .17 .31 .18 .3 .18 .31 .18 .31 .17 .31 .18 .32 .18 .35 .2 .32 .19 .3 .18 .3 .19 .31 .18 .3 .19 .3 .18 .32 .18 .34 .2 .32 .2 .3 .19 .3 .19 .29 .19 .3 .19 .3 .19 .3 .19 .33 .2 .32 .21 .3 .19 .29 .2 .3 .19 .29 .2 .3 .19 .3 .2 .3 .2 .32 .21 .3 .2 .29 .21 .29 .2 .3 .2 .29 .2 .29 .2 .29 .2 .31 .21 .3 .21 .29 .21 .29 .21 .28 .2 .29 .21 .29 .21 .29 .2 .3 .21 .29 .22 .29 .21 .28 .21 .28 .22 .29 .21 .28 .21 .28 .21 .29 .21 .29 .22 .28 .22 .28 .21 .28 .22 .28 .21 .28 .22 .28 .21 .29 .22 .28 .21 .28 .22 .28 .22 .27 .22 .28 .22 .28 .21 .28 .22 .28 .21 .28 .21 -.32 -.15 -.32 -.14 -.32 -.14 -.33 -.14 -.32 -.13 -.33 -.14 -.32 -.14 -.33 -.13 -.32 -.13 -.33 -.13 -.33 -.13 -.33 -.12 -.33 -.13 -.33 -.12 -.33 -.13 -.32 -.12 -.33 -.12 -.33 -.12 -.33 -.11 -.33 -.12 -.34 -.11 -.33 -.12 -.33 -.12 -.34 -.11 -.32 -.11 -.33 -.1 -.33 -.11 -.34 -.11 -.34 -.1 -.33 -.11 -.34 -.11 -.34 -.1 -.32 -.11 -.32 -.09 -.34 -.09 -.34 -.1 -.34 -.1 -.34 -.1 -.34 -.1 -.34 -.09 -.33 -.1 -.32 -.08 -.33 -.09 -.34 -.09 -.34 -.08 -.35 -.09 -.34 -.09 -.34 -.09 -.34 -.09 -.32 -.08 -.32 -.07 -.34 -.08 -.35 -.08 -.34 -.08 -.35 -.08 -.34 -.08 -.35 -.08 -.32 -.07 -.31 -.06 -.34 -.07 -.35 -.07 -.34 -.08 -.35 -.07 -.35 -.07 -.35 -.07 -.33 -.07 -.3 -.05 -.33 -.05 -.35 -.07 -.35 -.06 -.35 -.07 -.35 -.06 -.35 -.06 -.34 -.06 -.3 -.05 -.32 -.04 -.35 -.06 -.35 -.05 -.35 -.06 -.35 -.05 -.35 -.06 -.35 -.05 -.32 -.04 -.29 -.03 -.34 -.05 -.35 -.04 -.36 -.05 -.35 -.05 -.35 -.04 -.35 -.05 -.34 -.04 -.27 -.02 -.34 -.03 -.35 -.04 -.35 -.04 -.36 -.04 -.35 -.03 -.35 -.04 -.35 -.03 -.28 -.02 -.31 -.02 -.35 -.03 -.35 -.03 -.36 -.03 -.35 -.03 -.36 -.02 -.35 -.03 -.3 -.02 -.28 0 -.35 -.02 -.35 -.02 -.36 -.02 -.35 -.02 -.35 -.03 -.36 -.02 -.33 -.01 -.25 .01 -.33 -.01 -.36 -.01 -.35 -.02 -.36 -.01 -.35 -.01 -.36 -.01 -.34 -.01 -.27 .01 -.29 0 -.36 0 -.35 0 -.36 -.01 -.35 0 -.36 0 -.35 -.01 -.29 .01 -.26 .02 -.35 .01 -.35 0 -.36 .01 -.35 0 -.36 .01 -.35 0 -.32 .01 -.23 .03 -.33 .02 -.36 .01 -.35 .01 -.36 .02 -.35 .01 -.36 .01 -.33 .02 -.25 .03 -.28 .03 -.14 -.02M-100.64 -32.08l.06 .01 .37 .06 .36 .06 .36 .06 .37 .06 .36 .06 .36 .06 .36 .06 .4 .09 .43 .11 .37 .08 .36 .07 .35 .08 .36 .07 .36 .08 .35 .07 .36 .08 .38 .1 .45 .13 .37 .1 .36 .09 .35 .09 .35 .09 .35 .09 .35 .09 .35 .09 .37 .09 .44 .15 .4 .13 .35 .11 .35 .1 .34 .1 .35 .1 .35 .1 .34 .11 .35 .1 .42 .15 .35 .29 .26 .26 .25 .26 .26 .25 .25 .26 .25 .25 .25 .25 .26 .26 .29 .28 .34 .32 .27 .27 .25 .26 .24 .26 .25 .26 .24 .26 .25 .26 .25 .26 .26 .27 .33 .31 .28 .3 .24 .26 .24 .27 .24 .26 .24 .27 .24 .26 .24 .26 .25 .27 .3 .31 .29 .31 .24 .27 .23 .27 .24 .27 .23 .27 .24 .27 .23 .27 .24 .27 .26 .29 .3 .32 .24 .29 .23 .27 .23 .28 .22 .27 .23 .28 .23 .27 .23 .28 .25 .28 .28 .32 .24 .3 .22 .28 .23 .28 .22 .28 .22 .28 .23 .28 .22 .28 .23 .28 .26 .31 .25 .32 .22 .28 .21 .28 .22 .29 .22 .28 .21 .28 .22 .29 .22 .28 .24 .3 .25 .32 .21 .3 .21 .28 .21 .29 .21 .29 .21 .29 .21 .29 .21 .28 .22 .3 .24 .32 .22 .3 .2 .29 .21 .29 .2 .3 .21 .29 .2 .29 .21 .29 .21 .29 .22 .32 .22 .31 .19 .3 .2 .29 .2 .3 .2 .29 .2 .3 .2 .29 .2 .3 .21 .3 .21 .32 .19 .3 .2 .3 .19 .3 .19 .29 .2 .3 .19 .3 .19 .3 .2 .3 .2 .31 .19 .31 .19 .3 .19 .3 .19 .3 .19 .3 .19 .3 .18 .3 .2 .3 .19 .31 .19 .3 .18 .31 .18 .3 .19 .3 .19 .3 .18 .3 .19 .3 .19 .3 .2 .29 -.26 -.24 -.27 -.23 -.27 -.23 -.27 -.23 -.27 -.23 -.27 -.22 -.27 -.23 -.27 -.23 -.27 -.22 -.28 -.21 -.28 -.22 -.28 -.22 -.28 -.22 -.28 -.21 -.28 -.22 -.28 -.22 -.28 -.21 -.28 -.22 -.28 -.2 -.28 -.2 -.29 -.21 -.28 -.21 -.29 -.21 -.29 -.2 -.29 -.21 -.29 -.21 -.29 -.21 -.27 -.19 -.29 -.19 -.29 -.2 -.29 -.2 -.3 -.19 -.29 -.2 -.3 -.2 -.29 -.2 -.3 -.2 -.28 -.19 -.28 -.17 -.29 -.19 -.31 -.19 -.3 -.19 -.3 -.19 -.3 -.19 -.3 -.19 -.3 -.19 -.29 -.19 -.27 -.15 -.3 -.18 -.3 -.18 -.31 -.18 -.31 -.19 -.3 -.18 -.31 -.18 -.31 -.18 -.3 -.18 -.27 -.15 -.29 -.15 -.31 -.18 -.31 -.18 -.31 -.17 -.31 -.17 -.31 -.18 -.31 -.17 -.32 -.18 -.27 -.14 -.28 -.14 -.31 -.16 -.32 -.17 -.31 -.16 -.32 -.17 -.31 -.16 -.32 -.17 -.32 -.17 -.29 -.14 -.26 -.12 -.31 -.15 -.32 -.16 -.32 -.15 -.32 -.16 -.32 -.16 -.32 -.16 -.32 -.16 -.31 -.14 -.26 -.11 -.29 -.13 -.33 -.15 -.32 -.15 -.33 -.15 -.32 -.14 -.32 -.16 -.33 -.14 -.32 -.15 -.27 -.11 -.27 -.1 -.32 -.14 -.33 -.14 -.33 -.14 -.33 -.14 -.33 -.14 -.33 -.14 -.32 -.14 -.29 -.12 -.25 -.08 -.32 -.12 -.33 -.13 -.33 -.13 -.34 -.14 -.33 -.13 -.33 -.13 -.33 -.13 -.31 -.12 -.24 -.07 -.3 -.1 -.33 -.12 -.34 -.12 -.33 -.13 -.34 -.12 -.34 -.13 -.33 -.12 -.33 -.12 -.24 -.08 -.17 -.22 -.25 -.26 -.26 -.26 -.24 -.26 -.26 -.26 -.24 -.26 -.25 -.26 -.25 -.27 -.2 -.23 -.16 -.2 -.24 -.26 -.26 -.26 -.25 -.25 -.25 -.26 -.26 -.26 -.25 -.26 -.25 -.27 -.24 -.24 -.16 -.21 -.23 -.25 -.26 -.25 -.26 -.26 -.25 -.26 -.26 -.26 -.26 -.26 -.23 -.23M-124.83 3.28l-.07 .15 -.13 .33 -.13 .27 -.12 .31 -.13 .35 -.12 .34 -.13 .33 -.11 .29 -.11 .32 -.12 .35 -.11 .34 -.11 .34 -.11 .31 -.1 .32 -.09 .35 -.1 .35 -.1 .35 -.1 .31 -.08 .34 -.09 .35 -.08 .35 -.08 .35 -.09 .33 -.07 .34 -.07 .36 -.07 .35 -.07 .36 -.06 .34 -.06 .34 -.05 .36 -.06 .36 -.05 .35 -.05 .35 -.04 .35 -.03 .36 -.03 .36 -.03 .35 -.02 .36 -.11 -.34 -.12 -.34 -.13 -.33 -.13 -.34 -.13 -.34 -.12 -.34 -.12 -.34 -.12 -.34 -.13 -.34 -.12 -.35 -.12 -.36 -.12 -.34 -.11 -.34 -.12 -.35 -.12 -.36 -.11 -.37 -.11 -.34 -.1 -.35 -.11 -.35 -.11 -.37 -.1 -.38 -.1 -.35 -.1 -.35 -.1 -.35 -.1 -.38 -.09 -.39 -.09 -.36 -.09 -.35 -.09 -.36 -.09 -.38 -.08 -.41 -.08 -.36 -.08 -.36 -.08 -.35 -.08 -.39 -.07 -.42 -.06 -.37 -.07 -.36 -.07 -.36 -.07 -.39 -.05 -.43 -.06 -.38 -.06 -.36 -.06 -.36 -.05 -.4 -.04 -.45 -.05 -.38 -.04 -.36 -.05 -.36 -.05 -.4 -.02 -.47 -.03 -.38 -.04 -.37 -.04 -.36 -.03 -.4 0 -.48 -.02 -.39 -.03 -.36 -.03 -.37 -.02 -.39 .01 -.5 0 -.4 -.02 -.36 -.01 -.37 -.01 -.4 .03 -.5 0 -.41 0 -.36 0 -.37 0 -.4 .05 -.51 .02 -.41 .01 -.37 .01 -.37 .01 -.4 .07 -.51 .04 -.42 .02 -.37 .1 -.34 .26 -.31 .3 -.42 .29 -.33 .26 -.27 .26 -.28 .27 -.29 .32 -.39 .3 -.32 .27 -.26 .18 -.18M-108.61 -17.52l.13 .34 .13 .36 .13 .35 .12 .36 .13 .29 .13 .29 .14 .35 .12 .35 .13 .35 .13 .36 .12 .35 .13 .33 .12 .25 .13 .31 .13 .35 .13 .34 .13 .35 .12 .35 .13 .35 .12 .29 .13 .24 .13 .32 .13 .35 .13 .34 .13 .35 .13 .34 .12 .35 .13 .22 .13 .26 .13 .33 .13 .34 .14 .35 .13 .34 .13 .34 .13 .31 .03 .19 -.07 .31 -.06 .35 -.07 .36 -.06 .35 -.07 .36 -.06 .35 -.07 .28 -.07 .23 -.05 .34 -.06 .36 -.05 .36 -.06 .35 -.05 .36 -.05 .35 -.07 .24 -.05 .29 -.05 .35 -.04 .36 -.04 .36 -.04 .35 -.05 .36 -.05 .33 -.05 .24 -.04 .33 -.03 .36 -.03 .36 -.03 .36 -.04 .36 -.03 .35 -.04 .3 -.04 .27 -.02 .36 -.02 .36 -.03 .36 -.02 .35 -.02 .36 -.02 .35 -.03 .28 -.03 .32 -.01 .36 -.01 .36 -.01 .35 -.01 .36 -.01 .36 -.01 .34 -.02 .28 -.01 .34 0 .36 .01 .36 0 .36 0 .36 0 .36 -.01 .32 0 .3 .01 .36 .01 .36 .01 .36 .02 .35 .01 .36 .01 .35 0 .32 .02 .33 .02 .36 .02 .36 .03 .35 .02 .36 .03 .36 .02 .34 .02 .32 .03 .35 .03 .35 .04 .36 .04 .35 .03 .36 .04 .36 .03 .33 .04 .33 .04 .36 .05 .35 .05 .36 .05 .35 .05 .35 .05 .35 .05 .34 .05 .34 .06 .36 .06 .35 .07 .35 .06 .35 .06 .35 .06 .34 .07 .35 .08 .34 .07 .35 .08 .35 .08 .34 .08 .35 .09 .34 .09 .34 -.19 -.3 -.2 -.29 -.2 -.29 -.2 -.29 -.21 -.29 -.2 -.29 -.21 -.29 -.21 -.3 -.2 -.3 -.2 -.3 -.2 -.29 -.2 -.29 -.2 -.3 -.21 -.29 -.21 -.3 -.2 -.31 -.2 -.31 -.2 -.29 -.19 -.3 -.2 -.3 -.2 -.3 -.2 -.29 -.2 -.33 -.2 -.32 -.19 -.3 -.2 -.3 -.19 -.31 -.19 -.3 -.19 -.3 -.2 -.31 -.2 -.34 -.19 -.32 -.18 -.31 -.19 -.31 -.19 -.3 -.18 -.31 -.19 -.31 -.19 -.33 -.19 -.35 -.19 -.32 -.17 -.32 -.18 -.31 -.18 -.31 -.18 -.31 -.18 -.31 -.19 -.37 -.18 -.35 -.17 -.32 -.17 -.32 -.18 -.31 -.17 -.32 -.17 -.31 -.17 -.33 -.19 -.4 -.17 -.35 -.16 -.32 -.17 -.32 -.16 -.31 -.16 -.33 -.17 -.32 -.17 -.36 -.17 -.4 -.16 -.34 -.16 -.32 -.15 -.33 -.16 -.32 -.16 -.33 -.15 -.33 -.17 -.41 -.16 -.39 -.15 -.33 -.15 -.33 -.14 -.33 -.15 -.32 -.15 -.33 -.15 -.36 -.16 -.45 -.15 -.36 -.14 -.33 -.14 -.33 -.13 -.34 -.14 -.33 -.14 -.33 -.15 -.41 -.15 -.44 -.13 -.35 -.13 -.33 -.13 -.34 -.13 -.34 -.13 -.33 -.14 -.36 -.14 -.45 -.13 -.42 -.12 -.34 -.12 -.34 -.12 -.34 -.13 -.34 -.12 -.34 -.12 -.39 -.02 -.5 .09 -.38 .09 -.36 .1 -.35 .09 -.35 .1 -.36 .09 -.36 .1 -.44 .1 -.47 .1 -.35 .11 -.35 .11 -.35 .11 -.36 .11 -.35 .12 -.37 .11 -.46 .12 -.4 .13 -.35 .12 -.35 .13 -.35 .13 -.35 .13 -.35 .13 -.39 .14 -.45 .14 -.35 .14 -.35 .15 -.34 .15 -.35 .15 -.34 .15 -.35 .15 -.4 .17 -.41 .03 -.08M-104 -88l-1.59 -.26 -1.59 -.2 -1.6 -.14 -1.61 -.09 -1.61 -.03 -1.61 .03 -1.61 .09 -1.6 .14 -1.59 .2 -1.59 .26 -1.56 .31 -1.55 .35 -1.53 .41 -1.53 .45 -1.5 .51 -1.48 .59 -1.44 .65 -1.41 .73 -1.25 .71 -1.21 .77 -1.19 .81 -1.15 .86 -1.12 .9 -1.08 .95M-139 -79l-1.83 1.93 -1.78 1.97 -1.72 2.03 -1.67 2.07 -1.32 1.7 -1.3 1.72 -.84 1.16 -.42 .64M-153.93 -50.76l.03 .04 .42 .49 .46 .45 .49 .41 .53 .37 .57 .32 .59 .27 .61 .22 .64 .16 .64 .09 .65 .04 .65 -.02 .65 -.08M-147 -48l-.6 .29 -.57 .34 -.54 .41 -.49 .45 -.44 .5 -.39 .54 -.33 .58 -.28 .61 -.21 .63 -.15 .65 -.08 .64 0 .65 .06 .64 .14 .63 .2 .62 .34 .75 .39 .73 .45 .69 .5 .65 .42 .45 .45 .41 .5 .36 .52 .31 .55 .26 .58 .2 .6 .15 4.38 .86 .99 .16 1 .08 1 .02 1 -.06 1 -.13 1 -.13 1 -.08 1 -.01 1.01 .05 1 .1 1.36 .21 1.35 .26 1.35 .31 1.32 .36 1.32 .4 1.3 .46M-147 -36l-.04 .74 .02 .75 .07 .74 .12 .73 .18 .72 .23 .71 .28 .69 .34 .67 .37 .64 .43 .61 .43 .52 .47 .48 .52 .43 .54 .39 .59 .34 .61 .28 3.84 1.56 1.11 .41 1.12 .36 1.15 .29 1.15 .24 1.17 .17 1.17 .11 3.57 .23 3.56 .19 2.01 .06 2 .02 2.01 -.05 2.01 -.09 2 -.16 2 -.2 1.99 -.26 1.98 -.32M-124 -79l-.74 -.38 -.75 -.34 -.78 -.28 -.8 -.23 -.81 -.18 -.82 -.13 -.82 -.07 -.83 -.02 -.83 .04 -.82 .09 -.93 .17 -.9 .23 -.89 .3 -.87 .37 -.83 .43 -.8 .49 -.77 .55 -.71 .6 -.68 .66 -.62 .7M-152 -56l1.5 1.5 1.5 1.5" stroke="#B08D57" stroke-width="2.1" fill="none" stroke-linecap="round" stroke-linejoin="round"/>
<path d="M-125.55 -70.74l-.67 .42 -.69 .34 -.71 .28 -.72 .2 -.74 .14 -.74 .06 -.74 0 -.74 -.07 -.73 -.14 -.71 -.2 -.69 -.27 -.67 -.33 -.64 -.39 -.61 -.46 -.57 -.52 -.53 -.58 .67 -.42 .69 -.34 .71 -.28 .72 -.2 .74 -.14 .74 -.06 .74 0 .74 .07 .73 .14 .71 .2 .69 .27 .67 .33 .64 .39 .61 .46 .57 .52 .53 .58" stroke="#B08D57" stroke-width="2.1" fill="none" stroke-linecap="round" stroke-linejoin="miter" stroke-miterlimit="10"/>
<path d="M-134.87 -71.33l-.03 -.37 .03 -.37 .1 -.35 .15 -.33 .21 -.3 .26 -.26 .3 -.21 .34 -.15 .35 -.1 .36 -.03 .36 .03 .35 .1 .34 .15 .3 .21 .26 .26 .21 .3 .15 .33 .1 .35 .03 .37 -.03 .37 -.1 .35 -.15 .33 -.21 .3 -.26 .26 -.3 .21 -.34 .15 -.35 .1 -.36 .03 -.36 -.03 -.35 -.1 -.34 -.15 -.3 -.21 -.26 -.26 -.21 -.3 -.15 -.33z" fill="#B08D57"/>
<path d="M-108 -86l-.56 -.45 -.51 -.5 -.46 -.54 -.4 -.57 -.35 -.61 -.29 -.64 -.24 -.66 -.17 -.68 -.11 -.7 -.05 -.71 .03 -.72 .09 -.71 .15 -.7 .21 -.67 .28 -.65 .33 -.61 .39 -.59 .44 -.55 .48 -.5 .54 -.47 .58 -.41 .62 -.36 .64 -.3 .66 -.23 .67 -.17 .68 -.11 .69 -.05 .69 .01 .69 .07 .68 .14 .66 .2 .66 .26 .62 .32 .59 .38 .55 .42 .51 .47 .47 .51 .41 .55 .37 .59 .31 .62 .25 .64 .2 .68" stroke="#B08D57" stroke-width="2.1" fill="none" stroke-linecap="round" stroke-linejoin="round"/>
<path d="M-136.18 100l132.18 0 0 43M-129.72 112l125.72 0M-117.43 131l113.43 0M-133.55 105.11l5.11 -5.11M-130.02 111.49l11.48 -11.49M-120.64 112l12 -12M-110.74 112l12 -12M-100.84 112l12 -12M-90.94 112l12 -12M-81.04 112l12 -12M-71.14 112l12 -12M-61.24 112l12 -12M-51.34 112l12 -12M-41.44 112l12 -12M-31.54 112l12 -12M-21.64 112l12 -12M-11.74 112l7.74 -7.74M-113.9 135.74l4.74 -4.74M-109.54 141.28l10.28 -10.28M-101.36 143l12 -12M-91.46 143l12 -12M-81.56 143l12 -12M-71.66 143l12 -12M-61.76 143l12 -12M-51.86 143l12 -12M-41.96 143l12 -12M-32.07 143l12 -12M-22.17 143l12 -12M-12.27 143l8.27 -8.27" stroke="#B08D57" stroke-width="2.1" fill="none" stroke-linecap="butt" stroke-linejoin="miter" stroke-miterlimit="4"/>
<path d="M2 106l.41 .16 .41 .15 .41 .16 .4 .15 .41 .14 .41 .13 .41 .13 .41 .12 .41 .1 .4 .1 .41 .08 .41 .06 .41 .05 .41 .04 .41 .02 .41 .01 .4 -.01 .41 -.02 .41 -.04 .41 -.06 .41 -.07 .41 -.08 .41 -.1 .4 -.1 .41 -.12 .41 -.13 .41 -.14 .41 -.14 .41 -.15 .41 -.15 .4 -.16 .41 -.16 .41 -.16 .41 -.15 .41 -.15 .41 -.15 .4 -.14 .41 -.14 .41 -.12 .41 -.12 .41 -.1 .41 -.09 .41 -.08 .41 -.06 .4 -.05 .41 -.04 .41 -.02 .41 0 .41 .01 .41 .03 .41 .04 .4 .06 .41 .07 .41 .09 .41 .09 .41 .11 .41 .12 .4 .13 .41 .14 .41 .15 .41 .15 .41 .15 .41 .16 .4 .16 .41 .15 .41 .16 .41 .15 .41 .15 .41 .14 .41 .13 .4 .12 .41 .12 .41 .1 .41 .08 .41 .08 .41 .06 .41 .05 .4 .03 .41 .02 .41 0 .41 -.02 .41 -.03 .41 -.04 .41 -.06 .4 -.08 .41 -.08 .41 -.1 .41 -.11 .41 -.13 .41 -.13 .4 -.14 .41 -.14 .41 -.15 .41 -.16 .41 -.16 .41 -.15 .41 -.16 .41 -.16 .4 -.15 .41 -.14 .41 -.14 .41 -.13 .41 -.12 .41 -.11 .41 -.1 .4 -.09 .41 -.07 .41 -.06 .41 -.05 .41 -.02 .41 -.02 .4 0 .41 .02 .41 .03 .41 .05 .41 .06 .41 .08 .41 .09 .4 .1 .41 .12 .41 .12 .41 .13 .41 .14 .41 .15 .4 .15 .41 .16 .41 .15 .41 .16 .41 .16 .41 .15 .41 .15 .4 .15 .41 .14 .41 .12 .41 .12 .41 .11 .41 .1 .41 .08 .4 .07 .41 .06 .41 .04 .41 .03 .41 .01 .41 0 .41 -.02 .4 -.04 .41 -.05 .41 -.07 .41 -.08 .41 -.09 .41 -.1 .41 -.12 .4 -.12 .41 -.14 .41 -.14 .41 -.15 .41 -.15 .41 -.15 .41 -.16 .4 -.16 .41 -.16 .41 -.15 .41 -.15 .41 -.14 .41 -.14 .41 -.13 .4 -.11 .41 -.11 .41 -.1 .41 -.08 .41 -.07 .41 -.05 .4 -.04 .41 -.02 .41 -.01 .41 .01 .41 .02 .41 .04 .4 .05 .41 .07 .41 .08 .41 .09 .41 .11 .41 .12 .41 .13 .4 .13 .41 .14 .41 .15 .41 .16 .41 .15 .41 .16 .41 .16 .4 .15 .41 .16 .41 .14 .41 .15 .41 .13 .41 .13 .41 .11 .4 .11 .41 .09 .41 .08 .41 .07 .41 .05 .41 .03 .41 .02 .4 .01 .41 -.01 .41 -.03 .41 -.04 .41 -.05 .41 -.07 .41 -.09 .4 -.09 .41 -.11 .41 -.12 .41 -.13 .41 -.14 .41 -.14 .41 -.15 .4 -.15 .41 -.16 .41 -.16 .41 -.16 .41 -.15 .41 -.15 .4 -.15 .41 -.14 .41 -.13 .41 -.13 .41 -.11 .41 -.11 .4 -.09 .41 -.07 .41 -.07 .41 -.04 .41 -.04 .41 -.02 .41 0 .4 .01 .41 .03 .41 .05 .41 .05 .41 .08 .41 .08 .41 .1 .4 .11 .41 .12 .41 .13 .41 .14 .41 .15 .41 .15 .41 .15 .4 .16 .41 .16 .41 .15 .41 .16 .41 .15 .41 .15 .41 .14 .4 .13 .41 .12 .41 .11 .41 .1 .41 .09 .41 .08 .41 .06 .4 .04 .41 .03 .41 .02 .41 0 .41 -.02 .41 -.03 .41 -.05 .4 -.06 .41 -.07 .41 -.09 .41 -.1 .41 -.11 .41 -.13 .4 -.13 .41 -.14 .41 -.14 .41 -.15 .41 -.16 .41 -.16 .41 -.16 .4 -.15 .41 -.16 .41 -.15 .41 -.14 .41 -.14 .41 -.13 .4 -.12 .41 -.11 .41 -.1 .41 -.08 .41 -.08 .41 -.06 .41 -.04 .4 -.03 .41 -.01 .41 0 .41 .02 .41 .04 .41 .04 .41 .07 .4 .08 .41 .09 .41 .1 .41 .11 .41 .13 .41 .13 .41 .14 .4 .15 .41 .15 .41 .16 .41 .15 .41 .16 .41 .16 .15 .06M6 118.32l.4 .08 .4 .07 .4 .05 .39 .04 .4 .03 .4 .01 .4 0 .4 -.02 .4 -.04 .39 -.04 .4 -.06 .4 -.08 .4 -.08 .4 -.1 .4 -.11 .4 -.12 .39 -.13 .4 -.14 .4 -.14 .4 -.15 .4 -.15 .4 -.15 .39 -.15 .4 -.16 .4 -.15 .4 -.15 .4 -.14 .4 -.14 .4 -.13 .39 -.12 .4 -.11 .4 -.1 .4 -.09 .4 -.07 .4 -.07 .4 -.05 .39 -.03 .4 -.02 .4 -.01 .4 .01 .4 .02 .4 .04 .4 .05 .39 .07 .4 .08 .4 .09 .4 .1 .4 .12 .4 .12 .39 .13 .4 .14 .4 .14 .4 .15 .4 .15 .4 .16 .4 .15 .39 .16 .4 .14 .4 .15 .4 .14 .4 .14 .4 .12 .39 .12 .4 .11 .4 .1 .4 .08 .4 .07 .4 .06 .4 .04 .4 .03 .39 .02 .4 0 .4 -.02 .4 -.02 .4 -.05 .4 -.06 .39 -.07 .4 -.08 .4 -.1 .4 -.1 .4 -.12 .4 -.13 .4 -.13 .39 -.14 .4 -.15 .4 -.15 .4 -.15 .4 -.16 .4 -.15 .39 -.15 .4 -.15 .4 -.14 .4 -.14 .4 -.14 .4 -.12 .4 -.11 .39 -.11 .4 -.09 .4 -.08 .4 -.06 .4 -.06 .4 -.04 .39 -.02 .4 -.01 .4 0 .4 .03 .4 .03 .4 .05 .4 .06 .4 .08 .39 .09 .4 .1 .4 .11 .4 .12 .4 .13 .4 .14 .39 .14 .4 .15 .4 .15 .4 .15 .4 .15 .4 .16 .4 .15 .39 .15 .4 .14 .4 .14 .4 .12 .4 .12 .4 .11 .39 .1 .4 .09 .4 .08 .4 .06 .4 .04 .4 .04 .4 .02 .39 0 .4 -.01 .4 -.03 .4 -.04 .4 -.05 .4 -.07 .39 -.08 .4 -.09 .4 -.11 .4 -.11 .4 -.13 .4 -.13 .4 -.14 .39 -.14 .4 -.15 .4 -.16 .4 -.15 .4 -.15 .4 -.16 .4 -.14 .39 -.15 .4 -.14 .4 -.13 .4 -.13 .4 -.12 .4 -.1 .4 -.1 .39 -.08 .4 -.07 .4 -.06 .4 -.04 .4 -.03 .4 -.01 .39 0 .4 .02 .4 .03 .4 .05 .4 .06 .4 .07 .4 .08 .39 .1 .4 .11 .4 .12 .4 .12 .4 .14 .4 .14 .39 .15 .4 .15 .4 .15 .4 .16 .4 .15 .4 .15 .4 .15 .39 .14 .4 .14 .4 .13 .4 .13 .4 .11 .4 .1 .39 .09 .4 .08 .4 .06 .4 .05 .4 .04 .4 .02 .4 .01 .4 -.01 .39 -.02 .4 -.04 .4 -.05 .4 -.06 .4 -.08 .4 -.09 .39 -.1 .4 -.11 .4 -.12 .4 -.14 .4 -.13 .4 -.15 .4 -.14 .39 -.16 .4 -.15 .4 -.15 .4 -.16 .4 -.15 .4 -.15 .39 -.14 .4 -.13 .4 -.13 .4 -.12 .4 -.11 .4 -.09 .4 -.09 .39 -.07 .4 -.06 .4 -.05 .4 -.03 .4 -.02 .4 0 .39 .01 .4 .03 .4 .04 .4 .06 .4 .07 .4 .08 .4 .1 .4 .1 .39 .12 .4 .12 .4 .14 .4 .14 .4 .14 .4 .15 .39 .16 .4 .15 .4 .15 .4 .16 .4 .14 .4 .15 .4 .14 .39 .13 .4 .13 .4 .11 .4 .1 .4 .1 .4 .08 .39 .07 .4 .05 .4 .04 .4 .03 .4 .01 .4 0 .4 -.02 .39 -.04 .4 -.04 .4 -.06 .4 -.08 .4 -.09 .4 -.09 .39 -.12 .4 -.11 .4 -.13 .4 -.14 .4 -.14 .4 -.15 .4 -.15 .39 -.15 .4 -.16 .4 -.15 .4 -.15 .4 -.15 .4 -.14 .39 -.14 .4 -.13 .4 -.12 .4 -.11 .4 -.1 .4 -.09 .4 -.08 .4 -.06 .39 -.05 .4 -.03 .4 -.02 .4 -.01 .4 .01 .4 .02 .39 .04 .4 .05 .4 .07 .06 .01M10 132.5l.39 -.06 .39 -.08 .38 -.08 .39 -.1 .39 -.1 .39 -.12 .39 -.12 .39 -.13 .39 -.14 .38 -.14 .39 -.15 .39 -.15 .39 -.15 .39 -.15 .39 -.15 .39 -.14 .38 -.14 .39 -.14 .39 -.13 .39 -.12 .39 -.12 .39 -.1 .38 -.09 .39 -.08 .39 -.07 .39 -.06 .39 -.04 .39 -.03 .39 -.02 .38 0 .39 .01 .39 .03 .39 .04 .39 .05 .39 .07 .38 .08 .39 .09 .39 .1 .39 .11 .39 .12 .39 .13 .39 .14 .38 .14 .39 .14 .39 .15 .39 .15 .39 .15 .39 .15 .39 .15 .38 .14 .39 .14 .39 .13 .39 .13 .39 .11 .39 .11 .38 .1 .39 .09 .39 .07 .39 .07 .39 .04 .39 .04 .38 .02 .39 .01 .39 -.01 .39 -.02 .39 -.03 .39 -.05 .39 -.06 .38 -.07 .39 -.09 .39 -.09 .39 -.11 .39 -.12 .39 -.12 .39 -.13 .38 -.14 .39 -.14 .39 -.15 .39 -.15 .39 -.15 .39 -.15 .39 -.15 .38 -.14 .39 -.15 .39 -.13 .39 -.13 .39 -.12 .38 -.11 .39 -.11 .39 -.09 .39 -.08 .39 -.07 .39 -.05 .39 -.05 .38 -.02 .39 -.02 .39 0 .39 .02 .39 .02 .39 .04 .39 .06 .38 .07 .39 .08 .39 .09 .39 .1 .39 .11 .39 .12 .39 .13 .38 .14 .39 .14 .39 .14 .39 .15 .39 .15 .39 .15 .38 .15 .39 .15 .39 .14 .39 .14 .39 .13 .39 .13 .38 .11 .39 .11 .39 .1 .39 .08 .39 .08 .39 .06 .39 .05 .38 .03 .39 .02 .39 .01 .39 -.01 .39 -.02 .39 -.03 .39 -.05 .38 -.06 .39 -.08 .39 -.08 .39 -.1 .39 -.11 .39 -.12 .38 -.12 .39 -.13 .39 -.14 .39 -.15 .39 -.14 .39 -.15 .38 -.15 .39 -.15 .39 -.15 .39 -.14 .39 -.14 .39 -.14 .39 -.13 .38 -.12 .39 -.11 .39 -.1 .39 -.1 .39 -.07 .39 -.07 .39 -.06 .38 -.04 .39 -.02 .39 -.02 .39 0 .39 .02 .39 .02 .39 .05 .38 .05 .39 .07 .39 .08 .39 .09 .39 .11 .39 .11 .38 .12 .39 .13 .39 .14 .39 .14 .39 .14 .39 .15 .38 .15 .39 .15 .39 .15 .39 .15 .39 .14 .39 .14 .39 .13 .38 .12 .39 .12 .39 .11 .39 .09 .39 .09 .39 .07 .39 .06 .38 .05 .39 .03 .39 .02 .39 .01 .39 -.01 .39 -.02 .38 -.04 .39 -.05 .39 -.06 .39 -.07 .39 -.09 .39 -.1 .38 -.11 .39 -.11 .39 -.13 .39 -.13 .39 -.14 .39 -.14 .39 -.15 .38 -.15 .39 -.15 .39 -.15 .39 -.15 .39 -.14 .39 -.14 .39 -.14 .38 -.13 .39 -.12 .39 -.11 .39 -.1 .39 -.09 .39 -.08 .38 -.07 .39 -.05 .39 -.04 .39 -.03 .39 -.01 .39 0 .38 .02 .39 .03 .39 .04 .39 .06 .39 .07 .39 .08 .39 .09 .38 .11 .39 .11 .39 .12 .39 .13 .39 .14 .39 .14 .39 .14 .38 .15 .39 .15 .39 .15 .39 .15 .39 .15 .39 .14 .39 .14 .38 .13 .39 .12 .39 .12 .39 .1 .39 .1 .39 .08 .38 .08 .39 .06 .39 .04 .39 .04 .39 .02 .39 0 .38 -.01 .39 -.02 .39 -.04 .39 -.05 .39 -.06 .39 -.08 .39 -.09 .38 -.09 .39 -.11 .39 -.12 .39 -.13 .02 -.01" stroke="#B08D57" stroke-width="2.1" fill="none" stroke-linecap="round" stroke-linejoin="round"/></g><g id="ink"></g></svg>