<svg xmlns="http://www.w3.org/2000/svg" viewBox="270.0 420.0 100.0 140.0" width="600.0" height="840.0"><rect x="0" y="0" width="750" height="1050" fill="#F4EFE3"/><path d="M411.88 150.98l.1 3.93 -.03 1.21 .38 .52 .66 1.23 .46 1.31 .27 1.35 .06 1.36 -.14 1.36 -.34 1.34 -.54 1.28 -.57 1.36 -.35 1.4 -.14 1.43 .06 1.42 .27 1.4 .47 1.35 .67 1.28 .87 1.18 1.59 2.04 1.4 2.16 1.2 2.27 .99 2.38 .78 2.46 1 3.96 .89 3.99 .78 4.01 1.12 6.03 1.21 6.01 2.58 11.99 1.27 5.99 1.15 6.02 2.32 12.96 .69 4.33 .56 4.35 .43 4.36 .33 4.99 .19 5 .04 5.01 -.08 5 -.19 5 -.29 5 -.46 5.72 -.59 5.7 -.72 5.69 -.88 5.67 -1.08 5.63 -1.27 5.59 -1.54 5.81 -1.77 5.75 -1.99 5.67 -3.25 8.43 -3.45 8.34 -2.67 5.99 -2.86 5.9 -3.04 5.82 -9.43 17.29 -4.34 7.84 -4.41 7.81 -4.53 7.73 -4.72 7.62 -7.24 11.19 -2.48 3.67 -2.59 3.61 -2.69 3.53 -3.08 4.04 -2.97 4.11 -2.87 4.18 -1.47 2.01 -1.64 1.86 -1.79 1.7 -1.93 1.55 -2.06 1.36 -2.19 1.19 -2.33 1.03 -1.47 .54 -.26 .52 -.58 1.25 -.59 1.25 -.57 1.26 -.56 1.26 -.56 1.26 -.54 1.27 -.55 1.27 -.53 1.28 -.52 1.28 -.51 1.28 -.5 1.28 -.5 1.29 -.49 1.3 -.48 1.29 -.47 1.3 -.46 1.3 -.45 1.31 -.44 1.31 -.43 1.31 -.43 1.31 -.4 1.33 -.4 1.32 -.38 1.33 -.36 1.33 -.36 1.33 -.34 1.34 -.34 1.34 -.31 1.35 -.31 1.34 -.3 1.35 -.27 1.35 -.28 1.36 -.25 1.36 -.24 1.36 -.24 1.36 -.24 1.36 -.23 1.36 -.24 1.36 -.23 1.36 -.24 1.36 -.24 1.36 -.25 1.36 -.24 1.36 -.25 1.36 -.24 1.36 -.25 1.36 -.25 1.36 -.26 1.36 -.25 1.35 -.26 1.36 -.25 1.36 -.26 1.36 -.25 1.36 -.25 1.35 -.25 1.36 -.24 1.36 -.24 1.36 -.24 1.36 -.23 1.37 -.22 1.36 -.22 1.36 -.22 1.37 -.21 1.36 -.21 1.37 -.2 1.36 -.2 1.37 -.19 1.37 -.19 1.37 -.19 1.37 -.19 1.36 -.2 1.37 -.19 1.37 -.19 1.37 -.21 1.36 -.22 1.37 -.21 1.36 -.22 1.37 -.23 1.36 -.23 1.36 -.24 1.36 -.25 1.36 -.25 1.36 -.25 1.36 -.26 1.35 -.27 1.36 -.27 1.35 -.27 1.36 -.27 1.35 -.27 1.36 -.27 1.35 -.25 1.36 -.24 1.36 -.25 1.36 -.23 1.36 -.23 1.36 -.22 1.37 -.21 1.36 -.21 1.37 -.2 1.37 -.2 1.36 -.22 1.37 -.25 1.35 -.28 1.36 -.31 1.34 -.35 1.34 -.38 1.33 -.41 1.31 -.45 1.31 -.48 1.3 -.5 1.28 -.54 1.28 -.11 .22 -.1 .23 -.11 .22 -.11 .23 -.12 .21 -.12 .22 -.12 .22 -.12 .22 -.14 .21 -.13 .21 -.14 .2 -.13 .21 -.15 .21 -.15 .2 -.15 .2 -.14 .2 -.16 .19 -.16 .19 -.16 .19 -.16 .19 -.17 .18 -.18 .18 -.17 .18 -.17 .18 -.18 .17 -.19 .17 -.18 .17 -.18 .17 -.19 .16 -.2 .15 -.19 .16 -.2 .15 -.2 .15 -.2 .15 -.2 .14 -.21 .14 -.21 .14 -.21 .13 -.21 .13 -.21 .13 -.22 .12 -.22 .12 -.22 .11 -.22 .12 -.22 .11 -.23 .1 -.23 .11 -.22 .1 -.23 .1 -.23 .1 -.23 .09 -.24 .09 -.23 .09 -.23 .09 -.23 .08 -.24 .08 -.24 .08 -.23 .07 -.24 .08 -.24 .07 -.24 .06 -.24 .07 -.24 .06 -.24 .06 -.25 .06 -.24 .05 -.24 .05 -.25 .05 -.24 .05 -.25 .05 -.24 .03 -.25 .04 -.25 .03 -.24 .04 -.25 .03 -.25 .02 -.25 .02 -.24 .02 -.25 .03 -.25 .02 -.25 0 -.25 .01 -.25 .01 -.25 0 -.25 .01 -.24 -.01 -.25 0 -.25 -.01 -.25 -.01 -.25 0 -.25 -.02 -.25 -.03 -.24 -.02 -.25 -.02 -.25 -.04 -.24 -.04 -.25 -.04 -.25 -.04 -.24 -.06 -.24 -.05 -.24 -.06 -.25 -.06 -.23 -.07 -.24 -.07 -.24 -.08 -.24 -.07 -.23 -.09 -.23 -.09 -.24 -.09 -.23 -.09 -.22 -.11 -.23 -.1 -.22 -.11 -.23 -.1 -.22 -.13 -.21 -.12 -.22 -.12 -.22 -.12 -.21 -.14 -.21 -.13 -.2 -.14 -.21 -.14 -.2 -.15 -.2 -.15 -.2 -.15 -.19 -.15 -.19 -.16 -.19 -.17 -.19 -.16 -.18 -.17 -.18 -.17 -.18 -.18 -.17 -.17 -.17 -.18 -.17 -.19 -.16 -.19 -.17 -.19 -.15 -.19 -.16 -.2 -.15 -.19 -.15 -.2 -.14 -.21 -.14 -.2 -.14 -.21 -.13 -.21 -.13 -.21 -.12 -.22 -.13 -.22 -.12 -.21 -.11 -.23 -.11 -.22 -.11 -.23 -.1 -.22 -.1 -.23 -.09 -.23 -.09 -.23 -.09 -.23 -.08 -.24 -.08 -.24 -.07 -.24 -.08 -.23 -.06 -.24 -.06 -.25 -.06 -.24 -.05 -.24 -.05 -.25 -.04 -.24 -.04 -.25 -.04 -.24 -.03 -.25 -.03 -.25 -.03 -.24 -.03 -.25 -.02 -.25 -.03 -.25 -.03 -.24 -.03 -.25 -.02 -.25 -.02 -.25 -.02 -.25 -.02 -.25 -.02 -.24 -.02 -.25 -.02 -.25 -.01 -.25 -.02 -.25 -.02 -.25 -.01 -.24 -.01 -.25 0 -.25 -.01 -.25 -.01 -.25 -.01 -.25 -.01 -.25 -.01 -.25 0 -.25 0 -.24 0 -.25 0 -.25 0 -.25 0 -.25 0 -.25 0 -.25 0 -.25 .01 -.25 .01 -.25 .01 -.25 .01 -.24 .01 -.25 .01 -.25 .01 -.25 .01 -.25 .01 -.25 .02 -.25 .01 -.02 -.2 .05 -.24 .05 -.25 .05 -.24 .05 -.25 .05 -.24 .04 -.25 .04 -.25 .03 -.24 .03 -.25 .03 -.25 .02 -.25 .02 -.25 .01 -.25 .02 -.25 0 -.25 0 -.25 0 -.25 0 -.25 -.01 -.25 -.02 -.25 -.02 -.25 -.02 -.25 -.02 -.24 -.03 -.25 -.04 -.25 -.04 -.25 -.03 -.24 -.05 -.24 -.05 -.25 -.06 -.24 -.05 -.25 -.06 -.24 -.07 -.24 -.07 -.24 -.07 -.24 -.07 -.23 -.08 -.23 -.09 -.24 -.08 -.23 -.09 -.23 -.1 -.23 -.1 -.23 -.11 -.22 -.11 -.22 -.13 -.21 -.12 -.22 -.13 -.2 -.14 -.21 -.14 -.2 -.15 -.19 -.16 -.19 -.16 -.19 -.17 -.18 -.17 -.18 -.18 -.17 -.18 -.16 -.19 -.17 -.19 -.15 -.19 -.15 -.2 -.15 -.2 -.14 -.21 -.12 -.22 -.13 -.21 -.13 -.22 -.11 -.22 -.11 -.23 -.1 -.22 -.09 -.24 -.09 -.23 -.09 -.23 -.07 -.24 -.07 -.24 -.06 -.24 -.05 -.25 -.06 -.24 -.04 -.25 -.03 -.25 -.03 -.25 -.02 -.24 -.01 -.25 -.01 -.25 0 -.25 .01 -.25 .02 -.25 .01 -.25 .03 -.25 .02 -.25 .03 -.25 .03 -.25 .02 -.24 .03 -.25 .03 -.25 .02 -.25 .03 -.25 .03 -.25 .03 -.24 .03 -.25 .03 -.25 .03 -.25 .03 -.25 .03 -.24 .04 -.25 .03 -.25 .03 -.25 .03 -.24 .03 -.25 .04 -.25 .03 -.25 .04 -.24 .04 -.25 .03 -.25 .04 -.25 .04 -.24 .03 -.25 .04 -.25 .04 -.24 .03 -.25 .05 -.25 .04 -.24 .04 -.25 .04 -.25 .04 -.24 .04 -.25 .04 -.25 .05 -.24 .04 -.25 .04 -.25 .04 -.24 .05 -.25 .05 -.24 .04 -.25 .05 -.24 .04 -.25 .05 -.25 .05 -.24 .04 -.25 .05 -.24 .04 -.25 .23 -1.15 .23 -1.15 .23 -1.15 .23 -1.15 .22 -1.16 .22 -1.15 .23 -1.15 .22 -1.15 .22 -1.16 .22 -1.15 .22 -1.15 .21 -1.16 .22 -1.15 .21 -1.16 .21 -1.15 .22 -1.16 .2 -1.15 .21 -1.16 .2 -1.15 .21 -1.16 .21 -1.15 .2 -1.16 .21 -1.16 .2 -1.15 .21 -1.16 .21 -1.15 .21 -1.16 .22 -1.15 .22 -1.15 .22 -1.16 .21 -1.15 .23 -1.15 .23 -1.15 .24 -1.15 .23 -1.15 .23 -1.15 .24 -1.15 .25 -1.15 .24 -1.15 .25 -1.15 .24 -1.15 .26 -1.14 .25 -1.15 .25 -1.14 .26 -1.15 .25 -1.15 .25 -1.14 .26 -1.15 .26 -1.14 .25 -1.15 .26 -1.14 .26 -1.15 .26 -1.14 .26 -1.15 .26 -1.14 .26 -1.15 .27 -1.14 .26 -1.15 .27 -1.14 .26 -1.14 .27 -1.15 .27 -1.14 .27 -1.14 .28 -1.14 .27 -1.14 .29 -1.14 .29 -1.14 .29 -1.13 .3 -1.14 .29 -1.14 .31 -1.13 .31 -1.13 .31 -1.13 .31 -1.14 .33 -1.12 .33 -1.13 .32 -1.13 .33 -1.13 .34 -1.12 .35 -1.12 .34 -1.12 .35 -1.13 .35 -1.12 .36 -1.11 .36 -1.12 .36 -1.12 .36 -1.11 .38 -1.12 .37 -1.11 .38 -1.11 .37 -1.11 .38 -1.11 .39 -1.11 .39 -1.11 .39 -1.1 .39 -1.11 .41 -1.1 .4 -1.11 .41 -1.1 .4 -1.1 .41 -1.1 .42 -1.1 .42 -1.09 .42 -1.1 .42 -1.1 .42 -1.09 .44 -1.09 .43 -1.09 .44 -1.09 .06 -.16 -.03 -.29 0 -.03 0 -.01 -.06 -.56 0 -.04 -.1 -.11 -1.25 -1.76 -1.09 -1.87 -.81 -1.74 -.64 -1.79 -.46 -1.83 -.28 -1.87 -.1 -1.88 .07 -1.89 .26 -1.87 .44 -1.85 .62 -1.82 1.57 -4.26 1.34 -4.34 1.11 -4.4 .88 -4.46 1.29 -7.08 1.47 -7.05 1.63 -7.01 1.76 -6.98 1.87 -6.96 1.98 -6.92 2.04 -6.77 2.15 -6.73 2.26 -6.7 2.37 -6.65 2.52 -6.6 2.66 -6.55 3.85 -8.95 4.03 -8.86 2.84 -5.83 3.04 -5.73 3.24 -5.63 .05 -.07 .41 -.71 .51 -.85 .51 -.86 .51 -.86 .52 -.85 .53 -.85 .52 -.85 .53 -.85 .54 -.84 .53 -.85 .54 -.84 .54 -.83 .55 -.84 .55 -.83 .55 -.83 .56 -.83 .56 -.83 .56 -.82 .57 -.82 .58 -.82 .57 -.82 .57 -.82 .59 -.81 .58 -.8 .59 -.81 .59 -.81 .6 -.8 .59 -.8 .6 -.8 .18 -.17 .18 -.18 .18 -.17 .18 -.18 .18 -.17 .18 -.17 .18 -.17 .19 -.17 .18 -.16 .19 -.17 .19 -.16 .19 -.17 .14 -.13 .66 -.83 2.76 -3.25 2.9 -3.12 3.05 -2.97 2.28 -2.24 2.14 -2.36 2.01 -2.47 1.86 -2.59 1.98 -3 1.89 -3.06 1.81 -3.11 1.66 -3.18 1.44 -3.28 1.22 -3.37 .85 -2.9 .68 -2.95 .5 -2.99 .32 -3.01 .4 -6.07 .25 -6.08 .07 -4.02 -.03 -4.02 -.14 -4.01 -.28 -4 -.47 -3.99 -.65 -3.96 -.52 -2.22 -.71 -2.17 -.46 -1.44 -.28 -1.48 -.11 -1.51 .07 -1.79 .28 -1.77 .48 -1.73 .68 -1.66 3.17 -6.58 .87 -1.62 .98 -1.55 1.1 -1.47 1.08 -1.48 .88 -1.53 .17 -1.74 .6 -3.88 .81 -3.85 1.02 -3.8 1.23 -3.74 2.15 -6.24 1.99 -6.29 1.84 -6.34 2.19 -8.06 2.15 -8.08 1.48 -5.36 1.61 -5.33 1.75 -5.29 .05 8.33 .16 8.33 .18 8.33 .15 8.33 .19 6.58 .36 6.58 .52 6.57z" fill="#9aa4a8"/><path d="M276.14 603.9l-.13 -.04 -.19 -.01 -.3 -.07 -.27 -.13 -.25 -.18 -.2 -.23 -.16 -.26 -.1 -.28 -.04 -.3 .01 -.31 .04 -.25 .04 -.24 0 -.04 .04 -.24 .01 -.03 .04 -.24 .05 -.24 .04 -.25 .05 -.24 .04 -.25 .1 -.49 .04 -.25 .01 -.05 .06 -.24 .16 -.73 .06 -.25 .16 -.72 .01 -.03 .06 -.25 0 -.02 .07 -.24 .06 -.24 .07 -.24 .06 -.24 .06 -.25 .07 -.24 .06 -.24 .06 -.24 .01 -.02 .33 -1.17 .31 -1.18 .31 -1.17 .09 -.4 .1 -.28 .02 -.03 .05 -.2 .05 -.25 .05 -.24 .06 -.24 .05 -.25 .05 -.24 .06 -.24 .05 -.25 .05 -.24 .06 -.24 0 -.01 .25 -1.14 .24 -1.13 .23 -1.14 .22 -1.13 .2 -1.15 .2 -1.15 .6 -3.47 .2 -1.16 .4 -2.31 .2 -1.16 0 -.01 .21 -1.15 .21 -1.16 .2 -1.15 .01 -.01 .21 -1.16 .22 -1.15 .21 -1.16 .22 -1.15 .21 -1.16 0 -.01 .23 -1.15 .22 -1.15 .22 -1.15 .21 -1.15 0 -.01 .22 -1.15 .23 -1.15 .21 -1.15 .22 -1.16 .22 -1.15 .22 -1.16 .44 -2.3 .22 -1.15 .21 -1.15 0 -.01 .22 -1.15 .22 -1.16 .22 -1.15 .22 -1.15 .22 -1.15 .22 -1.16 .22 -1.15 0 -.01 .22 -1.15 .23 -1.15 .23 -1.15 0 -.01 .23 -1.15 .23 -1.15 .23 -1.15 .24 -1.15 0 -.01 .23 -1.15 .01 0 .24 -1.15 .24 -1.15 .24 -1.15 0 -.01 .25 -1.15 .24 -1.14 .25 -1.15 .24 -1.15 .25 -1.15 0 -.01 .26 -1.14 .25 -1.15 .26 -1.15 .25 -1.14 0 -.01 .26 -1.14 0 -.01 .26 -1.14 .26 -1.14 .27 -1.15 .26 -1.14 0 -.02 .28 -1.14 .27 -1.14 .26 -1.14 .27 -1.14 .01 -.01 .27 -1.14 .28 -1.14 .28 -1.14 .01 0 .28 -1.14 0 -.01 .28 -1.13 .01 -.01 .29 -1.14 .01 -.01 .3 -1.13 .3 -1.14 .01 0 .3 -1.14 .01 -.01 .32 -1.13 .32 -1.13 .01 -.01 .33 -1.13 .34 -1.12 0 -.01 .33 -1.12 .01 -.02 .35 -1.12 .35 -1.12 .01 -.01 .36 -1.12 .13 -.41 -.19 -.15 -.19 -.15 -.03 -.02 -.19 -.15 -.08 -.07 -.18 -.17 -.37 -.33 -.08 -.07 -.17 -.18 -.02 -.02 -.34 -.37 -.03 -.04 -.16 -.18 -.05 -.07 -.16 -.19 -.15 -.2 -.16 -.19 -.07 -.11 -.14 -.2 0 -.01 -.14 -.21 -.13 -.21 -.04 -.05 -.13 -.22 -.03 -.05 -.24 -.44 0 -.01 -.12 -.22 -.05 -.11 -.1 -.23 -.1 -.23 -.1 -.23 -.03 -.07 -.09 -.23 -.02 -.06 -.08 -.23 -.08 -.24 0 -.01 -.08 -.23 -.03 -.12 -.06 -.25 -.06 -.24 -.06 -.24 -.01 -.04 -.05 -.24 -.01 -.04 -.05 -.25 -.04 -.24 -.05 -.25 -.05 -.25 -.04 -.24 -.05 -.25 -.04 -.24 -.05 -.25 -.05 -.24 -.04 -.25 -.05 -.24 -.05 -.25 -.04 -.24 -.05 -.25 0 -.01 -.05 -.24 0 -.02 -.04 -.24 -.13 -.74 -.04 -.25 -.04 -.24 -.05 -.25 -.12 -.74 -.05 -.24 -.08 -.5 -.04 -.24 0 -.01 -.05 -.24 0 -.02 -.08 -.5 -.03 -.2 -.02 -.31 .05 -.3 .1 -.29 .15 -.26 .2 -.22 .25 -.19 .27 -.13 .29 -.08 .31 -.01 .3 .04 .28 .1 .27 .15 .22 .21 .19 .24 .13 .27 .07 .3 .04 .2 .07 .49 .04 .23 .04 .25 .09 .49 .04 .24 .13 .74 .04 .25 .04 .24 .05 .25 .12 .74 .04 .24 .05 .23 .04 .24 .05 .25 .05 .24 .04 .25 .05 .24 .04 .25 .05 .24 .05 .25 .04 .24 .05 .25 .05 .24 .04 .25 .05 .24 .04 .23 .05 .2 .05 .23 .06 .24 .04 .18 .06 .17 .08 .24 .07 .21 .06 .17 .09 .19 .1 .23 .07 .17 .09 .16 .22 .41 .1 .16 .11 .18 .14 .21 .1 .15 .12 .15 .15 .19 .13 .17 .12 .14 .32 .34 .12 .13 .33 .3 .15 .14 .15 .11 .18 .14 .18 .14 .15 .11 .18 .11 .21 .14 .16 .1 .16 .09 .21 .11 .2 .1 .16 .08 .2 .09 .23 .09 .17 .08 .17 .05 .44 .15 .18 .05 .46 .1 .17 .05 .19 .02 .24 .04 .22 .03 .18 .02 .22 .01 .25 .02 .2 .01 .19 0 .23 0 .25 -.01 .19 0 .15 -.02 .04 0 .24 -.03 .23 -.02 .19 -.02 .2 -.04 .24 -.05 .22 -.04 .18 -.04 .21 -.05 .44 -.12 .17 -.06 .23 -.08 .22 -.08 .18 -.07 .18 -.08 .43 -.19 .17 -.08 .4 -.23 .18 -.1 .16 -.1 .2 -.12 .2 -.14 .16 -.1 .34 -.27 .18 -.15 .15 -.12 .15 -.14 .19 -.16 .15 -.15 .13 -.13 .46 -.49 .11 -.15 .15 -.19 .15 -.19 .13 -.16 .11 -.17 .14 -.21 .15 -.2 .14 -.21 .14 -.2 .14 -.21 .13 -.19 .13 -.19 .25 -.41 .14 -.21 .13 -.21 .27 -.42 .12 -.19 .11 -.19 .12 -.21 .13 -.22 .12 -.21 .13 -.22 .12 -.21 .12 -.21 .11 -.19 .1 -.21 .69 -1.3 .1 -.2 .32 -.67 .11 -.22 .21 -.45 .09 -.2 .39 -.89 .1 -.23 .19 -.44 .08 -.2 .09 -.23 .08 -.23 .09 -.23 .18 -.47 .09 -.23 .09 -.22 .39 -1.08 .39 -1.1 .01 0 .4 -1.11 .4 -1.1 0 -.01 .41 -1.09 .4 -1.1 .01 -.01 .41 -1.11 .41 -1.11 0 -.01 .07 -.17 -.17 0 -.25 0 -.25 0 -.24 0 -.01 0 -.25 .01 -.04 -.01 -.25 0 -.5 -.01 -.25 -.01 -.25 0 -.25 -.01 -.25 0 -.25 -.01 -.24 0 -.25 -.01 -.03 0 -.25 -.01 -.02 0 -.25 -.01 -.25 -.01 -.25 -.01 -.25 -.02 -.24 -.01 -.25 -.01 -.5 -.03 -.25 -.01 -.02 0 -.24 -.01 -.03 0 -.25 -.02 -.25 -.02 -.75 -.06 -.25 -.02 -.74 -.06 -.25 -.02 -.05 0 -.25 -.03 -.74 -.08 -.25 -.02 -.25 -.03 -.24 -.03 -.5 -.05 -.25 -.03 -.03 0 -.24 -.03 -.02 0 -.25 -.04 -.25 -.03 -.24 -.03 -.25 -.04 -.49 -.06 -.25 -.04 -.25 -.03 -.25 -.03 -.01 -.01 -.25 -.03 -.03 -.01 -.49 -.08 -.25 -.04 -.24 -.04 -.74 -.12 -.25 -.04 -.49 -.08 -.04 -.01 -.25 -.05 -2.2 -.43 -.03 0 -.24 -.05 -.02 -.01 -.24 -.05 -.73 -.17 -.25 -.05 -.97 -.22 -.01 0 -.25 -.06 -.03 0 -.24 -.07 -.24 -.06 -.24 -.06 -.25 -.06 -.24 -.06 -.24 -.06 -.24 -.07 -.24 -.06 -.49 -.12 -.04 -.01 -.24 -.07 -.24 -.07 -.24 -.07 -.24 -.06 -.24 -.07 -.24 -.07 -.24 -.07 -.24 -.07 -.24 -.07 -.24 -.07 -.02 0 -.05 -.02 -.28 -.11 -.25 -.17 -.22 -.21 -.17 -.26 -.11 -.28 -.06 -.3 0 -.3 .06 -.3 .11 -.28 .17 -.25 .21 -.22 .26 -.17 .28 -.11 .3 -.06 .3 0 .3 .06 .03 .01 .23 .06 .24 .07 .24 .07 .24 .07 .24 .07 .24 .06 .24 .07 .24 .07 .24 .07 .22 .06 .46 .12 .24 .06 .24 .06 .25 .06 .24 .06 .24 .07 .24 .06 .24 .06 .23 .06 .22 .05 .97 .22 .24 .05 .73 .16 .24 .06 .22 .04 2.19 .43 .23 .04 .47 .08 .24 .04 .74 .12 .25 .04 .24 .04 .48 .08 .23 .03 .24 .04 .24 .03 .25 .03 .5 .07 .24 .03 .25 .04 .25 .03 .24 .03 .22 .03 .24 .03 .49 .05 .25 .03 .25 .02 .25 .03 .74 .08 .23 .02 .23 .02 .74 .06 .25 .02 .75 .06 .25 .02 .23 .01 .23 .02 .24 .01 .5 .02 .25 .02 .25 .01 .25 .01 .25 .01 .24 .01 .25 .02 .22 0 .24 .01 .25 0 .25 .01 .25 .01 .25 0 .25 .01 .25 0 .49 .01 .23 .01 .23 -.01 .25 0 .25 0 .25 0 .25 0 .25 -.01 .25 0 .25 0 .25 0 .23 0 .24 -.01 .24 -.01 .25 -.01 1.24 -.04 .25 0 1 -.04 .23 0 .24 -.02 .25 -.01 2.73 -.14 .23 -.01 .25 -.02 .25 -.02 .25 -.02 .25 -.01 .25 -.02 .25 -.02 .24 -.02 .25 -.01 .25 -.02 .25 -.02 .25 -.02 .24 -.01 .23 -.02 .25 -.02 .25 -.03 .24 -.02 .25 -.02 .25 -.02 .5 -.05 .25 -.02 .49 -.04 .25 -.02 .25 -.03 .23 -.02 .24 -.02 .25 -.03 .25 -.03 .24 -.03 .25 -.02 .25 -.03 .25 -.03 .25 -.02 .24 -.03 .25 -.03 .25 -.02 .25 -.03 .22 -.02 .21 -.04 .71 -.1 .2 -.04 .46 -.1 .24 -.05 .2 -.05 .43 -.12 .24 -.07 .21 -.06 .19 -.06 .22 -.08 .23 -.09 .23 -.08 .18 -.07 .19 -.08 .23 -.1 .18 -.08 .03 -.05 .23 -.37 .15 -.27 .36 -.59 .02 -.04 .38 -.64 .1 -.18 .27 -.46 .24 -.4 0 -.01 .14 -.23 .37 -.63 .38 -.65 .13 -.22 .24 -.42 .26 -.45 .12 -.19 .37 -.64 .01 -.03 .18 -.31 .18 -.3 .12 -.21 .02 -.05 .23 -.39 .28 -.48 .09 -.16 .24 -.43 .13 -.22 .04 -.06 .33 -.58 .17 -.29 .2 -.35 .29 -.52 .03 -.04 .01 -.02 .04 -.06 .36 -.64 .05 -.1 .31 -.55 .19 -.33 .18 -.32 .12 -.22 .19 -.34 .05 -.09 .3 -.53 .06 -.12 .08 -.13 .29 -.51 .2 -.37 .16 -.28 .33 -.59 .01 0 0 -.02 .02 -.03 .35 -.65 .1 -.17 .26 -.48 .22 -.4 .14 -.25 .16 -.3 .18 -.33 .01 -.02 .36 -.66 .11 -.2 .24 -.45 .24 -.44 .12 -.21 .35 -.65 .08 -.15 .27 -.5 .12 -.24 .22 -.41 .25 -.48 .1 -.18 .35 -.66 .02 -.05 .24 -.46 .08 -.14 .1 -.19 .05 -.09 .2 -.38 .27 -.51 .08 -.15 .34 -.65 .01 -.01 0 -.01 .04 -.07 .15 -.28 0 -.01 .14 -.28 .17 -.31 .17 -.35 .28 -.54 .01 0 .06 -.12 .01 -.02 .33 -.64 .06 -.12 .18 -.34 .1 -.2 .18 -.35 .16 -.31 .14 -.27 .16 -.31 .04 -.08 .22 -.41 .13 -.25 .08 -.15 .26 -.51 .2 -.39 .14 -.27 .3 -.58 .02 -.04 .02 -.04 .03 -.05 .31 -.61 .1 -.19 .24 -.47 .22 -.42 .13 -.24 .07 -.14 .27 -.51 .28 -.56 .06 -.11 .12 -.23 .03 -.05 .19 -.38 .24 -.46 .1 -.2 .35 -.66 .01 -.03 .21 -.41 .12 -.22 .13 -.26 .01 -.02 .2 -.38 .26 -.5 .05 -.09 .03 -.07 .34 -.66 .04 -.07 .3 -.59 .16 -.3 .09 -.18 .1 -.18 .27 -.53 .07 -.13 .19 -.38 .15 -.28 .05 -.11 .29 -.55 .18 -.34 .46 -.89 .46 -.89 .46 -.89 .46 -.9 .46 -.89 .47 -.89 .46 -.89 .92 -1.79 .46 -.89 .47 -.89 .46 -.9 .46 -.89 .46 -.89 .46 -.89 .46 -.89 .45 -.89 .46 -.9 .45 -.89 .45 -.89 .44 -.89 .44 -.91 .45 -.9 .43 -.89 .43 -.9 .43 -.91 .85 -1.8 .42 -.91 .42 -.91 .41 -.91 .42 -.91 .41 -.91 .4 -.91 1.21 -2.76 .41 -.92 .39 -.91 .39 -.92 .4 -.93 .39 -.92 .4 -.92 .38 -.92 .39 -.92 .38 -.93 .67 -1.61 -.11 .03 -.06 .02 -.24 .06 -.24 .07 -.24 .07 -.11 .02 -.24 .05 -.01 0 -.25 .05 -.24 .05 -.05 .01 -.25 .04 -.06 .01 -.25 .03 -.5 .05 -.1 .01 -.25 .02 -.01 0 -.25 .01 -.25 .01 -.05 0 -.25 0 -.07 0 -.25 -.01 -.25 -.01 -.25 0 -.1 -.01 -.25 -.02 -.01 -.01 -.5 -.05 -.04 -.01 -.25 -.03 -.07 -.01 -.25 -.05 -.49 -.09 -.09 -.02 -.24 -.06 -.03 0 -.24 -.07 -.24 -.06 -.03 -.01 -.24 -.07 -.08 -.03 -.24 -.08 -.24 -.08 -.23 -.08 -.07 -.03 -.23 -.09 -.04 -.02 -.23 -.1 -.23 -.1 -.23 -.1 -.07 -.04 -.23 -.11 -.02 -.01 -.22 -.12 -.22 -.11 -.23 -.12 -.08 -.05 -.22 -.13 -.01 -.01 -.21 -.13 -.21 -.13 -.22 -.14 -.09 -.06 -.2 -.14 -.4 -.3 -.02 -.01 -.2 -.15 -.07 -.06 -.38 -.32 -.19 -.16 -.03 -.03 -.19 -.16 -.05 -.05 -.54 -.53 -.04 -.04 -.17 -.18 -.04 -.04 -.16 -.19 -.17 -.18 -.16 -.19 -.05 -.06 -.16 -.19 -.02 -.03 -.03 -.04 -.01 .01 -.19 .16 -.19 .16 -.38 .32 -.07 .06 -.19 .15 -.02 .01 -.4 .3 -.2 .14 -.04 .03 -.2 .14 -.05 .04 -.21 .13 -.42 .27 -.21 .13 -.1 .06 -.22 .12 -.44 .24 -.04 .02 -.22 .11 -.07 .03 -.23 .11 -.23 .1 -.22 .1 -.1 .04 -.23 .08 -.02 .01 -.23 .08 -.24 .09 -.03 .01 -.24 .08 -.08 .02 -.24 .07 -.24 .06 -.24 .07 -.09 .02 -.1 .02 -.22 .54 0 .01 -.39 .94 -.38 .94 -.38 .94 -.38 .95 -.38 .94 -.01 .01 -.39 .94 -.38 .94 -.38 .94 -.39 .94 -.39 .95 0 .01 -.39 .94 -.39 .93 -.39 .94 -.39 .94 0 .01 -.4 .94 0 .01 -.4 .93 -.4 .93 -.39 .94 -.4 .94 -.01 .01 -.4 .93 -.41 .93 -.4 .93 -.4 .93 -.01 .01 -.41 .93 0 .01 -.41 .93 -.41 .92 -.41 .93 -.41 .93 -.01 0 -.41 .93 -.41 .93 -.41 .92 -.42 .93 -.41 .92 -.41 .93 -.82 1.86 -.41 .92 -.4 .93 -.41 .93 -.41 .93 -.41 .92 -.4 .93 -.41 .93 -.4 .93 -.41 .93 -.4 .92 -.41 .93 -.4 .93 -.4 .93 -.4 .93 -.4 .93 -.4 .92 -1.19 2.79 -.39 .93 -.39 .93 -.39 .93 -.39 .93 -.39 .93 -.38 .94 -.39 .93 -.38 .93 0 .01 -.39 .93 -.02 .05 -.11 .22 -.1 .23 -.21 .45 -.02 .06 -.11 .22 -.02 .04 -.12 .22 -.12 .22 -.12 .22 -.01 .01 -.12 .22 -.04 .07 -.53 .85 -.04 .07 -.15 .2 -.01 .02 -.15 .2 -.14 .2 -.15 .2 -.02 .04 -.16 .2 -.03 .04 -.48 .58 0 .01 -.16 .19 -.07 .07 -.17 .18 -.17 .18 -.17 .18 -.17 .18 -.05 .06 -.18 .17 -.02 .02 -.19 .17 -.36 .34 -.03 .02 -.19 .17 -.04 .04 -.58 .47 -.01 .01 -.19 .15 -.08 .06 -.2 .14 -.21 .15 -.2 .14 -.2 .15 -.06 .04 -.21 .13 -.03 .02 -.21 .13 -.21 .13 -.21 .13 -.03 .02 -.22 .13 -.06 .03 -.22 .12 -.22 .11 -.22 .12 -.22 .12 -.09 .04 -.23 .1 -.23 .11 -.45 .2 -.06 .02 -.23 .1 -.04 .01 -.23 .09 -.24 .09 -.23 .08 -.01 .01 -.24 .08 -.06 .02 -.24 .08 -.23 .07 -.48 .15 -.24 .08 -.47 .15 -.24 .07 -.03 .01 -.24 .07 -.02 .01 -.24 .06 -.48 .14 -.24 .07 -.24 .06 -.24 .07 -.48 .13 -.05 .02 -.24 .06 -.25 .06 -.24 .06 -.24 .05 -.24 .06 -.24 .06 -.25 .06 -.24 .06 -.01 .01 -.25 .05 -.03 .01 -.25 .05 -.24 .05 -.24 .05 -.25 .06 -.24 .05 -.25 .05 -.24 .05 -.24 .05 -.04 .01 -.24 .04 -.02 .01 -.25 .04 -.24 .04 -.25 .05 -.24 .04 -.25 .04 -.24 .05 -.25 .04 -.25 .04 -.05 .01 -.24 .04 -.25 .03 -.25 .04 -.24 .03 -.25 .04 -.25 .03 -.24 .04 -.25 .03 -.02 .01 -.25 .03 -.03 0 -.25 .03 -.49 .05 -.25 .03 -.25 .03 -.25 .03 -.25 .02 -.24 .03 -.05 0 -.25 .02 -.01 0 -.25 .02 -.24 .02 -.25 .02 -.25 .02 -.25 .02 -.25 .02 -.02 0 -.25 .01 -.04 0 -.25 .01 -.25 .01 -.25 .01 -.25 .01 -.24 .01 -.25 .01 -.25 .01 -.06 0 -.25 0 -.25 0 -.25 0 -.5 0 -.25 0 -.25 -.01 -.03 0 -.25 0 -.03 0 -.75 -.03 -.24 -.01 -.25 -.01 -.25 -.01 -.25 -.01 -.06 -.01 -.25 -.02 -.25 -.01 -.75 -.06 -.24 -.02 -.25 -.02 -.04 -.01 -.25 -.02 -.02 0 -.25 -.03 -.24 -.03 -.25 -.03 -.25 -.03 -.25 -.03 -.25 -.03 -.01 0 -.25 -.03 -.04 -.01 -.25 -.03 -.25 -.04 -.24 -.04 -.25 -.04 -.24 -.04 -.25 -.04 -.25 -.03 -.04 -.01 -.25 -.05 -.01 0 -.49 -.1 -.25 -.04 -.24 -.05 -.25 -.05 -.24 -.05 -.02 0 -.25 -.05 -.03 -.01 -.24 -.06 -.25 -.05 -.24 -.06 -.49 -.11 -.24 -.06 -.24 -.06 -.06 -.01 -.24 -.07 -.24 -.07 -.24 -.06 -.24 -.07 -.48 -.13 -.24 -.07 -.04 -.01 -.24 -.07 -.02 0 -.24 -.08 -.23 -.07 -.24 -.08 -.24 -.07 -.24 -.08 -.24 -.07 -.01 -.01 -.24 -.08 -.04 -.01 -.23 -.08 -.24 -.09 -.23 -.08 -.12 -.04 -.27 -.13 -.24 -.18 -.21 -.23 -.15 -.26 -.11 -.29 -.04 -.3 .01 -.3 .08 -.29 .13 -.28 .18 -.24 .22 -.21 .27 -.15 .28 -.11 .3 -.04 .31 .02 .29 .07 .11 .04 .24 .08 .23 .09 .21 .07 .21 .07 .23 .07 .24 .08 .24 .07 .24 .08 .24 .07 .22 .08 .21 .06 .23 .06 .48 .13 .24 .07 .24 .07 .24 .06 .21 .06 .22 .05 .24 .06 .49 .11 .24 .06 .24 .05 .23 .06 .21 .04 .24 .05 .24 .05 .25 .04 .24 .05 .49 .1 .21 .04 .23 .03 .24 .04 .25 .04 .24 .04 .25 .03 .25 .04 .22 .04 .22 .02 .24 .03 .25 .03 .25 .03 .24 .03 .25 .03 .24 .03 .22 .02 .23 .02 .25 .02 .74 .05 .25 .02 .22 .02 .22 .01 .25 .01 .25 .01 .25 .01 .73 .03 .22 0 .24 .01 .25 0 .5 0 .25 0 .24 0 .22 0 .23 -.01 .24 -.01 .25 -.01 .25 -.01 .25 -.01 .25 0 .23 -.01 .22 -.02 .24 -.01 .25 -.02 .25 -.02 .25 -.02 .25 -.02 .24 -.02 .22 -.01 .23 -.03 .24 -.03 .25 -.02 .25 -.03 .25 -.03 .49 -.05 .24 -.03 .22 -.03 .24 -.03 .24 -.04 .25 -.03 .25 -.04 .24 -.03 .25 -.04 .25 -.03 .22 -.03 .22 -.04 .25 -.05 .24 -.04 .25 -.04 .24 -.05 .25 -.04 .25 -.04 .23 -.05 .22 -.04 .23 -.04 .25 -.06 .24 -.05 .24 -.05 .25 -.05 .24 -.05 .25 -.05 .22 -.05 .22 -.05 .24 -.06 .24 -.06 .24 -.06 .24 -.06 .25 -.06 .24 -.06 .24 -.05 .22 -.06 .45 -.13 .24 -.06 .25 -.07 .24 -.07 .48 -.13 .22 -.07 .22 -.06 .23 -.07 .47 -.15 .24 -.08 .48 -.15 .23 -.07 .21 -.07 .2 -.07 .23 -.08 .23 -.09 .21 -.08 .19 -.07 .43 -.19 .22 -.1 .18 -.09 .18 -.09 .22 -.12 .22 -.11 .19 -.1 .17 -.1 .2 -.13 .21 -.13 .2 -.12 .17 -.11 .17 -.12 .21 -.15 .2 -.14 .16 -.12 .16 -.12 .55 -.46 .15 -.13 .35 -.32 .18 -.16 .14 -.14 .15 -.16 .17 -.18 .17 -.18 .14 -.15 .12 -.15 .46 -.55 .12 -.16 .13 -.18 .15 -.2 .14 -.2 .11 -.16 .49 -.78 .1 -.17 .11 -.21 .12 -.22 .11 -.2 .09 -.18 .19 -.43 .1 -.22 0 -.01 .1 -.2 .37 -.9 .38 -.93 .01 -.01 .38 -.93 .39 -.93 .39 -.94 .39 -.94 .39 -.93 .39 -.93 .4 -.93 0 -.01 1.19 -2.79 0 -.01 .4 -.93 .4 -.93 .4 -.93 .41 -.93 .4 -.93 .41 -.93 .4 -.93 .41 -.93 .4 -.93 .41 -.93 .41 -.93 .4 -.93 .41 -.93 .41 -.93 .41 -.93 .41 -.93 .82 -1.85 .41 -.93 .41 -.93 .41 -.93 .42 -.93 .41 -.92 .41 -.93 .41 -.92 0 -.01 .41 -.92 .42 -.93 .41 -.93 .4 -.92 .4 -.93 .41 -.94 .41 -.93 .4 -.92 .39 -.93 .4 -.94 .4 -.93 0 -.01 .4 -.93 .39 -.93 .39 -.94 .39 -.94 .39 -.94 .39 -.93 .38 -.94 .39 -.94 .38 -.94 .39 -.95 .38 -.94 .38 -.94 .39 -.94 .38 -.94 0 -.01 .39 -.94 0 -.01 -.28 -.01 -.08 -.01 -.25 -.02 -.03 0 -.25 -.03 -.25 -.03 -.02 0 -.25 -.03 -.09 -.02 -.25 -.05 -.25 -.04 -.24 -.05 -.07 -.02 -.25 -.05 -.04 -.02 -.24 -.06 -.24 -.07 -.01 0 -.24 -.07 -.11 -.03 -.23 -.08 -.47 -.17 -.05 -.02 -.24 -.09 -.05 -.03 -.23 -.1 -.23 -.1 -.22 -.1 -.06 -.03 -.23 -.11 -.04 -.02 -.22 -.12 -.22 -.12 -.22 -.11 -.07 -.04 -.21 -.13 -.03 -.02 -.21 -.13 -.21 -.14 -.21 -.13 -.08 -.05 -.21 -.15 -.01 -.01 -.2 -.14 -.2 -.15 -.2 -.15 -.09 -.07 -.19 -.16 -.19 -.16 -.19 -.16 -.01 -.02 -.19 -.16 -.07 -.06 -.18 -.18 -.17 -.17 -.18 -.18 -.03 -.02 -.17 -.18 -.05 -.05 -.5 -.57 -.03 -.04 -.16 -.19 -.04 -.04 -.06 -.09 -.03 .03 -.57 .49 -.19 .16 -.08 .06 -.2 .15 -.2 .15 -.2 .15 -.2 .15 -.05 .03 -.2 .14 -.04 .03 -.42 .27 -.21 .13 -.01 .01 -.21 .13 -.09 .05 -.22 .12 -.43 .24 -.06 .03 -.23 .11 -.04 .02 -.23 .11 -.23 .1 -.23 .1 -.11 .05 -.7 .25 -.06 .02 -.23 .07 -.06 .02 -.72 .2 -.11 .03 -.25 .05 -.25 .05 -.24 .04 -.06 .01 -.24 .04 -.06 .01 -.25 .03 -.25 .03 -.25 .03 -.11 .01 -.25 .01 -.25 .01 -.25 .01 -.06 .01 -.25 0 -.06 0 -.25 -.01 -.25 -.01 -.25 -.01 -.11 -.01 -.25 -.02 -.12 -.02 -.01 .02 -.31 .8 -.3 .79 -.3 .79 -.3 .8 -.6 1.59 -.31 .8 -.3 .79 -.3 .79 -.3 .8 -.3 .8 -.3 .79 0 .01 -.3 .79 -.31 .8 -.29 .79 -.3 .79 -.3 .79 0 .01 -.3 .79 0 .01 -.31 .79 -.3 .79 -.3 .79 -.3 .79 0 .01 -.3 .79 0 .01 -.3 .79 -.3 .79 -.3 .79 -.3 .79 -.3 .79 0 .01 -.3 .79 -.3 .79 -.29 .8 -.3 .79 -.3 .79 -.29 .79 -.59 1.59 -.59 1.59 -.29 .79 -.29 .79 -.58 1.59 -.29 .8 -.29 .79 -.29 .8 -.29 .79 -.28 .79 -.28 .8 -.02 .05 -.09 .23 -.09 .23 -.19 .47 -.01 .04 -.1 .23 -.02 .05 -.11 .22 -.1 .23 -.11 .22 -.1 .23 -.04 .08 -.12 .22 0 .01 -.12 .21 -.24 .44 -.02 .04 -.13 .21 -.03 .05 -.13 .21 -.13 .21 -.27 .43 -.05 .07 -.14 .2 -.01 .01 -.14 .2 -.15 .21 -.14 .2 -.03 .03 -.15 .2 -.03 .04 -.16 .2 -.16 .19 -.15 .19 -.16 .2 -.06 .07 -.17 .18 -.51 .55 -.03 .03 -.18 .18 -.03 .04 -.18 .17 -.18 .17 -.18 .18 -.18 .17 -.07 .06 -.19 .16 -.01 0 -.19 .17 -.19 .16 -.19 .16 -.03 .03 -.2 .15 -.04 .03 -.4 .3 -.2 .15 -.2 .15 -.07 .05 -.21 .14 -.01 0 -.21 .14 -.21 .13 -.21 .14 -.02 .02 -.22 .13 -.04 .02 -.86 .5 -.22 .13 -.05 .02 -.22 .12 -.01 .01 -.45 .23 -.22 .11 -.22 .12 -.01 0 -.22 .11 -.06 .03 -.22 .11 -.23 .1 -.23 .1 -.22 .11 -.23 .1 -.03 .01 -.23 .1 -.03 .02 -.24 .09 -.23 .1 -.23 .09 -.23 .09 -.23 .1 -.05 .02 -.24 .08 -.01 .01 -.24 .08 -.23 .09 -.24 .08 -.23 .08 -.01 0 -.24 .09 -.06 .01 -.24 .08 -.23 .07 -.24 .07 -.24 .07 -.24 .08 -.03 0 -.24 .07 -.04 .01 -.24 .06 -.24 .06 -.25 .06 -.48 .13 -.06 .01 -.24 .05 -.01 0 -.98 .2 -.01 .01 -.25 .05 -.06 .01 -.74 .11 -.24 .04 -.25 .04 -.04 0 -.24 .04 -.04 0 -.25 .03 -.25 .02 -.25 .03 -.49 .05 -.04 .01 -.25 .02 -.04 0 -.25 .02 -.75 .04 -.25 .01 -.04 0 -.25 .01 -.03 0 -.25 0 -.25 0 -.5 0 -.25 .01 -.05 0 -.25 -.01 -.03 0 -.25 -.01 -.5 -.03 -.25 -.01 -.25 -.01 -.06 0 -.25 -.02 -.01 -.01 -.25 -.02 -.25 -.02 -.25 -.03 -.25 -.02 -.25 -.03 -.06 0 -.25 -.04 -.01 0 -.25 -.04 -.24 -.03 -.23 -.04 -.3 -.07 -.27 -.13 -.25 -.18 -.2 -.23 -.16 -.26 -.1 -.28 -.05 -.3 .02 -.31 .07 -.29 .13 -.28 .18 -.24 .23 -.2 .26 -.16 .29 -.1 .3 -.05 .3 .02 .23 .03 .25 .04 .24 .03 .21 .03 .21 .02 .25 .03 .25 .02 .25 .02 .24 .03 .2 .02 .22 .01 .25 .01 .5 .02 .24 .01 .21 .01 .22 -.01 .5 0 .25 0 .23 0 .21 -.01 .23 -.01 .75 -.04 .23 -.01 .21 -.02 .47 -.05 .25 -.03 .25 -.02 .23 -.03 .21 -.03 .23 -.03 .24 -.04 .71 -.11 .21 -.04 .97 -.2 .21 -.05 .45 -.11 .25 -.06 .24 -.06 .22 -.06 .21 -.06 .22 -.06 .24 -.08 .24 -.07 .24 -.07 .21 -.06 .2 -.07 .23 -.09 .24 -.08 .23 -.08 .23 -.08 .2 -.08 .21 -.08 .23 -.09 .23 -.1 .23 -.09 .21 -.09 .2 -.08 .21 -.1 .23 -.1 .23 -.11 .22 -.1 .2 -.09 .19 -.1 .22 -.11 .22 -.12 .44 -.22 .18 -.1 .2 -.11 .84 -.49 .18 -.11 .19 -.13 .21 -.13 .21 -.14 .17 -.11 .16 -.12 .2 -.15 .38 -.28 .16 -.13 .17 -.14 .19 -.16 .19 -.16 .16 -.13 .14 -.14 .18 -.18 .18 -.17 .17 -.15 .14 -.15 .49 -.53 .13 -.15 .13 -.16 .16 -.19 .16 -.19 .14 -.18 .12 -.16 .13 -.18 .15 -.2 .14 -.2 .12 -.17 .24 -.38 .14 -.22 .11 -.18 .1 -.18 .23 -.42 .12 -.21 .1 -.18 .08 -.19 .11 -.22 .1 -.23 .1 -.2 .08 -.19 .17 -.44 .09 -.23 .09 -.21 .27 -.78 .29 -.79 0 -.01 .29 -.8 .29 -.79 .29 -.8 .29 -.8 .57 -1.59 .01 0 .29 -.8 .29 -.8 .59 -1.59 .59 -1.59 .29 -.79 .01 -.01 .3 -.79 .29 -.8 .3 -.79 .3 -.79 .3 -.79 .3 -.8 .3 -.8 .3 -.79 .3 -.79 .3 -.79 .3 -.79 .3 -.8 .3 -.8 .31 -.79 .3 -.8 .3 -.79 .29 -.79 .3 -.8 .31 -.79 0 -.01 .3 -.79 .3 -.79 .3 -.8 .3 -.79 .3 -.8 .3 -.79 0 -.01 .31 -.79 .3 -.8 .6 -1.59 .3 -.79 .3 -.8 0 -.01 .31 -.79 .15 -.4 -.08 -.03 -.23 -.08 -.09 -.04 -.23 -.09 -.02 -.01 -.23 -.1 -.23 -.1 -.23 -.1 -.09 -.05 -.22 -.11 -.01 0 -.22 -.12 -.22 -.12 -.22 -.11 -.1 -.06 -.21 -.13 -.21 -.13 -.21 -.13 -.02 -.01 -.21 -.14 -.08 -.05 -.2 -.15 -.2 -.14 -.2 -.15 -.03 -.02 -.2 -.15 -.06 -.05 -.57 -.48 -.04 -.03 -.18 -.17 -.05 -.04 -.18 -.17 -.18 -.18 -.18 -.17 -.04 -.04 -.17 -.19 -.03 -.03 -.5 -.56 -.05 -.06 -.16 -.19 -.02 -.03 -.06 -.08 -.03 .02 -.19 .17 -.18 .16 -.19 .16 -.03 .02 -.19 .16 -.05 .04 -.4 .3 -.2 .15 -.2 .15 -.08 .06 -.21 .13 0 .01 -.21 .13 -.21 .14 -.21 .14 -.05 .03 -.22 .13 -.04 .02 -.21 .12 -.22 .12 -.01 .01 -.21 .12 -.11 .05 -.22 .1 -.23 .11 -.22 .1 -.06 .03 -.23 .09 -.05 .02 -.24 .09 -.23 .08 0 .01 -.24 .08 -.1 .04 -.24 .07 -.24 .07 -.24 .06 -.07 .02 -.24 .06 -.05 .01 -.24 .05 -.25 .05 -.01 .01 -.24 .05 -.1 .01 -.25 .04 -.25 .03 -.25 .03 -.07 .01 -.25 .02 -.04 0 -.25 .02 -.25 .01 -.02 0 -.24 .01 -.1 0 -.75 -.01 -.08 0 -.25 -.02 -.03 0 -.25 -.03 -.25 -.02 -.03 0 -.24 -.03 -.09 -.01 -.25 -.05 -.25 -.04 -.24 -.04 -.08 -.02 -.25 -.05 -.03 -.01 -.24 -.06 -.24 -.06 -.03 -.01 -.24 -.06 -.09 -.03 -.23 -.08 -.24 -.07 -.24 -.08 -.07 -.03 -.23 -.09 -.04 -.01 -.23 -.1 -.23 -.1 -.23 -.09 -.07 -.03 -.23 -.11 -.02 -.02 -.23 -.11 -.22 -.11 -.22 -.11 -.08 -.05 -.21 -.12 -.03 -.01 -.21 -.13 -.21 -.13 -.22 -.13 -.08 -.05 -.2 -.14 -.02 -.01 -.61 -.43 -.08 -.07 -.2 -.16 -.19 -.16 -.19 -.15 -.01 -.01 -.19 -.16 -.08 -.07 -.09 -.09 -.2 -.23 -.15 -.26 -.1 -.29 -.04 -.3 .02 -.3 .08 -.3 .14 -.27 .19 -.24 .23 -.2 .26 -.15 .29 -.09 .3 -.04 .3 .02 .3 .08 .27 .14 .24 .18 .05 .06 .15 .12 .19 .15 .19 .16 .15 .12 .56 .4 .16 .11 .17 .1 .22 .13 .2 .12 .17 .1 .18 .09 .22 .11 .21 .11 .18 .08 .19 .08 .23 .1 .21 .09 .18 .07 .2 .06 .23 .08 .2 .07 .18 .05 .23 .05 .23 .06 .18 .04 .21 .04 .24 .04 .2 .03 .19 .02 .24 .03 .23 .02 .19 .01 .66 .01 .19 -.01 .24 -.01 .22 -.01 .19 -.02 .22 -.03 .24 -.03 .2 -.02 .18 -.04 .24 -.05 .22 -.05 .19 -.04 .21 -.06 .24 -.07 .18 -.06 .18 -.06 .23 -.09 .21 -.07 .18 -.08 .19 -.09 .23 -.1 .17 -.08 .17 -.1 .22 -.12 .19 -.11 .17 -.1 .18 -.11 .21 -.14 .21 -.14 .16 -.11 .16 -.12 .2 -.15 .37 -.27 .16 -.13 .17 -.15 .19 -.17 .18 -.15 .15 -.13 .15 -.15 .06 -.06 -.03 -.06 -.1 -.23 -.11 -.22 -.03 -.06 -.09 -.23 -.02 -.06 -.18 -.46 0 -.01 -.09 -.23 -.04 -.11 -.13 -.48 -.07 -.24 -.02 -.07 -.06 -.24 -.01 -.05 -.1 -.49 -.01 -.02 -.04 -.24 -.02 -.1 -.03 -.25 -.03 -.24 -.04 -.25 -.01 -.09 -.01 -.25 0 -.03 -.03 -.5 0 -.03 -.01 -.25 0 -.09 .01 -.25 .01 -.5 .01 -.1 .02 -.25 0 -.01 .03 -.25 .02 -.25 .01 -.05 .03 -.25 .01 -.07 .05 -.24 .04 -.25 .05 -.24 .03 -.12 .06 -.24 .13 -.48 .01 -.06 .08 -.24 .02 -.06 .08 -.23 .08 -.24 .09 -.24 .02 -.05 .2 -.51 0 -.01 .21 -.51 0 -.01 .21 -.51 .2 -.52 .21 -.51 .21 -.51 .21 -.51 .2 -.51 .21 -.51 0 -.01 .21 -.52 .22 -.51 .21 -.51 .21 -.51 .21 -.51 .21 -.51 .21 -.51 .2 -.51 .01 -.01 .21 -.51 .21 -.51 .22 -.51 .21 -.51 .21 -.51 .21 -.51 .22 -.51 .21 -.51 .21 -.51 .01 -.01 .21 -.51 .22 -.51 .21 -.51 .22 -.5 .22 -.51 .21 -.51 .22 -.51 .21 -.51 .01 0 .22 -.51 .65 -1.52 .22 -.51 .22 -.51 .22 -.5 .22 -.51 0 -.01 .23 -.5 0 -.01 .22 -.51 .23 -.5 .22 -.5 .23 -.51 .22 -.5 .22 -.5 .01 -.02 .23 -.5 .23 -.51 .19 -.42 -.03 -.03 -.04 -.05 -.27 -.3 -.08 -.1 -.24 -.31 -.03 -.04 -.19 -.26 -.19 .17 -.04 .02 -.3 .25 -.12 .08 -.32 .22 -.04 .02 -.33 .2 -.1 .06 -.34 .18 -.07 .04 -.35 .16 -.07 .03 -.36 .15 -.11 .04 -.37 .13 -.03 .01 -.38 .11 -.14 .04 -.38 .08 -.04 0 -.39 .07 -.1 .02 -.39 .04 -.08 .01 -.39 .02 -.07 0 -.39 .01 -.12 0 -.39 -.03 -.03 0 -.39 -.03 -.15 -.02 -.39 -.07 -.03 0 -.38 -.08 -.12 -.03 -.37 -.1 -.07 -.02 -.37 -.12 -.08 -.03 -.36 -.14 -.1 -.04 -.35 -.17 -.04 -.02 -.19 -.09 -.26 -.16 -.22 -.21 -.18 -.25 -.12 -.27 -.07 -.3 -.01 -.3 .05 -.3 .11 -.29 .16 -.25 .21 -.23 .25 -.17 .28 -.13 .29 -.06 .31 -.01 .3 .05 .28 .11 .17 .08 .29 .13 .28 .11 .3 .1 .29 .08 .31 .06 .3 .06 .3 .02 .32 .02 .3 0 .32 -.02 .3 -.04 .31 -.05 .29 -.06 .29 -.09 .3 -.1 .28 -.12 .29 -.13 .27 -.14 .27 -.17 .25 -.17 .23 -.19 .25 -.2 .21 -.21 .22 -.23 .2 -.23 .18 -.26 .22 -.31 .2 -.23 .24 -.19 .28 -.14 .29 -.08 .31 -.02 .3 .04 .29 .1 .27 .16 .23 .2 .18 .25 .14 .27 .13 .36 .11 .3 .14 .28 .15 .28 .16 .26 .18 .26 .19 .25 .2 .23 .23 .23 .22 .21 .26 .2 .24 .18 .26 .16 .28 .16 .27 .14 .3 .13 .29 .1 .29 .09 .32 .08 .3 .05 .32 .04 .3 .02 .32 0 .31 0 .3 -.04 .32 -.04 .3 -.07 .32 -.09 .29 -.09 .28 -.12 .29 -.13 .27 -.14 .28 -.17 .25 -.17 .25 -.19 .24 -.21 .22 -.21 .22 -.24 .19 -.23 .19 -.27 .22 -.31 .2 -.24 .24 -.19 .27 -.14 .3 -.08 .31 -.02 .31 .04 .29 .1 .27 .15 .23 .21 .18 .25 .14 .28 .12 .35 .12 .3 .13 .27 .15 .29 .15 .25 .18 .26 .19 .25 .2 .22 .22 .23 .23 .21 .24 .2 .25 .18 .25 .16 .28 .16 .27 .14 .3 .12 .28 .11 .29 .08 .31 .08 .3 .05 .32 .04 .3 .02 .32 0 .3 -.01 .3 -.03 .32 -.05 .29 -.07 .31 -.08 .29 -.1 .28 -.11 .29 -.14 .26 -.14 .28 -.17 .24 -.17 .25 -.2 .23 -.2 .22 -.21 .21 -.24 .19 -.23 .19 -.27 .21 -.31 .2 -.24 .24 -.2 .28 -.14 .3 -.09 .31 -.02 .31 .04 .29 .1 .27 .16 .23 .21 .19 .25 .13 .28 .12 .36 .12 .29 .12 .27 .15 .28 .15 .26 .18 .25 .18 .25 .2 .22 .22 .23 .22 .2 .24 .2 .24 .18 .25 .16 .28 .16 .26 .13 .3 .12 .27 .11 .29 .08 .31 .08 .29 .05 .32 .03 .3 .03 .31 -.01 .3 -.01 .29 -.03 .32 -.05 .29 -.07 .3 -.09 .29 -.09 .27 -.12 .29 -.13 .26 -.15 .27 -.17 .24 -.17 .24 -.19 .23 -.21 .21 -.21 .21 -.24 .18 -.23 .18 -.26 .21 -.32 .19 -.24 .25 -.2 .27 -.15 .31 -.09 .31 -.02 .31 .04 .3 .1 .27 .16 .24 .21 .18 .25 .13 .29 .12 .35 .11 .3 .12 .26 .15 .28 .14 .26 .18 .25 .17 .24 .2 .22 .22 .23 .21 .2 .24 .19 .24 .18 .24 .16 .28 .16 .26 .13 .29 .12 .27 .1 .28 .08 .31 .07 .29 .05 .31 .04 .29 .02 .31 0 .3 -.01 .28 -.04 .31 -.05 .29 -.07 .3 -.09 .28 -.09 .27 -.13 .28 -.13 .25 -.15 .27 -.17 .23 -.17 .23 -.19 .23 -.2 .2 -.22 .21 -.23 .18 -.24 .17 -.26 .2 -.31 .17 -.23 .22 -.2 .25 -.15 .28 -.1 .29 -.05 .29 .01 .28 .06 .27 .12 .24 .16 .21 .21 .17 .24 .11 .27 .12 .35 .11 .3 .12 .27 .14 .29 .15 .25 .17 .24 .19 .26 .19 .22 .23 .23 .21 .2 .24 .18 .26 .19 .24 .16 .28 .15 .27 .13 .27 .1 .31 .1 .28 .08 .31 .06 .3 .05 .29 .02 .32 .01 .29 -.01 .32 -.03 .29 -.04 .29 -.07 .31 -.09 .28 -.09 .29 -.13 .27 -.12 .25 -.15 .27 -.17 .24 -.18 .24 -.2 .22 -.2 .2 -.22 .21 -.24 .18 -.24 .17 -.26 .04 -.07 .09 -.55 .16 -.99 .17 -.99 .16 -.98 .14 -.98 .29 -1.98 .13 -.98 .13 -.99 .13 -1 .12 -.98 .11 -.99 .11 -.99 .11 -1 .1 -.98 .09 -.99 .08 -.98 .06 -.98 .05 -.98 .04 -.98 .02 -.99 .01 -.98 0 -.99 -.02 -.98 -.03 -.98 -.04 -.98 -.06 -.99 -.06 -.98 -.09 -.98 -.09 -.96 -.03 -.21 -.03 -.25 -.04 -.25 -.03 -.23 -.03 -.2 -.04 -.21 -.06 -.24 -.09 -.46 -.05 -.19 -.13 -.47 -.06 -.24 -.05 -.19 -.07 -.19 -.24 -.69 -.07 -.19 -.08 -.2 -.1 -.23 -.18 -.42 -.09 -.18 -.21 -.44 -.11 -.22 -.09 -.17 -.11 -.18 -.12 -.21 -.13 -.22 -.11 -.2 -.11 -.17 -.26 -.39 -.14 -.2 -.12 -.18 -.12 -.16 -.14 -.19 -.31 -.38 -.12 -.16 -.13 -.15 -.17 -.19 -.17 -.19 -.15 -.17 -.14 -.16 -.16 -.16 -.18 -.18 -.17 -.18 -.18 -.18 -.17 -.17 -.17 -.17 -.15 -.16 -.18 -.16 -.18 -.17 -.18 -.18 -.18 -.17 -.18 -.17 -.17 -.16 -.16 -.15 -.18 -.16 -.19 -.16 -.19 -.17 -.18 -.16 -.19 -.17 -.17 -.15 -.17 -.14 -.19 -.16 -.19 -.16 -.19 -.16 -.2 -.16 -.36 -.3 -.18 -.13 -.2 -.16 -.19 -.15 -.2 -.15 -.39 -.3 -.18 -.14 -.19 -.13 -.2 -.14 -.41 -.29 -.2 -.15 -.2 -.14 -.18 -.13 -.4 -.26 -.21 -.14 -.2 -.14 -.21 -.14 -.2 -.13 -.18 -.12 -.2 -.12 -.64 -.38 -.2 -.13 -.19 -.11 -.2 -.1 -.22 -.12 -.44 -.24 -.21 -.12 -.19 -.1 -.42 -.21 -.23 -.11 -.44 -.21 -.19 -.1 -.21 -.09 -.23 -.1 -.46 -.2 -.21 -.09 -.2 -.08 -.68 -.27 -.23 -.08 -.23 -.09 -.2 -.07 -.21 -.08 -.24 -.08 -.47 -.15 -.23 -.08 -.2 -.06 -.22 -.07 -.48 -.13 -.24 -.07 -.23 -.07 -.21 -.05 -.22 -.06 -.24 -.05 -.25 -.06 -.24 -.06 -.23 -.06 -.21 -.04 -.22 -.05 -.25 -.04 -.24 -.05 -.49 -.09 -.21 -.04 -.22 -.03 -.25 -.04 -.25 -.04 -.24 -.03 -.24 -.04 -.22 -.03 -.22 -.02 -.25 -.03 -.25 -.02 -.24 -.03 -.24 -.02 -.22 -.02 -.22 -.02 -.99 -.06 -.22 -.01 -.47 0 -.25 -.01 -.49 -.01 -.22 0 -.72 .02 -.25 .01 -.25 0 -.21 .01 -.22 .02 -.25 .01 -.25 .02 -.25 .02 -.24 .01 -.22 .02 -.22 .03 -.25 .02 -.74 .09 -.21 .02 -.47 .08 -.24 .04 -.25 .03 -.25 .04 -.22 .04 -.21 .04 -.23 .05 -.24 .05 -.49 .1 -.24 .05 -.21 .04 -.21 .06 -.24 .06 -.25 .06 -.11 .03 -.3 .05 -.31 -.01 -.29 -.08 -.28 -.12 -.24 -.18 -.21 -.23 -.16 -.26 -.1 -.28 -.05 -.3 .02 -.31 .07 -.29 .13 -.28 .18 -.24 .22 -.21 .26 -.16 .29 -.1 .11 -.03 .24 -.06 .25 -.06 .24 -.07 .06 -.01 .24 -.05 .01 -.01 .25 -.05 .49 -.1 .24 -.05 .24 -.05 .03 0 .24 -.05 .05 -.01 .25 -.04 .25 -.04 .24 -.04 .25 -.04 .49 -.07 .06 -.01 .25 -.03 .01 0 .74 -.09 .25 -.02 .25 -.03 .05 -.01 .25 -.02 .02 0 .24 -.02 .25 -.01 .25 -.02 .25 -.02 .25 -.01 .05 -.01 .25 -.01 .02 0 .25 0 .25 -.01 .75 -.02 .05 0 .25 0 .01 0 .5 .01 .25 .01 .5 0 .05 .01 .25 .01 .02 0 .99 .06 .25 .01 .05 .01 .25 .02 .02 0 .25 .03 .24 .02 .25 .03 .25 .03 .25 .02 .05 .01 .25 .03 .01 0 .25 .04 .25 .04 .24 .03 .25 .04 .25 .04 .05 0 .24 .05 .02 0 .49 .1 .25 .04 .24 .05 .25 .05 .04 .01 .25 .05 .02 .01 .24 .05 .24 .06 .25 .06 .24 .06 .24 .06 .05 .01 .24 .06 .02 .01 .24 .07 .24 .07 .48 .13 .24 .07 .04 .01 .24 .08 .02 .01 .24 .08 .47 .15 .24 .08 .24 .08 .04 .02 .23 .08 .03 .01 .23 .09 .23 .09 .7 .27 .04 .02 .23 .09 .03 .01 .22 .1 .46 .2 .23 .1 .23 .1 .04 .02 .23 .11 .02 .01 .45 .22 .22 .11 .45 .22 .04 .02 .22 .11 .02 .02 .22 .12 .44 .24 .22 .12 .22 .12 .03 .02 .22 .12 .02 .02 .22 .13 .64 .38 .21 .13 .03 .02 .21 .14 .02 .01 .21 .14 .21 .14 .21 .14 .2 .13 .42 .28 .03 .02 .21 .14 .01 .01 .2 .15 .21 .14 .4 .29 .21 .15 .2 .14 .04 .03 .2 .15 0 .01 .4 .3 .2 .15 .19 .16 .2 .15 .2 .15 .04 .03 .39 .32 .19 .16 .19 .16 .19 .16 .2 .16 .2 .16 .03 .03 .19 .17 .18 .17 .19 .16 .19 .17 .18 .16 .19 .17 .01 .01 .19 .17 .03 .02 .18 .18 .18 .17 .18 .17 .18 .17 .18 .17 .18 .18 .02 .01 .18 .18 .02 .02 .17 .18 .18 .18 .17 .17 .18 .18 .17 .18 .18 .18 .03 .03 .17 .18 .02 .03 .17 .19 .16 .18 .17 .19 .16 .19 .06 .07 .15 .19 .01 .01 .31 .4 .15 .19 .01 .02 .15 .2 .05 .07 .14 .2 .14 .21 .28 .41 .03 .05 .13 .21 .02 .04 .13 .22 .13 .21 .12 .22 .13 .21 .04 .08 .11 .23 .01 0 .11 .23 .22 .44 .02 .03 .1 .22 .03 .07 .2 .46 .09 .23 .1 .23 .02 .06 .09 .24 .01 .03 .25 .71 .08 .23 .03 .1 .07 .24 .06 .24 .14 .48 .01 .04 .06 .24 .01 .06 .1 .49 .05 .25 .05 .24 .01 .07 .04 .25 .01 .03 .03 .25 .04 .24 .03 .25 .04 .25 0 .07 .09 1 .09 1 .01 .04 .06 1 0 .01 .07 1 0 .03 .04 1.01 0 .01 .03 1.01 0 .02 .02 1.01 0 .01 0 1.01 0 .02 -.01 1 0 .03 -.03 1 0 .02 -.03 1 0 .03 -.06 1.01 -.06 1.01 0 .03 -.08 1 0 .01 -.09 1 0 .03 -.11 1 -.11 1 -.1 1 0 .01 -.12 1 0 .02 -.13 .99 -.12 1 -.13 1 0 .01 -.14 1 0 .01 -.29 1.99 -.15 1 0 .02 -.16 .99 0 .01 -.17 .99 -.16 .99 -.14 .85 -.02 .06 -.01 .07 0 .01 0 .03 -.19 .99 -.19 .99 -.19 .99 0 .03 -.22 .99 -.21 .98 0 .01 -.22 .98 -.01 .03 -.24 .98 -.23 .97 -.01 .01 -.24 .98 -.01 .03 -.53 1.93 0 .02 -.28 .97 -.01 .02 -.58 1.92 0 .02 -.3 .96 0 .01 -.31 .96 -.31 .95 -.92 2.87 -.31 .96 -.31 .96 0 .01 -.32 .95 -.64 1.91 -.31 .95 -.64 1.91 -.32 .95 0 .02 -.33 .95 -.33 .95 -.33 .95 -.33 .95 -.01 .02 -.34 .94 0 .01 -.35 .94 -.34 .94 -.35 .95 0 .02 -.36 .94 -.36 .94 -.36 .94 -.36 .94 0 .01 -.38 .94 -.07 .17 -.02 .04 -.01 .05 -.27 .67 -.37 .94 -.38 .93 0 .02 -.39 .93 -.77 1.85 -.38 .93 -.39 .93 0 .01 -.39 .92 0 .01 -.4 .93 -.39 .92 -.4 .92 -.39 .93 -.4 .92 0 .02 -.41 .92 -1.21 2.76 -.41 .91 0 .02 -.42 .91 0 .01 -.42 .91 -.41 .92 -.42 .91 0 .01 -.42 .91 -.01 .01 -.86 1.82 -.43 .91 -.43 .91 -.01 .02 -.44 .9 -.45 .9 -.44 .9 -.44 .91 -.01 0 -.45 .9 0 .01 -.46 .9 -.46 .89 -.45 .9 -.46 .89 0 .01 -.47 .89 -.46 .9 -.46 .89 -.46 .89 -.46 .89 -.46 .9 -.93 1.78 -.46 .89 -.46 .9 -.46 .89 -.47 .89 -.46 .89 -.46 .9 -.46 .89 -.17 .33 -.29 .56 -.06 .1 -.14 .28 -.2 .38 -.07 .13 -.27 .53 -.1 .19 -.09 .17 -.15 .3 -.31 .6 -.03 .06 -.35 .66 -.03 .07 -.05 .1 -.26 .49 -.2 .4 -.14 .26 -.11 .22 -.22 .41 -.01 .03 -.34 .67 -.11 .2 -.23 .46 -.2 .37 -.03 .06 -.12 .23 -.05 .11 -.29 .55 -.27 .52 -.07 .14 -.12 .23 -.22 .43 -.25 .47 -.09 .19 -.32 .6 -.03 .06 -.02 .04 -.01 .03 -.31 .59 -.14 .27 -.2 .39 -.26 .5 -.08 .16 -.13 .25 -.21 .41 -.04 .07 -.16 .32 -.15 .27 -.15 .31 -.19 .35 -.1 .2 -.18 .34 -.06 .12 -.33 .63 -.01 .03 -.06 .12 -.28 .54 -.18 .34 -.16 .32 -.01 0 -.14 .29 -.15 .29 -.01 .01 -.04 .08 -.35 .66 -.08 .15 -.27 .51 -.2 .37 -.05 .1 -.1 .18 -.07 .15 -.25 .46 -.02 .05 -.35 .66 -.1 .18 -.25 .48 -.22 .41 -.12 .24 -.01 .01 -.26 .49 -.08 .15 -.01 .01 0 .02 -.36 .65 -.12 .22 -.23 .43 -.25 .45 -.11 .21 -.36 .65 -.01 .02 -.18 .34 -.16 .29 -.14 .25 -.22 .4 -.26 .49 -.09 .17 -.36 .65 -.01 .02 -.02 .03 0 .01 -.01 .02 -.33 .59 -.16 .28 -.21 .36 -.29 .52 -.07 .13 -.07 .11 -.3 .54 -.05 .09 -.19 .34 -.12 .22 -.18 .32 -.19 .33 -.3 .54 -.06 .11 -.36 .64 -.01 .02 -.04 .06 -.03 .05 0 .01 -.3 .52 -.21 .35 -.16 .3 -.34 .58 -.03 .06 -.13 .22 -.24 .42 -.1 .17 -.28 .48 -.22 .39 -.03 .04 -.12 .21 -.17 .31 -.18 .31 -.02 .03 -.37 .65 -.01 0 -.11 .2 -.26 .44 -.25 .42 -.13 .22 -.37 .65 -.01 0 -.37 .64 -.14 .23 -.23 .41 -.27 .46 -.11 .18 -.38 .64 0 .01 -.03 .04 -.35 .6 -.16 .27 -.22 .37 -.28 .46 -.03 .04 -.01 .04 -.01 0 -.05 .1 -.37 .62 -.01 .02 -.05 .07 -.06 .1 -.01 .01 -.26 .46 -.15 .25 -.03 .05 -.01 .01 -.12 .21 -.01 0 -.68 1.14 -.01 .01 -.15 .25 -.07 .11 -.31 .51 -.01 .02 -.01 .02 -.18 .3 -.01 .01 -.09 .15 -.09 .15 -.34 .56 -.05 .08 -.14 .22 -.25 .41 -.09 .15 -.04 .07 -.14 .22 -.12 .2 -.08 .13 -.72 1.17 -.01 .01 -.37 .6 -.11 .18 -.01 0 -.04 .06 -.18 .24 -.23 .2 -.27 .15 -.28 .1 -.31 .04 -.3 -.02 -.29 -.08 -.27 -.14 -.24 -.19 -.2 -.23 -.15 -.26 -.1 -.29 -.04 -.3 .02 -.3 .08 -.29 .14 -.28 .04 -.06 .11 -.18 .38 -.59 .71 -1.16 .08 -.13 .11 -.19 .14 -.22 .05 -.08 .08 -.14 .25 -.41 .14 -.23 .05 -.08 .34 -.55 .09 -.15 .09 -.15 .19 -.31 .02 -.03 .01 -.02 .21 -.34 -.38 .08 -.05 .02 -.25 .04 -.05 .01 -.74 .11 -.25 .04 -.06 .01 -.25 .02 -.25 .03 -.24 .03 -.25 .02 -.25 .03 -.25 .03 -.25 .02 -.24 .03 -.25 .03 -.25 .02 -.25 .03 -.25 .03 -.25 .02 -.02 .01 -.24 .02 -.01 0 -.25 .02 -.25 .02 -.5 .05 -.25 .02 -.49 .05 -.25 .02 -.25 .02 -.25 .02 -.25 .02 -.25 .03 -.01 0 -.25 .02 -.01 0 -.25 .02 -.25 .01 -.25 .02 -.25 .02 -.25 .02 -.25 .01 -.25 .02 -.25 .02 -.25 .02 -.24 .01 -.25 .02 -.25 .02 -.25 .02 -.03 0 -2.74 .14 -.25 .01 -.25 .01 -.02 0 -.25 .01 -.01 0 -1 .03 -.25 .01 -.02 0 -.09 .24 -.42 1.11 -.41 1.1 -.41 1.1 -.4 1.1 0 .02 -.41 1.09 -.4 1.1 -.4 1.09 -.39 1.1 -.01 .01 -.39 1.09 -.01 .03 -.09 .23 -.09 .24 -.18 .46 -.09 .24 -.09 .23 -.09 .23 -.01 .03 -.09 .23 -.02 .03 -.2 .46 -.09 .23 -.4 .91 -.02 .05 -.11 .23 0 .01 -.22 .45 -.1 .22 -.33 .68 0 .01 -.11 .23 -.02 .04 -.7 1.32 -.12 .22 -.02 .04 -.12 .22 -.01 .01 -.13 .22 -.12 .21 -.13 .22 -.12 .22 -.13 .21 -.12 .22 -.13 .22 -.03 .05 -.13 .21 -.27 .42 -.13 .21 -.14 .21 -.26 .42 -.02 .03 -.14 .21 -.01 .02 -.15 .21 -.14 .2 -.14 .21 -.14 .2 -.14 .21 -.14 .21 -.14 .2 -.06 .07 -.15 .2 -.16 .2 -.15 .2 -.01 .01 -.16 .2 -.07 .08 -.51 .55 -.03 .04 -.18 .17 -.05 .06 -.18 .17 -.19 .16 -.18 .17 -.07 .06 -.19 .16 -.03 .02 -.2 .16 -.39 .3 -.1 .07 -.2 .14 -.01 .01 -.21 .13 -.21 .14 -.02 .02 -.21 .13 -.08 .05 -.22 .12 -.44 .24 -.06 .03 -.23 .11 -.04 .02 -.46 .21 -.23 .1 -.1 .04 -.23 .09 -.02 0 -.23 .09 -.24 .08 -.02 .01 -.24 .08 -.09 .03 -.48 .13 -.24 .06 -.07 .02 -.24 .06 -.06 .01 -.24 .04 -.25 .05 -.05 .01 -.02 .11 -.01 .03 -.07 .24 -.06 .24 -.07 .25 -.13 .48 -.06 .24 -.01 .01 -.06 .24 -.02 .05 -.07 .24 -.08 .24 -.07 .23 -.07 .24 -.08 .24 -.07 .24 -.08 .24 -.02 .06 -.08 .23 -.17 .47 -.08 .24 -.17 .47 -.09 .23 -.02 .06 -.09 .23 -.19 .47 -.09 .23 -.19 .46 -.09 .23 -.02 .04 -.1 .23 -.01 .02 -.51 1.14 -.1 .23 -.02 .03 -.1 .22 -.02 .03 -.22 .45 -.11 .22 -.34 .67 0 .02 -.12 .22 -.02 .04 -.24 .43 -.12 .22 -.24 .44 -.12 .22 -.11 .2 -.11 .21 -.11 .22 -.1 .18 -.07 .16 -.09 .22 -.08 .2 -.06 .17 -.07 .21 -.07 .22 -.05 .18 -.04 .19 -.06 .24 -.04 .18 -.02 .19 -.04 .24 -.02 .2 -.02 .18 -.01 .24 -.01 .21 0 .18 .01 .23 .01 .22 .01 .18 .03 .21 .02 .23 .03 .19 .04 .2 .05 .23 .04 .19 .05 .18 .07 .24 .06 .18 .06 .18 .09 .23 .07 .18 .08 .17 .1 .21 .09 .19 .09 .16 .23 .39 .1 .15 .12 .17 .14 .19 .11 .15 .13 .15 .16 .19 .12 .14 .13 .13 .18 .18 .14 .14 .14 .12 .18 .15 .16 .14 .15 .11 .37 .26 .15 .1 .54 .3 .16 .07 .22 .1 .18 .08 .16 .06 .23 .07 .18 .07 .18 .04 .42 .1 .17 .03 .23 .03 .2 .03 .18 .02 .22 .01 .21 .01 .18 0 .21 -.01 .22 -.01 .18 -.02 .21 -.03 .22 -.03 .17 -.03 .42 -.1 .17 -.05 .19 -.06 .23 -.08 .16 -.05 .17 -.08 .39 -.18 .16 -.08 .38 -.22 .14 -.1 .2 -.14 .16 -.11 .13 -.11 .18 -.15 .16 -.13 .12 -.12 .31 -.31 .11 -.14 .14 -.17 .13 -.16 .11 -.15 .12 -.18 .12 -.18 .09 -.15 .1 -.18 .11 -.2 .08 -.16 .17 -.4 .06 -.16 .06 -.19 .07 -.24 .07 -.21 .06 -.22 .07 -.24 .07 -.24 .07 -.24 .07 -.24 .07 -.24 .06 -.24 .07 -.24 0 -.02 .07 -.23 .02 -.05 .23 -.71 .07 -.24 .08 -.24 .23 -.71 .01 -.01 .07 -.24 .02 -.04 .08 -.23 .17 -.47 .09 -.24 .17 -.47 .08 -.23 .09 -.24 0 -.02 .09 -.23 .02 -.03 .09 -.23 .09 -.24 .1 -.23 .09 -.23 .18 -.46 .1 -.24 .09 -.23 .01 -.02 .1 -.23 .01 -.03 .81 -1.82 .01 -.03 .11 -.23 .01 -.02 .11 -.23 .11 -.22 .11 -.22 .11 -.23 .11 -.22 .11 -.23 .11 -.22 .1 -.23 .02 -.03 .12 -.22 0 -.02 .12 -.22 .12 -.22 .12 -.22 .11 -.22 .47 -.88 .02 -.04 .12 -.22 .01 -.01 .13 -.22 .12 -.21 .13 -.22 .12 -.21 .13 -.22 .12 -.22 .13 -.21 .12 -.22 .02 -.04 .14 -.21 0 -.01 .13 -.21 .14 -.21 .13 -.22 .13 -.21 .13 -.21 .14 -.21 .13 -.21 .13 -.21 .03 -.05 .14 -.2 0 -.01 .7 -1.03 .14 -.21 .14 -.21 .14 -.21 .01 -.02 .43 -.6 .09 -.12 .27 -.4 .76 -1.08 .14 -.22 .42 -.61 .23 -.34 .19 -.28 .26 -.38 .16 -.23 .16 -.24 .26 -.38 .3 -.44 .11 -.17 .1 -.15 .32 -.47 .39 -.56 .03 -.05 .04 -.05 .23 -.34 .19 -.23 .24 -.19 .27 -.14 .29 -.09 .3 -.03 .3 .04 .29 .09 .27 .14 .23 .2 .19 .23 .14 .27 .09 .29 .03 .31 -.04 .3 -.09 .29 -.14 .27 -.23 .33 -.04 .05 -.03 .05 -.38 .57 -.32 .47 -.1 .14 -.12 .17 -.3 .45 -.26 .37 -.16 .24 -.16 .23 -.26 .39 -.19 .28 -.23 .33 -.41 .62 -.01 0 -.15 .22 0 .01 -.76 1.09 -.01 .01 -.28 .4 -.08 .12 -.42 .59 -.13 .2 -.14 .21 -.14 .2 -.7 1.04 -.12 .18 -.12 .19 -.14 .21 -.13 .21 -.13 .22 -.13 .21 -.14 .21 -.13 .21 -.13 .21 -.12 .19 -.11 .2 -.12 .21 -.13 .22 -.12 .22 -.13 .21 -.12 .22 -.13 .21 -.12 .21 -.11 .2 -.46 .86 -.12 .22 -.11 .22 -.12 .22 -.11 .22 -.11 .2 -.1 .2 -.11 .23 -.11 .22 -.11 .23 -.11 .22 -.1 .23 -.11 .22 -.11 .22 -.09 .2 -.8 1.8 -.09 .2 -.09 .22 -.09 .23 -.19 .47 -.09 .23 -.09 .23 -.1 .23 -.08 .22 -.08 .21 -.08 .22 -.09 .24 -.17 .47 -.08 .23 -.17 .47 -.08 .22 -.07 .21 -.23 .7 -.08 .24 -.07 .24 -.23 .69 -.06 .22 -.06 .23 -.07 .24 -.07 .24 -.07 .24 -.07 .24 -.07 .24 -.06 .24 -.07 .24 -.01 .04 -.08 .24 0 .01 -.07 .24 -.08 .23 -.04 .11 -.09 .23 -.01 .03 -.2 .46 -.04 .09 -.11 .22 -.02 .05 -.12 .22 -.12 .22 -.04 .06 -.13 .22 -.03 .06 -.14 .2 -.14 .21 -.04 .05 -.14 .21 -.05 .06 -.16 .19 -.16 .2 -.03 .04 -.17 .19 -.06 .06 -.35 .36 -.03 .03 -.18 .17 -.07 .07 -.19 .16 -.19 .17 -.03 .02 -.19 .15 -.09 .07 -.2 .14 -.21 .15 -.01 .01 -.21 .14 -.11 .07 -.43 .24 -.01 0 -.21 .13 -.13 .06 -.46 .21 -.22 .1 -.12 .05 -.24 .08 -.02 .01 -.23 .08 -.24 .08 -.1 .03 -.24 .06 -.04 .01 -.49 .12 -.09 .01 -.24 .05 -.06 .01 -.24 .03 -.25 .03 -.17 .84 -.25 1.22 -.25 1.21 -.25 1.21 -.25 1.22 -.5 2.43 -.24 1.21 -.25 1.22 -.25 1.22 -.25 1.21 -.25 1.21 -.24 1.22 -.25 1.21 -.24 1.22 -.24 1.21 -.25 1.22 -.23 1.21 -.23 1.22 -.24 1.21 -.23 1.21 -.22 1.22 -.22 1.22 -.22 1.22 -.22 1.21 -.21 1.22 -.21 1.22 -.21 1.22 -.21 1.22 -.2 1.22 -.2 1.22 -.2 1.23 -.2 1.22 -.21 1.22 -.2 1.23 -.2 1.22 0 .01 -.21 1.23 -.21 1.22 -.21 1.22 -.22 1.23 -.22 1.22 -.22 1.22 -.22 1.23 0 .01 -.23 1.22 -.22 1.22 -.23 1.22 -.23 1.22 0 .01 -.24 1.22 -.24 1.21 -.24 1.22 -.23 1.22 -.23 1.21 -.24 1.22 -.23 1.21 -.22 1.22 -.44 2.43 -.21 1.22 -.21 1.22 -.2 1.22 -.2 1.22 -.2 1.22 -.19 1.22 -.2 1.23 0 .01 -.2 1.22 -.01 .02 -.21 1.22 0 .02 -.24 1.22 0 .03 -.27 1.22 0 .02 -.28 1.21 0 .02 -.29 1.2 -.02 .07 -.07 .24 -.07 .24 -.07 .24 -.07 .24 -.03 .07 -.08 .24 -.01 .02 -.08 .24 -.09 .23 -.09 .24 -.02 .05 -.09 .23 -.02 .05 -.1 .22 -.11 .23 -.1 .23 -.01 .03 -.11 .22 -.03 .07 -.12 .22 -.24 .44 0 .01 -.12 .22 -.05 .08 -.13 .21 -.13 .22 -.14 .21 -.13 .21 -.05 .08 -.15 .2 -.01 .01 -.14 .2 -.3 .4 -.04 .06 -.15 .19 -.03 .03 -.16 .2 -.32 .38 -.03 .03 -.17 .19 -.04 .04 -.17 .18 -.18 .18 -.17 .18 -.01 .02 -.18 .17 -.07 .07 -.19 .16 -.18 .17 -.19 .17 -.08 .07 -.2 .15 -.02 .01 -.2 .15 -.2 .15 -.05 .04 -.21 .14 -.05 .03 -.21 .13 -.21 .14 -.03 .02 -.21 .12 -.08 .05 -.22 .11 -.22 .12 -.01 0 -.22 .11 -.11 .06 -.46 .19 -.23 .1 -.09 .03 -.24 .08 -.02 .01 -.24 .08 -.24 .08 -.06 .02 -.24 .07 -.06 .01 -.24 .06 -.24 .06 -.03 .01 -.25 .05 -.09 .02 -.25 .03 -.24 .04 -.25 .04 -.12 .02 -.25 .02 -.25 .01 -.25 .02 -.09 .01 -.25 0 -.04 0 -.25 0 -.25 0 -.06 -.01 -.24 -.01 -.09 0 -.25 -.03 -.25 -.02 -.11 -.02 -.24 -.04 -.06 -.01 -.24 -.06 -.25 -.05 -.15 -.04 -.24 -.08 -.11 -.03 -.28 -.13 -.25 -.17 -.21 -.22 -.16 -.26 -.11 -.28 -.05 -.3 0 -.3 .07 -.3 .12 -.28 .18 -.25 .21 -.21 .26 -.16 .28 -.11 .3 -.05 .31 .01 .29 .06 .11 .04 .16 .05 .16 .03 .22 .05 .16 .03 .2 .02 .2 .02 .18 .01 .22 0 .23 0 .18 0 .21 -.02 .25 -.02 .18 -.01 .19 -.03 .24 -.04 .2 -.03 .19 -.04 .22 -.05 .22 -.06 .18 -.05 .2 -.06 .22 -.08 .18 -.06 .19 -.08 .4 -.17 .17 -.08 .21 -.12 .19 -.09 .16 -.1 .19 -.12 .19 -.12 .15 -.1 .17 -.13 .2 -.15 .14 -.11 .15 -.13 .19 -.16 .15 -.14 .13 -.13 .17 -.17 .17 -.18 .15 -.16 .13 -.15 .31 -.36 .15 -.18 .12 -.15 .27 -.37 .15 -.2 .11 -.16 .11 -.17 .13 -.21 .13 -.21 .11 -.17 .09 -.18 .24 -.43 .1 -.19 .08 -.18 .1 -.21 .1 -.23 .09 -.2 .07 -.18 .08 -.21 .09 -.23 .08 -.23 .06 -.18 .06 -.2 .07 -.24 .07 -.24 .06 -.21 .28 -1.16 .28 -1.19 .25 -1.18 .23 -1.19 .21 -1.2 .2 -1.22 .19 -1.22 .2 -1.22 .19 -1.23 .01 -.01 .2 -1.22 .21 -1.23 .2 -1.22 .01 -.01 .21 -1.22 0 -.01 .44 -2.45 .22 -1.22 0 -.01 .24 -1.22 .23 -1.22 .24 -1.22 .23 -1.22 .24 -1.22 .24 -1.22 .23 -1.21 .23 -1.21 .23 -1.22 .23 -1.22 .22 -1.22 .22 -1.21 .22 -1.22 .22 -1.22 .21 -1.22 .21 -1.22 .21 -1.22 .21 -1.22 .2 -1.22 .21 -1.22 .2 -1.22 .2 -1.23 .2 -1.22 .2 -1.22 .2 -1.23 .21 -1.23 .21 -1.23 .21 -1.22 .22 -1.22 0 -.01 .22 -1.22 0 -.01 .22 -1.22 .22 -1.22 .22 -1.22 .01 -.01 .23 -1.22 .23 -1.22 .23 -1.22 .24 -1.22 0 -.01 .25 -1.21 .24 -1.22 .24 -1.22 .25 -1.21 0 -.01 .24 -1.21 0 -.01 .25 -1.21 .25 -1.22 .25 -1.21 .25 -1.22 .25 -1.21 .49 -2.43 .25 -1.22 .25 -1.21 0 -.01 .26 -1.21 .25 -1.21 .07 -.37 -.42 -.1 -.03 0 -.24 -.07 -.11 -.03 -.23 -.08 -.24 -.08 -.02 -.01 -.24 -.08 -.11 -.05 -.23 -.1 -.23 -.1 -.23 -.1 -.13 -.07 -.65 -.37 -.11 -.06 -.2 -.14 -.02 -.01 -.41 -.29 -.05 -.04 -.2 -.15 -.05 -.04 -.19 -.16 -.2 -.16 -.02 -.02 -.19 -.16 -.08 -.07 -.17 -.18 -.18 -.17 -.18 -.18 -.09 -.09 -.16 -.19 0 -.01 -.16 -.19 -.17 -.19 -.06 -.08 -.15 -.2 -.02 -.02 -.14 -.21 -.15 -.2 -.04 -.06 -.13 -.21 -.03 -.05 -.26 -.43 -.02 -.04 -.12 -.22 -.04 -.07 -.11 -.23 -.11 -.22 -.01 -.03 -.1 -.22 -.04 -.1 -.09 -.23 -.09 -.23 0 -.01 -.09 -.23 -.04 -.12 -.07 -.24 -.07 -.24 -.07 -.24 -.03 -.11 -.05 -.24 -.01 -.02 -.05 -.24 -.05 -.25 -.01 -.09 -.04 -.25 0 -.03 -.03 -.25 -.03 -.25 -.01 -.07 -.02 -.25 0 -.06 -.01 -.25 -.01 -.24 0 -.06 0 -.25 0 -.07 .02 -.25 .01 -.25 0 -.03 .02 -.25 .01 -.1 .03 -.25 .03 -.25 .04 -.25 .02 -.13 .06 -.24 .05 -.24 .05 -.25 .03 -.1 .07 -.24 .01 -.03 .07 -.23 .08 -.24 .02 -.07 .09 -.24 .02 -.05 .1 -.24 .09 -.23 .01 -.03 .11 -.22 .04 -.1 .12 -.22 .11 -.22 .12 -.22 .01 -.03 .12 -.22 .12 -.22 .24 -.44 .12 -.22 .24 -.42 .1 -.19 .33 -.67 .11 -.22 .21 -.43 .1 -.2 .09 -.21 .51 -1.13 .09 -.2 .09 -.22 .18 -.46 .1 -.23 .18 -.46 .08 -.2 .08 -.21 .17 -.48 .08 -.23 .17 -.47 .07 -.21 .07 -.21 .07 -.23 .08 -.24 .07 -.24 .08 -.24 .07 -.24 .07 -.21 .06 -.21 .06 -.24 .11 -.4 -.07 -.01 -.07 0 -.25 -.03 -.06 -.01 -.24 -.03 -.25 -.04 -.25 -.04 -.13 -.02 -.24 -.06 -.49 -.11 -.06 -.02 -.24 -.06 -.07 -.03 -.47 -.15 -.24 -.08 -.11 -.04 -.31 .96 -.35 1.12 -.35 1.11 -.33 1.11 -.34 1.12 -.33 1.12 -.32 1.12 -.32 1.12 -.3 1.12 -.31 1.13 -.3 1.13 -.29 1.12 -.28 1.13 -.29 1.13 -.28 1.14 -.27 1.14 -.28 1.13 -.27 1.14 -.27 1.14 -.27 1.14 -.27 1.14 -.26 1.13 -.26 1.15 -.27 1.14 -.26 1.14 -.25 1.14 -.26 1.14 -.25 1.15 -.26 1.15 -.25 1.14 -.25 1.14 -.24 1.15 -.25 1.15 -.24 1.14 -.25 1.15 -.24 1.14 -.24 1.15 -.24 1.15 -.24 1.14 -.23 1.15 -.23 1.15 -.23 1.15 -.23 1.15 -.23 1.15 -.23 1.15 -.22 1.14 -.22 1.15 -.22 1.15 -.22 1.16 -.21 1.15 -.22 1.15 -.22 1.16 -.22 1.15 -.21 1.15 -.01 0 -.21 1.16 -.44 2.3 -.22 1.16 -.22 1.15 -.22 1.15 -.22 1.16 -.22 1.15 -.22 1.15 -.22 1.15 -.21 1.16 -.01 .01 -.22 1.15 -.22 1.15 -.22 1.15 -.21 1.15 -.22 1.15 -.21 1.16 -.22 1.15 -.2 1.15 -.21 1.15 -.21 1.16 -.2 1.15 -.4 2.31 -.2 1.16 -.59 3.47 -.2 1.16 0 .01 -.21 1.15 -.01 .02 -.21 1.15 -.01 .02 -.23 1.15 -.01 .01 -.24 1.15 0 .01 -.25 1.15 -.06 .24 -.05 .25 -.05 .24 -.06 .24 -.05 .25 -.05 .24 -.06 .25 -.05 .24 -.06 .24 -.05 .25 -.05 .24 -.06 .24 -.05 .25 -.05 .24 -.06 .24 -.05 .25 -.05 .24 -.06 .25 -.05 .23 -.05 .24 -.05 .24 -.05 .24 -.05 .25 -.05 .24 -.05 .25 -.1 .49 -.05 .24 -.05 .24 -.05 .25 -.05 .24 -.05 .25 -.05 .24 -.05 .25 -.05 .24 -.05 .24 -.1 .49 -.05 .24 -.05 .23 -.14 .74 -.04 .24 -.05 .25 -.1 .49 -.04 .24 -.1 .49 -.04 .25 -.05 .24 -.05 .25 -.09 .49 -.03 .14 -.09 .29 -.14 .27 -.19 .24 -.23 .19 -.27 .15 -.29 .09 -.3 .03zM346.98 321.99l-.08 -.04 -.16 .34 -.23 .5 -.22 .49 0 .01 -.22 .5 -.23 .51 -.22 .5 -.22 .51 -.23 .5 -.22 .49 -.21 .51 -.22 .5 -.22 .51 -.22 .51 -.66 1.52 -.21 .5 -.22 .5 -.22 .51 -.21 .51 -.22 .51 -.21 .51 -.22 .51 -.22 .5 -.21 .51 -.21 .5 -.21 .51 -.21 .51 -.22 .51 -.21 .51 -.21 .51 -.22 .51 -.21 .51 -.21 .51 -.21 .5 -.21 .52 -.2 .51 -.01 0 -.21 .51 -.21 .51 -.21 .51 -.21 .51 -.21 .51 -.2 .51 -.21 .51 -.21 .51 0 .01 -.21 .51 -.2 .51 -.21 .51 -.21 .51 -.2 .51 -.19 .48 -.07 .21 -.09 .23 -.07 .21 -.05 .18 -.12 .45 -.05 .18 -.04 .19 -.04 .25 -.04 .21 -.03 .19 -.02 .22 -.02 .24 -.02 .19 -.01 .44 -.01 .21 .01 .19 .02 .47 .01 .19 .03 .2 .03 .25 .03 .19 .03 .19 .1 .46 .04 .18 .06 .2 .13 .43 .06 .18 .17 .43 .07 .18 .09 .19 .11 .23 .08 .17 .09 .17 .25 .43 .09 .17 .11 .16 .14 .21 .13 .2 .11 .16 .42 .54 .12 .15 .46 .52 .13 .14 .16 .15 .18 .17 .16 .15 .14 .13 .53 .44 .15 .12 .19 .14 .2 .14 .17 .12 .16 .11 .2 .13 .22 .13 .16 .1 .17 .09 .22 .12 .22 .11 .17 .09 .18 .08 .23 .1 .22 .1 .18 .07 .19 .07 .23 .08 .21 .07 .18 .06 .22 .05 .23 .07 .19 .05 .19 .03 .24 .05 .22 .04 .19 .02 .22 .03 .24 .02 .19 .03 .19 0 .25 .01 .22 .01 .19 0 .22 -.01 .25 -.02 .19 0 .19 -.03 .25 -.03 .22 -.02 .19 -.03 .21 -.05 .25 -.04 .18 -.04 .64 -.18 .18 -.06 .62 -.22 .18 -.08 .22 -.1 .21 -.09 .17 -.09 .41 -.22 .17 -.1 .17 -.1 .2 -.13 .4 -.26 .16 -.11 .18 -.13 .2 -.15 .2 -.15 .16 -.12 .15 -.13 .55 -.46 .14 -.13 .23 -.23 -.02 -.04 -.01 -.01 -.1 -.23 -.11 -.23 -.02 -.04 -.1 -.23 -.02 -.07 -.09 -.23 -.09 -.24 -.09 -.23 -.03 -.11 -.07 -.24 -.14 -.48 -.02 -.06 -.06 -.24 -.01 -.06 -.05 -.25 -.05 -.24 0 -.01 -.05 -.24 -.02 -.11 -.03 -.25 -.03 -.25 -.03 -.25 -.01 -.07 -.02 -.25 0 -.04 -.01 -.25 -.01 -.25 -.01 -.03 0 -.25 0 -.09 0 -.25 .01 -.25 .01 -.25 0 -.1 .03 -.24 0 -.03 .02 -.25 .03 -.24 0 -.05 .04 -.25 .01 -.07 .09 -.49 .04 -.25 .03 -.11 .06 -.24 .13 -.49 .02 -.05 .07 -.24 .02 -.06 .16 -.47 .09 -.24 .02 -.05 .19 -.49 .19 -.48 0 -.01 .19 -.48 0 -.01 .39 -.97 .19 -.48 .19 -.49 .19 -.48 .19 -.48 .19 -.49 .19 -.48 0 -.01 .19 -.48 0 -.01 .19 -.48 .19 -.49 .2 -.48 .18 -.48 .57 -1.46 .19 -.49 .19 -.49 .2 -.48 .19 -.49 .19 -.48 .38 -.97 .19 -.49 .2 -.49 .19 -.48 .19 -.49 .19 -.48 .19 -.48 .2 -.49 .19 -.48 .19 -.49 .19 -.48 .19 -.49 .2 -.48 0 -.01 .2 -.49 .19 -.48 .2 -.48 .39 -.96 .19 -.48 .19 -.49 0 -.01 .2 -.48 .19 -.48 .2 -.48 .18 -.45 -.03 0 -.39 -.03 -.08 -.01 -.39 -.05 -.08 -.01 -.39 -.07 -.11 -.02 -.38 -.1 -.04 -.01 -.39 -.11 -.13 -.04 -.37 -.14 -.05 -.02 -.37 -.15 -.09 -.05 -.35 -.17 -.08 -.05 -.35 -.2 -.05 -.02 -.33 -.21 -.12 -.08 -.31 -.24 -.04 -.03 -.31 -.25 -.08 -.07 -.29 -.27 -.06 -.06 -.28 -.28 -.04 -.05 -.27 -.3 -.08 -.1 -.24 -.31 -.02 -.04 -.16 -.22 -.22 .18 -.04 .03 -.31 .25 -.1 .07 -.34 .23 -.05 .03 -.34 .21 -.07 .04 -.36 .19 -.09 .05 -.37 .16 -.04 .02 -.37 .15 -.13 .05 -.38 .12 -.05 .01 -.39 .11 -.08 .02 -.4 .09 -.09 .01 -.4 .06 -.05 .01 -.39 .05 -.15 .01 -.4 0 -.04 0 -.4 0 -.11 0 -.4 -.03 -.07 -.01 -.4 -.05 -.07 -.01 -.4 -.07 -.11 -.02 -.39 -.1 -.04 -.01 -.38 -.11 -.14 -.05 -.37 -.14 -.04 -.02 -.37 -.15zM374.73 360.08l.04 -.04 -.05 -.12 -.21 -.45 -.02 -.06 -.1 -.23 -.02 -.05 -.08 -.23 -.09 -.24 0 -.01 -.09 -.23 -.03 -.1 -.21 -.72 -.02 -.07 -.06 -.25 -.01 -.04 -.05 -.24 -.05 -.25 0 -.02 -.05 -.25 -.01 -.09 -.04 -.25 -.06 -.49 -.01 -.09 -.02 -.25 0 -.03 -.01 -.25 -.02 -.25 0 -.03 -.01 -.25 0 -.08 .01 -.25 .01 -.5 .01 -.1 .02 -.25 0 -.02 .02 -.24 .03 -.25 0 -.05 .03 -.25 .01 -.07 .05 -.24 .04 -.25 .04 -.25 .02 -.11 .06 -.24 .01 0 .06 -.24 .06 -.25 .01 -.05 .07 -.24 .02 -.06 .08 -.24 .08 -.23 0 -.01 .08 -.23 .02 -.05 .17 -.46 .17 -.46 .17 -.46 .17 -.46 .17 -.46 .17 -.46 .17 -.46 .18 -.46 .16 -.46 .17 -.45 .17 -.47 .16 -.46 .17 -.46 .17 -.46 0 -.01 .17 -.46 .17 -.46 .17 -.46 .17 -.46 .16 -.46 .34 -.92 .17 -.47 .17 -.46 .17 -.45 .16 -.46 .17 -.47 .16 -.46 .17 -.46 .17 -.46 .33 -.92 .17 -.47 .16 -.46 .01 0 .16 -.46 .34 -.93 .17 -.46 .17 -.45 .16 -.45 .16 -.46 0 -.01 .16 -.46 .17 -.46 .16 -.47 .16 -.45 .16 -.45 .31 -.92 0 -.01 .15 -.46 .16 -.47 .16 -.45 .14 -.45 .3 -.93 .04 -.13 -.13 -.12 -.06 -.06 -.27 -.28 -.04 -.05 -.26 -.3 -.08 -.1 -.23 -.31 -.03 -.04 -.1 -.14 -.14 .12 -.03 .03 -.31 .25 -.1 .08 -.32 .23 -.06 .03 -.33 .21 -.07 .05 -.35 .19 -.1 .05 -.35 .17 -.04 .02 -.37 .15 -.13 .05 -.37 .13 -.05 .01 -.38 .11 -.09 .03 -.39 .08 -.1 .02 -.39 .06 -.04 .01 -.39 .05 -.15 .01 -.39 .01 -.05 0 -.39 .01 -.12 -.01 -.39 -.03 -.08 0 -.39 -.05 -.07 -.01 -.39 -.07 -.11 -.02 -.39 -.1 -.04 -.01 -.38 -.1 -.14 -.05 -.36 -.14 -.05 -.02 -.36 -.15 -.09 -.04 -.36 -.18 -.08 -.04 -.34 -.2 -.05 -.03 -.33 -.21 -.12 -.08 -.31 -.23 -.04 -.03 -.3 -.25 -.09 -.07 -.29 -.27 -.06 -.06 -.27 -.28 -.04 -.05 -.26 -.3 -.09 -.1 -.23 -.31 -.03 -.04 -.13 -.19 -.18 .16 -.04 .03 -.31 .25 -.1 .08 -.33 .22 -.05 .04 -.34 .21 -.07 .04 -.35 .19 -.1 .05 -.36 .16 -.04 .02 -.22 .09 -.11 .29 -.19 .47 -.38 .97 0 .01 -.2 .49 -.19 .48 -.2 .48 -.19 .48 -.19 .48 -.19 .48 -.01 .01 -.39 .97 -.19 .48 -.2 .49 -.19 .47 -.19 .48 -.2 .49 -.19 .48 -.19 .49 -.19 .48 -.19 .49 -.2 .48 -.19 .49 -.19 .48 -.19 .48 -.19 .49 -.19 .48 -.39 .98 -.19 .48 -.19 .49 -.19 .48 -.19 .48 -.19 .48 -.57 1.46 0 .01 -.19 .48 0 .01 -.19 .48 -.19 .49 -.2 .48 -.18 .48 -.19 .49 -.19 .48 -.19 .49 0 .01 -.2 .48 0 .01 -.19 .48 -.19 .49 -.39 .96 -.19 .49 -.19 .48 -.18 .46 -.07 .21 -.15 .44 -.06 .18 -.12 .45 -.05 .19 -.03 .19 -.08 .45 -.03 .19 -.02 .23 -.03 .23 -.02 .19 0 .21 -.01 .24 0 .21 0 .19 .01 .23 .02 .23 .01 .19 .03 .21 .03 .25 .02 .19 .04 .19 .05 .24 .04 .22 .05 .18 .13 .45 .05 .18 .07 .18 .08 .23 .08 .21 .07 .17 .1 .2 .1 .22 .08 .18 .34 .6 .09 .16 .12 .18 .13 .2 .13 .2 .11 .16 .13 .17 .15 .19 .14 .18 .12 .15 .46 .51 .13 .14 .17 .16 .17 .18 .15 .14 .15 .13 .18 .16 .19 .16 .15 .12 .16 .12 .2 .15 .19 .14 .16 .11 .17 .11 .21 .13 .2 .13 .17 .1 .18 .1 .22 .12 .2 .1 .18 .09 .19 .09 .23 .1 .2 .09 .18 .07 .44 .16 .19 .06 .18 .05 .24 .07 .22 .06 .18 .04 .21 .04 .24 .05 .2 .04 .19 .02 .24 .03 .23 .03 .19 .01 .46 .02 .2 .01 .19 -.01 .24 -.01 .23 -.01 .19 -.01 .46 -.05 .2 -.02 .19 -.03 .23 -.05 .23 -.04 .19 -.04 .19 -.06 .24 -.06 .21 -.06 .18 -.06 .21 -.08 .23 -.08 .18 -.06 .18 -.08 .23 -.11 .19 -.08 .17 -.09 .42 -.22 .17 -.1 .17 -.1 .42 -.27 .18 -.12 .16 -.11 .19 -.14 .39 -.29 .16 -.12 .35 -.29 .19 -.16 .16 -.14 .14 -.14zM386.1 327.02l-.31 -.11 -.1 .3 0 .01 -.15 .46 -.01 .03 -.15 .46 -.16 .46 -.15 .46 -.32 .93 0 .01 -.16 .46 0 .02 -.17 .46 -.16 .46 -.17 .47 -.16 .45 -.16 .46 0 .01 -.17 .46 0 .02 -.17 .46 -.17 .46 -.33 .92 -.17 .46 -.17 .46 -.16 .46 -.34 .92 -.16 .46 -.17 .46 -.17 .47 -.16 .46 -.17 .46 -.17 .47 -.17 .46 -.17 .46 -.33 .92 -.17 .46 -.17 .47 -.17 .46 -.17 .46 -.17 .46 -.16 .46 -.17 .46 -.17 .46 -.17 .46 -.16 .46 -.01 .01 -.17 .46 0 .01 -.17 .46 -.17 .46 -.17 .46 -.17 .46 -.17 .46 -.17 .46 -.17 .46 -.01 .01 -.16 .43 -.07 .21 -.08 .24 -.07 .21 -.05 .18 -.06 .21 -.06 .24 -.04 .19 -.04 .19 -.04 .24 -.04 .22 -.02 .19 -.02 .22 -.03 .24 -.01 .19 -.01 .45 -.01 .21 .01 .19 .01 .24 .02 .23 .01 .19 .06 .45 .02 .2 .04 .19 .05 .24 .05 .22 .04 .19 .18 .63 .07 .18 .08 .23 .08 .21 .07 .17 .2 .43 .08 .18 .09 .16 .24 .44 .09 .16 .25 .38 .13 .2 .11 .16 .12 .16 .15 .2 .14 .18 .12 .15 .15 .16 .16 .19 .15 .17 .13 .14 .49 .48 .15 .12 .17 .15 .35 .3 .15 .11 .4 .29 .16 .12 .16 .1 .21 .13 .21 .13 .16 .1 .18 .09 .22 .12 .21 .11 .17 .09 .19 .08 .23 .1 .21 .09 .18 .07 .2 .07 .23 .08 .2 .07 .18 .05 .23 .07 .23 .06 .18 .04 .45 .09 .21 .03 .19 .03 .46 .05 .2 .02 .19 .01 .25 0 .22 .01 .19 0 .23 -.01 .24 -.01 .19 -.01 .45 -.05 .21 -.03 .19 -.03 .22 -.04 .24 -.05 .19 -.04 .19 -.05 .24 -.06 .21 -.06 .18 -.06 .21 -.08 .24 -.08 .18 -.06 .17 -.08 .23 -.1 .2 -.09 .17 -.09 .19 -.1 .22 -.12 .18 -.1 .16 -.1 .4 -.25 .25 -.64 .36 -.93 .35 -.94 .36 -.94 .35 -.92 .35 -.94 .34 -.94 .34 -.94 .34 -.94 .33 -.94 .33 -.95 .33 -.94 .32 -.94 .32 -.95 .63 -1.91 .32 -.95 .64 -1.91 .31 -.94 .31 -.95 .31 -.96 .92 -2.87 .31 -.95 .3 -.95 .3 -.95 .57 -1.9 .27 -.95 .52 -1.92 .25 -.95 .23 -.97 .24 -.96 .21 -.96 .1 -.44 -.06 .03 -.05 .02 -.36 .15 -.1 .04 -.37 .13 -.1 .03 -.39 .1 -.05 .02 -.38 .09 -.15 .03 -.39 .05 -.06 .01 -.4 .04 -.09 0 -.4 .02 -.11 0 -.39 -.01 -.05 -.01 -.4 -.02 -.15 -.02 -.39 -.06 -.05 -.01 -.39 -.08 -.11 -.02 -.38 -.11 -.09 -.02 -.38 -.13 -.05 -.02 -.37 -.14 -.14 -.06 -.35 -.18 -.05 -.02 -.35 -.19 -.09 -.05 -.34 -.21 -.08 -.06 -.32 -.23 -.04 -.03 -.32 -.25 -.11 -.1 -.29 -.27 -.04 -.04 -.28 -.28 -.07 -.07 -.26 -.3 -.06 -.08 -.24 -.32 -.03 -.04 -.11 -.15 -.09 .08 -.03 .03 -.3 .25 -.11 .08 -.31 .23 -.06 .04 -.33 .21 -.07 .04 -.34 .2 -.1 .05 -.35 .17 -.04 .02 -.36 .16 -.13 .05 -.37 .12 -.05 .02 -.38 .11 -.09 .03 -.38 .09 -.1 .02 -.39 .06 -.04 .01 -.39 .05 -.15 .01 -.39 .02 -.04 0 -.39 0 -.12 0 -.39 -.03 -.08 -.01 -.38 -.04 -.08 -.01 -.39 -.07 -.11 -.02 -.38 -.1 -.04 -.01 -.38 -.1z" fill="#fff"/><line x1="270" y1="420.0" x2="270" y2="560.0" stroke="#e9a" stroke-width="0.35"/><line x1="280" y1="420.0" x2="280" y2="560.0" stroke="#e9a" stroke-width="0.35"/><line x1="290" y1="420.0" x2="290" y2="560.0" stroke="#e9a" stroke-width="0.35"/><line x1="300" y1="420.0" x2="300" y2="560.0" stroke="#c33" stroke-width="0.6"/><text x="300.8" y="425.0" font-size="4.5" fill="#c33">300</text><line x1="310" y1="420.0" x2="310" y2="560.0" stroke="#e9a" stroke-width="0.35"/><line x1="320" y1="420.0" x2="320" y2="560.0" stroke="#e9a" stroke-width="0.35"/><line x1="330" y1="420.0" x2="330" y2="560.0" stroke="#e9a" stroke-width="0.35"/><line x1="340" y1="420.0" x2="340" y2="560.0" stroke="#e9a" stroke-width="0.35"/><line x1="350" y1="420.0" x2="350" y2="560.0" stroke="#c33" stroke-width="0.6"/><text x="350.8" y="425.0" font-size="4.5" fill="#c33">350</text><line x1="360" y1="420.0" x2="360" y2="560.0" stroke="#e9a" stroke-width="0.35"/><line x1="370" y1="420.0" x2="370" y2="560.0" stroke="#e9a" stroke-width="0.35"/><line x1="270.0" y1="420" x2="370.0" y2="420" stroke="#e9a" stroke-width="0.35"/><line x1="270.0" y1="430" x2="370.0" y2="430" stroke="#e9a" stroke-width="0.35"/><line x1="270.0" y1="440" x2="370.0" y2="440" stroke="#e9a" stroke-width="0.35"/><line x1="270.0" y1="450" x2="370.0" y2="450" stroke="#c33" stroke-width="0.6"/><text x="271.0" y="449.2" font-size="4.5" fill="#c33">450</text><line x1="270.0" y1="460" x2="370.0" y2="460" stroke="#e9a" stroke-width="0.35"/><line x1="270.0" y1="470" x2="370.0" y2="470" stroke="#e9a" stroke-width="0.35"/><line x1="270.0" y1="480" x2="370.0" y2="480" stroke="#e9a" stroke-width="0.35"/><line x1="270.0" y1="490" x2="370.0" y2="490" stroke="#e9a" stroke-width="0.35"/><line x1="270.0" y1="500" x2="370.0" y2="500" stroke="#c33" stroke-width="0.6"/><text x="271.0" y="499.2" font-size="4.5" fill="#c33">500</text><line x1="270.0" y1="510" x2="370.0" y2="510" stroke="#e9a" stroke-width="0.35"/><line x1="270.0" y1="520" x2="370.0" y2="520" stroke="#e9a" stroke-width="0.35"/><line x1="270.0" y1="530" x2="370.0" y2="530" stroke="#e9a" stroke-width="0.35"/><line x1="270.0" y1="540" x2="370.0" y2="540" stroke="#e9a" stroke-width="0.35"/><line x1="270.0" y1="550" x2="370.0" y2="550" stroke="#c33" stroke-width="0.6"/><text x="271.0" y="549.2" font-size="4.5" fill="#c33">550</text><line x1="270.0" y1="560" x2="370.0" y2="560" stroke="#e9a" stroke-width="0.35"/></svg>