<svg xmlns="http://www.w3.org/2000/svg" viewBox="0 0 750 1050" width="750" height="1050"><rect width="750" height="1050" fill="#F4EFE3"/><path d="M411.88 150.98l.1 3.93 -.03 1.21 .38 .52 .66 1.23 .46 1.31 .27 1.35 .06 1.36 -.14 1.36 -.34 1.34 -.54 1.28 -.57 1.36 -.35 1.4 -.14 1.43 .06 1.42 .27 1.4 .47 1.35 .67 1.28 .87 1.18 1.59 2.04 1.4 2.16 1.2 2.27 .99 2.38 .78 2.46 1 3.96 .89 3.99 .78 4.01 1.12 6.03 1.21 6.01 2.58 11.99 1.27 5.99 1.15 6.02 1.16 6.48 1.11 6.48 .97 6.51 .76 6.53 .46 5.32 .35 5.33 .24 5.33 .12 5.34 -.02 5.34 -.15 5.34 -.3 5.71 -.44 5.69 -.58 5.68 -.73 5.67 -.89 5.64 -1.06 5.61 -1.26 5.78 -1.42 5.74 -1.59 5.69 -1.75 5.65 -1.91 5.6 -2.07 5.54 -1.79 4.4 -1.93 4.35 -2.05 4.29 -2.18 4.22 -9.05 16.74 -4.53 8.13 -4.68 8.04 -4.82 7.96 -4.97 7.87 -7.19 11.23 -2.46 3.7 -2.6 3.59 -2.75 3.48 -4.57 5.49 -4.63 5.44 -1.92 2.09 -2.04 1.96 -2.17 1.82 -2.28 1.67 -2.39 1.53 -2.94 1.64 -3.02 1.49 -3.09 1.32 -3.16 1.16 -3.22 1 -2.71 .66 -1.67 .3 -.13 3.77 -.16 4.26 -.16 4.26 -.18 4.25 -.19 4.26 -.21 4.25 -.22 4.25 -.23 4.24 -.26 4.25 -.27 4.24 -.3 4.24 -.31 4.23 -.34 4.24 -.36 4.22 -.39 4.23 -.41 4.22 -.44 4.22 -.46 4.22 -.48 4.21 -.52 4.21 -.54 4.2 -.56 4.2 -.59 4.2 -.59 4.19 -.59 4.2 -.59 4.2 -.59 4.2 -.59 4.19 -.59 4.2 -.59 4.2 -.59 4.19 -.59 4.2 -.59 4.2 .21 2.04 .07 2.02 -.05 1.96 -.17 1.92 -.31 1.84 -.42 1.76 -.55 1.67 -.66 1.57 -.78 1.45 -.89 1.33 -.99 1.2 -1.08 1.06 -1.18 .91 -1.25 .76 -1.33 .61 -1.39 .44 -1.45 .28 -1.49 .11 -1.53 -.05 -1.56 -.22 -1.58 -.38 -1.58 -.55 -1.57 -.7 -1.56 -.86 -1.54 -1.01 -1.5 -1.15 -1.46 -1.28 -1.41 -1.41 -1.34 -1.52 -1.27 -1.64 -1.19 -1.73 -1.11 -1.81 -1.01 -1.89 -.91 -1.95 -.8 -2 -.69 -2.03 -.57 -2.06 -.46 -2.07 -.33 -2.06 .75 -4.17 .37 -2.07 .38 -2.11 .35 -1.93 .02 -.09 .38 -2.15 .12 -.67 .21 -1.13 .35 -1.96 .07 -.42 .07 -.38 .07 -.36 .16 -.92 .38 -2.11 -.17 .1 -1.39 .65 -1.4 .55 -1.4 .42 -1.39 .31 -1.37 .19 -1.34 .07 -1.31 -.06 -1.27 -.18 -1.21 -.3 -1.15 -.41 -1.08 -.54 -1.01 -.64 -.93 -.76 -.85 -.85 -.74 -.96 -.66 -1.05 -.54 -1.13 -.45 -1.21 -.34 -1.28 -.22 -1.34 -.11 -1.4 -.01 -1.44 .12 -1.47 .22 -1.5 .33 -1.51 .44 -1.52 .55 -1.51 .67 -3.4 .68 -3.39 .71 -3.39 .74 -3.39 .75 -3.38 .78 -3.38 .8 -3.38 .82 -3.37 .84 -3.38 .86 -3.36 .88 -3.37 .9 -3.36 .91 -3.37 .94 -3.35 .95 -3.36 .97 -3.35 .98 -3.36 1 -3.34 1.02 -3.35 1.02 -3.35 1.05 -3.34 1.05 -3.34 1.06 -3.34 1.08 -3.34 1.09 -3.34 1.09 -3.33 1.1 -3.34 1.11 -3.33 1.12 -3.34 1.12 -3.33 .91 -2.68 -.95 -.91 -1.46 -1.67 -1.32 -1.8 -1.17 -1.92 -.92 -1.88 -.71 -1.95 -.5 -2 -.3 -2.03 -.1 -2.05 .12 -2.05 .32 -2.04 .53 -2 .74 -1.96 1.51 -3.69 1.34 -3.76 1.17 -3.82 .99 -3.86 .81 -3.91 1.46 -7.59 1.61 -7.55 1.75 -7.53 1.9 -7.49 2.06 -7.44 2.22 -7.4 2.18 -6.78 2.29 -6.75 2.41 -6.71 2.55 -6.65 2.7 -6.59 2.87 -6.52 2.71 -5.82 2.81 -5.76 2.92 -5.72 3.05 -5.64 3.19 -5.57 3.32 -5.49 3.09 -4.84 3.18 -4.77 3.29 -4.71 3.38 -4.63 3.48 -4.56 3.58 -4.49 2.93 -3.42 3.1 -3.27 3.26 -3.1 2.42 -2.34 2.26 -2.49 2.1 -2.62 1.93 -2.76 2.67 -4.29 2.49 -4.4 1.49 -3.02 1.28 -3.11 1.07 -3.18 .76 -2.91 .56 -2.96 .36 -2.99 .16 -3.01 .16 -12.13 -.01 -6.03 -.15 -6.02 -.25 -4 -.45 -3.99 -.64 -3.96 -.52 -2.22 -.71 -2.17 -.46 -1.44 -.28 -1.48 -.11 -1.51 .07 -1.79 .28 -1.77 .48 -1.73 .68 -1.66 3.17 -6.58 .87 -1.62 .98 -1.55 1.1 -1.47 1.08 -1.48 .88 -1.53 .17 -1.74 .6 -3.88 .81 -3.85 1.02 -3.8 1.23 -3.74 2.15 -6.24 1.99 -6.29 1.84 -6.34 2.19 -8.06 2.15 -8.08 1.48 -5.36 1.61 -5.33 1.75 -5.29 .05 8.33 .16 8.33 .18 8.33 .15 8.33 .19 6.58 .36 6.58 .52 6.57zM283.19 606.85l.27 .21 .1 .07 .49 .33 .11 .06 .51 .29 .11 .06 .52 .23 .13 .05 .52 .18 .14 .04 .53 .13 .15 .03 .52 .07 .16 .01 .52 .02 .16 0 .51 -.04 .17 -.02 .49 -.09 .17 -.03 .48 -.15 .16 -.06 .47 -.19 .15 -.08 .45 -.24 .14 -.09 .42 -.3 .13 -.1 .39 -.34 .11 -.11 .37 -.39 .09 -.11 .34 -.44 .08 -.11 .3 -.48 .07 -.11 .26 -.51 .05 -.12 .23 -.54 .04 -.12 .19 -.57 .04 -.12 .14 -.6 .03 -.11 .11 -.62 .01 -.1 .07 -.65 0 -.1 .03 -.66 0 -.1 -.02 -.52 .63 -3.75 .65 -3.9 .65 -3.9 .64 -3.9 .65 -3.9 .65 -3.91 .65 -3.9 .65 -3.9 .64 -3.9 .64 -3.91 .63 -3.9 0 -.01 .62 -3.9 .61 -3.91 .01 0 .6 -3.91 .6 -3.91 0 -.01 .59 -3.9 0 -.01 .58 -3.91 .58 -3.91 .57 -3.92 .56 -3.91 .56 -3.92 .55 -3.92 .55 -3.91 0 -.01 .53 -3.91 .01 0 .53 -3.92 .53 -3.92 .52 -3.92 .52 -3.92 .52 -3.92 .52 -3.92 .48 -3.7 1.03 .19 .08 .02 3.66 .49 .1 .01 1.07 .08 -.2 2.32 -.35 4.09 -.35 4.09 -.37 4.09 -.37 4.09 -.38 4.08 -.39 4.09 -.4 4.08 -.41 4.08 -.43 4.08 -.43 4.08 -.45 4.08 -.47 4.07 -.48 4.07 -.49 4.07 -.51 4.06 -.52 4.07 -.54 4.06 -.56 4.06 -.57 4.06 -.59 4.05 -.6 4.05 -.63 4.06 -.62 4.05 -.62 4.06 -.63 4.06 -.62 4.05 -.62 4.06 -.63 4.05 -.62 4.06 -.62 4.06 -.63 4.05 -.01 .34 .08 1.27 0 1.21 -.08 1.17 -.14 1.13 -.23 1.08 -.29 1.02 -.36 .97 -.42 .89 -.47 .82 -.53 .73 -.58 .66 -.62 .57 -.66 .49 -.7 .4 -.72 .32 -.76 .23 -.79 .15 -.82 .06 -.85 -.03 -.86 -.12 -.88 -.22 -.9 -.3 -.9 -.41 -.9 -.49 -.89 -.59 -.87 -.68 -.85 -.76 -.43 -.44 -.23 -.19 -.27 -.15 -.29 -.09 -.3 -.03 -.3 .02 -.29 .09 -.27 .14 -.24 .19 -.2 .23 -.14 .27 -.09 .29 -.04 .3 .03 .3 .08 .29 .14 .27 .19 .24 .47 .48 .07 .07 .93 .83 .09 .07 .96 .75 .1 .06 .99 .66 .1 .06 1.01 .56 .11 .06 1.03 .45 .12 .05 1.03 .36 .14 .04 1.03 .25 .15 .03 1.02 .14 .16 .02 1.01 .03 .17 0 .99 -.07 .17 -.02 .96 -.18 .17 -.05 .93 -.28 .17 -.06 .89 -.39 .15 -.08 .85 -.49 .14 -.1 .8 -.59 .13 -.1 .74 -.69 .11 -.11 .68 -.78 .1 -.12 .62 -.86 .08 -.12 .55 -.94 .06 -.12 .48 -1.01 .05 -.12 .4 -1.08 .04 -.12 .32 -1.14 .03 -.11 .24 -1.19 .02 -.11 .16 -1.24 .02 -.1 .08 -1.28 0 -.1 0 -1.3 -.01 -.1 -.07 -1.15 .6 -3.89 .62 -4.06 .63 -4.05 .62 -4.06 .62 -4.06 .63 -4.05 .62 -4.06 .62 -4.06 .63 -4.05 .62 -4.06 .61 -4.06 0 -.01 .59 -4.06 0 -.01 .57 -4.06 0 -.01 .56 -4.06 0 -.01 .54 -4.07 .53 -4.07 0 -.01 .51 -4.07 0 -.01 .49 -4.07 0 -.01 .48 -4.07 0 -.01 .47 -4.08 .45 -4.08 0 -.01 .44 -4.08 .42 -4.09 .41 -4.09 .41 -4.09 .39 -4.09 0 -.01 .38 -4.09 .37 -4.09 0 -.01 .37 -4.09 .35 -4.09 0 -.01 .35 -4.09 .21 -2.44 1.49 .02 .1 -.01 1.4 -.07 .3 -.05 .29 -.1 .26 -.16 .22 -.2 .18 -.25 .13 -.27 .07 -.3 .02 -.3 -.05 -.3 -.1 -.29 -.16 -.26 -.21 -.22 -.24 -.18 -.28 -.13 -.29 -.07 -.3 -.02 -1.35 .07 -2.69 -.02 -2.69 -.2 -3.58 -.48 -3.54 -.67 -3.5 -.87 -3.45 -1.05 -.28 -.1 1.49 -1.55 .27 -.28 0 -.01 2.34 -2.46 .29 -.3 2.3 -2.46 .3 -.32 2.27 -2.46 .3 -.33 2.24 -2.46 .01 -.01 .3 -.33 2.21 -2.47 .01 0 .3 -.34 0 -.01 2.19 -2.47 0 -.01 .3 -.34 .01 0 2.17 -2.49 0 -.01 .29 -.34 .01 0 2.15 -2.51 .29 -.34 2.14 -2.53 .27 -.33 .01 0 2.13 -2.56 .26 -.31 0 -.01 2.12 -2.58 .01 -.01 .24 -.29 0 -.01 2.12 -2.62 .22 -.27 0 -.01 1.54 -1.92 0 -.01 .03 -.03 .91 -1.14 0 -.01 1.13 -1.44 1.13 -1.44 1.12 -1.45 1.12 -1.45 1.11 -1.45 0 -.01 1.1 -1.45 .01 -.01 .84 -1.11 0 -.01 .83 -1.11 .39 -.52 .01 0 1.18 -1.59 .02 -.04 .01 0 1.19 -1.63 .01 -.01 .38 -.52 .82 -1.12 .44 -.61 .77 -1.06 0 -.01 .44 -.6 0 -.01 .81 -1.12 .37 -.53 .01 0 1.16 -1.63 .01 -.02 1.16 -1.65 .01 -.01 .37 -.53 .79 -1.13 0 -.01 .43 -.61 .74 -1.08 .01 0 .42 -.61 0 -.01 .78 -1.14 .37 -.53 1.14 -1.67 0 -.01 1.13 -1.66 0 -.01 .36 -.54 .77 -1.14 0 -.01 .41 -.62 .01 0 .72 -1.09 .41 -.62 .76 -1.16 .35 -.54 .01 0 1.1 -1.68 0 -.01 .02 -.03 1.07 -1.66 .01 0 .35 -.55 .74 -1.16 .4 -.63 .01 0 .7 -1.1 .4 -.63 .74 -1.18 .34 -.53 0 -.01 1.07 -1.7 0 -.01 .03 -.05 1.03 -1.65 0 -.01 .35 -.55 .72 -1.17 .39 -.64 .68 -1.11 0 -.01 .39 -.63 .72 -1.19 .33 -.54 1.04 -1.72 0 -.01 .04 -.07 .99 -1.65 0 -.01 .34 -.56 .7 -1.18 .38 -.64 .66 -1.13 .38 -.64 .7 -1.2 .32 -.54 0 -.01 1.01 -1.73 0 -.01 .05 -.09 .95 -1.65 .01 0 .32 -.57 .68 -1.19 .37 -.65 .65 -1.13 0 -.01 .36 -.64 .01 0 .68 -1.21 .31 -.55 .98 -1.75 0 -.01 .07 -.11 .91 -1.64 0 -.01 .32 -.57 .66 -1.2 .01 0 .36 -.65 0 -.01 .63 -1.14 .35 -.65 .67 -1.22 .3 -.55 .96 -1.77 .08 -.13 .88 -1.64 .31 -.59 .65 -1.2 .35 -.66 .62 -1.15 .35 -.65 .65 -1.24 .3 -.55 .93 -1.78 .01 0 0 -.01 .01 -.03 .02 -.02 .8 -1.52 .84 -1.61 .84 -1.6 .83 -1.61 .83 -1.61 .83 -1.61 .01 0 .82 -1.61 .19 -.36 .01 -.03 .02 -.03 .61 -1.19 .82 -1.62 .82 -1.61 .82 -1.62 .82 -1.61 0 -.01 .81 -1.61 .82 -1.62 .81 -1.62 .81 -1.62 .81 -1.62 .8 -1.62 .81 -1.63 .8 -1.62 .81 -1.62 .8 -1.63 .8 -1.62 .8 -1.63 .8 -1.62 .8 -1.63 .8 -1.63 .79 -1.62 .8 -1.63 .8 -1.63 .79 -1.63 .1 -.27 .05 -.29 0 -.29 -.06 -.28 -.11 -.27 -.16 -.25 -.21 -.21 -.24 -.16 -1.03 -.59 -1.2 -.8 -.21 -.14 -.21 -.14 -.04 -.02 -.21 -.13 0 -.01 -.21 -.13 -.43 -.26 -.21 -.13 -.43 -.26 -.21 -.14 -.04 -.02 -.21 -.12 -.01 -.01 -.43 -.25 -.22 -.12 -.21 -.12 -.22 -.13 -.22 -.12 -.21 -.13 -.04 -.02 -.22 -.12 -.01 0 -.22 -.12 -.22 -.11 -.44 -.24 -.22 -.12 -.22 -.11 -.22 -.12 -.03 -.02 -.23 -.11 -.01 0 -.22 -.11 -.22 -.11 -.23 -.11 -.22 -.11 -.23 -.11 -.22 -.11 -.22 -.11 -.04 -.02 -.22 -.1 -.02 -.01 -.23 -.1 -.22 -.1 -.23 -.11 -.23 -.1 -.23 -.1 -.22 -.1 -.23 -.11 -.03 -.01 -.22 -.1 -.02 0 -.23 -.1 -.23 -.09 -.23 -.1 -.23 -.1 -.23 -.09 -.23 -.1 -.23 -.09 -.23 -.1 -.23 -.1 -.46 -.19 -.02 0 -.23 -.1 -.02 0 -.23 -.1 -.23 -.09 -.47 -.18 -.23 -.09 -.23 -.09 -.23 -.09 -.24 -.09 -.23 -.09 -.23 -.09 -.23 -.09 -.01 -.01 -.24 -.09 -.02 0 -.7 -.26 -.24 -.09 -.23 -.08 -.23 -.09 -.71 -.26 -.23 -.08 -.24 -.09 -.24 -.08 -.02 -.01 -.24 -.08 -.24 -.08 -.23 -.08 -.47 -.16 -.24 -.08 -.24 -.08 -.23 -.09 -.24 -.08 -.24 -.08 -.23 -.08 -.01 0 -.23 -.08 -.04 -.01 -.47 -.15 -.24 -.07 -.48 -.15 -.24 -.07 -.23 -.08 -.24 -.07 -.24 -.08 -.24 -.07 -.04 -.01 -.24 -.07 -.24 -.07 -.24 -.06 -.24 -.07 -.25 -.07 -.24 -.07 -.24 -.06 -.24 -.07 -.48 -.13 -.03 -.01 -.25 -.06 0 -.01 -.25 -.06 -.24 -.06 -.24 -.06 -.24 -.06 -.24 -.06 -.25 -.06 -.24 -.06 -.24 -.06 -.24 -.06 -.04 0 -.24 -.06 -.01 0 -.73 -.16 -.25 -.05 -.73 -.16 -.24 -.05 -.25 -.05 -.02 -.01 -.25 -.05 -.02 0 -.24 -.05 -.25 -.04 -.24 -.05 -.25 -.04 -.24 -.05 -.25 -.04 -.24 -.05 -.25 -.05 -.25 -.04 -.01 0 -.24 -.05 -.02 0 -.5 -.08 -.24 -.04 -.25 -.04 -.25 -.04 -.49 -.08 -.24 -.04 -.5 -.08 -.24 -.04 -.5 -.08 -.24 -.04 -.25 -.04 -.25 -.04 -.01 0 -.24 -.04 -.01 0 -.25 -.04 -.25 -.03 -.24 -.04 -.99 -.15 -.25 -.03 -1.48 -.22 -.25 -.04 -.24 -.03 -.01 -.01 -.25 -.03 -.01 0 -1.24 -.17 -.25 -.03 -.24 -.03 -.99 -.13 -.25 -.04 -.49 -.06 -.25 -.04 -.25 -.03 -.01 0 -.25 -.03 -.01 0 -.25 -.03 -.25 -.03 -.25 -.03 -.74 -.09 -.25 -.03 -.74 -.08 -.03 -.01 -.24 -.02 -.01 0 -.25 -.02 -.25 -.03 -.49 -.05 -.25 -.02 -.75 -.07 -.24 -.03 -.01 0 -.24 -.02 -.03 0 -.02 0 -.3 0 -.3 .07 -.27 .12 -.25 .17 -.21 .22 -.17 .26 -.11 .28 -.05 .3 .01 .31 .06 .29 .12 .28 .18 .25 .22 .21 .25 .16 .29 .11 .28 .05 0 .01 .25 .02 .25 .02 .74 .07 .25 .03 .5 .05 .24 .02 .25 .02 .23 .03 .73 .08 .25 .03 .75 .09 .24 .03 .25 .03 .24 .02 .24 .03 .24 .04 .25 .03 .49 .06 .25 .04 .99 .13 .24 .03 .25 .04 1.23 .16 .24 .03 .24 .04 .25 .04 1.48 .21 .25 .04 .98 .15 .25 .03 .25 .04 .24 .04 .23 .03 .24 .04 .25 .04 .25 .04 .49 .08 .25 .04 .49 .08 .24 .04 .5 .08 .24 .04 .25 .04 .25 .04 .48 .08 .23 .04 .24 .04 .24 .05 .25 .04 .24 .05 .25 .04 .24 .05 .25 .05 .24 .04 .24 .04 .22 .05 .23 .05 .25 .05 .73 .16 .24 .05 .73 .16 .22 .05 .22 .05 .25 .06 .24 .06 .24 .06 .24 .06 .25 .06 .24 .06 .24 .06 .24 .06 .22 .06 .46 .13 .24 .06 .24 .07 .24 .07 .24 .06 .24 .07 .24 .07 .24 .07 .22 .06 .22 .06 .24 .08 .23 .07 .24 .08 .24 .07 .48 .15 .24 .07 .45 .15 .22 .07 .24 .08 .23 .08 .24 .08 .23 .08 .24 .08 .24 .08 .47 .16 .24 .08 .23 .08 .23 .08 .21 .08 .23 .08 .24 .09 .7 .25 .24 .09 .23 .08 .24 .09 .69 .25 .22 .09 .22 .08 .23 .1 .24 .09 .23 .09 .23 .09 .23 .09 .24 .09 .46 .18 .23 .09 .23 .09 .21 .09 .46 .19 .23 .09 .23 .1 .23 .09 .23 .1 .23 .1 .23 .09 .23 .1 .23 .09 .22 .1 .21 .09 .22 .09 .22 .11 .23 .1 .23 .1 .23 .1 .22 .11 .22 .09 .21 .1 .2 .1 .23 .11 .22 .11 .23 .11 .22 .11 .23 .11 .21 .11 .2 .1 .21 .1 .22 .12 .22 .12 .44 .23 .22 .12 .22 .12 .19 .1 .2 .12 .22 .12 .21 .12 .22 .13 .22 .12 .43 .25 .19 .11 .19 .12 .43 .26 .21 .14 .42 .26 .22 .13 .19 .12 .18 .12 .21 .14 1.16 .77 -.16 .33 -.79 1.63 -.8 1.62 -.8 1.63 -.8 1.62 -.79 1.63 -.8 1.62 -.8 1.63 -.8 1.62 -.8 1.62 -.8 1.62 -.81 1.63 -.8 1.62 -.81 1.62 -.81 1.61 -.8 1.62 -.81 1.62 -.82 1.61 -.81 1.62 -.82 1.61 -.81 1.62 -.82 1.61 -.82 1.61 -.25 .47 -.11 .01 -.28 0 -.3 -.02 -.29 -.03 -.28 -.06 -.3 -.08 -.27 -.09 -.27 -.12 -.27 -.13 -.24 -.15 -.26 -.18 -.23 -.17 -.21 -.19 -.22 -.22 -.18 -.22 -.18 -.25 -.16 -.24 -.13 -.25 -.14 -.29 -.1 -.26 -.08 -.27 -.08 -.3 -.04 -.28 -.03 -.31 -.02 -.37 -.05 -.3 -.1 -.28 -.15 -.25 -.2 -.23 -.23 -.18 -.27 -.13 -.29 -.08 -.3 -.02 -.29 .04 -.29 .09 -.26 .14 -.22 .2 -.19 .23 -.21 .31 -.18 .25 -.18 .22 -.21 .22 -.21 .2 -.23 .17 -.25 .18 -.25 .15 -.26 .13 -.28 .12 -.26 .09 -.3 .08 -.28 .07 -.28 .03 -.32 .02 -.28 .01 -.3 -.03 -.29 -.03 -.28 -.06 -.3 -.08 -.27 -.09 -.27 -.12 -.27 -.13 -.24 -.14 -.26 -.18 -.23 -.17 -.21 -.2 -.22 -.22 -.18 -.22 -.18 -.24 -.16 -.25 -.13 -.25 -.14 -.28 -.1 -.26 -.08 -.28 -.08 -.3 -.04 -.28 -.03 -.31 -.02 -.37 -.05 -.29 -.1 -.28 -.15 -.26 -.2 -.22 -.23 -.18 -.27 -.13 -.29 -.08 -.3 -.02 -.29 .03 -.29 .09 -.26 .15 -.22 .19 -.19 .23 -.21 .31 -.18 .25 -.18 .22 -.21 .22 -.21 .2 -.23 .17 -.25 .18 -.25 .15 -.26 .13 -.28 .12 -.26 .1 -.3 .08 -.28 .06 -.28 .03 -.32 .03 -.28 0 -.3 -.02 -.29 -.04 -.28 -.06 -.3 -.08 -.27 -.09 -.27 -.12 -.27 -.13 -.24 -.14 -.26 -.18 -.23 -.17 -.21 -.2 -.22 -.22 -.18 -.21 -.18 -.25 -.16 -.25 -.13 -.24 -.14 -.29 -.1 -.26 -.08 -.28 -.08 -.3 -.04 -.28 -.03 -.31 -.02 -.37 -.05 -.29 -.1 -.28 -.15 -.26 -.2 -.22 -.23 -.18 -.27 -.13 -.29 -.08 -.3 -.02 -.29 .04 -.29 .09 -.26 .14 -.22 .19 -.19 .23 -.21 .31 -.18 .26 -.18 .21 -.21 .22 -.21 .2 -.23 .17 -.25 .18 -.25 .15 -.26 .13 -.28 .12 -.26 .1 -.3 .08 -.28 .06 -.28 .04 -.32 .02 -.28 0 -.3 -.02 -.29 -.04 -.28 -.05 -.3 -.09 -.27 -.09 -.27 -.11 -.27 -.14 -.24 -.14 -.26 -.18 -.23 -.17 -.21 -.19 -.21 -.23 -.19 -.21 -.18 -.25 -.16 -.24 -.13 -.25 -.13 -.29 -.11 -.26 -.08 -.28 -.07 -.29 -.05 -.28 -.03 -.31 -.02 -.37 -.05 -.3 -.1 -.28 -.15 -.25 -.2 -.23 -.23 -.18 -.27 -.13 -.29 -.08 -.3 -.02 -.29 .04 -.28 .09 -.27 .14 -.22 .2 -.19 .23 -.21 .31 -.18 .25 -.18 .22 -.21 .22 -.21 .2 -.23 .17 -.25 .18 -.24 .15 -.27 .13 -.28 .12 -.26 .09 -.3 .08 -.28 .07 -.28 .03 -.32 .02 -.28 .01 -.3 -.03 -.29 -.03 -.28 -.06 -.3 -.08 -.27 -.09 -.27 -.12 -.27 -.13 -.24 -.15 -.26 -.17 -.23 -.17 -.21 -.2 -.21 -.22 -.19 -.22 -.18 -.24 -.16 -.25 -.13 -.25 -.13 -.28 -.11 -.27 -.08 -.27 -.07 -.3 -.05 -.28 -.03 -.31 -.02 -.37 -.05 -.3 -.1 -.28 -.15 -.25 -.2 -.22 -.23 -.18 -.27 -.14 -.29 -.07 -.3 -.02 -.29 .03 -.28 .09 -.27 .15 -.22 .19 -.19 .23 -.21 .31 -.18 .25 -.18 .22 -.21 .22 -.21 .2 -.23 .17 -.25 .18 -.24 .15 -.27 .13 -.28 .12 -.26 .09 -.3 .09 -.28 .06 -.28 .03 -.32 .03 -.28 0 -.3 -.02 -.29 -.04 -.28 -.06 -.3 -.08 -.27 -.09 -.27 -.12 -.27 -.13 -.24 -.14 -.26 -.18 -.23 -.17 -.21 -.2 -.21 -.22 -.19 -.21 -.18 -.25 -.16 -.25 -.13 -.25 -.13 -.28 -.07 -.18 -.15 -.26 -.19 -.24 -.23 -.2 -.27 -.14 -.29 -.09 -.3 -.03 -.3 .02 -.29 .09 -.27 .14 -.24 .19 -.19 .24 -.15 .26 -.09 .29 -.03 .3 .03 .31 .08 .29 .09 .21 .03 .07 .16 .36 .04 .08 .19 .35 .08 .12 .22 .34 .03 .05 .24 .32 .07 .1 .26 .3 .08 .08 .27 .29 .05 .04 .29 .28 .12 .1 .32 .24 .06 .04 .01 .01 -2.26 3.99 -.02 .04 -.61 1.15 -.04 .08 -.54 1.17 -.04 .08 -.47 1.2 -.03 .08 -.4 1.21 -.02 .09 -.32 1.22 -.03 .09 -.24 1.21 -.02 .1 -.16 1.2 -.01 .1 -.08 1.18 -.01 .11 0 1.16 .01 .11 .08 1.13 .01 .11 .06 .38 -.06 .05 -.87 .69 -.89 .62 -.9 .54 -.9 .45 -.9 .37 -.89 .29 -.87 .19 -.85 .12 -.82 .02 -.79 -.05 -.75 -.13 -.43 -.13 -.3 -.05 -.3 0 -.3 .06 -.28 .12 -.25 .17 -.21 .22 -.17 .25 -.11 .28 -.06 .3 0 .3 .07 .3 .11 .28 .17 .25 .22 .22 .26 .16 .28 .12 .51 .15 .17 .04 .91 .16 .17 .02 .77 .05 -.69 1.22 -.76 1.33 -.76 1.34 -.75 1.33 -.76 1.33 -.76 1.34 -.76 1.33 -.75 1.33 -.02 .04 -.68 1.27 -.04 .07 -.61 1.3 -.03 .08 -.54 1.32 -.03 .07 -.47 1.33 -.02 .08 -.39 1.33 -.02 .09 -.31 1.32 -.02 .09 -.22 1.31 -.02 .1 -.14 1.28 -.01 .1 -.05 1.26 0 .11 .03 1.21 0 .11 .07 .66 -.36 .35 -.94 .81 -.96 .72 -.96 .63 -.96 .55 -.96 .44 -.93 .36 -.74 .21 -.29 .11 -.25 .16 -.22 .21 -.17 .25 -.13 .28 -.06 .3 -.01 .3 .06 .3 .11 .28 .16 .26 .21 .22 .25 .17 .28 .12 .3 .07 .3 0 .3 -.05 .8 -.23 .13 -.04 1.06 -.4 .11 -.04 1.06 -.5 .1 -.06 1.06 -.59 .09 -.06 .09 -.06 -.82 1.44 -.82 1.45 -.81 1.44 -2.46 4.33 -.82 1.44 -.82 1.45 -.82 1.44 -.13 .29 -.06 .31 0 .31 .21 2.29 .05 2.12 -.11 1.98 -.27 1.82 -.42 1.66 -.56 1.48 -.68 1.3 -.81 1.11 -.92 .93 -1.04 .75 -1.15 .59 -1.27 .41 -.49 .08 -.3 .08 -.27 .14 -.24 .19 -.2 .23 -.15 .26 -.09 .29 -.04 .3 .02 .3 .08 .29 .13 .28 .19 .24 .23 .2 .26 .15 .29 .09 .3 .04 .3 -.02 .61 -.1 .22 -.06 1.5 -.48 .22 -.09 1.37 -.7 .21 -.13 1.24 -.9 .18 -.16 1.09 -1.11 .16 -.18 .94 -1.29 .11 -.19 .79 -1.47 .08 -.18 .62 -1.66 .06 -.17 .45 -1.81 .03 -.16 .29 -1.97 .02 -.13 .12 -2.11 0 -.13 -.05 -2.23 -.01 -.11 -.17 -1.86 .58 -1.02 .81 -1.45 .82 -1.44 2.46 -4.33 .82 -1.44 .82 -1.44 .82 -1.45 .57 -1.01 .29 .46 .1 .14 .59 .74 .13 .14 .66 .64 .15 .12 .73 .55 .16 .11 .79 .44 .18 .09 .84 .34 .18 .07 .89 .24 .18 .03 .94 .14 .17 .01 .98 .02 .16 0 1 -.08 .16 -.02 .99 -.19 -.48 .85 -1.01 1.77 -1.01 1.78 -1 1.78 -1.01 1.77 -1.01 1.78 -1.01 1.78 -1.01 1.77 -1.01 1.78 -2.01 3.55 -1.01 1.78 -1.01 1.77 -1.01 1.78 -2.01 3.55 -1.01 1.78 -1.01 1.78 -.11 .25 -.07 .26 -.02 .28 .03 .27 .48 2.45 .27 2.24 .07 2.07 -.13 1.88 -.32 1.68 -.5 1.47 -.66 1.26 -.81 1.05 -.96 .87 -1.12 .68 -1.29 .5 -1.49 .32 -1.66 .11 -1.84 -.1 -2 -.32 -2.14 -.55 -.9 -.31 -.3 -.07 -.3 -.02 -.3 .05 -.29 .11 -.26 .16 -.22 .2 -.18 .25 -.12 .28 -.07 .29 -.01 .31 .04 .3 .11 .28 .16 .26 .21 .22 .24 .18 .28 .13 .97 .33 .11 .03 2.27 .59 .14 .03 2.15 .34 .16 .02 2.02 .11 .19 0 1.86 -.12 .22 -.04 1.71 -.36 .24 -.07 1.54 -.6 .25 -.12 1.36 -.83 .23 -.17 1.17 -1.06 .2 -.21 .97 -1.27 .15 -.23 .77 -1.48 .1 -.22 .57 -1.69 .05 -.2 .36 -1.88 .02 -.18 .15 -2.05 0 -.16 -.07 -2.22 -.01 -.13 -.29 -2.37 -.01 -.12 -.39 -1.93 .73 -1.28 1 -1.78 2.02 -3.55 1.01 -1.78 1.01 -1.77 1 -1.78 2.02 -3.55 1.01 -1.78 1.01 -1.77 1.01 -1.78 1 -1.78 1.01 -1.77 1.01 -1.78 1.01 -1.78 1.01 -1.77 1 -1.78 1.01 -1.77 .43 -.75 .08 -.05 .09 -.05 1.05 -.69 .08 -.06 1.03 -.78 .07 -.06 .1 -.08 .21 .57 .06 .15 .45 .9 .08 .15 .52 .82 .1 .14 .59 .73 .13 .14 .66 .64 .15 .13 .72 .55 .17 .11 .78 .44 .18 .09 .84 .34 .19 .06 .89 .24 .18 .04 .55 .08 -1.4 2.46 -1.2 2.11 -2.39 4.22 -1.2 2.11 -2.4 4.22 -1.19 2.11 -4.79 8.44 -1.2 2.11 -2.39 4.22 -1.2 2.11 -2.39 4.21 -1.2 2.11 -1.2 2.11 -1.2 2.11 -1.19 2.11 -2.4 4.22 -.12 .28 -.07 .3 -.01 .31 .06 .31 .75 2.6 .49 2.37 .25 2.17 0 1.94 -.23 1.71 -.43 1.46 -.63 1.22 -.81 1 -1 .81 -1.22 .62 -1.45 .42 -1.7 .22 -1.94 -.02 -2.15 -.26 -2.36 -.51 -2.53 -.76 -2.69 -1.01 -2.82 -1.26 -1.97 -1 -.29 -.11 -.3 -.06 -.3 .01 -.3 .07 -.27 .12 -.25 .17 -.21 .22 -.17 .26 -.11 .28 -.05 .3 .01 .3 .06 .3 .12 .28 .18 .25 .22 .21 .25 .16 2.02 1.02 .07 .04 2.9 1.29 .08 .03 2.78 1.05 .1 .03 2.64 .79 .12 .03 1.8 .4 -1.06 1.22 -.15 .2 -.11 .22 -.64 1.53 -.8 1.27 -1.01 1.15 -1.22 1.01 -1.43 .88 -1.65 .72 -1.86 .56 -2.06 .39 -2.25 .22 -2.13 .02 -.3 .03 -.29 .1 -.26 .14 -.24 .2 -.19 .24 -.14 .26 -.08 .3 -.03 .3 .04 .3 .09 .29 .14 .27 .2 .23 .24 .19 .27 .14 .29 .09 .3 .02 2.19 -.02 .13 -.01 2.39 -.23 .14 -.02 2.21 -.42 .16 -.04 2.03 -.61 .17 -.07 1.83 -.8 .18 -.09 1.62 -.99 .19 -.13 1.4 -1.16 .17 -.17 1.17 -1.33 .15 -.2 .93 -1.5 .12 -.22 .59 -1.41 1.82 -2.1 .01 0 .43 -.51 1.73 .02 .21 -.01 1.93 -.25 .24 -.05 1.71 -.5 .27 -.1 1.49 -.76 .19 -.13 -1.4 1.66 -2.2 2.56 -2.22 2.55 -2.24 2.54 -2.26 2.53 -2.28 2.52 -2.3 2.51 -2.32 2.5 -.2 .26 -.89 1.5 -.92 1.42 -.98 1.37 -1.01 1.31 -.49 .57 -.17 .25 -.12 .28 -.07 .3 0 .3 .05 .3 .12 .28 .16 .26 .21 .22 .25 .17 .28 .12 .3 .06 .3 .01 .3 -.06 .28 -.11 .26 -.16 .22 -.21 .51 -.6 .04 -.06 1.05 -1.36 .04 -.05 1.01 -1.42 .04 -.05 .96 -1.48 .03 -.05 .82 -1.38 2.22 -2.39 2.31 -2.52 .01 0 2.28 -2.53 .01 -.01 2.27 -2.53 0 -.01 2.25 -2.55 0 -.01 2.23 -2.56 .01 0 2.2 -2.58 .01 0 2.19 -2.58 0 -.01 2.17 -2.6 .01 0 1.58 -1.92 .01 0 2.16 .62 .12 .03 1.9 .38 .17 .03 .89 .08 -1.51 1.84 -.26 .31 -2.12 2.55 -.27 .32 -2.14 2.53 -.28 .32 -2.15 2.51 -.28 .33 -2.17 2.49 -.29 .34 -2.19 2.47 -.3 .33 -2.21 2.47 -.29 .32 -2.24 2.46 -.29 .32 -2.26 2.45 -.29 .31 -2.3 2.45 -.28 .3 -2.33 2.46 -.27 .27 -2.37 2.47 -.25 .25 -2.42 2.47 -.22 .24 -2.47 2.49 -.36 .35 -1.33 1.32 -1.33 1.32 -.72 .71 -.19 .23 -.15 .27 -.09 .29 -.03 .3 .03 .3 .08 .3 .14 .27 .19 .23 .24 .2 .26 .14 .29 .09 .31 .04 .3 -.03 .29 -.09 .27 -.14 .24 -.19 .72 -.71 1.34 -1.32 0 -.01 1.33 -1.32 0 -.01 .36 -.36 .01 0 2.47 -2.49 0 -.01 .24 -.23 0 -.01 .19 -.19 -.01 .04 -.7 3.89 -.7 3.89 -.7 3.9 -.7 3.89 -.7 3.9 -.69 3.89 -.7 3.89 -.7 3.9 -.7 3.89 -1.4 7.79 -.7 3.89 -.7 3.9 -.7 3.89 -.7 3.9 -.7 3.89 -1.39 7.79 -.7 3.89 -.7 3.89 -1.4 7.79 -.7 3.9 -.7 3.89 -.7 3.89 -.7 3.9 -.7 3.89 -.57 3.18 -.02 .3 .03 .3 .1 .29 .15 .27 .19 .23 .24 .19 .27 .14 .29 .08 .31 .02 .3 -.03 .29 -.1 .26 -.14 .24 -.2 .18 -.24 .14 -.27 .08 -.29 .57 -3.18 .7 -3.89 .7 -3.9 .7 -3.89 .7 -3.9 .7 -3.89 1.4 -7.79 .7 -3.89 .7 -3.9 1.4 -7.78 .69 -3.9 .7 -3.89 .7 -3.89 .7 -3.9 .7 -3.89 1.4 -7.79 .7 -3.89 .7 -3.9 .7 -3.89 .7 -3.9 .7 -3.89 .69 -3.89 .7 -3.9 .7 -3.89 .7 -3.9 .16 -.85 3.04 .93 .08 .02 3.22 .8 -.51 3.89 -.51 3.92 -.52 3.92 -.52 3.92 -.52 3.91 -.53 3.92 -.54 3.92 -.54 3.91 -.54 3.91 -.55 3.92 -.56 3.91 -.56 3.91 -.57 3.91 -.57 3.91 -.59 3.9 -.59 3.91 -.59 3.91 -.61 3.9 -.61 3.9 -.62 3.9 -.63 3.91 -.64 3.9 -.64 3.89 -.65 3.9 -.65 3.91 -.65 3.9 -.64 3.9 -.65 3.9 -.65 3.9 -.65 3.9 -.65 3.9 -.02 .3 .02 .62 -.02 .55 -.06 .54 -.09 .52 -.12 .49 -.15 .47 -.18 .43 -.21 .39 -.22 .36 -.25 .32 -.26 .28 -.27 .24 -.29 .2 -.3 .16 -.31 .13 -.32 .1 -.33 .06 -.34 .02 -.36 -.01 -.37 -.05 -.37 -.1 -.39 -.13 -.4 -.18 -.39 -.22 -.39 -.26 -.23 -.17 -.25 -.17 -.29 -.11 -.29 -.05 -.31 .01 -.3 .06 -.27 .13 -.25 .17 -.21 .22 -.17 .26 -.11 .28 -.05 .3 .01 .3 .06 .3 .13 .28 .17 .25zM399.16 326.39l.2 .09 -1.06 1.88 -.78 1.37 -1.54 2.71 -.64 1.06 -.68 1 -.73 .95 -.78 .89 -.81 .83 -.85 .77 -.87 .69 -.89 .62 -.9 .54 -.9 .45 -.9 .37 -.89 .29 -.87 .19 -.85 .12 -.82 .02 -.79 -.05 -.75 -.13 -.71 -.21 -.67 -.28 -.63 -.36 -.58 -.43 -.55 -.5 -.5 -.58 -.45 -.65 -.39 -.72 -.34 -.78 -.28 -.85 -.21 -.91 -.15 -.96 -.07 -1.01 0 -1.05 .08 -1.08 .15 -1.1 .22 -1.12 .3 -1.13 .37 -1.12 .44 -1.12 .5 -1.09 .58 -1.09 .77 -1.35 .18 -.32 .07 .01 .14 0 .4 0 .09 -.01 .4 -.03 .07 0 .4 -.05 .15 -.03 .39 -.09 .07 -.01 .38 -.11 .1 -.03 .38 -.13 .12 -.05 .36 -.16 .06 -.03 .36 -.17 .12 -.07 .34 -.21 .08 -.05 .18 -.12 .09 .2 .04 .08 .19 .35 .07 .12 .22 .33 .04 .06 .24 .32 .07 .1 .26 .3 .07 .08 .28 .29 .05 .04 .29 .27 .12 .11 .32 .24 .06 .04 .33 .23 .08 .05 .34 .2 .12 .07 .36 .17 .06 .03 .36 .16 .13 .05 .38 .13 .09 .02 .38 .1 .08 .02 .39 .09 .15 .02 .39 .05 .06 0 .4 .03 .14 .01 .4 -.01 .09 0 .4 -.03 .07 -.01 .4 -.04 .15 -.03 .39 -.09 .07 -.02 .38 -.1 .1 -.03 .38 -.13 .12 -.05 .36 -.16 .06 -.03 .36 -.17 .12 -.07 .34 -.21 .08 -.05 .18 -.13 .09 .2 .04 .09 .19 .35 .07 .12 .22 .33 .04 .06 .24 .32 .07 .1 .26 .3 .07 .08 .28 .28 .05 .05 .29 .27 .12 .1 .32 .25 .06 .04 .33 .22 .08 .06 .34 .2zM376.96 320.37l.07 .03 -.56 .99 -.02 .04 -.61 1.15 -.04 .08 -.55 1.17 -.03 .09 -.47 1.19 -.03 .09 -.4 1.21 -.03 .08 -.32 1.22 -.02 .09 -.24 1.21 -.02 .1 -.16 1.2 -.01 .1 -.08 1.19 -.01 .1 0 1.16 .01 .11 .08 1.13 .01 .12 .06 .37 -.06 .05 -.87 .7 -.89 .61 -.9 .54 -.9 .46 -.9 .37 -.89 .28 -.88 .2 -.85 .11 -.82 .03 -.78 -.06 -.75 -.13 -.71 -.21 -.67 -.28 -.63 -.36 -.59 -.43 -.54 -.5 -.5 -.58 -.45 -.64 -.4 -.72 -.33 -.79 -.28 -.85 -.21 -.91 -.15 -.96 -.07 -1.01 0 -1.05 .07 -1.08 .15 -1.1 .23 -1.12 .3 -1.12 .37 -1.13 .43 -1.11 .51 -1.1 .58 -1.09 2.35 -4.15 .24 .29 .08 .08 .27 .28 .05 .05 .29 .27 .12 .1 .32 .24 .06 .05 .33 .22 .08 .05 .34 .21 .12 .06 .36 .18 .06 .02 .36 .16 .14 .05 .37 .13 .09 .02 .38 .11 .08 .02 .39 .08 .15 .02 .39 .05 .06 .01 .4 .03 .14 0 .4 0 .09 -.01 .4 -.03 .07 0 .4 -.05 .15 -.03 .39 -.09 .07 -.01 .38 -.11 .1 -.03 .38 -.13 .12 -.04 .36 -.17 .06 -.02 .36 -.18 .12 -.07 .34 -.21 .08 -.05 .18 -.12 .09 .2 .04 .08 .19 .35 .07 .12 .22 .34 .04 .05 .24 .32 .07 .1 .26 .31 .07 .07 .28 .29 .05 .05 .29 .27 .12 .1 .32 .24 .06 .04 .33 .23 .08 .05 .34 .21zM360.1 315.01l.18 -.05 -1.78 3.14 -.02 .04 -.61 1.14 -.04 .08 -.54 1.18 -.03 .08 -.48 1.2 -.03 .08 -.39 1.21 -.03 .09 -.32 1.21 -.02 .1 -.25 1.21 -.01 .09 -.17 1.21 -.01 .1 -.08 1.18 0 .11 0 1.16 0 .11 .08 1.12 .02 .12 .05 .37 -.06 .06 -.87 .69 -.88 .62 -.9 .54 -.91 .45 -.9 .37 -.89 .28 -.87 .2 -.85 .11 -.82 .03 -.79 -.05 -.74 -.14 -.72 -.2 -.67 -.29 -.62 -.35 -.59 -.43 -.55 -.51 -.49 -.57 -.45 -.65 -.4 -.72 -.34 -.78 -.28 -.85 -.21 -.91 -.14 -.97 -.08 -1.01 0 -1.04 .08 -1.08 .15 -1.11 .22 -1.12 .3 -1.12 .37 -1.13 .44 -1.11 .51 -1.1 .58 -1.09 2.31 -4.08 .09 -.16 .25 .05 .14 .02 .39 .05 .06 0 .4 .04 .14 0 .4 0 .09 -.01 .4 -.03 .07 0 .4 -.05 .16 -.03 .38 -.09 .07 -.01 .38 -.11 .11 -.03 .37 -.13 .12 -.05 .36 -.16 .06 -.03 .36 -.17 .12 -.07 .34 -.21 .08 -.05 .18 -.12 .09 .2 .04 .08 .19 .35 .08 .12 .22 .33 .03 .06 .24 .32 .07 .1 .26 .3 .08 .08 .27 .28 .05 .05 .29 .27 .12 .11 .32 .24 .06 .04 .33 .23 .08 .05 .34 .2 .12 .07 .36 .17 .06 .03 .36 .16 .14 .05 .37 .12 .09 .03 .38 .1 .08 .02 .4 .09 .14 .02 .39 .05 .06 0 .4 .03 .14 .01 .4 -.01 .09 0 .4 -.03 .07 -.01 .4 -.05 .16 -.02 .38 -.09zM337.57 331.94l.94 -.66 .32 .75 .07 .13 .47 .86 .09 .13 .54 .78 .1 .13 .61 .71 .12 .12 .67 .62 .14 .11 .73 .54 .15 .1 .78 .44 .16 .08 .84 .36 .16 .05 .88 .26 .17 .04 .92 .16 .16 .02 .77 .06 -.2 .35 -.75 1.33 -1.52 2.67 -.75 1.33 -.76 1.33 -.76 1.34 -.75 1.33 -.02 .04 -.68 1.27 -.04 .07 -.61 1.3 -.03 .07 -.55 1.32 -.03 .08 -.46 1.33 -.03 .08 -.39 1.33 -.02 .08 -.3 1.33 -.02 .09 -.23 1.31 -.01 .09 -.14 1.29 -.01 .1 -.05 1.26 -.01 .1 .03 1.22 .01 .11 .07 .66 -.37 .35 -.94 .8 -.95 .73 -.96 .63 -.97 .54 -.95 .45 -.94 .35 -.91 .26 -.88 .16 -.84 .07 -.8 -.02 -.75 -.1 -.7 -.19 -.66 -.27 -.61 -.35 -.57 -.42 -.52 -.51 -.48 -.59 -.43 -.68 -.37 -.76 -.31 -.83 -.25 -.92 -.17 -.98 -.11 -1.05 -.02 -1.11 .05 -1.15 .13 -1.19 .21 -1.22 .29 -1.24 .36 -1.25 .44 -1.25 .51 -1.25 .58 -1.23 .65 -1.22 .75 -1.32 .76 -1.33 .75 -1.34 .76 -1.33 .76 -1.33 .75 -1.34 .76 -1.33 .76 -1.33 .76 -1.34 .32 -.56 .9 -.29 .12 -.04 1.01 -.42 .11 -.05 1.01 -.51 .09 -.05 1 -.59zM350.62 338.27l.58 -1.03 .9 -.28 .12 -.05 1.01 -.41 .11 -.05 1.01 -.51 .1 -.05 .99 -.6 .09 -.06 .95 -.65 .32 .75 .06 .13 .48 .85 .08 .14 .54 .78 .1 .13 .61 .7 .12 .13 .67 .62 .14 .11 .73 .54 .15 .09 .79 .45 .16 .08 .83 .35 .17 .06 .88 .26 .16 .04 .92 .16 .16 .02 .78 .05 -.47 .82 -.75 1.33 -1.52 2.67 -.75 1.33 -.76 1.34 -.76 1.33 -.02 .03 -.68 1.28 -.03 .07 -.62 1.3 -.03 .07 -.54 1.32 -.03 .08 -.46 1.33 -.03 .08 -.39 1.33 -.02 .08 -.31 1.33 -.02 .09 -.22 1.31 -.01 .09 -.14 1.29 -.01 .1 -.06 1.25 0 .11 .03 1.21 .01 .12 .06 .66 -.36 .34 -.94 .81 -.95 .72 -.97 .64 -.96 .54 -.95 .45 -.94 .35 -.91 .26 -.88 .16 -.84 .07 -.8 -.02 -.75 -.11 -.71 -.19 -.65 -.26 -.61 -.35 -.57 -.43 -.52 -.51 -.48 -.59 -.43 -.67 -.37 -.76 -.31 -.84 -.25 -.91 -.18 -.99 -.1 -1.05 -.03 -1.1 .06 -1.15 .13 -1.19 .21 -1.22 .28 -1.24 .37 -1.25 .44 -1.26 .51 -1.24 .58 -1.23 .65 -1.23 .75 -1.31 .75 -1.34 .76 -1.33 .76 -1.33 1.51 -2.67 .76 -1.33zM369.07 340.7l.1 -.16 .9 -.29 .11 -.04 1.02 -.42 .11 -.05 1 -.5 .1 -.06 1 -.59 .08 -.06 .95 -.66 .32 .75 .07 .14 .47 .85 .08 .13 .54 .79 .11 .13 .6 .7 .12 .12 .68 .62 .13 .12 .73 .53 .15 .1 .79 .45 .16 .07 .84 .36 .16 .06 .88 .26 .17 .04 .91 .16 .17 .02 .95 .06 .15 .01 .98 -.04 .15 -.01 .99 -.13 .14 -.03 1.01 -.22 .13 -.04 1.01 -.32 .12 -.04 1.01 -.42 .11 -.05 .98 -.49 -.59 1.02 -.75 1.34 -.76 1.33 -.76 1.33 -.75 1.34 -.76 1.33 -.76 1.33 -.75 1.34 -.76 1.33 -1.51 2.67 -.76 1.33 -.76 1.33 -.75 1.32 -.71 1.19 -.76 1.13 -.81 1.07 -.85 1.02 -.88 .96 -.92 .88 -.94 .81 -.96 .72 -.96 .63 -.96 .55 -.95 .45 -.94 .35 -.91 .26 -.88 .16 -.84 .07 -.8 -.02 -.75 -.11 -.71 -.19 -.66 -.27 -.61 -.34 -.56 -.43 -.53 -.51 -.47 -.59 -.43 -.67 -.37 -.76 -.31 -.84 -.25 -.91 -.18 -.99 -.1 -1.05 -.03 -1.1 .05 -1.15 .13 -1.2 .21 -1.22 .29 -1.24 .36 -1.25 .44 -1.25 .52 -1.25 .58 -1.23 .65 -1.22 .75 -1.31 .75 -1.34 .76 -1.33 1.51 -2.67 .76 -1.33 .76 -1.34zM380.01 366.18l.66 -.89 -.8 1.39 -.32 .54 -.7 1.19 -.37 .64 -.66 1.12 -.38 .64 -.7 1.18 -.33 .56 -.99 1.65 -.04 .07 -1.03 1.72 -.33 .53 -.72 1.19 -.38 .63 -.68 1.11 -.39 .63 -.72 1.17 -.34 .55 -1.03 1.66 -.03 .04 -1.07 1.7 -.33 .54 -.74 1.17 -.4 .62 -.7 1.1 -.4 .63 -.74 1.15 -.35 .55 -1.07 1.66 -.02 .02 -1.1 1.68 -.35 .54 -.76 1.15 -.41 .62 -.72 1.09 -.41 .61 -.77 1.15 -.35 .53 -1.13 1.67 -1.13 1.66 -.36 .53 -.78 1.14 -.43 .61 -.74 1.07 -.42 .61 -.79 1.14 -.37 .52 -1.16 1.65 -.01 .01 -1.16 1.63 -.37 .52 -.81 1.13 -.43 .6 -.77 1.06 -.44 .6 -.82 1.13 -.37 .51 -1.2 1.63 -.02 .03 -1.18 1.59 -.39 .52 -.83 1.1 -.84 1.12 -1.1 1.45 -1.1 1.44 -1.11 1.44 -1.12 1.44 -1.12 1.44 -1.12 1.43 -.08 .1 -.25 -.75 -.07 -.17 -.8 -1.7 -.06 -.12 -1.11 -1.89 -.05 -.09 -1.39 -2.08 -.05 -.06 -.97 -1.3 .72 -.94 .01 -.01 1.43 -1.87 .01 -.01 1.42 -1.88 .01 -.01 1.42 -1.88 0 -.01 1.41 -1.89 0 -.01 1.4 -1.89 .01 -.01 1.39 -1.9 0 -.01 1.38 -1.9 .01 -.01 1.37 -1.91 0 -.01 1.36 -1.92 .01 0 1.35 -1.92 0 -.01 1.35 -1.93 1.34 -1.94 1.33 -1.94 0 -.01 1.32 -1.94 1.31 -1.95 .01 -.01 1.3 -1.95 0 -.01 1.29 -1.95 .01 -.01 1.28 -1.96 0 -.01 1.28 -1.96 0 -.01 1.27 -1.97 0 -.01 1.26 -1.97 0 -.01 1.25 -1.98 .01 -.01 1.24 -1.98 0 -.01 1.24 -1.99 1.23 -2 .43 -.71 .36 .05 .18 .01 .97 .03 .17 -.01 1 -.08 .15 -.02 1.03 -.19 .14 -.03 1.04 -.3 .13 -.04 1.06 -.4 .11 -.04 1.06 -.5 .1 -.06 1.06 -.59 .09 -.06 1.05 -.69 .08 -.06 1.04 -.78 .07 -.06 1.01 -.86 .07 -.06 .98 -.95 .06 -.06 .94 -1.02 .06 -.06 .9 -1.08zM361.42 372.85l.59 .34 -.03 .05 -1.23 1.99 -1.23 1.99 -1.24 1.98 -1.25 1.97 -1.25 1.97 -1.27 1.97 -1.27 1.96 -1.28 1.96 -1.29 1.95 -1.29 1.95 -1.31 1.94 -1.31 1.94 -1.32 1.93 -1.34 1.93 -1.34 1.92 -1.35 1.92 -1.35 1.91 -1.37 1.91 -1.38 1.9 -1.38 1.9 -1.4 1.89 -1.4 1.89 -1.42 1.88 -1.42 1.87 -1.43 1.87 -1.45 1.87 -.15 .24 -.11 .27 -.05 .28 0 .29 .05 .28 .1 .27 .15 .25 1.65 2.21 1.35 2.01 1.04 1.79 .74 1.56 .42 1.28 .14 .94 -.07 .56 -.14 .28 -.27 .21 -.59 .2 -1.02 .08 -1.41 -.12 -1.74 -.35 -2.05 -.6 -2.33 -.83 -1.15 -.47 .1 -.74 .01 -.21 0 -2.13 -.01 -.17 -.26 -2.33 -.03 -.14 -.51 -2.5 -.03 -.12 -.59 -2.03 2.07 -3.65 1.2 -2.11 1.2 -2.11 1.19 -2.11 1.2 -2.11 2.4 -4.21 1.19 -2.11 2.4 -4.22 1.19 -2.11 4.79 -8.44 1.2 -2.11 2.4 -4.22 1.19 -2.11 2.4 -4.22 1.19 -2.11 2.36 -4.15 .23 -.05 .14 -.03 1.05 -.29 .12 -.04 1.06 -.4 .11 -.05 1.06 -.5 .11 -.05 1.05 -.6 .09 -.06 1.05 -.69 .09 -.05 1.03 -.79 .07 -.05 .09 -.08 .22 .57 .06 .14 .44 .91 .08 .14 .52 .82 .11 .15 .59 .73 .13 .14 .66 .64 .14 .13 .73 .54zM321.44 437.17l-.43 .52 .13 -.25 .11 -.26 .02 -.08z" fill="#15242B" fill-rule="evenodd"/><circle cx="397.0202796836539" cy="170.9920571261051" r="6.6" fill="#B08D57"/><circle cx="397.0202796836539" cy="170.9920571261051" r="3.15" fill="#15242B"/><line x1="0" y1="90" x2="750" y2="90" stroke="#AE2F2B" stroke-width="0.8"/><line x1="0" y1="640" x2="750" y2="640" stroke="#AE2F2B" stroke-width="0.8"/></svg>