<svg xmlns="http://www.w3.org/2000/svg" viewBox="160 200 110 280" width="330" height="840"><rect x="160" y="200" width="110" height="280" fill="#F4EFE3"/><path d="M232.46 367.15l-.32 -2.71 .32 2.72 6.72 57.57 -.04 .52 .03 -.1 -.35 1.38 -.27 1.4 -.21 1.41 -.15 1.42 -.07 1.44 -.01 1.44 .06 1.45 .07 .78 .61 -.47 -.53 .41 .03 -.02 .34 -.15 .37 -.05 .37 .03 .35 .12 .31 .21 .25 .27 .17 .33 .09 .36 -.32 -2.77 3.2 27.45 .02 .35 -.01 .34 -.05 .34 -.07 .34 -.11 .32 -.14 .31 -.18 .3 -.2 .28 -.22 .26 -.25 .24 -.27 .2 -.29 .19 -.31 .15 -.32 .12 -.34 .09 -.33 .06 -.35 .02 -.34 -.01 -.34 -.05 -.34 -.07 -.32 -.11 -.31 -.14 -.3 -.18 -.28 -.2 -.26 -.22 -.24 -.25 -.2 -.27 -.19 -.29 -.15 -.31 -.12 -.32 -.09 -.34 -.06 -.33 -7.35 -62.99 .32 2.72 .01 -.39 .1 -.38 .2 -.34 .28 -.27 .34 -.19 .38 -.1 .39 .01 .23 .06 .01 0 .09 .02 .09 .04 -.08 -.76 -.22 -1.35 -.29 -1.33 -.35 -1.31 -.42 -1.28 -.48 -1.26 -.54 -1.22 -.6 -1.2 -.43 -.76 .01 .03 -.15 -.27 .14 .24 -.11 -.25 -.06 -.29 .03 .3 -8.62 -73.92 .01 -.39 .1 -.38 .2 -.33 .29 -.28 .34 -.19 .38 -.09 -1.49 .17 5.46 -.64 .39 .01 .38 .11 .33 .2 .28 .28 .19 .34 .09 .38 -.17 -1.49 4.86 41.68 .01 .32 -.06 .3 -.36 1.13 -.29 1.18 -.24 1.19 -.17 1.21 -.1 1.22 -.04 1.23 .02 1.24 .1 1.24 .08 .57 .11 -.08 .05 -.03 0 .01 .25 -.14 .37 -.09 .39 .01 .38 .11 .33 .2 .27 .28 .19 .34z" fill="#1D5A55"/>
<path d="M237.23 438.22l-.21 -1.52 -.14 -1.52 -.07 -1.51 .01 -1.5 .08 -1.5 .15 -1.49 .21 -1.47 .29 -1.46 .36 -1.44 .42 -1.41 .49 -1.4 .55 -1.37 .62 -1.34 .68 -1.32 .74 -1.28 .81 -1.24 .86 -1.21 .92 -1.17 .98 -1.13 1.03 -1.09 1.09 -1.03 1.15 -.99 1.2 -.94 1.25 -.89 .21 1.52 .14 1.52 .07 1.51 -.01 1.5 -.08 1.5 -.15 1.49 -.21 1.47 -.29 1.46 -.36 1.44 -.42 1.42 -.49 1.39 -.56 1.37 -.61 1.35 -.68 1.31 -.74 1.28 -.81 1.25 -.86 1.21 -.92 1.17 -.98 1.12 -1.03 1.09 -1.09 1.04 -1.15 .99 -1.2 .94z" fill="#1D5A55"/>
<path d="M233.06 402.55l-1.37 -.5 -1.33 -.57 -1.29 -.63 -1.25 -.69 -1.2 -.75 -1.17 -.8 -1.11 -.86 -1.07 -.92 -1.02 -.96 -.97 -1.01 -.92 -1.06 -.86 -1.1 -.81 -1.14 -.74 -1.18 -.69 -1.22 -.63 -1.26 -.57 -1.28 -.51 -1.32 -.43 -1.34 -.38 -1.38 -.3 -1.39 -.23 -1.42 -.16 -1.44 -.09 -1.45 1.37 .5 1.33 .57 1.29 .63 1.25 .69 1.21 .75 1.16 .8 1.12 .86 1.07 .92 1.02 .96 .97 1.01 .91 1.06 .87 1.1 .8 1.14 .75 1.18 .69 1.22 .63 1.26 .57 1.28 .5 1.32 .44 1.34 .37 1.38 .3 1.39 .23 1.42 .16 1.44z" fill="#1D5A55"/>
<path d="M230.21 367.65l-.06 .04 -1.1 -9.41 .06 -.29 .31 -1.24 .38 -1.22 .45 -1.21 .5 -1.17 .57 -1.15 .63 -1.11 .69 -1.09 .75 -1.04 .81 -1.01 .86 -.97 .92 -.92 .97 -.88 1.02 -.82 1.07 -.78 1.13 -.72 .25 1.31 .17 1.32 .1 1.31 .03 1.31 -.04 1.3 -.11 1.29 -.18 1.27 -.25 1.27 -.32 1.24 -.38 1.22 -.44 1.21 -.51 1.17 -.57 1.15 -.63 1.11 -.69 1.09 -.74 1.04 -.81 1.01 -.86 .97 -.92 .92 -.97 .88 -1.02 .82z" fill="#1D5A55"/><path d="M234.33 283.28l.07 -.15 -.04 .12 -.08 .28 -.12 .27 -.11 .28 -.15 .26 -.15 .25 -.17 .24 -.18 .24 -.19 .22 -.21 .22 -.22 .2 -.22 .19 -.24 .17 -.25 .16 -.26 .15 -.27 .13 -.27 .11 -.28 .1 -.28 .09 -.29 .06 -.29 .05 -.3 .04 -.29 .02 -.3 0 -.29 -.02 -.3 -.03 -.29 -.05 -.29 -.07 -.28 -.08 -.28 -.1 -.28 -.11 -.26 -.14 -.26 -.14 -.25 -.16 -.24 -.17 -.23 -.19 -.22 -.2 -.21 -.21 -.2 -.22 -.17 -.24 -.18 -.24 -.14 -.26 -.15 -.25 -.12 -.28 -.11 -.27 -.09 -.28 -.08 -.29 -.04 .6 -.1 .58 -.08 .29 -.08 .28 -.12 .27 -.12 .28 -.14 .26 -.15 .25 -.17 .24 -.18 .24 -.19 .22 -.21 .22 -.22 .2 -.23 .19 -.24 .17 -.25 .16 -.25 .15 -.27 .13 -.27 .11 -.28 .1 -.29 .09 -.28 .06 -.3 .06 -.29 .03 -.3 .02 -.29 0 -.3 -.02 -.29 -.03 -.3 -.05 -.28 -.07 -.29 -.08 -.28 -.1 -.27 -.11 -.27 -.13 -.26 -.15 -.25 -.16 -.24 -.17 -.23 -.19 -.22 -.2 -.2 -.21 -.2 -.22 -.18 -.24 -.17 -.24 -.15 -.26 -.15 -.25 -.11 -.28 -.12 -.27 -.08 -.28 -.09 -.29 -.01 .3 -.02 .29 -.05 .3 -.05 .29 -.09 .28 -.08 .29 -.11 .27 -.12 .27 -.15 .26 -.14 .26 -.18 .24 -.17 .24 -.2 .22 -.2 .21 -.22 .2 -.23 .19 -.24 .17 -.25 .16 -.26 .15 -.26 .13 -.28 .12 -.28 .1 -.28 .08 -.29 .07 -.29 .05 -.29 .03 -.3 .02 -.3 0 -.29 -.01 -.3 -.04 -.29 -.05 -.29 -.06 -.28 -.09 -.28 -.1 -.28 -.11 -.26 -.13 -.26 -.14 -.25 -.17 -.24 -.17 -.23 -.19 -.22 -.19 -.2 -.22 -.2 -.22 -.18 -.23 -.18 -.24 -.14 -.26 -.06 -.11 .09 .13 .13 .1 .15 .06 .15 .02 .16 -.02 .15 -.07 .12 -.1 .1 -.12 .05 -.15 .02 -.16 -.34 -11.63 0 -.03 .01 .02 .13 .23 .14 .24 .01 .04 .15 .22 .01 .02 .12 .17 .11 .12 .14 .08 .16 .05 .16 0 .16 -.05 .14 -.08 .11 -.13 .08 -.14 .03 -.17 .59 -11.43 .01 -.02 0 .02 .06 .26 .05 .26 .02 .06 .08 .25 .01 .01 .08 .24 .03 .06 .11 .24 .01 .01 .12 .23 .03 .05 .14 .22 .01 .02 .15 .22 .03 .03 .16 .2 .02 .03 .18 .19 .03 .03 .18 .18 .04 .03 .2 .17 .02 .01 .2 .16 .05 .03 .22 .14 .01 .01 .23 .13 .06 .03 .23 .11 .01 0 .24 .11 .06 .02 .25 .08 .02 0 .25 .07 .05 .02 .25 .04 .03 .01 .26 .04 .05 0 .26 .02 .33 0 .26 -.01 .04 -.01 .26 -.03 .03 0 .26 -.05 .04 -.01 .25 -.06 .03 -.01 .25 -.07 .05 -.02 .24 -.1 .02 -.01 .24 -.1 .05 -.02 .23 -.13 .01 -.01 .23 -.13 .05 -.04 .21 -.16 .01 0 .2 -.16 .05 -.05 .19 -.18 .01 0 .18 -.19 .04 -.04 .16 -.2 .02 -.02 .16 -.21 .02 -.04 .14 -.22 .02 -.03 .13 -.23 .02 -.03 .11 -.23 .02 -.04 .09 -.25 .01 -.02 .09 -.25 .01 -.05 .07 -.25 0 -.02 .06 -.25 .01 -.07 .03 -.26 0 -.01 .02 -.25 0 -.34 -.01 -.24 -.02 -.17 -.08 -.15 -.1 -.12 -.14 -.09 -.16 -.05 -.17 0 -6.91 .8 -.03 0 -.01 -.03 -.84 -8.04 0 -.01 -.04 -.47 0 -.02 -.01 -.47 0 -.02 .02 -.47 .01 -.02 .05 -.47 0 -.02 .08 -.46 .01 -.02 .11 -.46 .01 -.02 .14 -.45 .01 -.02 .17 -.44 .01 -.01 .2 -.43 .01 -.02 .23 -.41 .01 -.02 .25 -.39 .01 -.02 .28 -.38 .01 -.01 .31 -.36 .01 -.02 .33 -.34 .01 -.01 .35 -.32 .02 -.01 .36 -.29 .02 -.01 .39 -.27 .01 -.01 .41 -.25 .02 -.01 .41 -.21 .02 -.01 .43 -.19 .02 -.01 .45 -.16 .01 0 .46 -.13 .02 -.01 .46 -.1 .02 0 .46 -.07 .02 0 .47 -.04 .02 0 .47 -.01 .02 0 .47 .02 .02 0 .47 .06 .02 0 .46 .08 .02 .01 .46 .11 .02 .01 .45 .14 .01 .01 .44 .17 .02 .01 .43 .2 .01 .01 .42 .22 .01 .01 .4 .26 .02 .01 .38 .28 .01 .01 .36 .31 .01 .01 .34 .33 .02 .01 .31 .35 .02 .01 .29 .37 .01 .02 .27 .39 .01 .01 .24 .41 .01 .01 .22 .42 .01 .02 .19 .43 0 .02 .16 .44 .01 .02 .13 .45 0 .02 .1 .46 .01 .02 .07 .48 1.04 8.02 0 .03 -.04 .01 -6.91 .81 -.16 .04 -.14 .08 -.12 .12 -.07 .15 -.04 .16 .01 .17 .05 .23 0 .01 .06 .25 .02 .07 .08 .25 0 .01 .09 .24 .03 .06 .11 .23 0 .02 .13 .23 .02 .05 .14 .22 .02 .02 .15 .22 .02 .03 .17 .2 .02 .03 .18 .19 .02 .03 .19 .18 .03 .03 .21 .17 .01 .01 .21 .16 .05 .03 .22 .14 .01 .01 .22 .13 .06 .03 .24 .11 .01 0 .24 .11 .06 .02 .24 .08 .02 0 .26 .07 .05 .02 .25 .04 .03 .01 .26 .03 .04 .01 .26 .02 .34 0 .26 -.01 .03 -.01 .26 -.03 .04 0 .26 -.05 .03 -.01 .26 -.06 .03 -.01 .25 -.08 .04 -.01 .25 -.1 .02 -.01 .24 -.1 .04 -.03 .23 -.12 .02 -.01 .22 -.14 .05 -.03 .21 -.16 .01 0 .21 -.16 .05 -.05 .18 -.18 .01 0 .19 -.19 .04 -.05 .16 -.2 .01 -.01 .16 -.21 .03 -.04 .14 -.22 .02 -.03 .13 -.23 .01 -.03 .12 -.23 .01 -.04 .1 -.25 .01 -.02 .08 -.25 .02 -.05 .06 -.25 .01 -.02 .05 -.25 .01 -.07 .03 -.26 0 -.01 .03 -.25 0 -.07 -.01 -.27 0 -.28 .01 .02 3.21 10.99 .06 .15 .11 .12 .14 .1 .15 .05 .17 .01 .16 -.04 .14 -.08 .12 -.12 .08 -.14 .08 -.19 .01 -.02 .08 -.25 .01 -.04 .15 -.51 .01 -.03 .01 .03 2.34 11.39 .05 .15 .09 .13 .13 .11 .14 .06 .16 .03 .15 -.01 .15 -.06 .13 -.09zM234.54 282.41l.01 -.03zM204.18 286.46l.03 .06zM234.44 282.99l.01 -.06zM203.95 285.91l.01 .04z" fill="#AE2F2B"/><path d="M227.775 387.43L219.395 315.573M240.433 435.482L243.48 461.59L243.5 461.94L243.49 462.28L243.44 462.62L243.37 462.96L243.26 463.28L243.12 463.59L242.94 463.89L242.74 464.17L242.52 464.43L242.27 464.67L242 464.87L241.71 465.06L241.4 465.21L241.08 465.33L240.74 465.42L240.41 465.48L240.06 465.5L239.72 465.49L239.38 465.44L239.04 465.37L238.72 465.26L238.41 465.12L238.11 464.94L237.83 464.74L237.57 464.52L237.33 464.27L237.13 464L236.94 463.71L236.79 463.4L236.67 463.08L236.58 462.74L236.52 462.41L229.33 400.756" stroke="#15242B" stroke-width="3.1" fill="none" stroke-linecap="round" stroke-linejoin="round"/>
<path d="M237.226 438.221A31.4 31.4 0 0 1 250.699 407.004A31.4 31.4 0 0 1 237.226 438.221ZM233.064 402.552A28.1 28.1 0 0 1 213.961 376.88A28.1 28.1 0 0 1 233.064 402.552ZM231.141 352.45L231.822 351.106L233.469 348.653L235.419 346.407L237.658 344.4L240.172 342.662L240.632 345.684L240.707 348.69L240.41 351.649L239.755 354.53L238.756 357.299L237.426 359.926L235.779 362.379L233.829 364.625L232.681 365.654" stroke="#15242B" stroke-width="3.1" fill="none" stroke-linecap="round" stroke-linejoin="miter" stroke-miterlimit="10"/>
<path d="M203.8 285.41l0 .01 .07 .24 .08 .25 .02 .07 .1 .24 .11 .24 .03 .06 .07 .12 .09 .13 .13 .1 .15 .06 .15 .02 .16 -.02 .15 -.07 .12 -.1 .1 -.12 .05 -.15 .02 -.16 -.34 -11.63 0 -.03 .01 .02 .13 .23 .14 .24 .01 .04 .15 .22 .01 .02 .12 .17 .11 .12 .14 .08 .16 .05 .16 0 .16 -.05 .14 -.08 .11 -.13 .08 -.14 .03 -.17 .59 -11.43 .01 -.02 0 .02 .06 .26 .05 .26 .02 .06 .08 .25 .01 .01 .08 .24 .03 .06 .11 .24 .01 .01 .12 .23 .03 .05 .14 .22 .01 .02 .15 .22 .03 .03 .16 .2 .02 .03 .18 .19 .03 .03 .18 .18 .04 .03 .2 .17 .02 .01 .2 .16 .05 .03 .22 .14 .01 .01 .23 .13 .06 .03 .23 .11 .01 0 .24 .11 .06 .02 .25 .08 .02 0 .25 .07 .05 .02 .25 .04 .03 .01 .26 .04 .05 0 .26 .02 .03 0 .26 0 .04 0 .26 -.01 .04 -.01 .26 -.03 .03 0 .26 -.05 .04 -.01 .25 -.06 .03 -.01 .25 -.07 .05 -.02 .24 -.1 .02 -.01 .24 -.1 .05 -.02 .23 -.13 .01 -.01 .23 -.13 .05 -.04 .21 -.16 .01 0 .2 -.16 .05 -.05 .19 -.18 .01 0 .18 -.19 .04 -.04 .16 -.2 .02 -.02 .16 -.21 .02 -.04 .14 -.22 .02 -.03 .13 -.23 .02 -.03 .11 -.23 .02 -.04 .09 -.25 .01 -.02 .09 -.25 .01 -.05 .07 -.25 0 -.02 .06 -.25 .01 -.07 .03 -.26 0 -.01 .02 -.25 0 -.07 0 -.27 -.01 -.24 -.02 -.17 -.08 -.15 -.1 -.12 -.14 -.09 -.16 -.05 -.17 0 -6.91 .8 -.03 0 -.01 -.03 -.84 -8.04 0 -.01 -.04 -.47 0 -.02 -.01 -.47 0 -.02 .02 -.47 .01 -.02 .05 -.47 0 -.02 .08 -.46 .01 -.02 .11 -.46 .01 -.02 .14 -.45 .01 -.02 .17 -.44 .01 -.01 .2 -.43 .01 -.02 .23 -.41 .01 -.02 .25 -.39 .01 -.02 .28 -.38 .01 -.01 .31 -.36 .01 -.02 .33 -.34 .01 -.01 .35 -.32 .02 -.01 .36 -.29 .02 -.01 .39 -.27 .01 -.01 .41 -.25 .02 -.01 .41 -.21 .02 -.01 .43 -.19 .02 -.01 .45 -.16 .01 0 .46 -.13 .02 -.01 .46 -.1 .02 0 .46 -.07 .02 0 .47 -.04 .02 0 .47 -.01 .02 0 .47 .02 .02 0 .47 .06 .02 0 .46 .08 .02 .01 .46 .11 .02 .01 .45 .14 .01 .01 .44 .17 .02 .01 .43 .2 .01 .01 .42 .22 .01 .01 .4 .26 .02 .01 .38 .28 .01 .01 .36 .31 .01 .01 .34 .33 .02 .01 .31 .35 .02 .01 .29 .37 .01 .02 .27 .39 .01 .01 .24 .41 .01 .01 .22 .42 .01 .02 .19 .43 0 .02 .16 .44 .01 .02 .13 .45 0 .02 .1 .46 .01 .02 .07 .48 1.04 8.02 0 .03 -.04 .01 -6.91 .81 -.16 .04 -.14 .08 -.12 .12 -.07 .15 -.04 .16 .01 .17 .05 .23 0 .01 .06 .25 .02 .07 .08 .25 0 .01 .09 .24 .03 .06 .11 .23 0 .02 .13 .23 .02 .05 .14 .22 .02 .02 .15 .22 .02 .03 .17 .2 .02 .03 .18 .19 .02 .03 .19 .18 .03 .03 .21 .17 .01 .01 .21 .16 .05 .03 .22 .14 .01 .01 .22 .13 .06 .03 .24 .11 .01 0 .24 .11 .06 .02 .24 .08 .02 0 .26 .07 .05 .02 .25 .04 .03 .01 .26 .03 .04 .01 .26 .02 .03 0 .27 0 .04 0 .26 -.01 .03 -.01 .26 -.03 .04 0 .26 -.05 .03 -.01 .26 -.06 .03 -.01 .25 -.08 .04 -.01 .25 -.1 .02 -.01 .24 -.1 .04 -.03 .23 -.12 .02 -.01 .22 -.14 .05 -.03 .21 -.16 .01 0 .21 -.16 .05 -.05 .18 -.18 .01 0 .19 -.19 .04 -.05 .16 -.2 .01 -.01 .16 -.21 .03 -.04 .14 -.22 .02 -.03 .13 -.23 .01 -.03 .12 -.23 .01 -.04 .1 -.25 .01 -.02 .08 -.25 .02 -.05 .06 -.25 .01 -.02 .05 -.25 .01 -.07 .03 -.26 0 -.01 .03 -.25 0 -.07 -.01 -.27 0 -.26 0 -.02 .01 .02 3.21 10.99 .06 .15 .11 .12 .14 .1 .15 .05 .17 .01 .16 -.04 .14 -.08 .12 -.12 .08 -.14 .08 -.19 .01 -.02 .08 -.25 .01 -.04 .15 -.51 .01 -.03 .01 .03 2.34 11.39 .05 .15 .09 .13 .13 .11 .14 .06 .16 .03 .15 -.01 .15 -.06 .13 -.09 .1 -.12 .07 -.15 .04 -.14 .01 -.06 .05 -.26 .04 -.26 .01 -.07 .01 -.26 .02 -.26 0 -.01 0 .01 .34 11.07 .03 .15 .07 .15 .1 .12 .13 .09 .15 .06 .16 .01 .08 -.01 0 .04 -1.67 13.49 -.01 .03 -.04 .01 -1.78 .21 -.15 .04 -.14 .08 -.11 .1 -.08 .14 -.04 .15 -.01 .06 -.01 .03 -4.16 6.96 -.03 .03 -.04 .01 -8.95 1.05 -.04 0 -.04 -.03 -5.65 -5.81 -.02 -.03 -.02 -.05 -.08 -.14 -.11 -.12 -.13 -.08 -.15 -.04 -.16 0 -1.78 .21 -.03 -.01 -.02 -.03 -4.74 -12.74 0 -.04 .07 -.01 .15 -.05 .14 -.08 .11 -.12 .07 -.14 .03 -.16 -.01 -.16 -2.21 -10.84zM212.954 310.032L212.954 310.032L213.249 310.032L213.542 310.003L213.834 309.964L214.12 309.896L214.403 309.815L214.679 309.712L214.947 309.59L215.208 309.455L215.455 309.295L215.699 309.13L215.92 308.935L216.137 308.736L216.333 308.516L216.517 308.287L216.685 308.045L216.834 307.792L216.972 307.531L217.082 307.258L217.184 306.982L217.257 306.697L217.317 306.409L217.355 306.117L217.372 305.823L217.374 305.529L217.348 305.236L217.314 304.943L217.349 305.236L217.39 305.528L217.46 305.814L217.543 306.096L217.647 306.372L217.772 306.639L217.908 306.901L218.07 307.147L218.24 307.388L218.434 307.609L218.638 307.823L218.857 308.02L219.089 308.2L219.331 308.369L219.588 308.514L219.848 308.652L220.123 308.758L220.401 308.857L220.687 308.929L220.976 308.986L221.269 309.022L221.563 309.036L221.858 309.036L222.151 309.007L222.443 308.968L222.73 308.899L223.013 308.818L223.289 308.716L223.557 308.594L223.819 308.458L224.066 308.298L224.31 308.132L224.532 307.937L224.748 307.737L224.944 307.517L225.129 307.288L225.297 307.046L225.446 306.791L225.584 306.531L225.693 306.257L225.795 305.981L225.867 305.695L225.927 305.406L225.965 305.114L225.981 304.82L225.983 304.525L225.956 304.232L225.922 303.939L225.957 304.231L225.998 304.523L226.069 304.809L226.153 305.09L226.257 305.366L226.382 305.632L226.518 305.893L226.681 306.139L226.851 306.379L227.045 306.601L227.248 306.813L227.467 307.01L227.7 307.19L227.941 307.359L228.198 307.503L228.458 307.641L228.733 307.746L229.01 307.845L229.296 307.916L229.584 307.973L229.877 308.009L230.171 308.023L230.465 308.024L230.758 307.994L231.05 307.956L231.336 307.887L231.336 307.887M205.95 297.775L206.053 297.914L206.253 298.133L206.456 298.348L206.679 298.544L206.906 298.734L207.149 298.904L207.397 299.066L207.657 299.209L207.922 299.34L208.196 299.454L208.474 299.554L208.759 299.636L209.048 299.702L209.34 299.752L209.634 299.785L209.93 299.801L210.226 299.8L210.522 299.782L210.816 299.748L211.108 299.697L211.396 299.63L211.681 299.546L211.959 299.446L212.232 299.331L212.498 299.2L212.756 299.054L213.004 298.893L213.245 298.719L213.472 298.53L213.693 298.332L213.896 298.117L214.094 297.895L214.271 297.658L214.443 297.417L214.591 297.16L214.735 296.901L214.852 296.629L214.967 296.355L215.051 296.071L215.134 295.787L215.185 295.494L215.235 295.202L215.252 294.906L215.269 294.61L215.354 294.895L215.439 295.179L215.554 295.452L215.671 295.725L215.817 295.983L215.964 296.24L216.139 296.48L216.315 296.718L216.515 296.937L216.719 297.153L216.941 297.349L217.169 297.539L217.411 297.71L217.659 297.872L217.919 298.015L218.185 298.147L218.459 298.26L218.738 298.36L219.022 298.442L219.311 298.509L219.603 298.559L219.898 298.591L220.194 298.608L220.49 298.606L220.786 298.589L221.08 298.555L221.373 298.503L221.661 298.437L221.946 298.352L222.225 298.253L222.498 298.137L222.763 298.006L223.021 297.86L223.27 297.699L223.51 297.525L223.738 297.336L223.958 297.137L224.162 296.922L224.359 296.7L224.537 296.463L224.709 296.221L224.857 295.964L225.001 295.705L225.118 295.433L225.233 295.159L225.316 294.875L225.399 294.59L225.45 294.298L225.5 294.005L225.517 293.709L225.534 293.413L225.618 293.697L225.703 293.981L225.819 294.254L225.936 294.526L226.082 294.784L226.229 295.041L226.404 295.281L226.58 295.519L226.781 295.738L226.984 295.953L227.207 296.149L227.434 296.339L227.677 296.509L227.924 296.671L228.184 296.814L228.449 296.946L228.723 297.059L229.002 297.159L229.287 297.241L229.575 297.307L229.868 297.357L230.162 297.39L230.458 297.406L230.754 297.405L231.05 297.387L231.344 297.353L231.636 297.302L231.924 297.235L232.208 297.151L232.487 297.052L232.76 296.936L233.026 296.805L233.284 296.659L233.532 296.498L233.773 296.325L234 296.135L234.22 295.937L234.424 295.722L234.621 295.5L234.799 295.263L234.97 295.022L235.119 294.765L235.263 294.506L235.331 294.347M204.559 287.109L204.659 287.247L204.836 287.485L205.036 287.703L205.239 287.919L205.462 288.115L205.689 288.305L205.932 288.475L206.18 288.637L206.44 288.779L206.705 288.911L206.979 289.024L207.258 289.124L207.542 289.206L207.831 289.273L208.123 289.323L208.417 289.355L208.713 289.372L209.009 289.37L209.305 289.353L209.599 289.319L209.891 289.267L210.18 289.201L210.464 289.116L210.743 289.017L211.016 288.901L211.281 288.77L211.539 288.625L211.787 288.463L212.028 288.29L212.256 288.101L212.476 287.902L212.68 287.687L212.877 287.466L213.054 287.229L213.226 286.987L213.374 286.731L213.518 286.472L213.635 286.199L213.75 285.926L213.834 285.642L213.917 285.357L213.968 285.065L214.018 284.773L214.035 284.477L214.052 284.181L214.137 284.465L214.222 284.75L214.337 285.023L214.454 285.295L214.6 285.554L214.747 285.811L214.922 286.051L215.098 286.289L215.299 286.508L215.502 286.724L215.725 286.92L215.952 287.11L216.195 287.28L216.443 287.443L216.703 287.585L216.968 287.717L217.242 287.831L217.521 287.931L217.806 288.013L218.094 288.08L218.387 288.129L218.681 288.162L218.977 288.179L219.273 288.177L219.57 288.16L219.864 288.125L220.156 288.074L220.444 288.007L220.729 287.923L221.008 287.824L221.281 287.708L221.546 287.577L221.805 287.431L222.053 287.269L222.294 287.096L222.521 286.906L222.742 286.708L222.945 286.493L223.143 286.271L223.32 286.034L223.492 285.792L223.64 285.535L223.784 285.276L223.901 285.003L224.016 284.73L224.1 284.445L224.182 284.161L224.233 283.868L224.283 283.576L224.3 283.28L224.317 282.984L224.402 283.268L224.487 283.552L224.602 283.825L224.719 284.097L224.865 284.355L225.013 284.612L225.187 284.852L225.364 285.09L225.564 285.309L225.767 285.524L225.99 285.72L226.217 285.91L226.46 286.08L226.708 286.242L226.968 286.384L227.233 286.516L227.507 286.629L227.785 286.729L228.07 286.812L228.359 286.878L228.651 286.928L228.945 286.96L229.241 286.977L229.537 286.975L229.833 286.958L230.127 286.924L230.419 286.872L230.707 286.806L230.992 286.722L231.27 286.622L231.543 286.506L231.809 286.375L232.067 286.23L232.315 286.068L232.556 285.895L232.783 285.706L233.004 285.507L233.207 285.293L233.405 285.071L233.582 284.834L233.754 284.592L233.902 284.336L234.046 284.077L234.163 283.805L234.229 283.647M205.963 276.044L206.046 276.14L206.241 276.365L206.454 276.573L206.671 276.777L206.897 276.97L207.134 277.151L207.372 277.329L207.626 277.485L207.88 277.64L208.144 277.776L208.412 277.906L208.685 278.024L208.965 278.125L209.246 278.225L209.535 278.298L209.823 278.37L210.116 278.422L210.411 278.465L210.707 278.497L211.004 278.509L211.302 278.521L211.599 278.505L211.896 278.486L212.192 278.451L212.485 278.401L212.778 278.349L213.065 278.269L213.352 278.189L213.632 278.089L213.909 277.98L214.182 277.862L214.446 277.725L214.711 277.588L214.961 277.426L215.21 277.263L215.448 277.085L215.68 276.897L215.906 276.704L216.117 276.494L216.328 276.284L216.519 276.056L216.708 275.826L216.883 275.585L217.048 275.337L217.207 275.086L217.345 274.822L217.483 274.558L217.598 274.284L217.709 274.007L217.806 273.726L217.887 273.44L217.968 273.153L218.113 273.413L218.257 273.674L218.417 273.925L218.588 274.168L218.763 274.409L218.958 274.634L219.153 274.859L219.366 275.067L219.583 275.27L219.809 275.464L220.046 275.644L220.284 275.823L220.538 275.978L220.792 276.134L221.057 276.27L221.325 276.399L221.598 276.517L221.878 276.619L222.158 276.719L222.447 276.791L222.736 276.864L223.029 276.916L223.324 276.958L223.619 276.991L223.917 277.003L224.214 277.015L224.511 276.998L224.809 276.979L225.104 276.945L225.398 276.895L225.691 276.843L225.977 276.763L226.264 276.682L226.544 276.583L226.821 276.473L227.095 276.356L227.359 276.218L227.623 276.081L227.873 275.919L228.122 275.756L228.361 275.578L228.592 275.391L228.818 275.198L229.029 274.988L229.24 274.778L229.431 274.549L229.62 274.319L229.795 274.079L229.96 273.831L230.119 273.579L230.257 273.315L230.316 273.203" stroke="#15242B" stroke-width="3.1" fill="none" stroke-linecap="round" stroke-linejoin="round"/></svg>